<svg width="402" height="874" viewBox="0 0 402 874" fill="none" xmlns="http://www.w3.org/2000/svg">
<g id="1 - A - Launch">
<rect width="402" height="874" rx="40" fill="#F1FFF3"/>
<path id="Vector" fill-rule="evenodd" clip-rule="evenodd" d="M245.452 277.489C231.076 288.59 219.68 296.785 204.184 307.161C188.825 317.447 182.662 321.853 176.039 327.282C167.973 333.895 161.929 340.946 159.096 347.048C158.109 349.174 156.927 352.549 156.312 355.001C155.217 359.362 154.721 366.153 155.158 370.828C155.664 376.254 156.764 380.912 157.496 380.734C157.633 380.701 158.28 379.655 158.934 378.409C161.395 373.718 163.489 370.166 165.139 367.88C171.342 359.289 178.808 352.663 190.342 345.513C194.251 343.09 200.909 339.428 214.231 332.374C219.02 329.839 224.935 326.674 227.375 325.341C229.815 324.008 231.849 322.946 231.895 322.981C232.093 323.13 230.757 325.697 229.52 327.545C226.847 331.54 222.99 335.492 217.585 339.776C215.517 341.415 209.702 345.445 204.296 348.987C193.451 356.091 188.652 359.635 184.312 363.748C173.981 373.535 169.075 383.458 167.799 397.143C167.701 398.193 167.744 398.66 167.957 398.88C168.218 399.15 168.346 399.036 169.188 397.782C174.689 389.588 180.29 384.334 187.216 380.871C191.915 378.521 194.622 377.66 204.655 375.319C216.894 372.465 225.168 369.132 233.432 363.726C242.295 357.929 249.75 350.042 254.161 341.795C256.96 336.563 258.67 330.989 259.586 324.114C260.138 319.974 260.138 307.509 259.586 301.852C258.564 291.378 256.691 281.775 254.305 274.783C253.506 272.441 253.28 272 252.881 272C252.705 272 249.362 274.47 245.452 277.489Z" fill="#00D09E"/>
<path id="CashHeal" d="M90.2236 448.469C87.0602 448.469 84.3662 447.896 82.1414 446.749C79.9514 445.567 78.2828 443.863 77.1357 441.639C75.9885 439.379 75.415 436.615 75.415 433.348V425.891C75.415 422.728 75.9885 420.051 77.1357 417.861C78.3176 415.637 80.0209 413.951 82.2457 412.804C84.4705 411.622 87.1471 411.031 90.2757 411.031C94.6905 411.031 98.1145 412.021 100.548 414.003C102.981 415.95 104.528 418.783 105.189 422.502L98.9836 423.128C98.5316 420.555 97.6278 418.661 96.2721 417.444C94.9164 416.228 93.0219 415.619 90.5886 415.619C87.7381 415.619 85.5655 416.488 84.0707 418.226C82.5759 419.93 81.8286 422.502 81.8286 425.944V433.296C81.8286 436.876 82.5586 439.535 84.0186 441.274C85.4786 443.012 87.6512 443.881 90.5364 443.881C93.074 443.881 95.0381 443.203 96.4286 441.847C97.8538 440.491 98.7576 438.458 99.14 435.746L105.293 436.372C104.737 440.265 103.207 443.255 100.704 445.341C98.2362 447.426 94.7426 448.469 90.2236 448.469ZM130.144 438.301V430.376C130.144 428.186 129.483 426.587 128.162 425.579C126.876 424.536 124.843 424.014 122.062 424.014C120.393 424.014 118.707 424.24 117.004 424.692C115.3 425.144 113.701 425.787 112.207 426.621L111.32 422.241C112.363 421.65 113.58 421.146 114.97 420.729C116.395 420.312 117.855 419.982 119.35 419.739C120.88 419.495 122.322 419.374 123.678 419.374C128.058 419.374 131.326 420.295 133.481 422.137C135.636 423.945 136.714 426.691 136.714 430.376V448H131.76L130.144 438.301ZM120.862 448.469C117.63 448.469 115.092 447.757 113.25 446.331C111.407 444.871 110.486 442.855 110.486 440.283V439.188C110.486 436.581 111.407 434.565 113.25 433.139C115.127 431.679 117.734 430.949 121.071 430.949C124.617 430.949 127.398 431.645 129.414 433.035C131.465 434.425 132.49 436.407 132.49 438.979V440.126C132.49 442.734 131.465 444.785 129.414 446.279C127.363 447.739 124.512 448.469 120.862 448.469ZM122.635 445.028C124.93 445.028 126.72 444.559 128.006 443.62C129.327 442.681 129.987 441.413 129.987 439.814V439.136C129.987 437.606 129.362 436.424 128.11 435.59C126.859 434.721 125.121 434.286 122.896 434.286C120.845 434.286 119.246 434.704 118.099 435.538C116.952 436.372 116.378 437.641 116.378 439.344V439.97C116.378 441.569 116.934 442.82 118.047 443.724C119.159 444.593 120.689 445.028 122.635 445.028ZM156.161 448.469C151.989 448.469 148.826 447.757 146.671 446.331C144.515 444.906 143.194 442.664 142.708 439.605L149.173 439.344C149.417 441.152 150.095 442.49 151.207 443.359C152.319 444.228 153.936 444.663 156.056 444.663C158.073 444.663 159.619 444.315 160.697 443.62C161.775 442.925 162.314 441.934 162.314 440.648C162.314 439.64 161.966 438.858 161.271 438.301C160.61 437.71 159.706 437.259 158.559 436.946C157.447 436.633 156.213 436.355 154.857 436.111C153.501 435.868 152.146 435.59 150.79 435.277C149.434 434.964 148.183 434.512 147.036 433.921C145.923 433.33 145.019 432.531 144.324 431.523C143.664 430.515 143.333 429.176 143.333 427.508C143.333 424.866 144.411 422.85 146.566 421.459C148.722 420.069 151.902 419.374 156.109 419.374C158.75 419.374 160.975 419.686 162.783 420.312C164.625 420.903 166.068 421.824 167.111 423.076C168.188 424.292 168.866 425.822 169.144 427.664L162.626 427.977C162.487 426.378 161.879 425.179 160.801 424.379C159.759 423.545 158.264 423.128 156.317 423.128C154.336 423.128 152.806 423.493 151.728 424.223C150.651 424.953 150.112 425.978 150.112 427.299C150.112 428.342 150.46 429.159 151.155 429.75C151.85 430.341 152.754 430.793 153.866 431.106C155.013 431.419 156.248 431.697 157.569 431.94C158.924 432.183 160.28 432.461 161.636 432.774C162.991 433.087 164.225 433.539 165.338 434.13C166.485 434.721 167.406 435.52 168.101 436.529C168.797 437.502 169.144 438.805 169.144 440.439C169.144 443.081 168.032 445.08 165.807 446.436C163.617 447.791 160.402 448.469 156.161 448.469ZM197.337 432.409C197.337 429.594 196.781 427.525 195.668 426.204C194.556 424.883 192.818 424.223 190.454 424.223C187.777 424.223 185.709 425.161 184.249 427.039C182.789 428.881 182.059 431.54 182.059 435.016L179.66 438.771V435.434C179.66 430.289 180.808 426.326 183.102 423.545C185.431 420.764 188.716 419.374 192.957 419.374C196.642 419.374 199.353 420.364 201.091 422.346C202.829 424.327 203.698 427.404 203.698 431.575V448H197.337V432.409ZM175.645 409.414H182.059V428.864V448H175.645V409.414ZM211.595 411.5H218.009V430.115L216.549 427.56H238.293L236.885 430.115V411.5H243.298V448H236.885V429.385L238.293 432.044H216.549L218.009 429.385V448H211.595V411.5ZM264.292 448.469C261.372 448.469 258.869 447.983 256.784 447.009C254.733 446.001 253.151 444.559 252.039 442.681C250.961 440.77 250.422 438.475 250.422 435.799V432.044C250.422 429.402 250.996 427.143 252.143 425.266C253.325 423.354 254.994 421.894 257.149 420.886C259.339 419.878 261.929 419.374 264.918 419.374C269.507 419.374 273.035 420.573 275.503 422.971C277.971 425.335 279.205 428.725 279.205 433.139V435.486H255.637V432.357H274.147L273.209 433.556V431.679C273.209 429.246 272.479 427.334 271.019 425.944C269.594 424.553 267.612 423.858 265.074 423.858C262.502 423.858 260.486 424.57 259.026 425.996C257.566 427.386 256.836 429.315 256.836 431.784V436.476C256.836 438.979 257.531 440.909 258.922 442.264C260.312 443.62 262.276 444.298 264.814 444.298C267.004 444.298 268.777 443.846 270.132 442.942C271.523 442.004 272.409 440.717 272.792 439.084L278.84 439.501C278.075 442.386 276.424 444.611 273.887 446.175C271.384 447.705 268.186 448.469 264.292 448.469ZM304.038 438.301V430.376C304.038 428.186 303.378 426.587 302.057 425.579C300.771 424.536 298.737 424.014 295.956 424.014C294.287 424.014 292.602 424.24 290.898 424.692C289.195 425.144 287.596 425.787 286.101 426.621L285.215 422.241C286.257 421.65 287.474 421.146 288.865 420.729C290.29 420.312 291.75 419.982 293.245 419.739C294.774 419.495 296.217 419.374 297.572 419.374C301.952 419.374 305.22 420.295 307.375 422.137C309.531 423.945 310.608 426.691 310.608 430.376V448H305.655L304.038 438.301ZM294.757 448.469C291.524 448.469 288.986 447.757 287.144 446.331C285.302 444.871 284.38 442.855 284.38 440.283V439.188C284.38 436.581 285.302 434.565 287.144 433.139C289.021 431.679 291.628 430.949 294.965 430.949C298.511 430.949 301.292 431.645 303.308 433.035C305.359 434.425 306.385 436.407 306.385 438.979V440.126C306.385 442.734 305.359 444.785 303.308 446.279C301.257 447.739 298.407 448.469 294.757 448.469ZM296.53 445.028C298.824 445.028 300.614 444.559 301.9 443.62C303.221 442.681 303.882 441.413 303.882 439.814V439.136C303.882 437.606 303.256 436.424 302.005 435.59C300.753 434.721 299.015 434.286 296.79 434.286C294.739 434.286 293.14 434.704 291.993 435.538C290.846 436.372 290.272 437.641 290.272 439.344V439.97C290.272 441.569 290.829 442.82 291.941 443.724C293.053 444.593 294.583 445.028 296.53 445.028ZM324.79 409.414V448H318.376V409.414H324.79Z" fill="#00D09E"/>
</g>
</svg>
