<svg width="402" height="874" viewBox="0 0 402 874" fill="none" xmlns="http://www.w3.org/2000/svg">
<g id="1 - B - Launch">
<rect width="402" height="874" rx="40" fill="#F1FFF3"/>
<path id="CashHeal" d="M90.2236 399.469C87.0602 399.469 84.3662 398.896 82.1414 397.749C79.9514 396.567 78.2828 394.863 77.1357 392.639C75.9885 390.379 75.415 387.615 75.415 384.348V376.891C75.415 373.728 75.9885 371.051 77.1357 368.861C78.3176 366.637 80.0209 364.951 82.2457 363.804C84.4705 362.622 87.1471 362.031 90.2757 362.031C94.6905 362.031 98.1145 363.021 100.548 365.003C102.981 366.95 104.528 369.783 105.189 373.502L98.9836 374.128C98.5316 371.555 97.6278 369.661 96.2721 368.444C94.9164 367.228 93.0219 366.619 90.5886 366.619C87.7381 366.619 85.5655 367.488 84.0707 369.226C82.5759 370.93 81.8286 373.502 81.8286 376.944V384.296C81.8286 387.876 82.5586 390.535 84.0186 392.274C85.4786 394.012 87.6512 394.881 90.5364 394.881C93.074 394.881 95.0381 394.203 96.4286 392.847C97.8538 391.491 98.7576 389.458 99.14 386.746L105.293 387.372C104.737 391.265 103.207 394.255 100.704 396.341C98.2362 398.426 94.7426 399.469 90.2236 399.469ZM130.144 389.301V381.376C130.144 379.186 129.483 377.587 128.162 376.579C126.876 375.536 124.843 375.014 122.062 375.014C120.393 375.014 118.707 375.24 117.004 375.692C115.3 376.144 113.701 376.787 112.207 377.621L111.32 373.241C112.363 372.65 113.58 372.146 114.97 371.729C116.395 371.312 117.855 370.982 119.35 370.739C120.88 370.495 122.322 370.374 123.678 370.374C128.058 370.374 131.326 371.295 133.481 373.137C135.636 374.945 136.714 377.691 136.714 381.376V399H131.76L130.144 389.301ZM120.862 399.469C117.63 399.469 115.092 398.757 113.25 397.331C111.407 395.871 110.486 393.855 110.486 391.283V390.188C110.486 387.581 111.407 385.565 113.25 384.139C115.127 382.679 117.734 381.949 121.071 381.949C124.617 381.949 127.398 382.645 129.414 384.035C131.465 385.425 132.49 387.407 132.49 389.979V391.126C132.49 393.734 131.465 395.785 129.414 397.279C127.363 398.739 124.512 399.469 120.862 399.469ZM122.635 396.028C124.93 396.028 126.72 395.559 128.006 394.62C129.327 393.681 129.987 392.413 129.987 390.814V390.136C129.987 388.606 129.362 387.424 128.11 386.59C126.859 385.721 125.121 385.286 122.896 385.286C120.845 385.286 119.246 385.704 118.099 386.538C116.952 387.372 116.378 388.641 116.378 390.344V390.97C116.378 392.569 116.934 393.82 118.047 394.724C119.159 395.593 120.689 396.028 122.635 396.028ZM156.161 399.469C151.989 399.469 148.826 398.757 146.671 397.331C144.515 395.906 143.194 393.664 142.708 390.605L149.173 390.344C149.417 392.152 150.095 393.49 151.207 394.359C152.319 395.228 153.936 395.663 156.056 395.663C158.073 395.663 159.619 395.315 160.697 394.62C161.775 393.925 162.314 392.934 162.314 391.648C162.314 390.64 161.966 389.858 161.271 389.301C160.61 388.71 159.706 388.259 158.559 387.946C157.447 387.633 156.213 387.355 154.857 387.111C153.501 386.868 152.146 386.59 150.79 386.277C149.434 385.964 148.183 385.512 147.036 384.921C145.923 384.33 145.019 383.531 144.324 382.523C143.664 381.515 143.333 380.176 143.333 378.508C143.333 375.866 144.411 373.85 146.566 372.459C148.722 371.069 151.902 370.374 156.109 370.374C158.75 370.374 160.975 370.686 162.783 371.312C164.625 371.903 166.068 372.824 167.111 374.076C168.188 375.292 168.866 376.822 169.144 378.664L162.626 378.977C162.487 377.378 161.879 376.179 160.801 375.379C159.759 374.545 158.264 374.128 156.317 374.128C154.336 374.128 152.806 374.493 151.728 375.223C150.651 375.953 150.112 376.978 150.112 378.299C150.112 379.342 150.46 380.159 151.155 380.75C151.85 381.341 152.754 381.793 153.866 382.106C155.013 382.419 156.248 382.697 157.569 382.94C158.924 383.183 160.28 383.461 161.636 383.774C162.991 384.087 164.225 384.539 165.338 385.13C166.485 385.721 167.406 386.52 168.101 387.529C168.797 388.502 169.144 389.805 169.144 391.439C169.144 394.081 168.032 396.08 165.807 397.436C163.617 398.791 160.402 399.469 156.161 399.469ZM197.337 383.409C197.337 380.594 196.781 378.525 195.668 377.204C194.556 375.883 192.818 375.223 190.454 375.223C187.777 375.223 185.709 376.161 184.249 378.039C182.789 379.881 182.059 382.54 182.059 386.016L179.66 389.771V386.434C179.66 381.289 180.808 377.326 183.102 374.545C185.431 371.764 188.716 370.374 192.957 370.374C196.642 370.374 199.353 371.364 201.091 373.346C202.829 375.327 203.698 378.404 203.698 382.575V399H197.337V383.409ZM175.645 360.414H182.059V379.864V399H175.645V360.414ZM211.595 362.5H218.009V381.115L216.549 378.56H238.293L236.885 381.115V362.5H243.298V399H236.885V380.385L238.293 383.044H216.549L218.009 380.385V399H211.595V362.5ZM264.292 399.469C261.372 399.469 258.869 398.983 256.784 398.009C254.733 397.001 253.151 395.559 252.039 393.681C250.961 391.77 250.422 389.475 250.422 386.799V383.044C250.422 380.402 250.996 378.143 252.143 376.266C253.325 374.354 254.994 372.894 257.149 371.886C259.339 370.878 261.929 370.374 264.918 370.374C269.507 370.374 273.035 371.573 275.503 373.971C277.971 376.335 279.205 379.725 279.205 384.139V386.486H255.637V383.357H274.147L273.209 384.556V382.679C273.209 380.246 272.479 378.334 271.019 376.944C269.594 375.553 267.612 374.858 265.074 374.858C262.502 374.858 260.486 375.57 259.026 376.996C257.566 378.386 256.836 380.315 256.836 382.784V387.476C256.836 389.979 257.531 391.909 258.922 393.264C260.312 394.62 262.276 395.298 264.814 395.298C267.004 395.298 268.777 394.846 270.132 393.942C271.523 393.004 272.409 391.717 272.792 390.084L278.84 390.501C278.075 393.386 276.424 395.611 273.887 397.175C271.384 398.705 268.186 399.469 264.292 399.469ZM304.038 389.301V381.376C304.038 379.186 303.378 377.587 302.057 376.579C300.771 375.536 298.737 375.014 295.956 375.014C294.287 375.014 292.602 375.24 290.898 375.692C289.195 376.144 287.596 376.787 286.101 377.621L285.215 373.241C286.257 372.65 287.474 372.146 288.865 371.729C290.29 371.312 291.75 370.982 293.245 370.739C294.774 370.495 296.217 370.374 297.572 370.374C301.952 370.374 305.22 371.295 307.375 373.137C309.531 374.945 310.608 377.691 310.608 381.376V399H305.655L304.038 389.301ZM294.757 399.469C291.524 399.469 288.986 398.757 287.144 397.331C285.302 395.871 284.38 393.855 284.38 391.283V390.188C284.38 387.581 285.302 385.565 287.144 384.139C289.021 382.679 291.628 381.949 294.965 381.949C298.511 381.949 301.292 382.645 303.308 384.035C305.359 385.425 306.385 387.407 306.385 389.979V391.126C306.385 393.734 305.359 395.785 303.308 397.279C301.257 398.739 298.407 399.469 294.757 399.469ZM296.53 396.028C298.824 396.028 300.614 395.559 301.9 394.62C303.221 393.681 303.882 392.413 303.882 390.814V390.136C303.882 388.606 303.256 387.424 302.005 386.59C300.753 385.721 299.015 385.286 296.79 385.286C294.739 385.286 293.14 385.704 291.993 386.538C290.846 387.372 290.272 388.641 290.272 390.344V390.97C290.272 392.569 290.829 393.82 291.941 394.724C293.053 395.593 294.583 396.028 296.53 396.028ZM324.79 360.414V399H318.376V360.414H324.79Z" fill="#00D09E"/>
<path id="L&#226;&#128;&#153;application qui soigne vos finances personnelles" d="M107.8 448.202H111.314V449H106.82V439.214H107.8V448.202ZM112.839 439.214H113.973L112.741 442.238H112.027L112.839 439.214ZM115.026 445.164C115.026 444.38 115.18 443.694 115.488 443.106C115.806 442.509 116.24 442.051 116.79 441.734C117.35 441.407 117.98 441.244 118.68 441.244C119.408 441.244 120.034 441.412 120.556 441.748C121.088 442.084 121.471 442.513 121.704 443.036V441.356H122.684V449H121.704V447.306C121.462 447.829 121.074 448.263 120.542 448.608C120.02 448.944 119.394 449.112 118.666 449.112C117.976 449.112 117.35 448.949 116.79 448.622C116.24 448.295 115.806 447.833 115.488 447.236C115.18 446.639 115.026 445.948 115.026 445.164ZM121.704 445.178C121.704 444.562 121.578 444.021 121.326 443.554C121.074 443.087 120.729 442.728 120.29 442.476C119.861 442.224 119.385 442.098 118.862 442.098C118.321 442.098 117.836 442.219 117.406 442.462C116.977 442.705 116.636 443.059 116.384 443.526C116.142 443.983 116.02 444.529 116.02 445.164C116.02 445.789 116.142 446.34 116.384 446.816C116.636 447.283 116.977 447.642 117.406 447.894C117.836 448.137 118.321 448.258 118.862 448.258C119.385 448.258 119.861 448.132 120.29 447.88C120.729 447.628 121.074 447.269 121.326 446.802C121.578 446.335 121.704 445.794 121.704 445.178ZM125.888 443.036C126.13 442.523 126.513 442.098 127.036 441.762C127.568 441.417 128.198 441.244 128.926 441.244C129.616 441.244 130.237 441.407 130.788 441.734C131.348 442.051 131.782 442.509 132.09 443.106C132.407 443.694 132.566 444.38 132.566 445.164C132.566 445.948 132.407 446.639 132.09 447.236C131.782 447.833 131.348 448.295 130.788 448.622C130.237 448.949 129.616 449.112 128.926 449.112C128.207 449.112 127.582 448.944 127.05 448.608C126.518 448.263 126.13 447.833 125.888 447.32V452.612H124.922V441.356H125.888V443.036ZM131.572 445.164C131.572 444.529 131.446 443.983 131.194 443.526C130.951 443.059 130.615 442.705 130.186 442.462C129.756 442.219 129.271 442.098 128.73 442.098C128.207 442.098 127.726 442.224 127.288 442.476C126.858 442.728 126.518 443.087 126.266 443.554C126.014 444.021 125.888 444.562 125.888 445.178C125.888 445.794 126.014 446.335 126.266 446.802C126.518 447.269 126.858 447.628 127.288 447.88C127.726 448.132 128.207 448.258 128.73 448.258C129.271 448.258 129.756 448.137 130.186 447.894C130.615 447.642 130.951 447.283 131.194 446.816C131.446 446.34 131.572 445.789 131.572 445.164ZM135.335 443.036C135.578 442.523 135.96 442.098 136.483 441.762C137.015 441.417 137.645 441.244 138.373 441.244C139.064 441.244 139.684 441.407 140.235 441.734C140.795 442.051 141.229 442.509 141.537 443.106C141.854 443.694 142.013 444.38 142.013 445.164C142.013 445.948 141.854 446.639 141.537 447.236C141.229 447.833 140.795 448.295 140.235 448.622C139.684 448.949 139.064 449.112 138.373 449.112C137.654 449.112 137.029 448.944 136.497 448.608C135.965 448.263 135.578 447.833 135.335 447.32V452.612H134.369V441.356H135.335V443.036ZM141.019 445.164C141.019 444.529 140.893 443.983 140.641 443.526C140.398 443.059 140.062 442.705 139.633 442.462C139.204 442.219 138.718 442.098 138.177 442.098C137.654 442.098 137.174 442.224 136.735 442.476C136.306 442.728 135.965 443.087 135.713 443.554C135.461 444.021 135.335 444.562 135.335 445.178C135.335 445.794 135.461 446.335 135.713 446.802C135.965 447.269 136.306 447.628 136.735 447.88C137.174 448.132 137.654 448.258 138.177 448.258C138.718 448.258 139.204 448.137 139.633 447.894C140.062 447.642 140.398 447.283 140.641 446.816C140.893 446.34 141.019 445.789 141.019 445.164ZM144.796 438.64V449H143.816V438.64H144.796ZM147.506 439.914C147.31 439.914 147.142 439.844 147.002 439.704C146.862 439.564 146.792 439.391 146.792 439.186C146.792 438.981 146.862 438.813 147.002 438.682C147.142 438.542 147.31 438.472 147.506 438.472C147.702 438.472 147.87 438.542 148.01 438.682C148.15 438.813 148.22 438.981 148.22 439.186C148.22 439.391 148.15 439.564 148.01 439.704C147.87 439.844 147.702 439.914 147.506 439.914ZM147.996 441.356V449H147.016V441.356H147.996ZM149.767 445.178C149.767 444.385 149.925 443.694 150.243 443.106C150.56 442.509 150.999 442.051 151.559 441.734C152.119 441.407 152.758 441.244 153.477 441.244C154.419 441.244 155.194 441.477 155.801 441.944C156.417 442.411 156.813 443.045 156.991 443.848H155.941C155.81 443.297 155.525 442.868 155.087 442.56C154.657 442.243 154.121 442.084 153.477 442.084C152.963 442.084 152.501 442.201 152.091 442.434C151.68 442.667 151.353 443.017 151.111 443.484C150.877 443.941 150.761 444.506 150.761 445.178C150.761 445.85 150.877 446.419 151.111 446.886C151.353 447.353 151.68 447.703 152.091 447.936C152.501 448.169 152.963 448.286 153.477 448.286C154.121 448.286 154.657 448.132 155.087 447.824C155.525 447.507 155.81 447.068 155.941 446.508H156.991C156.813 447.292 156.417 447.922 155.801 448.398C155.185 448.874 154.41 449.112 153.477 449.112C152.758 449.112 152.119 448.953 151.559 448.636C150.999 448.309 150.56 447.852 150.243 447.264C149.925 446.667 149.767 445.971 149.767 445.178ZM158.353 445.164C158.353 444.38 158.507 443.694 158.815 443.106C159.132 442.509 159.566 442.051 160.117 441.734C160.677 441.407 161.307 441.244 162.007 441.244C162.735 441.244 163.36 441.412 163.883 441.748C164.415 442.084 164.797 442.513 165.031 443.036V441.356H166.011V449H165.031V447.306C164.788 447.829 164.401 448.263 163.869 448.608C163.346 448.944 162.721 449.112 161.993 449.112C161.302 449.112 160.677 448.949 160.117 448.622C159.566 448.295 159.132 447.833 158.815 447.236C158.507 446.639 158.353 445.948 158.353 445.164ZM165.031 445.178C165.031 444.562 164.905 444.021 164.653 443.554C164.401 443.087 164.055 442.728 163.617 442.476C163.187 442.224 162.711 442.098 162.189 442.098C161.647 442.098 161.162 442.219 160.733 442.462C160.303 442.705 159.963 443.059 159.711 443.526C159.468 443.983 159.347 444.529 159.347 445.164C159.347 445.789 159.468 446.34 159.711 446.816C159.963 447.283 160.303 447.642 160.733 447.894C161.162 448.137 161.647 448.258 162.189 448.258C162.711 448.258 163.187 448.132 163.617 447.88C164.055 447.628 164.401 447.269 164.653 446.802C164.905 446.335 165.031 445.794 165.031 445.178ZM169.522 442.182V446.928C169.522 447.395 169.611 447.717 169.788 447.894C169.965 448.071 170.278 448.16 170.726 448.16H171.622V449H170.572C169.881 449 169.368 448.841 169.032 448.524C168.696 448.197 168.528 447.665 168.528 446.928V442.182H167.464V441.356H168.528V439.438H169.522V441.356H171.622V442.182H169.522ZM173.728 439.914C173.532 439.914 173.364 439.844 173.224 439.704C173.084 439.564 173.014 439.391 173.014 439.186C173.014 438.981 173.084 438.813 173.224 438.682C173.364 438.542 173.532 438.472 173.728 438.472C173.924 438.472 174.092 438.542 174.232 438.682C174.372 438.813 174.442 438.981 174.442 439.186C174.442 439.391 174.372 439.564 174.232 439.704C174.092 439.844 173.924 439.914 173.728 439.914ZM174.218 441.356V449H173.238V441.356H174.218ZM179.783 449.112C179.065 449.112 178.416 448.953 177.837 448.636C177.268 448.309 176.815 447.852 176.479 447.264C176.153 446.667 175.989 445.971 175.989 445.178C175.989 444.385 176.157 443.694 176.493 443.106C176.829 442.509 177.287 442.051 177.865 441.734C178.444 441.407 179.093 441.244 179.811 441.244C180.53 441.244 181.179 441.407 181.757 441.734C182.345 442.051 182.803 442.509 183.129 443.106C183.465 443.694 183.633 444.385 183.633 445.178C183.633 445.962 183.465 446.653 183.129 447.25C182.793 447.847 182.331 448.309 181.743 448.636C181.155 448.953 180.502 449.112 179.783 449.112ZM179.783 448.258C180.287 448.258 180.754 448.146 181.183 447.922C181.613 447.689 181.958 447.343 182.219 446.886C182.49 446.419 182.625 445.85 182.625 445.178C182.625 444.506 182.495 443.941 182.233 443.484C181.972 443.017 181.627 442.672 181.197 442.448C180.768 442.215 180.301 442.098 179.797 442.098C179.293 442.098 178.827 442.215 178.397 442.448C177.968 442.672 177.623 443.017 177.361 443.484C177.109 443.941 176.983 444.506 176.983 445.178C176.983 445.85 177.109 446.419 177.361 446.886C177.623 447.343 177.963 447.689 178.383 447.922C178.813 448.146 179.279 448.258 179.783 448.258ZM189.004 441.216C189.918 441.216 190.665 441.501 191.244 442.07C191.822 442.63 192.112 443.447 192.112 444.52V449H191.146V444.632C191.146 443.801 190.936 443.167 190.516 442.728C190.105 442.289 189.54 442.07 188.822 442.07C188.084 442.07 187.496 442.303 187.058 442.77C186.619 443.237 186.4 443.923 186.4 444.828V449H185.42V441.356H186.4V442.658C186.642 442.191 186.992 441.837 187.45 441.594C187.907 441.342 188.425 441.216 189.004 441.216ZM197.673 445.164C197.673 444.38 197.832 443.694 198.149 443.106C198.466 442.509 198.9 442.051 199.451 441.734C200.011 441.407 200.641 441.244 201.341 441.244C202.06 441.244 202.685 441.417 203.217 441.762C203.749 442.098 204.127 442.523 204.351 443.036V441.356H205.331V452.612H204.351V447.32C204.127 447.833 203.744 448.263 203.203 448.608C202.671 448.944 202.041 449.112 201.313 449.112C200.622 449.112 199.997 448.949 199.437 448.622C198.886 448.295 198.452 447.833 198.135 447.236C197.827 446.639 197.673 445.948 197.673 445.164ZM204.351 445.178C204.351 444.562 204.225 444.021 203.973 443.554C203.721 443.087 203.376 442.728 202.937 442.476C202.508 442.224 202.032 442.098 201.509 442.098C200.968 442.098 200.482 442.219 200.053 442.462C199.624 442.705 199.283 443.059 199.031 443.526C198.788 443.983 198.667 444.529 198.667 445.164C198.667 445.789 198.788 446.34 199.031 446.816C199.283 447.283 199.624 447.642 200.053 447.894C200.482 448.137 200.968 448.258 201.509 448.258C202.032 448.258 202.508 448.132 202.937 447.88C203.376 447.628 203.721 447.269 203.973 446.802C204.225 446.335 204.351 445.794 204.351 445.178ZM214.19 441.356V449H213.21V447.656C212.986 448.132 212.641 448.496 212.174 448.748C211.708 449 211.185 449.126 210.606 449.126C209.692 449.126 208.945 448.846 208.366 448.286C207.788 447.717 207.498 446.895 207.498 445.822V441.356H208.464V445.71C208.464 446.541 208.67 447.175 209.08 447.614C209.5 448.053 210.07 448.272 210.788 448.272C211.526 448.272 212.114 448.039 212.552 447.572C212.991 447.105 213.21 446.419 213.21 445.514V441.356H214.19ZM216.918 439.914C216.722 439.914 216.554 439.844 216.414 439.704C216.274 439.564 216.204 439.391 216.204 439.186C216.204 438.981 216.274 438.813 216.414 438.682C216.554 438.542 216.722 438.472 216.918 438.472C217.114 438.472 217.282 438.542 217.422 438.682C217.562 438.813 217.632 438.981 217.632 439.186C217.632 439.391 217.562 439.564 217.422 439.704C217.282 439.844 217.114 439.914 216.918 439.914ZM217.408 441.356V449H216.428V441.356H217.408ZM226.101 449.112C225.223 449.112 224.505 448.911 223.945 448.51C223.394 448.099 223.086 447.544 223.021 446.844H224.029C224.075 447.273 224.276 447.623 224.631 447.894C224.995 448.155 225.48 448.286 226.087 448.286C226.619 448.286 227.034 448.16 227.333 447.908C227.641 447.656 227.795 447.343 227.795 446.97C227.795 446.709 227.711 446.494 227.543 446.326C227.375 446.158 227.16 446.027 226.899 445.934C226.647 445.831 226.301 445.724 225.863 445.612C225.293 445.463 224.831 445.313 224.477 445.164C224.122 445.015 223.819 444.795 223.567 444.506C223.324 444.207 223.203 443.811 223.203 443.316C223.203 442.943 223.315 442.597 223.539 442.28C223.763 441.963 224.08 441.711 224.491 441.524C224.901 441.337 225.368 441.244 225.891 441.244C226.712 441.244 227.375 441.454 227.879 441.874C228.383 442.285 228.653 442.854 228.691 443.582H227.711C227.683 443.134 227.505 442.775 227.179 442.504C226.861 442.224 226.423 442.084 225.863 442.084C225.368 442.084 224.967 442.201 224.659 442.434C224.351 442.667 224.197 442.957 224.197 443.302C224.197 443.601 224.285 443.848 224.463 444.044C224.649 444.231 224.878 444.38 225.149 444.492C225.419 444.595 225.783 444.711 226.241 444.842C226.791 444.991 227.23 445.136 227.557 445.276C227.883 445.416 228.163 445.621 228.397 445.892C228.63 446.163 228.751 446.522 228.761 446.97C228.761 447.381 228.649 447.749 228.425 448.076C228.201 448.393 227.888 448.645 227.487 448.832C227.085 449.019 226.623 449.112 226.101 449.112ZM233.951 449.112C233.233 449.112 232.584 448.953 232.005 448.636C231.436 448.309 230.983 447.852 230.647 447.264C230.321 446.667 230.157 445.971 230.157 445.178C230.157 444.385 230.325 443.694 230.661 443.106C230.997 442.509 231.455 442.051 232.033 441.734C232.612 441.407 233.261 441.244 233.979 441.244C234.698 441.244 235.347 441.407 235.925 441.734C236.513 442.051 236.971 442.509 237.297 443.106C237.633 443.694 237.801 444.385 237.801 445.178C237.801 445.962 237.633 446.653 237.297 447.25C236.961 447.847 236.499 448.309 235.911 448.636C235.323 448.953 234.67 449.112 233.951 449.112ZM233.951 448.258C234.455 448.258 234.922 448.146 235.351 447.922C235.781 447.689 236.126 447.343 236.387 446.886C236.658 446.419 236.793 445.85 236.793 445.178C236.793 444.506 236.663 443.941 236.401 443.484C236.14 443.017 235.795 442.672 235.365 442.448C234.936 442.215 234.469 442.098 233.965 442.098C233.461 442.098 232.995 442.215 232.565 442.448C232.136 442.672 231.791 443.017 231.529 443.484C231.277 443.941 231.151 444.506 231.151 445.178C231.151 445.85 231.277 446.419 231.529 446.886C231.791 447.343 232.131 447.689 232.551 447.922C232.981 448.146 233.447 448.258 233.951 448.258ZM240.078 439.914C239.882 439.914 239.714 439.844 239.574 439.704C239.434 439.564 239.364 439.391 239.364 439.186C239.364 438.981 239.434 438.813 239.574 438.682C239.714 438.542 239.882 438.472 240.078 438.472C240.274 438.472 240.442 438.542 240.582 438.682C240.722 438.813 240.792 438.981 240.792 439.186C240.792 439.391 240.722 439.564 240.582 439.704C240.442 439.844 240.274 439.914 240.078 439.914ZM240.568 441.356V449H239.588V441.356H240.568ZM245.993 441.244C246.712 441.244 247.337 441.412 247.869 441.748C248.401 442.084 248.784 442.509 249.017 443.022V441.356H249.997V449.196C249.997 449.896 249.843 450.517 249.535 451.058C249.236 451.599 248.816 452.015 248.275 452.304C247.734 452.603 247.118 452.752 246.427 452.752C245.447 452.752 244.63 452.519 243.977 452.052C243.333 451.585 242.932 450.951 242.773 450.148H243.739C243.907 450.68 244.224 451.105 244.691 451.422C245.167 451.739 245.746 451.898 246.427 451.898C246.922 451.898 247.365 451.791 247.757 451.576C248.149 451.371 248.457 451.063 248.681 450.652C248.905 450.241 249.017 449.756 249.017 449.196V447.306C248.774 447.829 248.387 448.263 247.855 448.608C247.332 448.944 246.712 449.112 245.993 449.112C245.293 449.112 244.663 448.949 244.103 448.622C243.552 448.295 243.118 447.833 242.801 447.236C242.493 446.639 242.339 445.948 242.339 445.164C242.339 444.38 242.493 443.694 242.801 443.106C243.118 442.509 243.552 442.051 244.103 441.734C244.663 441.407 245.293 441.244 245.993 441.244ZM249.017 445.178C249.017 444.562 248.891 444.021 248.639 443.554C248.387 443.087 248.042 442.728 247.603 442.476C247.174 442.224 246.698 442.098 246.175 442.098C245.634 442.098 245.148 442.219 244.719 442.462C244.29 442.705 243.949 443.059 243.697 443.526C243.454 443.983 243.333 444.529 243.333 445.164C243.333 445.789 243.454 446.34 243.697 446.816C243.949 447.283 244.29 447.642 244.719 447.894C245.148 448.137 245.634 448.258 246.175 448.258C246.698 448.258 247.174 448.132 247.603 447.88C248.042 447.628 248.387 447.269 248.639 446.802C248.891 446.335 249.017 445.794 249.017 445.178ZM255.818 441.216C256.733 441.216 257.48 441.501 258.058 442.07C258.637 442.63 258.926 443.447 258.926 444.52V449H257.96V444.632C257.96 443.801 257.75 443.167 257.33 442.728C256.92 442.289 256.355 442.07 255.636 442.07C254.899 442.07 254.311 442.303 253.872 442.77C253.434 443.237 253.214 443.923 253.214 444.828V449H252.234V441.356H253.214V442.658C253.457 442.191 253.807 441.837 254.264 441.594C254.722 441.342 255.24 441.216 255.818 441.216ZM268.01 444.786C268.01 445.122 268 445.379 267.982 445.556H261.64C261.668 446.135 261.808 446.629 262.06 447.04C262.312 447.451 262.643 447.763 263.054 447.978C263.464 448.183 263.912 448.286 264.398 448.286C265.032 448.286 265.564 448.132 265.994 447.824C266.432 447.516 266.722 447.101 266.862 446.578H267.898C267.711 447.325 267.31 447.936 266.694 448.412C266.087 448.879 265.322 449.112 264.398 449.112C263.679 449.112 263.035 448.953 262.466 448.636C261.896 448.309 261.448 447.852 261.122 447.264C260.804 446.667 260.646 445.971 260.646 445.178C260.646 444.385 260.804 443.689 261.122 443.092C261.439 442.495 261.882 442.037 262.452 441.72C263.021 441.403 263.67 441.244 264.398 441.244C265.126 441.244 265.76 441.403 266.302 441.72C266.852 442.037 267.272 442.467 267.562 443.008C267.86 443.54 268.01 444.133 268.01 444.786ZM267.016 444.758C267.025 444.189 266.908 443.703 266.666 443.302C266.432 442.901 266.11 442.597 265.7 442.392C265.289 442.187 264.841 442.084 264.356 442.084C263.628 442.084 263.007 442.317 262.494 442.784C261.98 443.251 261.696 443.909 261.64 444.758H267.016ZM276.36 448.048L278.936 441.356H279.972L276.906 449H275.8L272.734 441.356H273.784L276.36 448.048ZM284.647 449.112C283.928 449.112 283.279 448.953 282.701 448.636C282.131 448.309 281.679 447.852 281.343 447.264C281.016 446.667 280.853 445.971 280.853 445.178C280.853 444.385 281.021 443.694 281.357 443.106C281.693 442.509 282.15 442.051 282.729 441.734C283.307 441.407 283.956 441.244 284.675 441.244C285.393 441.244 286.042 441.407 286.621 441.734C287.209 442.051 287.666 442.509 287.993 443.106C288.329 443.694 288.497 444.385 288.497 445.178C288.497 445.962 288.329 446.653 287.993 447.25C287.657 447.847 287.195 448.309 286.607 448.636C286.019 448.953 285.365 449.112 284.647 449.112ZM284.647 448.258C285.151 448.258 285.617 448.146 286.047 447.922C286.476 447.689 286.821 447.343 287.083 446.886C287.353 446.419 287.489 445.85 287.489 445.178C287.489 444.506 287.358 443.941 287.097 443.484C286.835 443.017 286.49 442.672 286.061 442.448C285.631 442.215 285.165 442.098 284.661 442.098C284.157 442.098 283.69 442.215 283.261 442.448C282.831 442.672 282.486 443.017 282.225 443.484C281.973 443.941 281.847 444.506 281.847 445.178C281.847 445.85 281.973 446.419 282.225 446.886C282.486 447.343 282.827 447.689 283.247 447.922C283.676 448.146 284.143 448.258 284.647 448.258ZM292.915 449.112C292.038 449.112 291.319 448.911 290.759 448.51C290.208 448.099 289.9 447.544 289.835 446.844H290.843C290.89 447.273 291.09 447.623 291.445 447.894C291.809 448.155 292.294 448.286 292.901 448.286C293.433 448.286 293.848 448.16 294.147 447.908C294.455 447.656 294.609 447.343 294.609 446.97C294.609 446.709 294.525 446.494 294.357 446.326C294.189 446.158 293.974 446.027 293.713 445.934C293.461 445.831 293.116 445.724 292.677 445.612C292.108 445.463 291.646 445.313 291.291 445.164C290.936 445.015 290.633 444.795 290.381 444.506C290.138 444.207 290.017 443.811 290.017 443.316C290.017 442.943 290.129 442.597 290.353 442.28C290.577 441.963 290.894 441.711 291.305 441.524C291.716 441.337 292.182 441.244 292.705 441.244C293.526 441.244 294.189 441.454 294.693 441.874C295.197 442.285 295.468 442.854 295.505 443.582H294.525C294.497 443.134 294.32 442.775 293.993 442.504C293.676 442.224 293.237 442.084 292.677 442.084C292.182 442.084 291.781 442.201 291.473 442.434C291.165 442.667 291.011 442.957 291.011 443.302C291.011 443.601 291.1 443.848 291.277 444.044C291.464 444.231 291.692 444.38 291.963 444.492C292.234 444.595 292.598 444.711 293.055 444.842C293.606 444.991 294.044 445.136 294.371 445.276C294.698 445.416 294.978 445.621 295.211 445.892C295.444 446.163 295.566 446.522 295.575 446.97C295.575 447.381 295.463 447.749 295.239 448.076C295.015 448.393 294.702 448.645 294.301 448.832C293.9 449.019 293.438 449.112 292.915 449.112ZM129.525 457.182H127.747V464H126.767V457.182H125.703V456.356H126.767V455.824C126.767 454.993 126.977 454.382 127.397 453.99C127.826 453.598 128.517 453.402 129.469 453.402V454.242C128.834 454.242 128.386 454.363 128.125 454.606C127.873 454.849 127.747 455.255 127.747 455.824V456.356H129.525V457.182ZM131.557 454.914C131.361 454.914 131.193 454.844 131.053 454.704C130.913 454.564 130.843 454.391 130.843 454.186C130.843 453.981 130.913 453.813 131.053 453.682C131.193 453.542 131.361 453.472 131.557 453.472C131.753 453.472 131.921 453.542 132.061 453.682C132.201 453.813 132.271 453.981 132.271 454.186C132.271 454.391 132.201 454.564 132.061 454.704C131.921 454.844 131.753 454.914 131.557 454.914ZM132.047 456.356V464H131.067V456.356H132.047ZM137.85 456.216C138.765 456.216 139.512 456.501 140.09 457.07C140.669 457.63 140.958 458.447 140.958 459.52V464H139.992V459.632C139.992 458.801 139.782 458.167 139.362 457.728C138.952 457.289 138.387 457.07 137.668 457.07C136.931 457.07 136.343 457.303 135.904 457.77C135.466 458.237 135.246 458.923 135.246 459.828V464H134.266V456.356H135.246V457.658C135.489 457.191 135.839 456.837 136.296 456.594C136.754 456.342 137.272 456.216 137.85 456.216ZM142.678 460.164C142.678 459.38 142.832 458.694 143.14 458.106C143.457 457.509 143.891 457.051 144.442 456.734C145.002 456.407 145.632 456.244 146.332 456.244C147.06 456.244 147.685 456.412 148.208 456.748C148.74 457.084 149.123 457.513 149.356 458.036V456.356H150.336V464H149.356V462.306C149.113 462.829 148.726 463.263 148.194 463.608C147.671 463.944 147.046 464.112 146.318 464.112C145.627 464.112 145.002 463.949 144.442 463.622C143.891 463.295 143.457 462.833 143.14 462.236C142.832 461.639 142.678 460.948 142.678 460.164ZM149.356 460.178C149.356 459.562 149.23 459.021 148.978 458.554C148.726 458.087 148.381 457.728 147.942 457.476C147.513 457.224 147.037 457.098 146.514 457.098C145.973 457.098 145.487 457.219 145.058 457.462C144.629 457.705 144.288 458.059 144.036 458.526C143.793 458.983 143.672 459.529 143.672 460.164C143.672 460.789 143.793 461.34 144.036 461.816C144.288 462.283 144.629 462.642 145.058 462.894C145.487 463.137 145.973 463.258 146.514 463.258C147.037 463.258 147.513 463.132 147.942 462.88C148.381 462.628 148.726 462.269 148.978 461.802C149.23 461.335 149.356 460.794 149.356 460.178ZM156.157 456.216C157.072 456.216 157.818 456.501 158.397 457.07C158.976 457.63 159.265 458.447 159.265 459.52V464H158.299V459.632C158.299 458.801 158.089 458.167 157.669 457.728C157.258 457.289 156.694 457.07 155.975 457.07C155.238 457.07 154.65 457.303 154.211 457.77C153.772 458.237 153.553 458.923 153.553 459.828V464H152.573V456.356H153.553V457.658C153.796 457.191 154.146 456.837 154.603 456.594C155.06 456.342 155.578 456.216 156.157 456.216ZM160.985 460.178C160.985 459.385 161.143 458.694 161.461 458.106C161.778 457.509 162.217 457.051 162.777 456.734C163.337 456.407 163.976 456.244 164.695 456.244C165.637 456.244 166.412 456.477 167.019 456.944C167.635 457.411 168.031 458.045 168.209 458.848H167.159C167.028 458.297 166.743 457.868 166.305 457.56C165.875 457.243 165.339 457.084 164.695 457.084C164.181 457.084 163.719 457.201 163.309 457.434C162.898 457.667 162.571 458.017 162.329 458.484C162.095 458.941 161.979 459.506 161.979 460.178C161.979 460.85 162.095 461.419 162.329 461.886C162.571 462.353 162.898 462.703 163.309 462.936C163.719 463.169 164.181 463.286 164.695 463.286C165.339 463.286 165.875 463.132 166.305 462.824C166.743 462.507 167.028 462.068 167.159 461.508H168.209C168.031 462.292 167.635 462.922 167.019 463.398C166.403 463.874 165.628 464.112 164.695 464.112C163.976 464.112 163.337 463.953 162.777 463.636C162.217 463.309 161.778 462.852 161.461 462.264C161.143 461.667 160.985 460.971 160.985 460.178ZM176.934 459.786C176.934 460.122 176.925 460.379 176.906 460.556H170.564C170.592 461.135 170.732 461.629 170.984 462.04C171.236 462.451 171.568 462.763 171.978 462.978C172.389 463.183 172.837 463.286 173.322 463.286C173.957 463.286 174.489 463.132 174.918 462.824C175.357 462.516 175.646 462.101 175.786 461.578H176.822C176.636 462.325 176.234 462.936 175.618 463.412C175.012 463.879 174.246 464.112 173.322 464.112C172.604 464.112 171.96 463.953 171.39 463.636C170.821 463.309 170.373 462.852 170.046 462.264C169.729 461.667 169.57 460.971 169.57 460.178C169.57 459.385 169.729 458.689 170.046 458.092C170.364 457.495 170.807 457.037 171.376 456.72C171.946 456.403 172.594 456.244 173.322 456.244C174.05 456.244 174.685 456.403 175.226 456.72C175.777 457.037 176.197 457.467 176.486 458.008C176.785 458.54 176.934 459.133 176.934 459.786ZM175.94 459.758C175.95 459.189 175.833 458.703 175.59 458.302C175.357 457.901 175.035 457.597 174.624 457.392C174.214 457.187 173.766 457.084 173.28 457.084C172.552 457.084 171.932 457.317 171.418 457.784C170.905 458.251 170.62 458.909 170.564 459.758H175.94ZM181.359 464.112C180.482 464.112 179.763 463.911 179.203 463.51C178.653 463.099 178.345 462.544 178.279 461.844H179.287C179.334 462.273 179.535 462.623 179.889 462.894C180.253 463.155 180.739 463.286 181.345 463.286C181.877 463.286 182.293 463.16 182.591 462.908C182.899 462.656 183.053 462.343 183.053 461.97C183.053 461.709 182.969 461.494 182.801 461.326C182.633 461.158 182.419 461.027 182.157 460.934C181.905 460.831 181.56 460.724 181.121 460.612C180.552 460.463 180.09 460.313 179.735 460.164C179.381 460.015 179.077 459.795 178.825 459.506C178.583 459.207 178.461 458.811 178.461 458.316C178.461 457.943 178.573 457.597 178.797 457.28C179.021 456.963 179.339 456.711 179.749 456.524C180.16 456.337 180.627 456.244 181.149 456.244C181.971 456.244 182.633 456.454 183.137 456.874C183.641 457.285 183.912 457.854 183.949 458.582H182.969C182.941 458.134 182.764 457.775 182.437 457.504C182.12 457.224 181.681 457.084 181.121 457.084C180.627 457.084 180.225 457.201 179.917 457.434C179.609 457.667 179.455 457.957 179.455 458.302C179.455 458.601 179.544 458.848 179.721 459.044C179.908 459.231 180.137 459.38 180.407 459.492C180.678 459.595 181.042 459.711 181.499 459.842C182.05 459.991 182.489 460.136 182.815 460.276C183.142 460.416 183.422 460.621 183.655 460.892C183.889 461.163 184.01 461.522 184.019 461.97C184.019 462.381 183.907 462.749 183.683 463.076C183.459 463.393 183.147 463.645 182.745 463.832C182.344 464.019 181.882 464.112 181.359 464.112ZM190.672 458.036C190.915 457.523 191.297 457.098 191.82 456.762C192.352 456.417 192.982 456.244 193.71 456.244C194.401 456.244 195.021 456.407 195.572 456.734C196.132 457.051 196.566 457.509 196.874 458.106C197.191 458.694 197.35 459.38 197.35 460.164C197.35 460.948 197.191 461.639 196.874 462.236C196.566 462.833 196.132 463.295 195.572 463.622C195.021 463.949 194.401 464.112 193.71 464.112C192.991 464.112 192.366 463.944 191.834 463.608C191.302 463.263 190.915 462.833 190.672 462.32V467.612H189.706V456.356H190.672V458.036ZM196.356 460.164C196.356 459.529 196.23 458.983 195.978 458.526C195.735 458.059 195.399 457.705 194.97 457.462C194.541 457.219 194.055 457.098 193.514 457.098C192.991 457.098 192.511 457.224 192.072 457.476C191.643 457.728 191.302 458.087 191.05 458.554C190.798 459.021 190.672 459.562 190.672 460.178C190.672 460.794 190.798 461.335 191.05 461.802C191.302 462.269 191.643 462.628 192.072 462.88C192.511 463.132 192.991 463.258 193.514 463.258C194.055 463.258 194.541 463.137 194.97 462.894C195.399 462.642 195.735 462.283 195.978 461.816C196.23 461.34 196.356 460.789 196.356 460.164ZM206.069 459.786C206.069 460.122 206.06 460.379 206.041 460.556H199.699C199.727 461.135 199.867 461.629 200.119 462.04C200.371 462.451 200.703 462.763 201.113 462.978C201.524 463.183 201.972 463.286 202.457 463.286C203.092 463.286 203.624 463.132 204.053 462.824C204.492 462.516 204.781 462.101 204.921 461.578H205.957C205.771 462.325 205.369 462.936 204.753 463.412C204.147 463.879 203.381 464.112 202.457 464.112C201.739 464.112 201.095 463.953 200.525 463.636C199.956 463.309 199.508 462.852 199.181 462.264C198.864 461.667 198.705 460.971 198.705 460.178C198.705 459.385 198.864 458.689 199.181 458.092C199.499 457.495 199.942 457.037 200.511 456.72C201.081 456.403 201.729 456.244 202.457 456.244C203.185 456.244 203.82 456.403 204.361 456.72C204.912 457.037 205.332 457.467 205.621 458.008C205.92 458.54 206.069 459.133 206.069 459.786ZM205.075 459.758C205.085 459.189 204.968 458.703 204.725 458.302C204.492 457.901 204.17 457.597 203.759 457.392C203.349 457.187 202.901 457.084 202.415 457.084C201.687 457.084 201.067 457.317 200.553 457.784C200.04 458.251 199.755 458.909 199.699 459.758H205.075ZM208.842 457.714C209.057 457.238 209.384 456.869 209.822 456.608C210.27 456.347 210.816 456.216 211.46 456.216V457.238H211.194C210.485 457.238 209.916 457.429 209.486 457.812C209.057 458.195 208.842 458.834 208.842 459.73V464H207.862V456.356H208.842V457.714ZM215.566 464.112C214.689 464.112 213.97 463.911 213.41 463.51C212.86 463.099 212.552 462.544 212.486 461.844H213.494C213.541 462.273 213.742 462.623 214.096 462.894C214.46 463.155 214.946 463.286 215.552 463.286C216.084 463.286 216.5 463.16 216.798 462.908C217.106 462.656 217.26 462.343 217.26 461.97C217.26 461.709 217.176 461.494 217.008 461.326C216.84 461.158 216.626 461.027 216.364 460.934C216.112 460.831 215.767 460.724 215.328 460.612C214.759 460.463 214.297 460.313 213.942 460.164C213.588 460.015 213.284 459.795 213.032 459.506C212.79 459.207 212.668 458.811 212.668 458.316C212.668 457.943 212.78 457.597 213.004 457.28C213.228 456.963 213.546 456.711 213.956 456.524C214.367 456.337 214.834 456.244 215.356 456.244C216.178 456.244 216.84 456.454 217.344 456.874C217.848 457.285 218.119 457.854 218.156 458.582H217.176C217.148 458.134 216.971 457.775 216.644 457.504C216.327 457.224 215.888 457.084 215.328 457.084C214.834 457.084 214.432 457.201 214.124 457.434C213.816 457.667 213.662 457.957 213.662 458.302C213.662 458.601 213.751 458.848 213.928 459.044C214.115 459.231 214.344 459.38 214.614 459.492C214.885 459.595 215.249 459.711 215.706 459.842C216.257 459.991 216.696 460.136 217.022 460.276C217.349 460.416 217.629 460.621 217.862 460.892C218.096 461.163 218.217 461.522 218.226 461.97C218.226 462.381 218.114 462.749 217.89 463.076C217.666 463.393 217.354 463.645 216.952 463.832C216.551 464.019 216.089 464.112 215.566 464.112ZM223.417 464.112C222.699 464.112 222.05 463.953 221.471 463.636C220.902 463.309 220.449 462.852 220.113 462.264C219.787 461.667 219.623 460.971 219.623 460.178C219.623 459.385 219.791 458.694 220.127 458.106C220.463 457.509 220.921 457.051 221.499 456.734C222.078 456.407 222.727 456.244 223.445 456.244C224.164 456.244 224.813 456.407 225.391 456.734C225.979 457.051 226.437 457.509 226.763 458.106C227.099 458.694 227.267 459.385 227.267 460.178C227.267 460.962 227.099 461.653 226.763 462.25C226.427 462.847 225.965 463.309 225.377 463.636C224.789 463.953 224.136 464.112 223.417 464.112ZM223.417 463.258C223.921 463.258 224.388 463.146 224.817 462.922C225.247 462.689 225.592 462.343 225.853 461.886C226.124 461.419 226.259 460.85 226.259 460.178C226.259 459.506 226.129 458.941 225.867 458.484C225.606 458.017 225.261 457.672 224.831 457.448C224.402 457.215 223.935 457.098 223.431 457.098C222.927 457.098 222.461 457.215 222.031 457.448C221.602 457.672 221.257 458.017 220.995 458.484C220.743 458.941 220.617 459.506 220.617 460.178C220.617 460.85 220.743 461.419 220.995 461.886C221.257 462.343 221.597 462.689 222.017 462.922C222.447 463.146 222.913 463.258 223.417 463.258ZM232.638 456.216C233.552 456.216 234.299 456.501 234.878 457.07C235.456 457.63 235.746 458.447 235.746 459.52V464H234.78V459.632C234.78 458.801 234.57 458.167 234.15 457.728C233.739 457.289 233.174 457.07 232.456 457.07C231.718 457.07 231.13 457.303 230.692 457.77C230.253 458.237 230.034 458.923 230.034 459.828V464H229.054V456.356H230.034V457.658C230.276 457.191 230.626 456.837 231.084 456.594C231.541 456.342 232.059 456.216 232.638 456.216ZM241.497 456.216C242.412 456.216 243.158 456.501 243.737 457.07C244.316 457.63 244.605 458.447 244.605 459.52V464H243.639V459.632C243.639 458.801 243.429 458.167 243.009 457.728C242.598 457.289 242.034 457.07 241.315 457.07C240.578 457.07 239.99 457.303 239.551 457.77C239.112 458.237 238.893 458.923 238.893 459.828V464H237.913V456.356H238.893V457.658C239.136 457.191 239.486 456.837 239.943 456.594C240.4 456.342 240.918 456.216 241.497 456.216ZM253.688 459.786C253.688 460.122 253.679 460.379 253.66 460.556H247.318C247.346 461.135 247.486 461.629 247.738 462.04C247.99 462.451 248.322 462.763 248.732 462.978C249.143 463.183 249.591 463.286 250.076 463.286C250.711 463.286 251.243 463.132 251.672 462.824C252.111 462.516 252.4 462.101 252.54 461.578H253.576C253.39 462.325 252.988 462.936 252.372 463.412C251.766 463.879 251 464.112 250.076 464.112C249.358 464.112 248.714 463.953 248.144 463.636C247.575 463.309 247.127 462.852 246.8 462.264C246.483 461.667 246.324 460.971 246.324 460.178C246.324 459.385 246.483 458.689 246.8 458.092C247.118 457.495 247.561 457.037 248.13 456.72C248.7 456.403 249.348 456.244 250.076 456.244C250.804 456.244 251.439 456.403 251.98 456.72C252.531 457.037 252.951 457.467 253.24 458.008C253.539 458.54 253.688 459.133 253.688 459.786ZM252.694 459.758C252.704 459.189 252.587 458.703 252.344 458.302C252.111 457.901 251.789 457.597 251.378 457.392C250.968 457.187 250.52 457.084 250.034 457.084C249.306 457.084 248.686 457.317 248.172 457.784C247.659 458.251 247.374 458.909 247.318 459.758H252.694ZM256.461 453.64V464H255.481V453.64H256.461ZM259.661 453.64V464H258.681V453.64H259.661ZM268.796 459.786C268.796 460.122 268.786 460.379 268.768 460.556H262.426C262.454 461.135 262.594 461.629 262.846 462.04C263.098 462.451 263.429 462.763 263.84 462.978C264.25 463.183 264.698 463.286 265.184 463.286C265.818 463.286 266.35 463.132 266.78 462.824C267.218 462.516 267.508 462.101 267.648 461.578H268.684C268.497 462.325 268.096 462.936 267.48 463.412C266.873 463.879 266.108 464.112 265.184 464.112C264.465 464.112 263.821 463.953 263.252 463.636C262.682 463.309 262.234 462.852 261.908 462.264C261.59 461.667 261.432 460.971 261.432 460.178C261.432 459.385 261.59 458.689 261.908 458.092C262.225 457.495 262.668 457.037 263.238 456.72C263.807 456.403 264.456 456.244 265.184 456.244C265.912 456.244 266.546 456.403 267.088 456.72C267.638 457.037 268.058 457.467 268.348 458.008C268.646 458.54 268.796 459.133 268.796 459.786ZM267.802 459.758C267.811 459.189 267.694 458.703 267.452 458.302C267.218 457.901 266.896 457.597 266.486 457.392C266.075 457.187 265.627 457.084 265.142 457.084C264.414 457.084 263.793 457.317 263.28 457.784C262.766 458.251 262.482 458.909 262.426 459.758H267.802ZM273.221 464.112C272.343 464.112 271.625 463.911 271.065 463.51C270.514 463.099 270.206 462.544 270.141 461.844H271.149C271.195 462.273 271.396 462.623 271.751 462.894C272.115 463.155 272.6 463.286 273.207 463.286C273.739 463.286 274.154 463.16 274.453 462.908C274.761 462.656 274.915 462.343 274.915 461.97C274.915 461.709 274.831 461.494 274.663 461.326C274.495 461.158 274.28 461.027 274.019 460.934C273.767 460.831 273.421 460.724 272.983 460.612C272.413 460.463 271.951 460.313 271.597 460.164C271.242 460.015 270.939 459.795 270.687 459.506C270.444 459.207 270.323 458.811 270.323 458.316C270.323 457.943 270.435 457.597 270.659 457.28C270.883 456.963 271.2 456.711 271.611 456.524C272.021 456.337 272.488 456.244 273.011 456.244C273.832 456.244 274.495 456.454 274.999 456.874C275.503 457.285 275.773 457.854 275.811 458.582H274.831C274.803 458.134 274.625 457.775 274.299 457.504C273.981 457.224 273.543 457.084 272.983 457.084C272.488 457.084 272.087 457.201 271.779 457.434C271.471 457.667 271.317 457.957 271.317 458.302C271.317 458.601 271.405 458.848 271.583 459.044C271.769 459.231 271.998 459.38 272.269 459.492C272.539 459.595 272.903 459.711 273.361 459.842C273.911 459.991 274.35 460.136 274.677 460.276C275.003 460.416 275.283 460.621 275.517 460.892C275.75 461.163 275.871 461.522 275.881 461.97C275.881 462.381 275.769 462.749 275.545 463.076C275.321 463.393 275.008 463.645 274.607 463.832C274.205 464.019 273.743 464.112 273.221 464.112Z" fill="#4B4544"/>
<g id="Log in Dark Mode">
<g id="Group 54">
<rect id="Rectangle 37" x="98" y="530" width="207" height="45" rx="22.5" fill="#00D09E"/>
</g>
<path id="Log In" d="M138.997 559.14C138.024 559.14 137.144 558.973 136.357 558.64C135.584 558.307 134.97 557.827 134.517 557.2C134.064 556.573 133.83 555.833 133.817 554.98H136.817C136.857 555.553 137.057 556.007 137.417 556.34C137.79 556.673 138.297 556.84 138.937 556.84C139.59 556.84 140.104 556.687 140.477 556.38C140.85 556.06 141.037 555.647 141.037 555.14C141.037 554.727 140.91 554.387 140.657 554.12C140.404 553.853 140.084 553.647 139.697 553.5C139.324 553.34 138.804 553.167 138.137 552.98C137.23 552.713 136.49 552.453 135.917 552.2C135.357 551.933 134.87 551.54 134.457 551.02C134.057 550.487 133.857 549.78 133.857 548.9C133.857 548.073 134.064 547.353 134.477 546.74C134.89 546.127 135.47 545.66 136.217 545.34C136.964 545.007 137.817 544.84 138.777 544.84C140.217 544.84 141.384 545.193 142.277 545.9C143.184 546.593 143.684 547.567 143.777 548.82H140.697C140.67 548.34 140.464 547.947 140.077 547.64C139.704 547.32 139.204 547.16 138.577 547.16C138.03 547.16 137.59 547.3 137.257 547.58C136.937 547.86 136.777 548.267 136.777 548.8C136.777 549.173 136.897 549.487 137.137 549.74C137.39 549.98 137.697 550.18 138.057 550.34C138.43 550.487 138.95 550.66 139.617 550.86C140.524 551.127 141.264 551.393 141.837 551.66C142.41 551.927 142.904 552.327 143.317 552.86C143.73 553.393 143.937 554.093 143.937 554.96C143.937 555.707 143.744 556.4 143.357 557.04C142.97 557.68 142.404 558.193 141.657 558.58C140.91 558.953 140.024 559.14 138.997 559.14ZM156.664 553.22C156.664 553.62 156.638 553.98 156.584 554.3H148.484C148.551 555.1 148.831 555.727 149.324 556.18C149.818 556.633 150.424 556.86 151.144 556.86C152.184 556.86 152.924 556.413 153.364 555.52H156.384C156.064 556.587 155.451 557.467 154.544 558.16C153.638 558.84 152.524 559.18 151.204 559.18C150.138 559.18 149.178 558.947 148.324 558.48C147.484 558 146.824 557.327 146.344 556.46C145.878 555.593 145.644 554.593 145.644 553.46C145.644 552.313 145.878 551.307 146.344 550.44C146.811 549.573 147.464 548.907 148.304 548.44C149.144 547.973 150.111 547.74 151.204 547.74C152.258 547.74 153.198 547.967 154.024 548.42C154.864 548.873 155.511 549.52 155.964 550.36C156.431 551.187 156.664 552.14 156.664 553.22ZM153.764 552.42C153.751 551.7 153.491 551.127 152.984 550.7C152.478 550.26 151.858 550.04 151.124 550.04C150.431 550.04 149.844 550.253 149.364 550.68C148.898 551.093 148.611 551.673 148.504 552.42H153.764ZM162.794 552C162.794 550.627 163.1 549.4 163.714 548.32C164.34 547.227 165.187 546.38 166.254 545.78C167.334 545.167 168.54 544.86 169.874 544.86C171.434 544.86 172.8 545.26 173.974 546.06C175.147 546.86 175.967 547.967 176.434 549.38H173.214C172.894 548.713 172.44 548.213 171.854 547.88C171.28 547.547 170.614 547.38 169.854 547.38C169.04 547.38 168.314 547.573 167.674 547.96C167.047 548.333 166.554 548.867 166.194 549.56C165.847 550.253 165.674 551.067 165.674 552C165.674 552.92 165.847 553.733 166.194 554.44C166.554 555.133 167.047 555.673 167.674 556.06C168.314 556.433 169.04 556.62 169.854 556.62C170.614 556.62 171.28 556.453 171.854 556.12C172.44 555.773 172.894 555.267 173.214 554.6H176.434C175.967 556.027 175.147 557.14 173.974 557.94C172.814 558.727 171.447 559.12 169.874 559.12C168.54 559.12 167.334 558.82 166.254 558.22C165.187 557.607 164.34 556.76 163.714 555.68C163.1 554.6 162.794 553.373 162.794 552ZM183.745 559.18C182.679 559.18 181.719 558.947 180.865 558.48C180.012 558 179.339 557.327 178.845 556.46C178.365 555.593 178.125 554.593 178.125 553.46C178.125 552.327 178.372 551.327 178.865 550.46C179.372 549.593 180.059 548.927 180.925 548.46C181.792 547.98 182.759 547.74 183.825 547.74C184.892 547.74 185.859 547.98 186.725 548.46C187.592 548.927 188.272 549.593 188.765 550.46C189.272 551.327 189.525 552.327 189.525 553.46C189.525 554.593 189.265 555.593 188.745 556.46C188.239 557.327 187.545 558 186.665 558.48C185.799 558.947 184.825 559.18 183.745 559.18ZM183.745 556.74C184.252 556.74 184.725 556.62 185.165 556.38C185.619 556.127 185.979 555.753 186.245 555.26C186.512 554.767 186.645 554.167 186.645 553.46C186.645 552.407 186.365 551.6 185.805 551.04C185.259 550.467 184.585 550.18 183.785 550.18C182.985 550.18 182.312 550.467 181.765 551.04C181.232 551.6 180.965 552.407 180.965 553.46C180.965 554.513 181.225 555.327 181.745 555.9C182.279 556.46 182.945 556.74 183.745 556.74ZM197.719 547.76C199.039 547.76 200.106 548.18 200.919 549.02C201.733 549.847 202.139 551.007 202.139 552.5V559H199.339V552.88C199.339 552 199.119 551.327 198.679 550.86C198.239 550.38 197.639 550.14 196.879 550.14C196.106 550.14 195.493 550.38 195.039 550.86C194.599 551.327 194.379 552 194.379 552.88V559H191.579V547.92H194.379V549.3C194.753 548.82 195.226 548.447 195.799 548.18C196.386 547.9 197.026 547.76 197.719 547.76ZM210.942 547.76C212.262 547.76 213.329 548.18 214.142 549.02C214.955 549.847 215.362 551.007 215.362 552.5V559H212.562V552.88C212.562 552 212.342 551.327 211.902 550.86C211.462 550.38 210.862 550.14 210.102 550.14C209.329 550.14 208.715 550.38 208.262 550.86C207.822 551.327 207.602 552 207.602 552.88V559H204.802V547.92H207.602V549.3C207.975 548.82 208.449 548.447 209.022 548.18C209.609 547.9 210.249 547.76 210.942 547.76ZM228.325 553.22C228.325 553.62 228.298 553.98 228.245 554.3H220.145C220.211 555.1 220.491 555.727 220.985 556.18C221.478 556.633 222.085 556.86 222.805 556.86C223.845 556.86 224.585 556.413 225.025 555.52H228.045C227.725 556.587 227.111 557.467 226.205 558.16C225.298 558.84 224.185 559.18 222.865 559.18C221.798 559.18 220.838 558.947 219.985 558.48C219.145 558 218.485 557.327 218.005 556.46C217.538 555.593 217.305 554.593 217.305 553.46C217.305 552.313 217.538 551.307 218.005 550.44C218.471 549.573 219.125 548.907 219.965 548.44C220.805 547.973 221.771 547.74 222.865 547.74C223.918 547.74 224.858 547.967 225.685 548.42C226.525 548.873 227.171 549.52 227.625 550.36C228.091 551.187 228.325 552.14 228.325 553.22ZM225.425 552.42C225.411 551.7 225.151 551.127 224.645 550.7C224.138 550.26 223.518 550.04 222.785 550.04C222.091 550.04 221.505 550.253 221.025 550.68C220.558 551.093 220.271 551.673 220.165 552.42H225.425ZM229.648 553.46C229.648 552.313 229.882 551.313 230.348 550.46C230.815 549.593 231.462 548.927 232.288 548.46C233.115 547.98 234.062 547.74 235.128 547.74C236.502 547.74 237.635 548.087 238.528 548.78C239.435 549.46 240.042 550.42 240.348 551.66H237.328C237.168 551.18 236.895 550.807 236.508 550.54C236.135 550.26 235.668 550.12 235.108 550.12C234.308 550.12 233.675 550.413 233.208 551C232.742 551.573 232.508 552.393 232.508 553.46C232.508 554.513 232.742 555.333 233.208 555.92C233.675 556.493 234.308 556.78 235.108 556.78C236.242 556.78 236.982 556.273 237.328 555.26H240.348C240.042 556.46 239.435 557.413 238.528 558.12C237.622 558.827 236.488 559.18 235.128 559.18C234.062 559.18 233.115 558.947 232.288 558.48C231.462 558 230.815 557.333 230.348 556.48C229.882 555.613 229.648 554.607 229.648 553.46ZM245.66 550.22V555.58C245.66 555.953 245.746 556.227 245.92 556.4C246.106 556.56 246.413 556.64 246.84 556.64H248.14V559H246.38C244.02 559 242.84 557.853 242.84 555.56V550.22H241.52V547.92H242.84V545.18H245.66V547.92H248.14V550.22H245.66ZM260.453 553.22C260.453 553.62 260.427 553.98 260.373 554.3H252.273C252.34 555.1 252.62 555.727 253.113 556.18C253.607 556.633 254.213 556.86 254.933 556.86C255.973 556.86 256.713 556.413 257.153 555.52H260.173C259.853 556.587 259.24 557.467 258.333 558.16C257.427 558.84 256.313 559.18 254.993 559.18C253.927 559.18 252.967 558.947 252.113 558.48C251.273 558 250.613 557.327 250.133 556.46C249.667 555.593 249.433 554.593 249.433 553.46C249.433 552.313 249.667 551.307 250.133 550.44C250.6 549.573 251.253 548.907 252.093 548.44C252.933 547.973 253.9 547.74 254.993 547.74C256.047 547.74 256.987 547.967 257.813 548.42C258.653 548.873 259.3 549.52 259.753 550.36C260.22 551.187 260.453 552.14 260.453 553.22ZM257.553 552.42C257.54 551.7 257.28 551.127 256.773 550.7C256.267 550.26 255.647 550.04 254.913 550.04C254.22 550.04 253.633 550.253 253.153 550.68C252.687 551.093 252.4 551.673 252.293 552.42H257.553ZM265.297 549.64C265.657 549.053 266.124 548.593 266.697 548.26C267.284 547.927 267.951 547.76 268.697 547.76V550.7H267.957C267.077 550.7 266.411 550.907 265.957 551.32C265.517 551.733 265.297 552.453 265.297 553.48V559H262.497V547.92H265.297V549.64Z" fill="#093030"/>
</g>
<g id="Log in Dark Mode_2">
<g id="Group 54_2">
<rect id="Rectangle 37_2" x="98" y="587" width="207" height="45" rx="22.5" fill="#DFF7E2"/>
</g>
<path id="Log In_2" d="M160.452 616.14C159.479 616.14 158.599 615.973 157.812 615.64C157.039 615.307 156.425 614.827 155.972 614.2C155.519 613.573 155.285 612.833 155.272 611.98H158.272C158.312 612.553 158.512 613.007 158.872 613.34C159.245 613.673 159.752 613.84 160.392 613.84C161.045 613.84 161.559 613.687 161.932 613.38C162.305 613.06 162.492 612.647 162.492 612.14C162.492 611.727 162.365 611.387 162.112 611.12C161.859 610.853 161.539 610.647 161.152 610.5C160.779 610.34 160.259 610.167 159.592 609.98C158.685 609.713 157.945 609.453 157.372 609.2C156.812 608.933 156.325 608.54 155.912 608.02C155.512 607.487 155.312 606.78 155.312 605.9C155.312 605.073 155.519 604.353 155.932 603.74C156.345 603.127 156.925 602.66 157.672 602.34C158.419 602.007 159.272 601.84 160.232 601.84C161.672 601.84 162.839 602.193 163.732 602.9C164.639 603.593 165.139 604.567 165.232 605.82H162.152C162.125 605.34 161.919 604.947 161.532 604.64C161.159 604.32 160.659 604.16 160.032 604.16C159.485 604.16 159.045 604.3 158.712 604.58C158.392 604.86 158.232 605.267 158.232 605.8C158.232 606.173 158.352 606.487 158.592 606.74C158.845 606.98 159.152 607.18 159.512 607.34C159.885 607.487 160.405 607.66 161.072 607.86C161.979 608.127 162.719 608.393 163.292 608.66C163.865 608.927 164.359 609.327 164.772 609.86C165.185 610.393 165.392 611.093 165.392 611.96C165.392 612.707 165.199 613.4 164.812 614.04C164.425 614.68 163.859 615.193 163.112 615.58C162.365 615.953 161.479 616.14 160.452 616.14ZM168.379 602.04H171.319L169.159 607.08H167.239L168.379 602.04ZM174.747 603.6C174.254 603.6 173.841 603.447 173.507 603.14C173.187 602.82 173.027 602.427 173.027 601.96C173.027 601.493 173.187 601.107 173.507 600.8C173.841 600.48 174.254 600.32 174.747 600.32C175.241 600.32 175.647 600.48 175.967 600.8C176.301 601.107 176.467 601.493 176.467 601.96C176.467 602.427 176.301 602.82 175.967 603.14C175.647 603.447 175.241 603.6 174.747 603.6ZM176.127 604.92V616H173.327V604.92H176.127ZM185.034 604.76C186.354 604.76 187.42 605.18 188.234 606.02C189.047 606.847 189.454 608.007 189.454 609.5V616H186.654V609.88C186.654 609 186.434 608.327 185.994 607.86C185.554 607.38 184.954 607.14 184.194 607.14C183.42 607.14 182.807 607.38 182.354 607.86C181.914 608.327 181.694 609 181.694 609.88V616H178.894V604.92H181.694V606.3C182.067 605.82 182.54 605.447 183.114 605.18C183.7 604.9 184.34 604.76 185.034 604.76ZM196.356 616.18C195.45 616.18 194.636 616.02 193.916 615.7C193.196 615.367 192.623 614.92 192.196 614.36C191.783 613.8 191.556 613.18 191.516 612.5H194.336C194.39 612.927 194.596 613.28 194.956 613.56C195.33 613.84 195.79 613.98 196.336 613.98C196.87 613.98 197.283 613.873 197.576 613.66C197.883 613.447 198.036 613.173 198.036 612.84C198.036 612.48 197.85 612.213 197.476 612.04C197.116 611.853 196.536 611.653 195.736 611.44C194.91 611.24 194.23 611.033 193.696 610.82C193.176 610.607 192.723 610.28 192.336 609.84C191.963 609.4 191.776 608.807 191.776 608.06C191.776 607.447 191.95 606.887 192.296 606.38C192.656 605.873 193.163 605.473 193.816 605.18C194.483 604.887 195.263 604.74 196.156 604.74C197.476 604.74 198.53 605.073 199.316 605.74C200.103 606.393 200.536 607.28 200.616 608.4H197.936C197.896 607.96 197.71 607.613 197.376 607.36C197.056 607.093 196.623 606.96 196.076 606.96C195.57 606.96 195.176 607.053 194.896 607.24C194.63 607.427 194.496 607.687 194.496 608.02C194.496 608.393 194.683 608.68 195.056 608.88C195.43 609.067 196.01 609.26 196.796 609.46C197.596 609.66 198.256 609.867 198.776 610.08C199.296 610.293 199.743 610.627 200.116 611.08C200.503 611.52 200.703 612.107 200.716 612.84C200.716 613.48 200.536 614.053 200.176 614.56C199.83 615.067 199.323 615.467 198.656 615.76C198.003 616.04 197.236 616.18 196.356 616.18ZM202.295 610.46C202.295 609.313 202.528 608.313 202.995 607.46C203.461 606.593 204.108 605.927 204.935 605.46C205.761 604.98 206.708 604.74 207.775 604.74C209.148 604.74 210.281 605.087 211.175 605.78C212.081 606.46 212.688 607.42 212.995 608.66H209.975C209.815 608.18 209.541 607.807 209.155 607.54C208.781 607.26 208.315 607.12 207.755 607.12C206.955 607.12 206.321 607.413 205.855 608C205.388 608.573 205.155 609.393 205.155 610.46C205.155 611.513 205.388 612.333 205.855 612.92C206.321 613.493 206.955 613.78 207.755 613.78C208.888 613.78 209.628 613.273 209.975 612.26H212.995C212.688 613.46 212.081 614.413 211.175 615.12C210.268 615.827 209.135 616.18 207.775 616.18C206.708 616.18 205.761 615.947 204.935 615.48C204.108 615 203.461 614.333 202.995 613.48C202.528 612.613 202.295 611.607 202.295 610.46ZM217.846 606.64C218.206 606.053 218.673 605.593 219.246 605.26C219.833 604.927 220.499 604.76 221.246 604.76V607.7H220.506C219.626 607.7 218.959 607.907 218.506 608.32C218.066 608.733 217.846 609.453 217.846 610.48V616H215.046V604.92H217.846V606.64ZM224.552 603.6C224.059 603.6 223.645 603.447 223.312 603.14C222.992 602.82 222.832 602.427 222.832 601.96C222.832 601.493 222.992 601.107 223.312 600.8C223.645 600.48 224.059 600.32 224.552 600.32C225.045 600.32 225.452 600.48 225.772 600.8C226.105 601.107 226.272 601.493 226.272 601.96C226.272 602.427 226.105 602.82 225.772 603.14C225.452 603.447 225.045 603.6 224.552 603.6ZM225.932 604.92V616H223.132V604.92H225.932ZM231.498 606.64C231.858 606.053 232.325 605.593 232.898 605.26C233.485 604.927 234.152 604.76 234.898 604.76V607.7H234.158C233.278 607.7 232.612 607.907 232.158 608.32C231.718 608.733 231.498 609.453 231.498 610.48V616H228.698V604.92H231.498V606.64ZM247.084 610.22C247.084 610.62 247.058 610.98 247.004 611.3H238.904C238.971 612.1 239.251 612.727 239.744 613.18C240.238 613.633 240.844 613.86 241.564 613.86C242.604 613.86 243.344 613.413 243.784 612.52H246.804C246.484 613.587 245.871 614.467 244.964 615.16C244.058 615.84 242.944 616.18 241.624 616.18C240.558 616.18 239.598 615.947 238.744 615.48C237.904 615 237.244 614.327 236.764 613.46C236.298 612.593 236.064 611.593 236.064 610.46C236.064 609.313 236.298 608.307 236.764 607.44C237.231 606.573 237.884 605.907 238.724 605.44C239.564 604.973 240.531 604.74 241.624 604.74C242.678 604.74 243.618 604.967 244.444 605.42C245.284 605.873 245.931 606.52 246.384 607.36C246.851 608.187 247.084 609.14 247.084 610.22ZM244.184 609.42C244.171 608.7 243.911 608.127 243.404 607.7C242.898 607.26 242.278 607.04 241.544 607.04C240.851 607.04 240.264 607.253 239.784 607.68C239.318 608.093 239.031 608.673 238.924 609.42H244.184Z" fill="#0E3E3E"/>
</g>
<path id="Mot de passe oubli&#195;&#169; ?" d="M151.559 642.76V652H149.816V646.085L149.9 644.741L149.585 646.267L147.772 651.342H146.05L144.244 646.267L143.936 644.741L144.013 646.085V652H142.263V642.76H144.685L146.799 649.347L146.911 649.977L147.023 649.347L149.144 642.76H151.559ZM156.145 652.168C155.533 652.168 154.987 652.037 154.507 651.776C154.031 651.515 153.657 651.158 153.387 650.705C153.116 650.248 152.981 649.727 152.981 649.144C152.981 648.561 153.116 648.04 153.387 647.583C153.657 647.121 154.031 646.757 154.507 646.491C154.987 646.22 155.533 646.085 156.145 646.085C156.761 646.085 157.304 646.22 157.776 646.491C158.247 646.757 158.616 647.121 158.882 647.583C159.148 648.04 159.281 648.561 159.281 649.144C159.281 649.727 159.148 650.248 158.882 650.705C158.616 651.158 158.247 651.515 157.776 651.776C157.304 652.037 156.761 652.168 156.145 652.168ZM156.145 650.691C156.439 650.691 156.693 650.626 156.908 650.495C157.127 650.36 157.295 650.175 157.412 649.942C157.533 649.704 157.594 649.436 157.594 649.137C157.594 648.838 157.533 648.57 157.412 648.332C157.295 648.094 157.127 647.907 156.908 647.772C156.693 647.632 156.439 647.562 156.145 647.562C155.851 647.562 155.594 647.632 155.375 647.772C155.16 647.907 154.992 648.094 154.871 648.332C154.749 648.57 154.689 648.838 154.689 649.137C154.689 649.436 154.749 649.704 154.871 649.942C154.992 650.175 155.16 650.36 155.375 650.495C155.594 650.626 155.851 650.691 156.145 650.691ZM159.984 646.253H161.02V643.894H162.784V646.253H164.142V647.73H162.784V649.809C162.784 650.084 162.828 650.299 162.917 650.453C163.006 650.602 163.146 650.677 163.337 650.677C163.482 650.677 163.601 650.649 163.694 650.593C163.787 650.532 163.843 650.49 163.862 650.467L164.492 651.741C164.464 651.769 164.373 651.818 164.219 651.888C164.07 651.958 163.876 652.021 163.638 652.077C163.405 652.138 163.141 652.168 162.847 652.168C162.32 652.168 161.883 652.016 161.538 651.713C161.193 651.405 161.02 650.929 161.02 650.285V647.73H159.984V646.253ZM171.497 652.168C170.951 652.168 170.471 652.037 170.055 651.776C169.645 651.51 169.323 651.148 169.089 650.691C168.861 650.229 168.746 649.709 168.746 649.13C168.746 648.551 168.861 648.033 169.089 647.576C169.323 647.114 169.645 646.75 170.055 646.484C170.471 646.218 170.951 646.085 171.497 646.085C171.885 646.085 172.228 646.148 172.526 646.274C172.83 646.4 173.072 646.549 173.254 646.722C173.436 646.895 173.544 647.049 173.576 647.184V642.368H175.361V652H173.597V650.999C173.523 651.162 173.385 651.335 173.184 651.517C172.984 651.699 172.739 651.853 172.449 651.979C172.16 652.105 171.843 652.168 171.497 652.168ZM172.001 650.754C172.3 650.754 172.568 650.686 172.806 650.551C173.044 650.411 173.231 650.22 173.366 649.977C173.506 649.73 173.576 649.447 173.576 649.13C173.576 648.813 173.506 648.533 173.366 648.29C173.231 648.043 173.044 647.849 172.806 647.709C172.568 647.569 172.3 647.499 172.001 647.499C171.726 647.499 171.474 647.569 171.245 647.709C171.017 647.844 170.832 648.036 170.692 648.283C170.557 648.526 170.489 648.808 170.489 649.13C170.489 649.452 170.557 649.737 170.692 649.984C170.832 650.227 171.017 650.416 171.245 650.551C171.474 650.686 171.726 650.754 172.001 650.754ZM177.957 649.522C177.971 649.783 178.041 650.017 178.167 650.222C178.293 650.427 178.475 650.588 178.713 650.705C178.956 650.822 179.245 650.88 179.581 650.88C179.885 650.88 180.151 650.843 180.379 650.768C180.613 650.693 180.809 650.602 180.967 650.495C181.131 650.383 181.252 650.276 181.331 650.173L182.066 651.265C181.936 651.428 181.761 651.58 181.541 651.72C181.327 651.855 181.051 651.963 180.715 652.042C180.384 652.126 179.969 652.168 179.469 652.168C178.839 652.168 178.286 652.044 177.81 651.797C177.334 651.55 176.963 651.193 176.697 650.726C176.431 650.259 176.298 649.704 176.298 649.06C176.298 648.5 176.417 647.996 176.655 647.548C176.893 647.095 177.239 646.738 177.691 646.477C178.149 646.216 178.697 646.085 179.336 646.085C179.938 646.085 180.459 646.202 180.897 646.435C181.341 646.664 181.684 647 181.926 647.443C182.169 647.886 182.29 648.428 182.29 649.067C182.29 649.104 182.288 649.181 182.283 649.298C182.283 649.41 182.279 649.485 182.269 649.522H177.957ZM180.624 648.423C180.62 648.274 180.573 648.113 180.484 647.94C180.4 647.767 180.267 647.62 180.085 647.499C179.903 647.378 179.661 647.317 179.357 647.317C179.054 647.317 178.804 647.375 178.608 647.492C178.417 647.609 178.272 647.753 178.174 647.926C178.076 648.094 178.02 648.26 178.006 648.423H180.624ZM188.871 654.912H187.107V646.253H188.892V647.184C188.948 647.049 189.069 646.895 189.256 646.722C189.443 646.549 189.685 646.4 189.984 646.274C190.287 646.148 190.633 646.085 191.02 646.085C191.566 646.085 192.042 646.218 192.448 646.484C192.854 646.75 193.167 647.114 193.386 647.576C193.61 648.033 193.722 648.551 193.722 649.13C193.722 649.709 193.605 650.229 193.372 650.691C193.139 651.148 192.814 651.51 192.399 651.776C191.984 652.037 191.501 652.168 190.95 652.168C190.535 652.168 190.178 652.093 189.879 651.944C189.58 651.795 189.347 651.627 189.179 651.44C189.011 651.253 188.908 651.106 188.871 650.999V654.912ZM191.979 649.13C191.979 648.808 191.909 648.526 191.769 648.283C191.634 648.036 191.452 647.844 191.223 647.709C190.994 647.569 190.74 647.499 190.46 647.499C190.166 647.499 189.9 647.569 189.662 647.709C189.424 647.849 189.235 648.043 189.095 648.29C188.96 648.533 188.892 648.813 188.892 649.13C188.892 649.447 188.96 649.73 189.095 649.977C189.235 650.22 189.424 650.411 189.662 650.551C189.9 650.686 190.166 650.754 190.46 650.754C190.74 650.754 190.994 650.686 191.223 650.551C191.452 650.416 191.634 650.227 191.769 649.984C191.909 649.737 191.979 649.452 191.979 649.13ZM199.395 652V650.999C199.353 651.102 199.245 651.246 199.073 651.433C198.9 651.62 198.667 651.79 198.373 651.944C198.083 652.093 197.743 652.168 197.351 652.168C196.8 652.168 196.312 652.037 195.888 651.776C195.463 651.51 195.129 651.148 194.887 650.691C194.649 650.229 194.53 649.709 194.53 649.13C194.53 648.551 194.649 648.033 194.887 647.576C195.129 647.114 195.463 646.75 195.888 646.484C196.312 646.218 196.8 646.085 197.351 646.085C197.733 646.085 198.065 646.15 198.345 646.281C198.629 646.407 198.858 646.556 199.031 646.729C199.208 646.897 199.322 647.049 199.374 647.184V646.253H201.138V652H199.395ZM196.273 649.13C196.273 649.452 196.345 649.737 196.49 649.984C196.634 650.227 196.826 650.416 197.064 650.551C197.302 650.686 197.561 650.754 197.841 650.754C198.135 650.754 198.396 650.686 198.625 650.551C198.853 650.411 199.033 650.22 199.164 649.977C199.299 649.73 199.367 649.447 199.367 649.13C199.367 648.813 199.299 648.533 199.164 648.29C199.033 648.043 198.853 647.849 198.625 647.709C198.396 647.569 198.135 647.499 197.841 647.499C197.561 647.499 197.302 647.569 197.064 647.709C196.826 647.844 196.634 648.036 196.49 648.283C196.345 648.526 196.273 648.808 196.273 649.13ZM205.012 646.085C205.357 646.085 205.677 646.118 205.971 646.183C206.265 646.244 206.512 646.314 206.713 646.393C206.918 646.472 207.054 646.54 207.119 646.596L206.51 647.667C206.417 647.592 206.249 647.504 206.006 647.401C205.768 647.298 205.502 647.247 205.208 647.247C204.942 647.247 204.718 647.294 204.536 647.387C204.354 647.476 204.263 647.611 204.263 647.793C204.263 647.975 204.361 648.12 204.557 648.227C204.753 648.334 205.026 648.428 205.376 648.507C205.67 648.568 205.959 648.661 206.244 648.787C206.529 648.908 206.764 649.086 206.951 649.319C207.138 649.548 207.231 649.853 207.231 650.236C207.231 650.614 207.149 650.929 206.986 651.181C206.827 651.428 206.615 651.624 206.349 651.769C206.083 651.914 205.791 652.016 205.474 652.077C205.157 652.138 204.842 652.168 204.529 652.168C204.123 652.168 203.766 652.128 203.458 652.049C203.15 651.974 202.896 651.888 202.695 651.79C202.499 651.687 202.359 651.601 202.275 651.531L202.884 650.341C203.005 650.448 203.204 650.567 203.479 650.698C203.759 650.824 204.06 650.887 204.382 650.887C204.718 650.887 204.982 650.829 205.173 650.712C205.369 650.595 205.467 650.439 205.467 650.243C205.467 650.098 205.42 649.982 205.327 649.893C205.234 649.8 205.105 649.723 204.942 649.662C204.779 649.601 204.587 649.548 204.368 649.501C204.167 649.459 203.962 649.398 203.752 649.319C203.542 649.235 203.346 649.125 203.164 648.99C202.982 648.855 202.835 648.687 202.723 648.486C202.611 648.281 202.555 648.036 202.555 647.751C202.555 647.387 202.672 647.084 202.905 646.841C203.138 646.594 203.442 646.407 203.815 646.281C204.188 646.15 204.587 646.085 205.012 646.085ZM210.891 646.085C211.236 646.085 211.556 646.118 211.85 646.183C212.144 646.244 212.391 646.314 212.592 646.393C212.797 646.472 212.933 646.54 212.998 646.596L212.389 647.667C212.296 647.592 212.128 647.504 211.885 647.401C211.647 647.298 211.381 647.247 211.087 647.247C210.821 647.247 210.597 647.294 210.415 647.387C210.233 647.476 210.142 647.611 210.142 647.793C210.142 647.975 210.24 648.12 210.436 648.227C210.632 648.334 210.905 648.428 211.255 648.507C211.549 648.568 211.838 648.661 212.123 648.787C212.408 648.908 212.643 649.086 212.83 649.319C213.017 649.548 213.11 649.853 213.11 650.236C213.11 650.614 213.028 650.929 212.865 651.181C212.706 651.428 212.494 651.624 212.228 651.769C211.962 651.914 211.67 652.016 211.353 652.077C211.036 652.138 210.721 652.168 210.408 652.168C210.002 652.168 209.645 652.128 209.337 652.049C209.029 651.974 208.775 651.888 208.574 651.79C208.378 651.687 208.238 651.601 208.154 651.531L208.763 650.341C208.884 650.448 209.083 650.567 209.358 650.698C209.638 650.824 209.939 650.887 210.261 650.887C210.597 650.887 210.861 650.829 211.052 650.712C211.248 650.595 211.346 650.439 211.346 650.243C211.346 650.098 211.299 649.982 211.206 649.893C211.113 649.8 210.984 649.723 210.821 649.662C210.658 649.601 210.466 649.548 210.247 649.501C210.046 649.459 209.841 649.398 209.631 649.319C209.421 649.235 209.225 649.125 209.043 648.99C208.861 648.855 208.714 648.687 208.602 648.486C208.49 648.281 208.434 648.036 208.434 647.751C208.434 647.387 208.551 647.084 208.784 646.841C209.017 646.594 209.321 646.407 209.694 646.281C210.067 646.15 210.466 646.085 210.891 646.085ZM215.678 649.522C215.692 649.783 215.762 650.017 215.888 650.222C216.014 650.427 216.196 650.588 216.434 650.705C216.677 650.822 216.966 650.88 217.302 650.88C217.605 650.88 217.871 650.843 218.1 650.768C218.333 650.693 218.529 650.602 218.688 650.495C218.851 650.383 218.973 650.276 219.052 650.173L219.787 651.265C219.656 651.428 219.481 651.58 219.262 651.72C219.047 651.855 218.772 651.963 218.436 652.042C218.105 652.126 217.689 652.168 217.19 652.168C216.56 652.168 216.007 652.044 215.531 651.797C215.055 651.55 214.684 651.193 214.418 650.726C214.152 650.259 214.019 649.704 214.019 649.06C214.019 648.5 214.138 647.996 214.376 647.548C214.614 647.095 214.959 646.738 215.412 646.477C215.869 646.216 216.418 646.085 217.057 646.085C217.659 646.085 218.179 646.202 218.618 646.435C219.061 646.664 219.404 647 219.647 647.443C219.89 647.886 220.011 648.428 220.011 649.067C220.011 649.104 220.009 649.181 220.004 649.298C220.004 649.41 219.999 649.485 219.99 649.522H215.678ZM218.345 648.423C218.34 648.274 218.294 648.113 218.205 647.94C218.121 647.767 217.988 647.62 217.806 647.499C217.624 647.378 217.381 647.317 217.078 647.317C216.775 647.317 216.525 647.375 216.329 647.492C216.138 647.609 215.993 647.753 215.895 647.926C215.797 648.094 215.741 648.26 215.727 648.423H218.345ZM227.649 652.168C227.037 652.168 226.491 652.037 226.011 651.776C225.535 651.515 225.161 651.158 224.891 650.705C224.62 650.248 224.485 649.727 224.485 649.144C224.485 648.561 224.62 648.04 224.891 647.583C225.161 647.121 225.535 646.757 226.011 646.491C226.491 646.22 227.037 646.085 227.649 646.085C228.265 646.085 228.808 646.22 229.28 646.491C229.751 646.757 230.12 647.121 230.386 647.583C230.652 648.04 230.785 648.561 230.785 649.144C230.785 649.727 230.652 650.248 230.386 650.705C230.12 651.158 229.751 651.515 229.28 651.776C228.808 652.037 228.265 652.168 227.649 652.168ZM227.649 650.691C227.943 650.691 228.197 650.626 228.412 650.495C228.631 650.36 228.799 650.175 228.916 649.942C229.037 649.704 229.098 649.436 229.098 649.137C229.098 648.838 229.037 648.57 228.916 648.332C228.799 648.094 228.631 647.907 228.412 647.772C228.197 647.632 227.943 647.562 227.649 647.562C227.355 647.562 227.098 647.632 226.879 647.772C226.664 647.907 226.496 648.094 226.375 648.332C226.253 648.57 226.193 648.838 226.193 649.137C226.193 649.436 226.253 649.704 226.375 649.942C226.496 650.175 226.664 650.36 226.879 650.495C227.098 650.626 227.355 650.691 227.649 650.691ZM233.658 649.004C233.658 649.517 233.761 649.928 233.966 650.236C234.171 650.539 234.503 650.691 234.96 650.691C235.422 650.691 235.756 650.539 235.961 650.236C236.166 649.928 236.269 649.517 236.269 649.004V646.253H238.019V649.207C238.019 649.8 237.9 650.32 237.662 650.768C237.424 651.211 237.076 651.557 236.619 651.804C236.166 652.047 235.613 652.168 234.96 652.168C234.311 652.168 233.758 652.047 233.301 651.804C232.848 651.557 232.503 651.211 232.265 650.768C232.027 650.32 231.908 649.8 231.908 649.207V646.253H233.658V649.004ZM239.429 652V642.368H241.207V647.184C241.244 647.049 241.354 646.895 241.536 646.722C241.718 646.549 241.958 646.4 242.257 646.274C242.56 646.148 242.903 646.085 243.286 646.085C243.836 646.085 244.317 646.218 244.728 646.484C245.143 646.75 245.465 647.114 245.694 647.576C245.927 648.033 246.043 648.551 246.043 649.13C246.043 649.709 245.927 650.229 245.694 650.691C245.465 651.148 245.143 651.51 244.728 651.776C244.317 652.037 243.836 652.168 243.286 652.168C242.945 652.168 242.628 652.105 242.334 651.979C242.044 651.853 241.799 651.699 241.599 651.517C241.403 651.335 241.265 651.162 241.186 650.999V652H239.429ZM244.294 649.13C244.294 648.808 244.226 648.526 244.091 648.283C243.955 648.036 243.773 647.844 243.545 647.709C243.316 647.569 243.062 647.499 242.782 647.499C242.488 647.499 242.222 647.569 241.984 647.709C241.746 647.849 241.557 648.043 241.417 648.29C241.277 648.533 241.207 648.813 241.207 649.13C241.207 649.447 241.277 649.73 241.417 649.977C241.557 650.22 241.746 650.411 241.984 650.551C242.222 650.686 242.488 650.754 242.782 650.754C243.062 650.754 243.316 650.686 243.545 650.551C243.773 650.416 243.955 650.227 244.091 649.984C244.226 649.737 244.294 649.452 244.294 649.13ZM248.884 652H247.099V642.368H248.884V652ZM250.492 652V646.253H252.263V652H250.492ZM251.402 644.769C251.108 644.769 250.858 644.666 250.653 644.461C250.452 644.256 250.352 644.011 250.352 643.726C250.352 643.441 250.455 643.194 250.66 642.984C250.865 642.774 251.113 642.669 251.402 642.669C251.593 642.669 251.768 642.718 251.927 642.816C252.086 642.909 252.214 643.035 252.312 643.194C252.41 643.353 252.459 643.53 252.459 643.726C252.459 644.011 252.354 644.256 252.144 644.461C251.939 644.666 251.691 644.769 251.402 644.769ZM255.203 649.522C255.217 649.783 255.287 650.017 255.413 650.222C255.539 650.427 255.721 650.588 255.959 650.705C256.202 650.822 256.491 650.88 256.827 650.88C257.131 650.88 257.397 650.843 257.625 650.768C257.859 650.693 258.055 650.602 258.213 650.495C258.377 650.383 258.498 650.276 258.577 650.173L259.312 651.265C259.182 651.428 259.007 651.58 258.787 651.72C258.573 651.855 258.297 651.963 257.961 652.042C257.63 652.126 257.215 652.168 256.715 652.168C256.085 652.168 255.532 652.044 255.056 651.797C254.58 651.55 254.209 651.193 253.943 650.726C253.677 650.259 253.544 649.704 253.544 649.06C253.544 648.5 253.663 647.996 253.901 647.548C254.139 647.095 254.485 646.738 254.937 646.477C255.395 646.216 255.943 646.085 256.582 646.085C257.184 646.085 257.705 646.202 258.143 646.435C258.587 646.664 258.93 647 259.172 647.443C259.415 647.886 259.536 648.428 259.536 649.067C259.536 649.104 259.534 649.181 259.529 649.298C259.529 649.41 259.525 649.485 259.515 649.522H255.203ZM257.87 648.423C257.866 648.274 257.819 648.113 257.73 647.94C257.646 647.767 257.513 647.62 257.331 647.499C257.149 647.378 256.907 647.317 256.603 647.317C256.3 647.317 256.05 647.375 255.854 647.492C255.663 647.609 255.518 647.753 255.42 647.926C255.322 648.094 255.266 648.26 255.252 648.423H257.87ZM255.735 645.553L255.189 644.804L257.401 642.921L258.29 644.034L255.735 645.553ZM266.033 649.158V647.702C266.033 647.403 266.1 647.161 266.236 646.974C266.376 646.787 266.567 646.629 266.81 646.498C266.992 646.391 267.171 646.267 267.349 646.127C267.526 645.987 267.673 645.826 267.79 645.644C267.911 645.462 267.972 645.257 267.972 645.028C267.972 644.706 267.862 644.468 267.643 644.314C267.428 644.16 267.132 644.083 266.754 644.083C266.478 644.083 266.243 644.144 266.047 644.265C265.855 644.382 265.701 644.524 265.585 644.692C265.468 644.86 265.386 645.016 265.34 645.161L263.877 644.566C263.891 644.496 263.935 644.386 264.01 644.237C264.089 644.083 264.206 643.913 264.36 643.726C264.514 643.539 264.71 643.36 264.948 643.187C265.19 643.014 265.477 642.872 265.809 642.76C266.145 642.648 266.53 642.592 266.964 642.592C267.528 642.592 268.028 642.681 268.462 642.858C268.9 643.035 269.243 643.287 269.491 643.614C269.738 643.941 269.862 644.328 269.862 644.776C269.862 645.177 269.768 645.525 269.582 645.819C269.395 646.113 269.166 646.367 268.896 646.582C268.63 646.792 268.378 646.974 268.14 647.128C267.916 647.259 267.764 647.406 267.685 647.569C267.61 647.732 267.573 647.952 267.573 648.227V649.158H266.033ZM266.824 652.168C266.511 652.168 266.243 652.056 266.019 651.832C265.795 651.608 265.683 651.34 265.683 651.027C265.683 650.705 265.795 650.432 266.019 650.208C266.243 649.984 266.511 649.872 266.824 649.872C267.146 649.872 267.419 649.984 267.643 650.208C267.867 650.432 267.979 650.705 267.979 651.027C267.979 651.34 267.867 651.608 267.643 651.832C267.419 652.056 267.146 652.168 266.824 652.168Z" fill="#093030"/>
<path id="Vector" fill-rule="evenodd" clip-rule="evenodd" d="M250.452 228.489C236.076 239.59 224.68 247.785 209.184 258.161C193.825 268.447 187.662 272.853 181.039 278.282C172.973 284.895 166.929 291.946 164.096 298.048C163.109 300.174 161.927 303.549 161.312 306.001C160.217 310.362 159.721 317.153 160.158 321.828C160.664 327.254 161.764 331.912 162.496 331.734C162.633 331.701 163.28 330.655 163.934 329.409C166.395 324.718 168.489 321.166 170.139 318.88C176.342 310.289 183.808 303.663 195.342 296.513C199.251 294.09 205.909 290.428 219.231 283.374C224.02 280.839 229.935 277.674 232.375 276.341C234.815 275.008 236.849 273.946 236.895 273.981C237.093 274.13 235.757 276.697 234.52 278.545C231.847 282.54 227.99 286.492 222.585 290.776C220.517 292.415 214.702 296.445 209.296 299.987C198.451 307.091 193.652 310.635 189.312 314.748C178.981 324.535 174.075 334.458 172.799 348.143C172.701 349.193 172.744 349.66 172.957 349.88C173.218 350.15 173.346 350.036 174.188 348.782C179.689 340.588 185.29 335.334 192.216 331.871C196.915 329.521 199.622 328.66 209.655 326.319C221.894 323.465 230.168 320.132 238.432 314.726C247.295 308.929 254.75 301.042 259.161 292.795C261.96 287.563 263.67 281.989 264.586 275.114C265.138 270.974 265.138 258.509 264.586 252.852C263.564 242.378 261.691 232.775 259.305 225.783C258.506 223.441 258.28 223 257.881 223C257.705 223 254.362 225.47 250.452 228.489Z" fill="#00D09E"/>
</g>
</svg>
