<svg width="430" height="932" viewBox="0 0 430 932" fill="none" xmlns="http://www.w3.org/2000/svg">
<g id="3.0 - A - Login">
<g clip-path="url(#clip0_7020_3634)">
<rect width="430" height="932" rx="40" fill="#00D09E"/>
<path id="Base Shape" d="M1 257C1 218.34 32.3401 187 71 187H361C399.66 187 431 218.34 431 257V932H1V257Z" fill="#F1FFF3"/>
<g id="Log in Dark Mode">
<g id="Group 54">
<rect id="Rectangle 37" x="112" y="530" width="207" height="45" rx="22.5" fill="#00D09E"/>
</g>
<path id="Log In" d="M152.997 559.14C152.024 559.14 151.144 558.973 150.357 558.64C149.584 558.307 148.97 557.827 148.517 557.2C148.064 556.573 147.83 555.833 147.817 554.98H150.817C150.857 555.553 151.057 556.007 151.417 556.34C151.79 556.673 152.297 556.84 152.937 556.84C153.59 556.84 154.104 556.687 154.477 556.38C154.85 556.06 155.037 555.647 155.037 555.14C155.037 554.727 154.91 554.387 154.657 554.12C154.404 553.853 154.084 553.647 153.697 553.5C153.324 553.34 152.804 553.167 152.137 552.98C151.23 552.713 150.49 552.453 149.917 552.2C149.357 551.933 148.87 551.54 148.457 551.02C148.057 550.487 147.857 549.78 147.857 548.9C147.857 548.073 148.064 547.353 148.477 546.74C148.89 546.127 149.47 545.66 150.217 545.34C150.964 545.007 151.817 544.84 152.777 544.84C154.217 544.84 155.384 545.193 156.277 545.9C157.184 546.593 157.684 547.567 157.777 548.82H154.697C154.67 548.34 154.464 547.947 154.077 547.64C153.704 547.32 153.204 547.16 152.577 547.16C152.03 547.16 151.59 547.3 151.257 547.58C150.937 547.86 150.777 548.267 150.777 548.8C150.777 549.173 150.897 549.487 151.137 549.74C151.39 549.98 151.697 550.18 152.057 550.34C152.43 550.487 152.95 550.66 153.617 550.86C154.524 551.127 155.264 551.393 155.837 551.66C156.41 551.927 156.904 552.327 157.317 552.86C157.73 553.393 157.937 554.093 157.937 554.96C157.937 555.707 157.744 556.4 157.357 557.04C156.97 557.68 156.404 558.193 155.657 558.58C154.91 558.953 154.024 559.14 152.997 559.14ZM170.664 553.22C170.664 553.62 170.638 553.98 170.584 554.3H162.484C162.551 555.1 162.831 555.727 163.324 556.18C163.818 556.633 164.424 556.86 165.144 556.86C166.184 556.86 166.924 556.413 167.364 555.52H170.384C170.064 556.587 169.451 557.467 168.544 558.16C167.638 558.84 166.524 559.18 165.204 559.18C164.138 559.18 163.178 558.947 162.324 558.48C161.484 558 160.824 557.327 160.344 556.46C159.878 555.593 159.644 554.593 159.644 553.46C159.644 552.313 159.878 551.307 160.344 550.44C160.811 549.573 161.464 548.907 162.304 548.44C163.144 547.973 164.111 547.74 165.204 547.74C166.258 547.74 167.198 547.967 168.024 548.42C168.864 548.873 169.511 549.52 169.964 550.36C170.431 551.187 170.664 552.14 170.664 553.22ZM167.764 552.42C167.751 551.7 167.491 551.127 166.984 550.7C166.478 550.26 165.858 550.04 165.124 550.04C164.431 550.04 163.844 550.253 163.364 550.68C162.898 551.093 162.611 551.673 162.504 552.42H167.764ZM176.794 552C176.794 550.627 177.1 549.4 177.714 548.32C178.34 547.227 179.187 546.38 180.254 545.78C181.334 545.167 182.54 544.86 183.874 544.86C185.434 544.86 186.8 545.26 187.974 546.06C189.147 546.86 189.967 547.967 190.434 549.38H187.214C186.894 548.713 186.44 548.213 185.854 547.88C185.28 547.547 184.614 547.38 183.854 547.38C183.04 547.38 182.314 547.573 181.674 547.96C181.047 548.333 180.554 548.867 180.194 549.56C179.847 550.253 179.674 551.067 179.674 552C179.674 552.92 179.847 553.733 180.194 554.44C180.554 555.133 181.047 555.673 181.674 556.06C182.314 556.433 183.04 556.62 183.854 556.62C184.614 556.62 185.28 556.453 185.854 556.12C186.44 555.773 186.894 555.267 187.214 554.6H190.434C189.967 556.027 189.147 557.14 187.974 557.94C186.814 558.727 185.447 559.12 183.874 559.12C182.54 559.12 181.334 558.82 180.254 558.22C179.187 557.607 178.34 556.76 177.714 555.68C177.1 554.6 176.794 553.373 176.794 552ZM197.745 559.18C196.679 559.18 195.719 558.947 194.865 558.48C194.012 558 193.339 557.327 192.845 556.46C192.365 555.593 192.125 554.593 192.125 553.46C192.125 552.327 192.372 551.327 192.865 550.46C193.372 549.593 194.059 548.927 194.925 548.46C195.792 547.98 196.759 547.74 197.825 547.74C198.892 547.74 199.859 547.98 200.725 548.46C201.592 548.927 202.272 549.593 202.765 550.46C203.272 551.327 203.525 552.327 203.525 553.46C203.525 554.593 203.265 555.593 202.745 556.46C202.239 557.327 201.545 558 200.665 558.48C199.799 558.947 198.825 559.18 197.745 559.18ZM197.745 556.74C198.252 556.74 198.725 556.62 199.165 556.38C199.619 556.127 199.979 555.753 200.245 555.26C200.512 554.767 200.645 554.167 200.645 553.46C200.645 552.407 200.365 551.6 199.805 551.04C199.259 550.467 198.585 550.18 197.785 550.18C196.985 550.18 196.312 550.467 195.765 551.04C195.232 551.6 194.965 552.407 194.965 553.46C194.965 554.513 195.225 555.327 195.745 555.9C196.279 556.46 196.945 556.74 197.745 556.74ZM211.719 547.76C213.039 547.76 214.106 548.18 214.919 549.02C215.733 549.847 216.139 551.007 216.139 552.5V559H213.339V552.88C213.339 552 213.119 551.327 212.679 550.86C212.239 550.38 211.639 550.14 210.879 550.14C210.106 550.14 209.493 550.38 209.039 550.86C208.599 551.327 208.379 552 208.379 552.88V559H205.579V547.92H208.379V549.3C208.753 548.82 209.226 548.447 209.799 548.18C210.386 547.9 211.026 547.76 211.719 547.76ZM224.942 547.76C226.262 547.76 227.329 548.18 228.142 549.02C228.955 549.847 229.362 551.007 229.362 552.5V559H226.562V552.88C226.562 552 226.342 551.327 225.902 550.86C225.462 550.38 224.862 550.14 224.102 550.14C223.329 550.14 222.715 550.38 222.262 550.86C221.822 551.327 221.602 552 221.602 552.88V559H218.802V547.92H221.602V549.3C221.975 548.82 222.449 548.447 223.022 548.18C223.609 547.9 224.249 547.76 224.942 547.76ZM242.325 553.22C242.325 553.62 242.298 553.98 242.245 554.3H234.145C234.211 555.1 234.491 555.727 234.985 556.18C235.478 556.633 236.085 556.86 236.805 556.86C237.845 556.86 238.585 556.413 239.025 555.52H242.045C241.725 556.587 241.111 557.467 240.205 558.16C239.298 558.84 238.185 559.18 236.865 559.18C235.798 559.18 234.838 558.947 233.985 558.48C233.145 558 232.485 557.327 232.005 556.46C231.538 555.593 231.305 554.593 231.305 553.46C231.305 552.313 231.538 551.307 232.005 550.44C232.471 549.573 233.125 548.907 233.965 548.44C234.805 547.973 235.771 547.74 236.865 547.74C237.918 547.74 238.858 547.967 239.685 548.42C240.525 548.873 241.171 549.52 241.625 550.36C242.091 551.187 242.325 552.14 242.325 553.22ZM239.425 552.42C239.411 551.7 239.151 551.127 238.645 550.7C238.138 550.26 237.518 550.04 236.785 550.04C236.091 550.04 235.505 550.253 235.025 550.68C234.558 551.093 234.271 551.673 234.165 552.42H239.425ZM243.648 553.46C243.648 552.313 243.882 551.313 244.348 550.46C244.815 549.593 245.462 548.927 246.288 548.46C247.115 547.98 248.062 547.74 249.128 547.74C250.502 547.74 251.635 548.087 252.528 548.78C253.435 549.46 254.042 550.42 254.348 551.66H251.328C251.168 551.18 250.895 550.807 250.508 550.54C250.135 550.26 249.668 550.12 249.108 550.12C248.308 550.12 247.675 550.413 247.208 551C246.742 551.573 246.508 552.393 246.508 553.46C246.508 554.513 246.742 555.333 247.208 555.92C247.675 556.493 248.308 556.78 249.108 556.78C250.242 556.78 250.982 556.273 251.328 555.26H254.348C254.042 556.46 253.435 557.413 252.528 558.12C251.622 558.827 250.488 559.18 249.128 559.18C248.062 559.18 247.115 558.947 246.288 558.48C245.462 558 244.815 557.333 244.348 556.48C243.882 555.613 243.648 554.607 243.648 553.46ZM259.66 550.22V555.58C259.66 555.953 259.746 556.227 259.92 556.4C260.106 556.56 260.413 556.64 260.84 556.64H262.14V559H260.38C258.02 559 256.84 557.853 256.84 555.56V550.22H255.52V547.92H256.84V545.18H259.66V547.92H262.14V550.22H259.66ZM274.453 553.22C274.453 553.62 274.427 553.98 274.373 554.3H266.273C266.34 555.1 266.62 555.727 267.113 556.18C267.607 556.633 268.213 556.86 268.933 556.86C269.973 556.86 270.713 556.413 271.153 555.52H274.173C273.853 556.587 273.24 557.467 272.333 558.16C271.427 558.84 270.313 559.18 268.993 559.18C267.927 559.18 266.967 558.947 266.113 558.48C265.273 558 264.613 557.327 264.133 556.46C263.667 555.593 263.433 554.593 263.433 553.46C263.433 552.313 263.667 551.307 264.133 550.44C264.6 549.573 265.253 548.907 266.093 548.44C266.933 547.973 267.9 547.74 268.993 547.74C270.047 547.74 270.987 547.967 271.813 548.42C272.653 548.873 273.3 549.52 273.753 550.36C274.22 551.187 274.453 552.14 274.453 553.22ZM271.553 552.42C271.54 551.7 271.28 551.127 270.773 550.7C270.267 550.26 269.647 550.04 268.913 550.04C268.22 550.04 267.633 550.253 267.153 550.68C266.687 551.093 266.4 551.673 266.293 552.42H271.553ZM279.297 549.64C279.657 549.053 280.124 548.593 280.697 548.26C281.284 547.927 281.951 547.76 282.697 547.76V550.7H281.957C281.077 550.7 280.411 550.907 279.957 551.32C279.517 551.733 279.297 552.453 279.297 553.48V559H276.497V547.92H279.297V549.64Z" fill="#093030"/>
</g>
<g id="Log in Dark Mode_2">
<g id="Group 54_2">
<rect id="Rectangle 37_2" x="112" y="621" width="207" height="45" rx="22.5" fill="#DFF7E2"/>
</g>
<path id="Log In_2" d="M174.452 650.14C173.479 650.14 172.599 649.973 171.812 649.64C171.039 649.307 170.425 648.827 169.972 648.2C169.519 647.573 169.285 646.833 169.272 645.98H172.272C172.312 646.553 172.512 647.007 172.872 647.34C173.245 647.673 173.752 647.84 174.392 647.84C175.045 647.84 175.559 647.687 175.932 647.38C176.305 647.06 176.492 646.647 176.492 646.14C176.492 645.727 176.365 645.387 176.112 645.12C175.859 644.853 175.539 644.647 175.152 644.5C174.779 644.34 174.259 644.167 173.592 643.98C172.685 643.713 171.945 643.453 171.372 643.2C170.812 642.933 170.325 642.54 169.912 642.02C169.512 641.487 169.312 640.78 169.312 639.9C169.312 639.073 169.519 638.353 169.932 637.74C170.345 637.127 170.925 636.66 171.672 636.34C172.419 636.007 173.272 635.84 174.232 635.84C175.672 635.84 176.839 636.193 177.732 636.9C178.639 637.593 179.139 638.567 179.232 639.82H176.152C176.125 639.34 175.919 638.947 175.532 638.64C175.159 638.32 174.659 638.16 174.032 638.16C173.485 638.16 173.045 638.3 172.712 638.58C172.392 638.86 172.232 639.267 172.232 639.8C172.232 640.173 172.352 640.487 172.592 640.74C172.845 640.98 173.152 641.18 173.512 641.34C173.885 641.487 174.405 641.66 175.072 641.86C175.979 642.127 176.719 642.393 177.292 642.66C177.865 642.927 178.359 643.327 178.772 643.86C179.185 644.393 179.392 645.093 179.392 645.96C179.392 646.707 179.199 647.4 178.812 648.04C178.425 648.68 177.859 649.193 177.112 649.58C176.365 649.953 175.479 650.14 174.452 650.14ZM182.379 636.04H185.319L183.159 641.08H181.239L182.379 636.04ZM188.747 637.6C188.254 637.6 187.841 637.447 187.507 637.14C187.187 636.82 187.027 636.427 187.027 635.96C187.027 635.493 187.187 635.107 187.507 634.8C187.841 634.48 188.254 634.32 188.747 634.32C189.241 634.32 189.647 634.48 189.967 634.8C190.301 635.107 190.467 635.493 190.467 635.96C190.467 636.427 190.301 636.82 189.967 637.14C189.647 637.447 189.241 637.6 188.747 637.6ZM190.127 638.92V650H187.327V638.92H190.127ZM199.034 638.76C200.354 638.76 201.42 639.18 202.234 640.02C203.047 640.847 203.454 642.007 203.454 643.5V650H200.654V643.88C200.654 643 200.434 642.327 199.994 641.86C199.554 641.38 198.954 641.14 198.194 641.14C197.42 641.14 196.807 641.38 196.354 641.86C195.914 642.327 195.694 643 195.694 643.88V650H192.894V638.92H195.694V640.3C196.067 639.82 196.54 639.447 197.114 639.18C197.7 638.9 198.34 638.76 199.034 638.76ZM210.356 650.18C209.45 650.18 208.636 650.02 207.916 649.7C207.196 649.367 206.623 648.92 206.196 648.36C205.783 647.8 205.556 647.18 205.516 646.5H208.336C208.39 646.927 208.596 647.28 208.956 647.56C209.33 647.84 209.79 647.98 210.336 647.98C210.87 647.98 211.283 647.873 211.576 647.66C211.883 647.447 212.036 647.173 212.036 646.84C212.036 646.48 211.85 646.213 211.476 646.04C211.116 645.853 210.536 645.653 209.736 645.44C208.91 645.24 208.23 645.033 207.696 644.82C207.176 644.607 206.723 644.28 206.336 643.84C205.963 643.4 205.776 642.807 205.776 642.06C205.776 641.447 205.95 640.887 206.296 640.38C206.656 639.873 207.163 639.473 207.816 639.18C208.483 638.887 209.263 638.74 210.156 638.74C211.476 638.74 212.53 639.073 213.316 639.74C214.103 640.393 214.536 641.28 214.616 642.4H211.936C211.896 641.96 211.71 641.613 211.376 641.36C211.056 641.093 210.623 640.96 210.076 640.96C209.57 640.96 209.176 641.053 208.896 641.24C208.63 641.427 208.496 641.687 208.496 642.02C208.496 642.393 208.683 642.68 209.056 642.88C209.43 643.067 210.01 643.26 210.796 643.46C211.596 643.66 212.256 643.867 212.776 644.08C213.296 644.293 213.743 644.627 214.116 645.08C214.503 645.52 214.703 646.107 214.716 646.84C214.716 647.48 214.536 648.053 214.176 648.56C213.83 649.067 213.323 649.467 212.656 649.76C212.003 650.04 211.236 650.18 210.356 650.18ZM216.295 644.46C216.295 643.313 216.528 642.313 216.995 641.46C217.461 640.593 218.108 639.927 218.935 639.46C219.761 638.98 220.708 638.74 221.775 638.74C223.148 638.74 224.281 639.087 225.175 639.78C226.081 640.46 226.688 641.42 226.995 642.66H223.975C223.815 642.18 223.541 641.807 223.155 641.54C222.781 641.26 222.315 641.12 221.755 641.12C220.955 641.12 220.321 641.413 219.855 642C219.388 642.573 219.155 643.393 219.155 644.46C219.155 645.513 219.388 646.333 219.855 646.92C220.321 647.493 220.955 647.78 221.755 647.78C222.888 647.78 223.628 647.273 223.975 646.26H226.995C226.688 647.46 226.081 648.413 225.175 649.12C224.268 649.827 223.135 650.18 221.775 650.18C220.708 650.18 219.761 649.947 218.935 649.48C218.108 649 217.461 648.333 216.995 647.48C216.528 646.613 216.295 645.607 216.295 644.46ZM231.846 640.64C232.206 640.053 232.673 639.593 233.246 639.26C233.833 638.927 234.499 638.76 235.246 638.76V641.7H234.506C233.626 641.7 232.959 641.907 232.506 642.32C232.066 642.733 231.846 643.453 231.846 644.48V650H229.046V638.92H231.846V640.64ZM238.552 637.6C238.059 637.6 237.645 637.447 237.312 637.14C236.992 636.82 236.832 636.427 236.832 635.96C236.832 635.493 236.992 635.107 237.312 634.8C237.645 634.48 238.059 634.32 238.552 634.32C239.045 634.32 239.452 634.48 239.772 634.8C240.105 635.107 240.272 635.493 240.272 635.96C240.272 636.427 240.105 636.82 239.772 637.14C239.452 637.447 239.045 637.6 238.552 637.6ZM239.932 638.92V650H237.132V638.92H239.932ZM245.498 640.64C245.858 640.053 246.325 639.593 246.898 639.26C247.485 638.927 248.152 638.76 248.898 638.76V641.7H248.158C247.278 641.7 246.612 641.907 246.158 642.32C245.718 642.733 245.498 643.453 245.498 644.48V650H242.698V638.92H245.498V640.64ZM261.084 644.22C261.084 644.62 261.058 644.98 261.004 645.3H252.904C252.971 646.1 253.251 646.727 253.744 647.18C254.238 647.633 254.844 647.86 255.564 647.86C256.604 647.86 257.344 647.413 257.784 646.52H260.804C260.484 647.587 259.871 648.467 258.964 649.16C258.058 649.84 256.944 650.18 255.624 650.18C254.558 650.18 253.598 649.947 252.744 649.48C251.904 649 251.244 648.327 250.764 647.46C250.298 646.593 250.064 645.593 250.064 644.46C250.064 643.313 250.298 642.307 250.764 641.44C251.231 640.573 251.884 639.907 252.724 639.44C253.564 638.973 254.531 638.74 255.624 638.74C256.678 638.74 257.618 638.967 258.444 639.42C259.284 639.873 259.931 640.52 260.384 641.36C260.851 642.187 261.084 643.14 261.084 644.22ZM258.184 643.42C258.171 642.7 257.911 642.127 257.404 641.7C256.898 641.26 256.278 641.04 255.544 641.04C254.851 641.04 254.264 641.253 253.784 641.68C253.318 642.093 253.031 642.673 252.924 643.42H258.184Z" fill="#0E3E3E"/>
</g>
<path id="Bienvenue" d="M149.133 111.26C150.313 111.48 151.283 112.07 152.043 113.03C152.803 113.99 153.183 115.09 153.183 116.33C153.183 117.45 152.903 118.44 152.343 119.3C151.803 120.14 151.013 120.8 149.973 121.28C148.933 121.76 147.703 122 146.283 122H137.253V101.06H145.893C147.313 101.06 148.533 101.29 149.553 101.75C150.593 102.21 151.373 102.85 151.893 103.67C152.433 104.49 152.703 105.42 152.703 106.46C152.703 107.68 152.373 108.7 151.713 109.52C151.073 110.34 150.213 110.92 149.133 111.26ZM141.453 109.7H145.293C146.293 109.7 147.063 109.48 147.603 109.04C148.143 108.58 148.413 107.93 148.413 107.09C148.413 106.25 148.143 105.6 147.603 105.14C147.063 104.68 146.293 104.45 145.293 104.45H141.453V109.7ZM145.683 118.58C146.703 118.58 147.493 118.34 148.053 117.86C148.633 117.38 148.923 116.7 148.923 115.82C148.923 114.92 148.623 114.22 148.023 113.72C147.423 113.2 146.613 112.94 145.593 112.94H141.453V118.58H145.683ZM158.66 103.4C157.92 103.4 157.3 103.17 156.8 102.71C156.32 102.23 156.08 101.64 156.08 100.94C156.08 100.24 156.32 99.66 156.8 99.2C157.3 98.72 157.92 98.48 158.66 98.48C159.4 98.48 160.01 98.72 160.49 99.2C160.99 99.66 161.24 100.24 161.24 100.94C161.24 101.64 160.99 102.23 160.49 102.71C160.01 103.17 159.4 103.4 158.66 103.4ZM160.73 105.38V122H156.53V105.38H160.73ZM180.33 113.33C180.33 113.93 180.29 114.47 180.21 114.95H168.06C168.16 116.15 168.58 117.09 169.32 117.77C170.06 118.45 170.97 118.79 172.05 118.79C173.61 118.79 174.72 118.12 175.38 116.78H179.91C179.43 118.38 178.51 119.7 177.15 120.74C175.79 121.76 174.12 122.27 172.14 122.27C170.54 122.27 169.1 121.92 167.82 121.22C166.56 120.5 165.57 119.49 164.85 118.19C164.15 116.89 163.8 115.39 163.8 113.69C163.8 111.97 164.15 110.46 164.85 109.16C165.55 107.86 166.53 106.86 167.79 106.16C169.05 105.46 170.5 105.11 172.14 105.11C173.72 105.11 175.13 105.45 176.37 106.13C177.63 106.81 178.6 107.78 179.28 109.04C179.98 110.28 180.33 111.71 180.33 113.33ZM175.98 112.13C175.96 111.05 175.57 110.19 174.81 109.55C174.05 108.89 173.12 108.56 172.02 108.56C170.98 108.56 170.1 108.88 169.38 109.52C168.68 110.14 168.25 111.01 168.09 112.13H175.98ZM192.605 105.14C194.585 105.14 196.185 105.77 197.405 107.03C198.625 108.27 199.235 110.01 199.235 112.25V122H195.035V112.82C195.035 111.5 194.705 110.49 194.045 109.79C193.385 109.07 192.485 108.71 191.345 108.71C190.185 108.71 189.265 109.07 188.585 109.79C187.925 110.49 187.595 111.5 187.595 112.82V122H183.395V105.38H187.595V107.45C188.155 106.73 188.865 106.17 189.725 105.77C190.605 105.35 191.565 105.14 192.605 105.14ZM210.159 118.13L214.359 105.38H218.829L212.679 122H207.579L201.459 105.38H205.959L210.159 118.13ZM236.638 113.33C236.638 113.93 236.598 114.47 236.518 114.95H224.368C224.468 116.15 224.888 117.09 225.628 117.77C226.368 118.45 227.278 118.79 228.358 118.79C229.918 118.79 231.028 118.12 231.688 116.78H236.218C235.738 118.38 234.818 119.7 233.458 120.74C232.098 121.76 230.428 122.27 228.448 122.27C226.848 122.27 225.408 121.92 224.128 121.22C222.868 120.5 221.878 119.49 221.158 118.19C220.458 116.89 220.108 115.39 220.108 113.69C220.108 111.97 220.458 110.46 221.158 109.16C221.858 107.86 222.838 106.86 224.098 106.16C225.358 105.46 226.808 105.11 228.448 105.11C230.028 105.11 231.438 105.45 232.678 106.13C233.938 106.81 234.908 107.78 235.588 109.04C236.288 110.28 236.638 111.71 236.638 113.33ZM232.288 112.13C232.268 111.05 231.878 110.19 231.118 109.55C230.358 108.89 229.428 108.56 228.328 108.56C227.288 108.56 226.408 108.88 225.688 109.52C224.988 110.14 224.558 111.01 224.398 112.13H232.288ZM248.914 105.14C250.894 105.14 252.494 105.77 253.714 107.03C254.934 108.27 255.544 110.01 255.544 112.25V122H251.344V112.82C251.344 111.5 251.014 110.49 250.354 109.79C249.694 109.07 248.794 108.71 247.654 108.71C246.494 108.71 245.574 109.07 244.894 109.79C244.234 110.49 243.904 111.5 243.904 112.82V122H239.704V105.38H243.904V107.45C244.464 106.73 245.174 106.17 246.034 105.77C246.914 105.35 247.874 105.14 248.914 105.14ZM275.228 105.38V122H270.998V119.9C270.458 120.62 269.748 121.19 268.868 121.61C268.008 122.01 267.068 122.21 266.048 122.21C264.748 122.21 263.598 121.94 262.598 121.4C261.598 120.84 260.808 120.03 260.228 118.97C259.668 117.89 259.388 116.61 259.388 115.13V105.38H263.588V114.53C263.588 115.85 263.918 116.87 264.578 117.59C265.238 118.29 266.138 118.64 267.278 118.64C268.438 118.64 269.348 118.29 270.008 117.59C270.668 116.87 270.998 115.85 270.998 114.53V105.38H275.228ZM294.822 113.33C294.822 113.93 294.782 114.47 294.702 114.95H282.552C282.652 116.15 283.072 117.09 283.812 117.77C284.552 118.45 285.462 118.79 286.542 118.79C288.102 118.79 289.212 118.12 289.872 116.78H294.402C293.922 118.38 293.002 119.7 291.642 120.74C290.282 121.76 288.612 122.27 286.632 122.27C285.032 122.27 283.592 121.92 282.312 121.22C281.052 120.5 280.062 119.49 279.342 118.19C278.642 116.89 278.292 115.39 278.292 113.69C278.292 111.97 278.642 110.46 279.342 109.16C280.042 107.86 281.022 106.86 282.282 106.16C283.542 105.46 284.992 105.11 286.632 105.11C288.212 105.11 289.622 105.45 290.862 106.13C292.122 106.81 293.092 107.78 293.772 109.04C294.472 110.28 294.822 111.71 294.822 113.33ZM290.472 112.13C290.452 111.05 290.062 110.19 289.302 109.55C288.542 108.89 287.612 108.56 286.512 108.56C285.472 108.56 284.592 108.88 283.872 109.52C283.172 110.14 282.742 111.01 282.582 112.13H290.472Z" fill="#093030"/>
<path id="Mot de passe oubli&#195;&#169; ?" d="M169.559 592.76V602H167.816V596.085L167.9 594.741L167.585 596.267L165.772 601.342H164.05L162.244 596.267L161.936 594.741L162.013 596.085V602H160.263V592.76H162.685L164.799 599.347L164.911 599.977L165.023 599.347L167.144 592.76H169.559ZM174.145 602.168C173.533 602.168 172.987 602.037 172.507 601.776C172.031 601.515 171.657 601.158 171.387 600.705C171.116 600.248 170.981 599.727 170.981 599.144C170.981 598.561 171.116 598.04 171.387 597.583C171.657 597.121 172.031 596.757 172.507 596.491C172.987 596.22 173.533 596.085 174.145 596.085C174.761 596.085 175.304 596.22 175.776 596.491C176.247 596.757 176.616 597.121 176.882 597.583C177.148 598.04 177.281 598.561 177.281 599.144C177.281 599.727 177.148 600.248 176.882 600.705C176.616 601.158 176.247 601.515 175.776 601.776C175.304 602.037 174.761 602.168 174.145 602.168ZM174.145 600.691C174.439 600.691 174.693 600.626 174.908 600.495C175.127 600.36 175.295 600.175 175.412 599.942C175.533 599.704 175.594 599.436 175.594 599.137C175.594 598.838 175.533 598.57 175.412 598.332C175.295 598.094 175.127 597.907 174.908 597.772C174.693 597.632 174.439 597.562 174.145 597.562C173.851 597.562 173.594 597.632 173.375 597.772C173.16 597.907 172.992 598.094 172.871 598.332C172.749 598.57 172.689 598.838 172.689 599.137C172.689 599.436 172.749 599.704 172.871 599.942C172.992 600.175 173.16 600.36 173.375 600.495C173.594 600.626 173.851 600.691 174.145 600.691ZM177.984 596.253H179.02V593.894H180.784V596.253H182.142V597.73H180.784V599.809C180.784 600.084 180.828 600.299 180.917 600.453C181.006 600.602 181.146 600.677 181.337 600.677C181.482 600.677 181.601 600.649 181.694 600.593C181.787 600.532 181.843 600.49 181.862 600.467L182.492 601.741C182.464 601.769 182.373 601.818 182.219 601.888C182.07 601.958 181.876 602.021 181.638 602.077C181.405 602.138 181.141 602.168 180.847 602.168C180.32 602.168 179.883 602.016 179.538 601.713C179.193 601.405 179.02 600.929 179.02 600.285V597.73H177.984V596.253ZM189.497 602.168C188.951 602.168 188.471 602.037 188.055 601.776C187.645 601.51 187.323 601.148 187.089 600.691C186.861 600.229 186.746 599.709 186.746 599.13C186.746 598.551 186.861 598.033 187.089 597.576C187.323 597.114 187.645 596.75 188.055 596.484C188.471 596.218 188.951 596.085 189.497 596.085C189.885 596.085 190.228 596.148 190.526 596.274C190.83 596.4 191.072 596.549 191.254 596.722C191.436 596.895 191.544 597.049 191.576 597.184V592.368H193.361V602H191.597V600.999C191.523 601.162 191.385 601.335 191.184 601.517C190.984 601.699 190.739 601.853 190.449 601.979C190.16 602.105 189.843 602.168 189.497 602.168ZM190.001 600.754C190.3 600.754 190.568 600.686 190.806 600.551C191.044 600.411 191.231 600.22 191.366 599.977C191.506 599.73 191.576 599.447 191.576 599.13C191.576 598.813 191.506 598.533 191.366 598.29C191.231 598.043 191.044 597.849 190.806 597.709C190.568 597.569 190.3 597.499 190.001 597.499C189.726 597.499 189.474 597.569 189.245 597.709C189.017 597.844 188.832 598.036 188.692 598.283C188.557 598.526 188.489 598.808 188.489 599.13C188.489 599.452 188.557 599.737 188.692 599.984C188.832 600.227 189.017 600.416 189.245 600.551C189.474 600.686 189.726 600.754 190.001 600.754ZM195.957 599.522C195.971 599.783 196.041 600.017 196.167 600.222C196.293 600.427 196.475 600.588 196.713 600.705C196.956 600.822 197.245 600.88 197.581 600.88C197.885 600.88 198.151 600.843 198.379 600.768C198.613 600.693 198.809 600.602 198.967 600.495C199.131 600.383 199.252 600.276 199.331 600.173L200.066 601.265C199.936 601.428 199.761 601.58 199.541 601.72C199.327 601.855 199.051 601.963 198.715 602.042C198.384 602.126 197.969 602.168 197.469 602.168C196.839 602.168 196.286 602.044 195.81 601.797C195.334 601.55 194.963 601.193 194.697 600.726C194.431 600.259 194.298 599.704 194.298 599.06C194.298 598.5 194.417 597.996 194.655 597.548C194.893 597.095 195.239 596.738 195.691 596.477C196.149 596.216 196.697 596.085 197.336 596.085C197.938 596.085 198.459 596.202 198.897 596.435C199.341 596.664 199.684 597 199.926 597.443C200.169 597.886 200.29 598.428 200.29 599.067C200.29 599.104 200.288 599.181 200.283 599.298C200.283 599.41 200.279 599.485 200.269 599.522H195.957ZM198.624 598.423C198.62 598.274 198.573 598.113 198.484 597.94C198.4 597.767 198.267 597.62 198.085 597.499C197.903 597.378 197.661 597.317 197.357 597.317C197.054 597.317 196.804 597.375 196.608 597.492C196.417 597.609 196.272 597.753 196.174 597.926C196.076 598.094 196.02 598.26 196.006 598.423H198.624ZM206.871 604.912H205.107V596.253H206.892V597.184C206.948 597.049 207.069 596.895 207.256 596.722C207.443 596.549 207.685 596.4 207.984 596.274C208.287 596.148 208.633 596.085 209.02 596.085C209.566 596.085 210.042 596.218 210.448 596.484C210.854 596.75 211.167 597.114 211.386 597.576C211.61 598.033 211.722 598.551 211.722 599.13C211.722 599.709 211.605 600.229 211.372 600.691C211.139 601.148 210.814 601.51 210.399 601.776C209.984 602.037 209.501 602.168 208.95 602.168C208.535 602.168 208.178 602.093 207.879 601.944C207.58 601.795 207.347 601.627 207.179 601.44C207.011 601.253 206.908 601.106 206.871 600.999V604.912ZM209.979 599.13C209.979 598.808 209.909 598.526 209.769 598.283C209.634 598.036 209.452 597.844 209.223 597.709C208.994 597.569 208.74 597.499 208.46 597.499C208.166 597.499 207.9 597.569 207.662 597.709C207.424 597.849 207.235 598.043 207.095 598.29C206.96 598.533 206.892 598.813 206.892 599.13C206.892 599.447 206.96 599.73 207.095 599.977C207.235 600.22 207.424 600.411 207.662 600.551C207.9 600.686 208.166 600.754 208.46 600.754C208.74 600.754 208.994 600.686 209.223 600.551C209.452 600.416 209.634 600.227 209.769 599.984C209.909 599.737 209.979 599.452 209.979 599.13ZM217.395 602V600.999C217.353 601.102 217.245 601.246 217.073 601.433C216.9 601.62 216.667 601.79 216.373 601.944C216.083 602.093 215.743 602.168 215.351 602.168C214.8 602.168 214.312 602.037 213.888 601.776C213.463 601.51 213.129 601.148 212.887 600.691C212.649 600.229 212.53 599.709 212.53 599.13C212.53 598.551 212.649 598.033 212.887 597.576C213.129 597.114 213.463 596.75 213.888 596.484C214.312 596.218 214.8 596.085 215.351 596.085C215.733 596.085 216.065 596.15 216.345 596.281C216.629 596.407 216.858 596.556 217.031 596.729C217.208 596.897 217.322 597.049 217.374 597.184V596.253H219.138V602H217.395ZM214.273 599.13C214.273 599.452 214.345 599.737 214.49 599.984C214.634 600.227 214.826 600.416 215.064 600.551C215.302 600.686 215.561 600.754 215.841 600.754C216.135 600.754 216.396 600.686 216.625 600.551C216.853 600.411 217.033 600.22 217.164 599.977C217.299 599.73 217.367 599.447 217.367 599.13C217.367 598.813 217.299 598.533 217.164 598.29C217.033 598.043 216.853 597.849 216.625 597.709C216.396 597.569 216.135 597.499 215.841 597.499C215.561 597.499 215.302 597.569 215.064 597.709C214.826 597.844 214.634 598.036 214.49 598.283C214.345 598.526 214.273 598.808 214.273 599.13ZM223.012 596.085C223.357 596.085 223.677 596.118 223.971 596.183C224.265 596.244 224.512 596.314 224.713 596.393C224.918 596.472 225.054 596.54 225.119 596.596L224.51 597.667C224.417 597.592 224.249 597.504 224.006 597.401C223.768 597.298 223.502 597.247 223.208 597.247C222.942 597.247 222.718 597.294 222.536 597.387C222.354 597.476 222.263 597.611 222.263 597.793C222.263 597.975 222.361 598.12 222.557 598.227C222.753 598.334 223.026 598.428 223.376 598.507C223.67 598.568 223.959 598.661 224.244 598.787C224.529 598.908 224.764 599.086 224.951 599.319C225.138 599.548 225.231 599.853 225.231 600.236C225.231 600.614 225.149 600.929 224.986 601.181C224.827 601.428 224.615 601.624 224.349 601.769C224.083 601.914 223.791 602.016 223.474 602.077C223.157 602.138 222.842 602.168 222.529 602.168C222.123 602.168 221.766 602.128 221.458 602.049C221.15 601.974 220.896 601.888 220.695 601.79C220.499 601.687 220.359 601.601 220.275 601.531L220.884 600.341C221.005 600.448 221.204 600.567 221.479 600.698C221.759 600.824 222.06 600.887 222.382 600.887C222.718 600.887 222.982 600.829 223.173 600.712C223.369 600.595 223.467 600.439 223.467 600.243C223.467 600.098 223.42 599.982 223.327 599.893C223.234 599.8 223.105 599.723 222.942 599.662C222.779 599.601 222.587 599.548 222.368 599.501C222.167 599.459 221.962 599.398 221.752 599.319C221.542 599.235 221.346 599.125 221.164 598.99C220.982 598.855 220.835 598.687 220.723 598.486C220.611 598.281 220.555 598.036 220.555 597.751C220.555 597.387 220.672 597.084 220.905 596.841C221.138 596.594 221.442 596.407 221.815 596.281C222.188 596.15 222.587 596.085 223.012 596.085ZM228.891 596.085C229.236 596.085 229.556 596.118 229.85 596.183C230.144 596.244 230.391 596.314 230.592 596.393C230.797 596.472 230.933 596.54 230.998 596.596L230.389 597.667C230.296 597.592 230.128 597.504 229.885 597.401C229.647 597.298 229.381 597.247 229.087 597.247C228.821 597.247 228.597 597.294 228.415 597.387C228.233 597.476 228.142 597.611 228.142 597.793C228.142 597.975 228.24 598.12 228.436 598.227C228.632 598.334 228.905 598.428 229.255 598.507C229.549 598.568 229.838 598.661 230.123 598.787C230.408 598.908 230.643 599.086 230.83 599.319C231.017 599.548 231.11 599.853 231.11 600.236C231.11 600.614 231.028 600.929 230.865 601.181C230.706 601.428 230.494 601.624 230.228 601.769C229.962 601.914 229.67 602.016 229.353 602.077C229.036 602.138 228.721 602.168 228.408 602.168C228.002 602.168 227.645 602.128 227.337 602.049C227.029 601.974 226.775 601.888 226.574 601.79C226.378 601.687 226.238 601.601 226.154 601.531L226.763 600.341C226.884 600.448 227.083 600.567 227.358 600.698C227.638 600.824 227.939 600.887 228.261 600.887C228.597 600.887 228.861 600.829 229.052 600.712C229.248 600.595 229.346 600.439 229.346 600.243C229.346 600.098 229.299 599.982 229.206 599.893C229.113 599.8 228.984 599.723 228.821 599.662C228.658 599.601 228.466 599.548 228.247 599.501C228.046 599.459 227.841 599.398 227.631 599.319C227.421 599.235 227.225 599.125 227.043 598.99C226.861 598.855 226.714 598.687 226.602 598.486C226.49 598.281 226.434 598.036 226.434 597.751C226.434 597.387 226.551 597.084 226.784 596.841C227.017 596.594 227.321 596.407 227.694 596.281C228.067 596.15 228.466 596.085 228.891 596.085ZM233.678 599.522C233.692 599.783 233.762 600.017 233.888 600.222C234.014 600.427 234.196 600.588 234.434 600.705C234.677 600.822 234.966 600.88 235.302 600.88C235.605 600.88 235.871 600.843 236.1 600.768C236.333 600.693 236.529 600.602 236.688 600.495C236.851 600.383 236.973 600.276 237.052 600.173L237.787 601.265C237.656 601.428 237.481 601.58 237.262 601.72C237.047 601.855 236.772 601.963 236.436 602.042C236.105 602.126 235.689 602.168 235.19 602.168C234.56 602.168 234.007 602.044 233.531 601.797C233.055 601.55 232.684 601.193 232.418 600.726C232.152 600.259 232.019 599.704 232.019 599.06C232.019 598.5 232.138 597.996 232.376 597.548C232.614 597.095 232.959 596.738 233.412 596.477C233.869 596.216 234.418 596.085 235.057 596.085C235.659 596.085 236.179 596.202 236.618 596.435C237.061 596.664 237.404 597 237.647 597.443C237.89 597.886 238.011 598.428 238.011 599.067C238.011 599.104 238.009 599.181 238.004 599.298C238.004 599.41 237.999 599.485 237.99 599.522H233.678ZM236.345 598.423C236.34 598.274 236.294 598.113 236.205 597.94C236.121 597.767 235.988 597.62 235.806 597.499C235.624 597.378 235.381 597.317 235.078 597.317C234.775 597.317 234.525 597.375 234.329 597.492C234.138 597.609 233.993 597.753 233.895 597.926C233.797 598.094 233.741 598.26 233.727 598.423H236.345ZM245.649 602.168C245.037 602.168 244.491 602.037 244.011 601.776C243.535 601.515 243.161 601.158 242.891 600.705C242.62 600.248 242.485 599.727 242.485 599.144C242.485 598.561 242.62 598.04 242.891 597.583C243.161 597.121 243.535 596.757 244.011 596.491C244.491 596.22 245.037 596.085 245.649 596.085C246.265 596.085 246.808 596.22 247.28 596.491C247.751 596.757 248.12 597.121 248.386 597.583C248.652 598.04 248.785 598.561 248.785 599.144C248.785 599.727 248.652 600.248 248.386 600.705C248.12 601.158 247.751 601.515 247.28 601.776C246.808 602.037 246.265 602.168 245.649 602.168ZM245.649 600.691C245.943 600.691 246.197 600.626 246.412 600.495C246.631 600.36 246.799 600.175 246.916 599.942C247.037 599.704 247.098 599.436 247.098 599.137C247.098 598.838 247.037 598.57 246.916 598.332C246.799 598.094 246.631 597.907 246.412 597.772C246.197 597.632 245.943 597.562 245.649 597.562C245.355 597.562 245.098 597.632 244.879 597.772C244.664 597.907 244.496 598.094 244.375 598.332C244.253 598.57 244.193 598.838 244.193 599.137C244.193 599.436 244.253 599.704 244.375 599.942C244.496 600.175 244.664 600.36 244.879 600.495C245.098 600.626 245.355 600.691 245.649 600.691ZM251.658 599.004C251.658 599.517 251.761 599.928 251.966 600.236C252.171 600.539 252.503 600.691 252.96 600.691C253.422 600.691 253.756 600.539 253.961 600.236C254.166 599.928 254.269 599.517 254.269 599.004V596.253H256.019V599.207C256.019 599.8 255.9 600.32 255.662 600.768C255.424 601.211 255.076 601.557 254.619 601.804C254.166 602.047 253.613 602.168 252.96 602.168C252.311 602.168 251.758 602.047 251.301 601.804C250.848 601.557 250.503 601.211 250.265 600.768C250.027 600.32 249.908 599.8 249.908 599.207V596.253H251.658V599.004ZM257.429 602V592.368H259.207V597.184C259.244 597.049 259.354 596.895 259.536 596.722C259.718 596.549 259.958 596.4 260.257 596.274C260.56 596.148 260.903 596.085 261.286 596.085C261.836 596.085 262.317 596.218 262.728 596.484C263.143 596.75 263.465 597.114 263.694 597.576C263.927 598.033 264.043 598.551 264.043 599.13C264.043 599.709 263.927 600.229 263.694 600.691C263.465 601.148 263.143 601.51 262.728 601.776C262.317 602.037 261.836 602.168 261.286 602.168C260.945 602.168 260.628 602.105 260.334 601.979C260.044 601.853 259.799 601.699 259.599 601.517C259.403 601.335 259.265 601.162 259.186 600.999V602H257.429ZM262.294 599.13C262.294 598.808 262.226 598.526 262.091 598.283C261.955 598.036 261.773 597.844 261.545 597.709C261.316 597.569 261.062 597.499 260.782 597.499C260.488 597.499 260.222 597.569 259.984 597.709C259.746 597.849 259.557 598.043 259.417 598.29C259.277 598.533 259.207 598.813 259.207 599.13C259.207 599.447 259.277 599.73 259.417 599.977C259.557 600.22 259.746 600.411 259.984 600.551C260.222 600.686 260.488 600.754 260.782 600.754C261.062 600.754 261.316 600.686 261.545 600.551C261.773 600.416 261.955 600.227 262.091 599.984C262.226 599.737 262.294 599.452 262.294 599.13ZM266.884 602H265.099V592.368H266.884V602ZM268.492 602V596.253H270.263V602H268.492ZM269.402 594.769C269.108 594.769 268.858 594.666 268.653 594.461C268.452 594.256 268.352 594.011 268.352 593.726C268.352 593.441 268.455 593.194 268.66 592.984C268.865 592.774 269.113 592.669 269.402 592.669C269.593 592.669 269.768 592.718 269.927 592.816C270.086 592.909 270.214 593.035 270.312 593.194C270.41 593.353 270.459 593.53 270.459 593.726C270.459 594.011 270.354 594.256 270.144 594.461C269.939 594.666 269.691 594.769 269.402 594.769ZM273.203 599.522C273.217 599.783 273.287 600.017 273.413 600.222C273.539 600.427 273.721 600.588 273.959 600.705C274.202 600.822 274.491 600.88 274.827 600.88C275.131 600.88 275.397 600.843 275.625 600.768C275.859 600.693 276.055 600.602 276.213 600.495C276.377 600.383 276.498 600.276 276.577 600.173L277.312 601.265C277.182 601.428 277.007 601.58 276.787 601.72C276.573 601.855 276.297 601.963 275.961 602.042C275.63 602.126 275.215 602.168 274.715 602.168C274.085 602.168 273.532 602.044 273.056 601.797C272.58 601.55 272.209 601.193 271.943 600.726C271.677 600.259 271.544 599.704 271.544 599.06C271.544 598.5 271.663 597.996 271.901 597.548C272.139 597.095 272.485 596.738 272.937 596.477C273.395 596.216 273.943 596.085 274.582 596.085C275.184 596.085 275.705 596.202 276.143 596.435C276.587 596.664 276.93 597 277.172 597.443C277.415 597.886 277.536 598.428 277.536 599.067C277.536 599.104 277.534 599.181 277.529 599.298C277.529 599.41 277.525 599.485 277.515 599.522H273.203ZM275.87 598.423C275.866 598.274 275.819 598.113 275.73 597.94C275.646 597.767 275.513 597.62 275.331 597.499C275.149 597.378 274.907 597.317 274.603 597.317C274.3 597.317 274.05 597.375 273.854 597.492C273.663 597.609 273.518 597.753 273.42 597.926C273.322 598.094 273.266 598.26 273.252 598.423H275.87ZM273.735 595.553L273.189 594.804L275.401 592.921L276.29 594.034L273.735 595.553ZM284.033 599.158V597.702C284.033 597.403 284.1 597.161 284.236 596.974C284.376 596.787 284.567 596.629 284.81 596.498C284.992 596.391 285.171 596.267 285.349 596.127C285.526 595.987 285.673 595.826 285.79 595.644C285.911 595.462 285.972 595.257 285.972 595.028C285.972 594.706 285.862 594.468 285.643 594.314C285.428 594.16 285.132 594.083 284.754 594.083C284.478 594.083 284.243 594.144 284.047 594.265C283.855 594.382 283.701 594.524 283.585 594.692C283.468 594.86 283.386 595.016 283.34 595.161L281.877 594.566C281.891 594.496 281.935 594.386 282.01 594.237C282.089 594.083 282.206 593.913 282.36 593.726C282.514 593.539 282.71 593.36 282.948 593.187C283.19 593.014 283.477 592.872 283.809 592.76C284.145 592.648 284.53 592.592 284.964 592.592C285.528 592.592 286.028 592.681 286.462 592.858C286.9 593.035 287.243 593.287 287.491 593.614C287.738 593.941 287.862 594.328 287.862 594.776C287.862 595.177 287.768 595.525 287.582 595.819C287.395 596.113 287.166 596.367 286.896 596.582C286.63 596.792 286.378 596.974 286.14 597.128C285.916 597.259 285.764 597.406 285.685 597.569C285.61 597.732 285.573 597.952 285.573 598.227V599.158H284.033ZM284.824 602.168C284.511 602.168 284.243 602.056 284.019 601.832C283.795 601.608 283.683 601.34 283.683 601.027C283.683 600.705 283.795 600.432 284.019 600.208C284.243 599.984 284.511 599.872 284.824 599.872C285.146 599.872 285.419 599.984 285.643 600.208C285.867 600.432 285.979 600.705 285.979 601.027C285.979 601.34 285.867 601.608 285.643 601.832C285.419 602.056 285.146 602.168 284.824 602.168Z" fill="#093030"/>
<rect id="Rectangle 17" x="37" y="308" width="356" height="41" rx="18" fill="#DFF7E2"/>
<rect id="Rectangle 18" x="37" y="398" width="356" height="41" rx="18" fill="#DFF7E2"/>
<path id="&#226;&#151;&#143;&#226;&#151;&#143;&#226;&#151;&#143;&#226;&#151;&#143;&#226;&#151;&#143;&#226;&#151;&#143;&#226;&#151;&#143;&#226;&#151;&#143;" opacity="0.45" d="M76.364 424.408C73.724 424.408 71.612 422.296 71.612 419.656C71.612 417.016 73.724 414.904 76.364 414.904C79.004 414.904 81.116 417.016 81.116 419.656C81.116 422.296 79.004 424.408 76.364 424.408ZM95.4867 424.408C92.8467 424.408 90.7347 422.296 90.7347 419.656C90.7347 417.016 92.8467 414.904 95.4867 414.904C98.1267 414.904 100.239 417.016 100.239 419.656C100.239 422.296 98.1267 424.408 95.4867 424.408ZM114.609 424.408C111.969 424.408 109.857 422.296 109.857 419.656C109.857 417.016 111.969 414.904 114.609 414.904C117.249 414.904 119.361 417.016 119.361 419.656C119.361 422.296 117.249 424.408 114.609 424.408ZM133.732 424.408C131.092 424.408 128.98 422.296 128.98 419.656C128.98 417.016 131.092 414.904 133.732 414.904C136.372 414.904 138.484 417.016 138.484 419.656C138.484 422.296 136.372 424.408 133.732 424.408ZM152.855 424.408C150.215 424.408 148.103 422.296 148.103 419.656C148.103 417.016 150.215 414.904 152.855 414.904C155.495 414.904 157.607 417.016 157.607 419.656C157.607 422.296 155.495 424.408 152.855 424.408ZM171.977 424.408C169.337 424.408 167.225 422.296 167.225 419.656C167.225 417.016 169.337 414.904 171.977 414.904C174.617 414.904 176.729 417.016 176.729 419.656C176.729 422.296 174.617 424.408 171.977 424.408ZM191.1 424.408C188.46 424.408 186.348 422.296 186.348 419.656C186.348 417.016 188.46 414.904 191.1 414.904C193.74 414.904 195.852 417.016 195.852 419.656C195.852 422.296 193.74 424.408 191.1 424.408ZM210.223 424.408C207.583 424.408 205.471 422.296 205.471 419.656C205.471 417.016 207.583 414.904 210.223 414.904C212.863 414.904 214.975 417.016 214.975 419.656C214.975 422.296 212.863 424.408 210.223 424.408Z" fill="#0E3E3E"/>
<path id="example@example.com" opacity="0.45" d="M80.232 329.28C80.232 329.557 80.216 329.851 80.184 330.16H73.176C73.2293 331.024 73.5227 331.701 74.056 332.192C74.6 332.672 75.256 332.912 76.024 332.912C76.6533 332.912 77.176 332.768 77.592 332.48C78.0187 332.181 78.3173 331.787 78.488 331.296H80.056C79.8213 332.139 79.352 332.827 78.648 333.36C77.944 333.883 77.0693 334.144 76.024 334.144C75.192 334.144 74.4453 333.957 73.784 333.584C73.1333 333.211 72.6213 332.683 72.248 332C71.8747 331.307 71.688 330.507 71.688 329.6C71.688 328.693 71.8693 327.899 72.232 327.216C72.5947 326.533 73.1013 326.011 73.752 325.648C74.4133 325.275 75.1707 325.088 76.024 325.088C76.856 325.088 77.592 325.269 78.232 325.632C78.872 325.995 79.3627 326.496 79.704 327.136C80.056 327.765 80.232 328.48 80.232 329.28ZM78.728 328.976C78.728 328.421 78.6053 327.947 78.36 327.552C78.1147 327.147 77.7787 326.843 77.352 326.64C76.936 326.427 76.472 326.32 75.96 326.32C75.224 326.32 74.5947 326.555 74.072 327.024C73.56 327.493 73.2667 328.144 73.192 328.976H78.728ZM86.7299 334L84.6499 330.736L82.6499 334H81.1299L83.9619 329.648L81.1299 325.232H82.7779L84.8579 328.48L86.8419 325.232H88.3619L85.5459 329.568L88.3779 334H86.7299ZM89.2661 329.584C89.2661 328.688 89.4475 327.904 89.8101 327.232C90.1728 326.549 90.6688 326.021 91.2981 325.648C91.9381 325.275 92.6475 325.088 93.4261 325.088C94.1941 325.088 94.8608 325.253 95.4261 325.584C95.9915 325.915 96.4128 326.331 96.6901 326.832V325.232H98.1621V334H96.6901V332.368C96.4021 332.88 95.9701 333.307 95.3941 333.648C94.8288 333.979 94.1675 334.144 93.4101 334.144C92.6315 334.144 91.9275 333.952 91.2981 333.568C90.6688 333.184 90.1728 332.645 89.8101 331.952C89.4475 331.259 89.2661 330.469 89.2661 329.584ZM96.6901 329.6C96.6901 328.939 96.5568 328.363 96.2901 327.872C96.0235 327.381 95.6608 327.008 95.2021 326.752C94.7541 326.485 94.2581 326.352 93.7141 326.352C93.1701 326.352 92.6741 326.48 92.2261 326.736C91.7781 326.992 91.4208 327.365 91.1541 327.856C90.8875 328.347 90.7541 328.923 90.7541 329.584C90.7541 330.256 90.8875 330.843 91.1541 331.344C91.4208 331.835 91.7781 332.213 92.2261 332.48C92.6741 332.736 93.1701 332.864 93.7141 332.864C94.2581 332.864 94.7541 332.736 95.2021 332.48C95.6608 332.213 96.0235 331.835 96.2901 331.344C96.5568 330.843 96.6901 330.261 96.6901 329.6ZM111.167 325.072C111.849 325.072 112.457 325.216 112.991 325.504C113.524 325.781 113.945 326.203 114.255 326.768C114.564 327.333 114.719 328.021 114.719 328.832V334H113.279V329.04C113.279 328.165 113.06 327.499 112.623 327.04C112.196 326.571 111.615 326.336 110.879 326.336C110.121 326.336 109.519 326.581 109.071 327.072C108.623 327.552 108.399 328.251 108.399 329.168V334H106.959V329.04C106.959 328.165 106.74 327.499 106.303 327.04C105.876 326.571 105.295 326.336 104.559 326.336C103.801 326.336 103.199 326.581 102.751 327.072C102.303 327.552 102.079 328.251 102.079 329.168V334H100.623V325.232H102.079V326.496C102.367 326.037 102.751 325.685 103.231 325.44C103.721 325.195 104.26 325.072 104.847 325.072C105.583 325.072 106.233 325.237 106.799 325.568C107.364 325.899 107.785 326.384 108.063 327.024C108.308 326.405 108.713 325.925 109.279 325.584C109.844 325.243 110.473 325.072 111.167 325.072ZM118.563 326.848C118.851 326.347 119.278 325.931 119.843 325.6C120.419 325.259 121.086 325.088 121.843 325.088C122.622 325.088 123.326 325.275 123.955 325.648C124.595 326.021 125.096 326.549 125.459 327.232C125.822 327.904 126.003 328.688 126.003 329.584C126.003 330.469 125.822 331.259 125.459 331.952C125.096 332.645 124.595 333.184 123.955 333.568C123.326 333.952 122.622 334.144 121.843 334.144C121.096 334.144 120.435 333.979 119.859 333.648C119.294 333.307 118.862 332.885 118.563 332.384V338.16H117.107V325.232H118.563V326.848ZM124.515 329.584C124.515 328.923 124.382 328.347 124.115 327.856C123.848 327.365 123.486 326.992 123.027 326.736C122.579 326.48 122.083 326.352 121.539 326.352C121.006 326.352 120.51 326.485 120.051 326.752C119.603 327.008 119.24 327.387 118.963 327.888C118.696 328.379 118.563 328.949 118.563 329.6C118.563 330.261 118.696 330.843 118.963 331.344C119.24 331.835 119.603 332.213 120.051 332.48C120.51 332.736 121.006 332.864 121.539 332.864C122.083 332.864 122.579 332.736 123.027 332.48C123.486 332.213 123.848 331.835 124.115 331.344C124.382 330.843 124.515 330.256 124.515 329.584ZM129.376 322.16V334H127.92V322.16H129.376ZM139.857 329.28C139.857 329.557 139.841 329.851 139.809 330.16H132.801C132.854 331.024 133.148 331.701 133.681 332.192C134.225 332.672 134.881 332.912 135.649 332.912C136.278 332.912 136.801 332.768 137.217 332.48C137.644 332.181 137.942 331.787 138.113 331.296H139.681C139.446 332.139 138.977 332.827 138.273 333.36C137.569 333.883 136.694 334.144 135.649 334.144C134.817 334.144 134.07 333.957 133.409 333.584C132.758 333.211 132.246 332.683 131.873 332C131.5 331.307 131.313 330.507 131.313 329.6C131.313 328.693 131.494 327.899 131.857 327.216C132.22 326.533 132.726 326.011 133.377 325.648C134.038 325.275 134.796 325.088 135.649 325.088C136.481 325.088 137.217 325.269 137.857 325.632C138.497 325.995 138.988 326.496 139.329 327.136C139.681 327.765 139.857 328.48 139.857 329.28ZM138.353 328.976C138.353 328.421 138.23 327.947 137.985 327.552C137.74 327.147 137.404 326.843 136.977 326.64C136.561 326.427 136.097 326.32 135.585 326.32C134.849 326.32 134.22 326.555 133.697 327.024C133.185 327.493 132.892 328.144 132.817 328.976H138.353ZM149.779 323.744C150.963 323.744 151.992 323.968 152.867 324.416C153.742 324.864 154.414 325.493 154.883 326.304C155.352 327.104 155.587 328.032 155.587 329.088C155.587 329.931 155.448 330.741 155.171 331.52C154.894 332.288 154.488 332.912 153.955 333.392C153.432 333.872 152.819 334.112 152.115 334.112C151.582 334.112 151.171 333.979 150.883 333.712C150.595 333.445 150.43 333.083 150.387 332.624C150.056 333.083 149.635 333.445 149.123 333.712C148.622 333.979 148.088 334.112 147.523 334.112C146.712 334.112 146.072 333.867 145.603 333.376C145.144 332.875 144.915 332.203 144.915 331.36C144.915 330.56 145.08 329.813 145.411 329.12C145.752 328.427 146.222 327.872 146.819 327.456C147.416 327.029 148.094 326.816 148.851 326.816C149.864 326.816 150.547 327.2 150.899 327.968L151.075 326.976H152.339L151.539 331.6C151.507 331.803 151.491 331.989 151.491 332.16C151.491 332.8 151.774 333.12 152.339 333.12C152.766 333.12 153.134 332.917 153.443 332.512C153.763 332.107 154.003 331.6 154.163 330.992C154.323 330.373 154.403 329.765 154.403 329.168C154.403 327.771 153.982 326.688 153.139 325.92C152.307 325.152 151.128 324.768 149.603 324.768C148.334 324.768 147.187 325.077 146.163 325.696C145.15 326.304 144.355 327.141 143.779 328.208C143.203 329.275 142.915 330.453 142.915 331.744C142.904 333.152 143.326 334.235 144.179 334.992C145.032 335.76 146.216 336.144 147.731 336.144C148.734 336.144 149.619 335.963 150.387 335.6L150.579 336.592C149.63 336.987 148.584 337.184 147.443 337.184C146.302 337.184 145.294 336.965 144.419 336.528C143.555 336.101 142.883 335.483 142.403 334.672C141.934 333.872 141.699 332.939 141.699 331.872C141.699 330.368 142.046 328.997 142.739 327.76C143.432 326.512 144.392 325.531 145.619 324.816C146.856 324.101 148.243 323.744 149.779 323.744ZM147.955 332.976C148.435 332.976 148.878 332.837 149.283 332.56C149.688 332.272 150.008 331.888 150.243 331.408C150.478 330.917 150.595 330.384 150.595 329.808C150.595 329.253 150.44 328.805 150.131 328.464C149.832 328.112 149.406 327.936 148.851 327.936C148.339 327.936 147.886 328.091 147.491 328.4C147.107 328.699 146.808 329.099 146.595 329.6C146.382 330.091 146.275 330.603 146.275 331.136C146.275 331.701 146.419 332.149 146.707 332.48C146.995 332.811 147.411 332.976 147.955 332.976ZM165.982 329.28C165.982 329.557 165.966 329.851 165.934 330.16H158.926C158.979 331.024 159.273 331.701 159.806 332.192C160.35 332.672 161.006 332.912 161.774 332.912C162.403 332.912 162.926 332.768 163.342 332.48C163.769 332.181 164.067 331.787 164.238 331.296H165.806C165.571 332.139 165.102 332.827 164.398 333.36C163.694 333.883 162.819 334.144 161.774 334.144C160.942 334.144 160.195 333.957 159.534 333.584C158.883 333.211 158.371 332.683 157.998 332C157.625 331.307 157.438 330.507 157.438 329.6C157.438 328.693 157.619 327.899 157.982 327.216C158.345 326.533 158.851 326.011 159.502 325.648C160.163 325.275 160.921 325.088 161.774 325.088C162.606 325.088 163.342 325.269 163.982 325.632C164.622 325.995 165.113 326.496 165.454 327.136C165.806 327.765 165.982 328.48 165.982 329.28ZM164.478 328.976C164.478 328.421 164.355 327.947 164.11 327.552C163.865 327.147 163.529 326.843 163.102 326.64C162.686 326.427 162.222 326.32 161.71 326.32C160.974 326.32 160.345 326.555 159.822 327.024C159.31 327.493 159.017 328.144 158.942 328.976H164.478ZM172.48 334L170.4 330.736L168.4 334H166.88L169.712 329.648L166.88 325.232H168.528L170.608 328.48L172.592 325.232H174.112L171.296 329.568L174.128 334H172.48ZM175.016 329.584C175.016 328.688 175.197 327.904 175.56 327.232C175.923 326.549 176.419 326.021 177.048 325.648C177.688 325.275 178.397 325.088 179.176 325.088C179.944 325.088 180.611 325.253 181.176 325.584C181.741 325.915 182.163 326.331 182.44 326.832V325.232H183.912V334H182.44V332.368C182.152 332.88 181.72 333.307 181.144 333.648C180.579 333.979 179.917 334.144 179.16 334.144C178.381 334.144 177.677 333.952 177.048 333.568C176.419 333.184 175.923 332.645 175.56 331.952C175.197 331.259 175.016 330.469 175.016 329.584ZM182.44 329.6C182.44 328.939 182.307 328.363 182.04 327.872C181.773 327.381 181.411 327.008 180.952 326.752C180.504 326.485 180.008 326.352 179.464 326.352C178.92 326.352 178.424 326.48 177.976 326.736C177.528 326.992 177.171 327.365 176.904 327.856C176.637 328.347 176.504 328.923 176.504 329.584C176.504 330.256 176.637 330.843 176.904 331.344C177.171 331.835 177.528 332.213 177.976 332.48C178.424 332.736 178.92 332.864 179.464 332.864C180.008 332.864 180.504 332.736 180.952 332.48C181.411 332.213 181.773 331.835 182.04 331.344C182.307 330.843 182.44 330.261 182.44 329.6ZM196.917 325.072C197.599 325.072 198.207 325.216 198.741 325.504C199.274 325.781 199.695 326.203 200.005 326.768C200.314 327.333 200.469 328.021 200.469 328.832V334H199.029V329.04C199.029 328.165 198.81 327.499 198.373 327.04C197.946 326.571 197.365 326.336 196.629 326.336C195.871 326.336 195.269 326.581 194.821 327.072C194.373 327.552 194.149 328.251 194.149 329.168V334H192.709V329.04C192.709 328.165 192.49 327.499 192.053 327.04C191.626 326.571 191.045 326.336 190.309 326.336C189.551 326.336 188.949 326.581 188.501 327.072C188.053 327.552 187.829 328.251 187.829 329.168V334H186.373V325.232H187.829V326.496C188.117 326.037 188.501 325.685 188.981 325.44C189.471 325.195 190.01 325.072 190.597 325.072C191.333 325.072 191.983 325.237 192.549 325.568C193.114 325.899 193.535 326.384 193.813 327.024C194.058 326.405 194.463 325.925 195.029 325.584C195.594 325.243 196.223 325.072 196.917 325.072ZM204.313 326.848C204.601 326.347 205.028 325.931 205.593 325.6C206.169 325.259 206.836 325.088 207.593 325.088C208.372 325.088 209.076 325.275 209.705 325.648C210.345 326.021 210.846 326.549 211.209 327.232C211.572 327.904 211.753 328.688 211.753 329.584C211.753 330.469 211.572 331.259 211.209 331.952C210.846 332.645 210.345 333.184 209.705 333.568C209.076 333.952 208.372 334.144 207.593 334.144C206.846 334.144 206.185 333.979 205.609 333.648C205.044 333.307 204.612 332.885 204.313 332.384V338.16H202.857V325.232H204.313V326.848ZM210.265 329.584C210.265 328.923 210.132 328.347 209.865 327.856C209.598 327.365 209.236 326.992 208.777 326.736C208.329 326.48 207.833 326.352 207.289 326.352C206.756 326.352 206.26 326.485 205.801 326.752C205.353 327.008 204.99 327.387 204.713 327.888C204.446 328.379 204.313 328.949 204.313 329.6C204.313 330.261 204.446 330.843 204.713 331.344C204.99 331.835 205.353 332.213 205.801 332.48C206.26 332.736 206.756 332.864 207.289 332.864C207.833 332.864 208.329 332.736 208.777 332.48C209.236 332.213 209.598 331.835 209.865 331.344C210.132 330.843 210.265 330.256 210.265 329.584ZM215.126 322.16V334H213.67V322.16H215.126ZM225.607 329.28C225.607 329.557 225.591 329.851 225.559 330.16H218.551C218.604 331.024 218.898 331.701 219.431 332.192C219.975 332.672 220.631 332.912 221.399 332.912C222.028 332.912 222.551 332.768 222.967 332.48C223.394 332.181 223.692 331.787 223.863 331.296H225.431C225.196 332.139 224.727 332.827 224.023 333.36C223.319 333.883 222.444 334.144 221.399 334.144C220.567 334.144 219.82 333.957 219.159 333.584C218.508 333.211 217.996 332.683 217.623 332C217.25 331.307 217.063 330.507 217.063 329.6C217.063 328.693 217.244 327.899 217.607 327.216C217.97 326.533 218.476 326.011 219.127 325.648C219.788 325.275 220.546 325.088 221.399 325.088C222.231 325.088 222.967 325.269 223.607 325.632C224.247 325.995 224.738 326.496 225.079 327.136C225.431 327.765 225.607 328.48 225.607 329.28ZM224.103 328.976C224.103 328.421 223.98 327.947 223.735 327.552C223.49 327.147 223.154 326.843 222.727 326.64C222.311 326.427 221.847 326.32 221.335 326.32C220.599 326.32 219.97 326.555 219.447 327.024C218.935 327.493 218.642 328.144 218.567 328.976H224.103ZM227.993 334.096C227.716 334.096 227.481 334 227.289 333.808C227.097 333.616 227.001 333.381 227.001 333.104C227.001 332.827 227.097 332.592 227.289 332.4C227.481 332.208 227.716 332.112 227.993 332.112C228.26 332.112 228.484 332.208 228.665 332.4C228.857 332.592 228.953 332.827 228.953 333.104C228.953 333.381 228.857 333.616 228.665 333.808C228.484 334 228.26 334.096 227.993 334.096ZM230.344 329.6C230.344 328.693 230.526 327.904 230.888 327.232C231.251 326.549 231.752 326.021 232.392 325.648C233.043 325.275 233.784 325.088 234.616 325.088C235.694 325.088 236.579 325.349 237.272 325.872C237.976 326.395 238.44 327.12 238.664 328.048H237.096C236.947 327.515 236.654 327.093 236.216 326.784C235.79 326.475 235.256 326.32 234.616 326.32C233.784 326.32 233.112 326.608 232.6 327.184C232.088 327.749 231.832 328.555 231.832 329.6C231.832 330.656 232.088 331.472 232.6 332.048C233.112 332.624 233.784 332.912 234.616 332.912C235.256 332.912 235.79 332.763 236.216 332.464C236.643 332.165 236.936 331.739 237.096 331.184H238.664C238.43 332.08 237.96 332.8 237.256 333.344C236.552 333.877 235.672 334.144 234.616 334.144C233.784 334.144 233.043 333.957 232.392 333.584C231.752 333.211 231.251 332.683 230.888 332C230.526 331.317 230.344 330.517 230.344 329.6ZM244.431 334.144C243.61 334.144 242.863 333.957 242.191 333.584C241.53 333.211 241.007 332.683 240.623 332C240.25 331.307 240.063 330.507 240.063 329.6C240.063 328.704 240.255 327.915 240.639 327.232C241.034 326.539 241.567 326.011 242.239 325.648C242.911 325.275 243.663 325.088 244.495 325.088C245.327 325.088 246.079 325.275 246.751 325.648C247.423 326.011 247.951 326.533 248.335 327.216C248.73 327.899 248.927 328.693 248.927 329.6C248.927 330.507 248.724 331.307 248.319 332C247.924 332.683 247.386 333.211 246.703 333.584C246.02 333.957 245.263 334.144 244.431 334.144ZM244.431 332.864C244.954 332.864 245.444 332.741 245.903 332.496C246.362 332.251 246.73 331.883 247.007 331.392C247.295 330.901 247.439 330.304 247.439 329.6C247.439 328.896 247.3 328.299 247.023 327.808C246.746 327.317 246.383 326.955 245.935 326.72C245.487 326.475 245.002 326.352 244.479 326.352C243.946 326.352 243.455 326.475 243.007 326.72C242.57 326.955 242.218 327.317 241.951 327.808C241.684 328.299 241.551 328.896 241.551 329.6C241.551 330.315 241.679 330.917 241.935 331.408C242.202 331.899 242.554 332.267 242.991 332.512C243.428 332.747 243.908 332.864 244.431 332.864ZM261.385 325.072C262.068 325.072 262.676 325.216 263.209 325.504C263.743 325.781 264.164 326.203 264.473 326.768C264.783 327.333 264.937 328.021 264.937 328.832V334H263.497V329.04C263.497 328.165 263.279 327.499 262.841 327.04C262.415 326.571 261.833 326.336 261.097 326.336C260.34 326.336 259.737 326.581 259.289 327.072C258.841 327.552 258.617 328.251 258.617 329.168V334H257.177V329.04C257.177 328.165 256.959 327.499 256.521 327.04C256.095 326.571 255.513 326.336 254.777 326.336C254.02 326.336 253.417 326.581 252.969 327.072C252.521 327.552 252.297 328.251 252.297 329.168V334H250.841V325.232H252.297V326.496C252.585 326.037 252.969 325.685 253.449 325.44C253.94 325.195 254.479 325.072 255.065 325.072C255.801 325.072 256.452 325.237 257.017 325.568C257.583 325.899 258.004 326.384 258.281 327.024C258.527 326.405 258.932 325.925 259.497 325.584C260.063 325.243 260.692 325.072 261.385 325.072Z" fill="#093030"/>
<path id="email" d="M55.835 284.955V288.015H59.435V289.41H55.835V292.605H59.885V294H54.125V283.56H59.885V284.955H55.835ZM71.9962 285.6C72.6462 285.6 73.2262 285.735 73.7362 286.005C74.2562 286.275 74.6612 286.675 74.9512 287.205C75.2512 287.735 75.4012 288.375 75.4012 289.125V294H73.7062V289.38C73.7062 288.64 73.5212 288.075 73.1512 287.685C72.7812 287.285 72.2762 287.085 71.6362 287.085C70.9962 287.085 70.4862 287.285 70.1062 287.685C69.7362 288.075 69.5512 288.64 69.5512 289.38V294H67.8562V289.38C67.8562 288.64 67.6712 288.075 67.3012 287.685C66.9312 287.285 66.4262 287.085 65.7862 287.085C65.1462 287.085 64.6362 287.285 64.2562 287.685C63.8862 288.075 63.7012 288.64 63.7012 289.38V294H61.9912V285.735H63.7012V286.68C63.9812 286.34 64.3362 286.075 64.7662 285.885C65.1962 285.695 65.6562 285.6 66.1462 285.6C66.8062 285.6 67.3962 285.74 67.9162 286.02C68.4362 286.3 68.8362 286.705 69.1162 287.235C69.3662 286.735 69.7562 286.34 70.2862 286.05C70.8162 285.75 71.3862 285.6 71.9962 285.6ZM77.0071 289.83C77.0071 289 77.1771 288.265 77.5171 287.625C77.8671 286.985 78.3371 286.49 78.9271 286.14C79.5271 285.78 80.1871 285.6 80.9071 285.6C81.5571 285.6 82.1221 285.73 82.6021 285.99C83.0921 286.24 83.4821 286.555 83.7721 286.935V285.735H85.4971V294H83.7721V292.77C83.4821 293.16 83.0871 293.485 82.5871 293.745C82.0871 294.005 81.5171 294.135 80.8771 294.135C80.1671 294.135 79.5171 293.955 78.9271 293.595C78.3371 293.225 77.8671 292.715 77.5171 292.065C77.1771 291.405 77.0071 290.66 77.0071 289.83ZM83.7721 289.86C83.7721 289.29 83.6521 288.795 83.4121 288.375C83.1821 287.955 82.8771 287.635 82.4971 287.415C82.1171 287.195 81.7071 287.085 81.2671 287.085C80.8271 287.085 80.4171 287.195 80.0371 287.415C79.6571 287.625 79.3471 287.94 79.1071 288.36C78.8771 288.77 78.7621 289.26 78.7621 289.83C78.7621 290.4 78.8771 290.9 79.1071 291.33C79.3471 291.76 79.6571 292.09 80.0371 292.32C80.4271 292.54 80.8371 292.65 81.2671 292.65C81.7071 292.65 82.1171 292.54 82.4971 292.32C82.8771 292.1 83.1821 291.78 83.4121 291.36C83.6521 290.93 83.7721 290.43 83.7721 289.86ZM88.6132 284.64C88.3032 284.64 88.0432 284.535 87.8332 284.325C87.6232 284.115 87.5182 283.855 87.5182 283.545C87.5182 283.235 87.6232 282.975 87.8332 282.765C88.0432 282.555 88.3032 282.45 88.6132 282.45C88.9132 282.45 89.1682 282.555 89.3782 282.765C89.5882 282.975 89.6932 283.235 89.6932 283.545C89.6932 283.855 89.5882 284.115 89.3782 284.325C89.1682 284.535 88.9132 284.64 88.6132 284.64ZM89.4532 285.735V294H87.7432V285.735H89.4532ZM93.4082 282.9V294H91.6982V282.9H93.4082Z" fill="#093030"/>
<path id="Mot de passe" d="M65.105 378.575V389H63.395V381.86L60.215 389H59.03L55.835 381.86V389H54.125V378.575H55.97L59.63 386.75L63.275 378.575H65.105ZM70.9375 389.135C70.1575 389.135 69.4525 388.96 68.8225 388.61C68.1925 388.25 67.6975 387.75 67.3375 387.11C66.9775 386.46 66.7975 385.71 66.7975 384.86C66.7975 384.02 66.9825 383.275 67.3525 382.625C67.7225 381.975 68.2275 381.475 68.8675 381.125C69.5075 380.775 70.2225 380.6 71.0125 380.6C71.8025 380.6 72.5175 380.775 73.1575 381.125C73.7975 381.475 74.3025 381.975 74.6725 382.625C75.0425 383.275 75.2275 384.02 75.2275 384.86C75.2275 385.7 75.0375 386.445 74.6575 387.095C74.2775 387.745 73.7575 388.25 73.0975 388.61C72.4475 388.96 71.7275 389.135 70.9375 389.135ZM70.9375 387.65C71.3775 387.65 71.7875 387.545 72.1675 387.335C72.5575 387.125 72.8725 386.81 73.1125 386.39C73.3525 385.97 73.4725 385.46 73.4725 384.86C73.4725 384.26 73.3575 383.755 73.1275 383.345C72.8975 382.925 72.5925 382.61 72.2125 382.4C71.8325 382.19 71.4225 382.085 70.9825 382.085C70.5425 382.085 70.1325 382.19 69.7525 382.4C69.3825 382.61 69.0875 382.925 68.8675 383.345C68.6475 383.755 68.5375 384.26 68.5375 384.86C68.5375 385.75 68.7625 386.44 69.2125 386.93C69.6725 387.41 70.2475 387.65 70.9375 387.65ZM78.913 382.13V386.705C78.913 387.015 78.983 387.24 79.123 387.38C79.273 387.51 79.523 387.575 79.873 387.575H80.923V389H79.573C78.803 389 78.213 388.82 77.803 388.46C77.393 388.1 77.188 387.515 77.188 386.705V382.13H76.213V380.735H77.188V378.68H78.913V380.735H80.923V382.13H78.913ZM89.8005 378.575C90.9105 378.575 91.8805 378.79 92.7105 379.22C93.5505 379.64 94.1955 380.25 94.6455 381.05C95.1055 381.84 95.3355 382.765 95.3355 383.825C95.3355 384.885 95.1055 385.805 94.6455 386.585C94.1955 387.365 93.5505 387.965 92.7105 388.385C91.8805 388.795 90.9105 389 89.8005 389H86.3955V378.575H89.8005ZM89.8005 387.605C91.0205 387.605 91.9555 387.275 92.6055 386.615C93.2555 385.955 93.5805 385.025 93.5805 383.825C93.5805 382.615 93.2555 381.67 92.6055 380.99C91.9555 380.31 91.0205 379.97 89.8005 379.97H88.1055V387.605H89.8005ZM104.605 384.665C104.605 384.975 104.585 385.255 104.545 385.505H98.2303C98.2803 386.165 98.5253 386.695 98.9653 387.095C99.4053 387.495 99.9453 387.695 100.585 387.695C101.505 387.695 102.155 387.31 102.535 386.54H104.38C104.13 387.3 103.675 387.925 103.015 388.415C102.365 388.895 101.555 389.135 100.585 389.135C99.7953 389.135 99.0853 388.96 98.4553 388.61C97.8353 388.25 97.3453 387.75 96.9853 387.11C96.6353 386.46 96.4603 385.71 96.4603 384.86C96.4603 384.01 96.6303 383.265 96.9703 382.625C97.3203 381.975 97.8053 381.475 98.4253 381.125C99.0553 380.775 99.7753 380.6 100.585 380.6C101.365 380.6 102.06 380.77 102.67 381.11C103.28 381.45 103.755 381.93 104.095 382.55C104.435 383.16 104.605 383.865 104.605 384.665ZM102.82 384.125C102.81 383.495 102.585 382.99 102.145 382.61C101.705 382.23 101.16 382.04 100.51 382.04C99.9203 382.04 99.4153 382.23 98.9953 382.61C98.5753 382.98 98.3253 383.485 98.2453 384.125H102.82ZM117.475 381.68C117.475 382.21 117.35 382.71 117.1 383.18C116.85 383.65 116.45 384.035 115.9 384.335C115.35 384.625 114.645 384.77 113.785 384.77H111.895V389H110.185V378.575H113.785C114.585 378.575 115.26 378.715 115.81 378.995C116.37 379.265 116.785 379.635 117.055 380.105C117.335 380.575 117.475 381.1 117.475 381.68ZM113.785 383.375C114.435 383.375 114.92 383.23 115.24 382.94C115.56 382.64 115.72 382.22 115.72 381.68C115.72 380.54 115.075 379.97 113.785 379.97H111.895V383.375H113.785ZM118.535 384.83C118.535 384 118.705 383.265 119.045 382.625C119.395 381.985 119.865 381.49 120.455 381.14C121.055 380.78 121.715 380.6 122.435 380.6C123.085 380.6 123.65 380.73 124.13 380.99C124.62 381.24 125.01 381.555 125.3 381.935V380.735H127.025V389H125.3V387.77C125.01 388.16 124.615 388.485 124.115 388.745C123.615 389.005 123.045 389.135 122.405 389.135C121.695 389.135 121.045 388.955 120.455 388.595C119.865 388.225 119.395 387.715 119.045 387.065C118.705 386.405 118.535 385.66 118.535 384.83ZM125.3 384.86C125.3 384.29 125.18 383.795 124.94 383.375C124.71 382.955 124.405 382.635 124.025 382.415C123.645 382.195 123.235 382.085 122.795 382.085C122.355 382.085 121.945 382.195 121.565 382.415C121.185 382.625 120.875 382.94 120.635 383.36C120.405 383.77 120.29 384.26 120.29 384.83C120.29 385.4 120.405 385.9 120.635 386.33C120.875 386.76 121.185 387.09 121.565 387.32C121.955 387.54 122.365 387.65 122.795 387.65C123.235 387.65 123.645 387.54 124.025 387.32C124.405 387.1 124.71 386.78 124.94 386.36C125.18 385.93 125.3 385.43 125.3 384.86ZM132.271 389.135C131.621 389.135 131.036 389.02 130.516 388.79C130.006 388.55 129.601 388.23 129.301 387.83C129.001 387.42 128.841 386.965 128.821 386.465H130.591C130.621 386.815 130.786 387.11 131.086 387.35C131.396 387.58 131.781 387.695 132.241 387.695C132.721 387.695 133.091 387.605 133.351 387.425C133.621 387.235 133.756 386.995 133.756 386.705C133.756 386.395 133.606 386.165 133.306 386.015C133.016 385.865 132.551 385.7 131.911 385.52C131.291 385.35 130.786 385.185 130.396 385.025C130.006 384.865 129.666 384.62 129.376 384.29C129.096 383.96 128.956 383.525 128.956 382.985C128.956 382.545 129.086 382.145 129.346 381.785C129.606 381.415 129.976 381.125 130.456 380.915C130.946 380.705 131.506 380.6 132.136 380.6C133.076 380.6 133.831 380.84 134.401 381.32C134.981 381.79 135.291 382.435 135.331 383.255H133.621C133.591 382.885 133.441 382.59 133.171 382.37C132.901 382.15 132.536 382.04 132.076 382.04C131.626 382.04 131.281 382.125 131.041 382.295C130.801 382.465 130.681 382.69 130.681 382.97C130.681 383.19 130.761 383.375 130.921 383.525C131.081 383.675 131.276 383.795 131.506 383.885C131.736 383.965 132.076 384.07 132.526 384.2C133.126 384.36 133.616 384.525 133.996 384.695C134.386 384.855 134.721 385.095 135.001 385.415C135.281 385.735 135.426 386.16 135.436 386.69C135.436 387.16 135.306 387.58 135.046 387.95C134.786 388.32 134.416 388.61 133.936 388.82C133.466 389.03 132.911 389.135 132.271 389.135ZM140.284 389.135C139.634 389.135 139.049 389.02 138.529 388.79C138.019 388.55 137.614 388.23 137.314 387.83C137.014 387.42 136.854 386.965 136.834 386.465H138.604C138.634 386.815 138.799 387.11 139.099 387.35C139.409 387.58 139.794 387.695 140.254 387.695C140.734 387.695 141.104 387.605 141.364 387.425C141.634 387.235 141.769 386.995 141.769 386.705C141.769 386.395 141.619 386.165 141.319 386.015C141.029 385.865 140.564 385.7 139.924 385.52C139.304 385.35 138.799 385.185 138.409 385.025C138.019 384.865 137.679 384.62 137.389 384.29C137.109 383.96 136.969 383.525 136.969 382.985C136.969 382.545 137.099 382.145 137.359 381.785C137.619 381.415 137.989 381.125 138.469 380.915C138.959 380.705 139.519 380.6 140.149 380.6C141.089 380.6 141.844 380.84 142.414 381.32C142.994 381.79 143.304 382.435 143.344 383.255H141.634C141.604 382.885 141.454 382.59 141.184 382.37C140.914 382.15 140.549 382.04 140.089 382.04C139.639 382.04 139.294 382.125 139.054 382.295C138.814 382.465 138.694 382.69 138.694 382.97C138.694 383.19 138.774 383.375 138.934 383.525C139.094 383.675 139.289 383.795 139.519 383.885C139.749 383.965 140.089 384.07 140.539 384.2C141.139 384.36 141.629 384.525 142.009 384.695C142.399 384.855 142.734 385.095 143.014 385.415C143.294 385.735 143.439 386.16 143.449 386.69C143.449 387.16 143.319 387.58 143.059 387.95C142.799 388.32 142.429 388.61 141.949 388.82C141.479 389.03 140.924 389.135 140.284 389.135ZM152.872 384.665C152.872 384.975 152.852 385.255 152.812 385.505H146.497C146.547 386.165 146.792 386.695 147.232 387.095C147.672 387.495 148.212 387.695 148.852 387.695C149.772 387.695 150.422 387.31 150.802 386.54H152.647C152.397 387.3 151.942 387.925 151.282 388.415C150.632 388.895 149.822 389.135 148.852 389.135C148.062 389.135 147.352 388.96 146.722 388.61C146.102 388.25 145.612 387.75 145.252 387.11C144.902 386.46 144.727 385.71 144.727 384.86C144.727 384.01 144.897 383.265 145.237 382.625C145.587 381.975 146.072 381.475 146.692 381.125C147.322 380.775 148.042 380.6 148.852 380.6C149.632 380.6 150.327 380.77 150.937 381.11C151.547 381.45 152.022 381.93 152.362 382.55C152.702 383.16 152.872 383.865 152.872 384.665ZM151.087 384.125C151.077 383.495 150.852 382.99 150.412 382.61C149.972 382.23 149.427 382.04 148.777 382.04C148.187 382.04 147.682 382.23 147.262 382.61C146.842 382.98 146.592 383.485 146.512 384.125H151.087Z" fill="#093030"/>
<path id="ou inscrit toi avec" d="M173.291 750.156C172.758 750.156 172.283 750.033 171.867 749.786C171.456 749.534 171.131 749.196 170.892 748.771C170.658 748.347 170.541 747.872 170.541 747.348C170.541 746.824 170.658 746.347 170.892 745.918C171.131 745.485 171.456 745.142 171.867 744.891C172.283 744.635 172.758 744.507 173.291 744.507C173.824 744.507 174.294 744.635 174.701 744.891C175.113 745.142 175.436 745.485 175.67 745.918C175.904 746.347 176.021 746.824 176.021 747.348C176.021 747.872 175.904 748.347 175.67 748.771C175.436 749.196 175.113 749.534 174.701 749.786C174.294 750.033 173.824 750.156 173.291 750.156ZM173.291 749.486C173.694 749.486 174.045 749.393 174.344 749.207C174.647 749.021 174.881 748.765 175.046 748.44C175.215 748.115 175.299 747.751 175.299 747.348C175.299 746.941 175.215 746.574 175.046 746.249C174.881 745.92 174.647 745.66 174.344 745.469C174.045 745.274 173.694 745.177 173.291 745.177C172.884 745.177 172.528 745.274 172.225 745.469C171.922 745.66 171.685 745.92 171.516 746.249C171.347 746.574 171.263 746.941 171.263 747.348C171.263 747.751 171.347 748.115 171.516 748.44C171.685 748.765 171.922 749.021 172.225 749.207C172.528 749.393 172.884 749.486 173.291 749.486ZM178.051 747.452C178.051 748.076 178.187 748.572 178.46 748.94C178.738 749.304 179.154 749.486 179.708 749.486C180.267 749.486 180.683 749.304 180.956 748.94C181.229 748.572 181.366 748.076 181.366 747.452V744.663H182.107V747.582C182.107 748.08 182.014 748.524 181.827 748.914C181.641 749.3 181.37 749.603 181.015 749.824C180.659 750.045 180.224 750.156 179.708 750.156C179.197 750.156 178.764 750.045 178.408 749.824C178.053 749.603 177.782 749.3 177.596 748.914C177.409 748.524 177.316 748.08 177.316 747.582V744.663H178.051V747.452ZM187.096 750V744.663H187.831V750H187.096ZM187.473 742.499C187.317 742.499 187.183 742.445 187.07 742.336C186.962 742.224 186.908 742.089 186.908 741.933C186.908 741.773 186.964 741.639 187.077 741.53C187.189 741.418 187.322 741.361 187.473 741.361C187.577 741.361 187.673 741.387 187.759 741.439C187.85 741.491 187.922 741.561 187.974 741.647C188.03 741.73 188.058 741.825 188.058 741.933C188.058 742.089 188 742.224 187.883 742.336C187.77 742.445 187.634 742.499 187.473 742.499ZM192.405 744.507C192.743 744.507 193.072 744.581 193.393 744.728C193.713 744.871 193.978 745.101 194.186 745.417C194.394 745.729 194.498 746.135 194.498 746.633V750H193.744V746.808C193.744 746.215 193.605 745.788 193.328 745.528C193.05 745.264 192.695 745.131 192.262 745.131C191.976 745.131 191.698 745.214 191.43 745.378C191.165 745.543 190.947 745.768 190.773 746.054C190.604 746.34 190.52 746.661 190.52 747.016V750H189.779V744.663H190.52V745.69C190.55 745.539 190.652 745.372 190.825 745.19C191.003 745.004 191.228 744.843 191.501 744.709C191.779 744.575 192.08 744.507 192.405 744.507ZM197.952 744.507C198.199 744.507 198.43 744.536 198.647 744.592C198.868 744.644 199.061 744.711 199.226 744.793C199.39 744.871 199.514 744.943 199.596 745.008L199.239 745.521C199.148 745.435 198.989 745.344 198.764 745.248C198.539 745.149 198.285 745.099 198.004 745.099C197.657 745.099 197.36 745.17 197.113 745.313C196.87 745.456 196.749 745.664 196.749 745.938C196.749 746.202 196.873 746.412 197.12 746.568C197.367 746.724 197.692 746.852 198.095 746.951C198.402 747.029 198.682 747.127 198.933 747.244C199.189 747.361 199.392 747.521 199.544 747.725C199.696 747.924 199.772 748.191 199.772 748.524C199.772 748.81 199.713 749.057 199.596 749.265C199.479 749.469 199.319 749.636 199.115 749.766C198.916 749.896 198.688 749.994 198.433 750.059C198.177 750.124 197.908 750.156 197.627 750.156C197.336 750.156 197.068 750.124 196.821 750.059C196.574 749.994 196.361 749.915 196.184 749.824C196.01 749.733 195.878 749.649 195.787 749.571L196.158 748.992C196.27 749.109 196.454 749.231 196.71 749.356C196.97 749.478 197.273 749.538 197.62 749.538C198.023 749.538 198.355 749.445 198.615 749.259C198.879 749.073 199.011 748.828 199.011 748.524C199.011 748.303 198.948 748.126 198.823 747.991C198.697 747.857 198.532 747.751 198.329 747.673C198.125 747.591 197.908 747.521 197.679 747.465C197.458 747.409 197.245 747.341 197.042 747.263C196.842 747.181 196.665 747.079 196.509 746.958C196.353 746.837 196.229 746.691 196.138 746.522C196.051 746.349 196.008 746.148 196.008 745.918C196.008 745.632 196.097 745.385 196.275 745.177C196.452 744.965 196.688 744.8 196.983 744.683C197.282 744.566 197.605 744.507 197.952 744.507ZM203.544 749.506C203.925 749.506 204.23 749.447 204.46 749.33C204.69 749.209 204.831 749.125 204.883 749.077L205.273 749.649C205.238 749.675 205.14 749.731 204.98 749.818C204.82 749.9 204.612 749.976 204.356 750.046C204.105 750.119 203.819 750.156 203.498 750.156C203.069 750.156 202.655 750.05 202.257 749.837C201.858 749.625 201.529 749.309 201.269 748.888C201.013 748.468 200.885 747.948 200.885 747.328C200.885 746.704 201.013 746.184 201.269 745.768C201.529 745.348 201.858 745.034 202.257 744.826C202.655 744.614 203.069 744.507 203.498 744.507C203.819 744.507 204.1 744.546 204.343 744.624C204.586 744.702 204.785 744.789 204.941 744.884C205.097 744.98 205.195 745.049 205.234 745.092L204.85 745.658C204.811 745.623 204.737 745.567 204.629 745.489C204.525 745.407 204.382 745.331 204.2 745.261C204.018 745.192 203.799 745.157 203.544 745.157C203.236 745.157 202.933 745.242 202.634 745.411C202.335 745.58 202.088 745.827 201.893 746.152C201.702 746.473 201.607 746.865 201.607 747.328C201.607 747.792 201.702 748.186 201.893 748.511C202.088 748.836 202.335 749.083 202.634 749.252C202.933 749.421 203.236 749.506 203.544 749.506ZM207.309 750H206.581V744.663H207.309V745.625H207.277C207.294 745.513 207.372 745.37 207.511 745.196C207.654 745.019 207.847 744.861 208.089 744.722C208.332 744.579 208.618 744.507 208.947 744.507C209.199 744.507 209.413 744.54 209.591 744.605C209.773 744.666 209.899 744.728 209.968 744.793L209.643 745.424C209.587 745.368 209.48 745.311 209.324 745.255C209.173 745.199 208.989 745.17 208.772 745.17C208.473 745.17 208.213 745.27 207.992 745.469C207.775 745.669 207.606 745.907 207.485 746.184C207.368 746.457 207.309 746.709 207.309 746.938V750ZM210.938 750V744.663H211.673V750H210.938ZM211.315 742.499C211.159 742.499 211.025 742.445 210.912 742.336C210.804 742.224 210.75 742.089 210.75 741.933C210.75 741.773 210.806 741.639 210.919 741.53C211.031 741.418 211.163 741.361 211.315 741.361C211.419 741.361 211.514 741.387 211.601 741.439C211.692 741.491 211.764 741.561 211.816 741.647C211.872 741.73 211.9 741.825 211.9 741.933C211.9 742.089 211.842 742.224 211.725 742.336C211.612 742.445 211.475 742.499 211.315 742.499ZM213.126 744.663H214.238V742.473H214.972V744.663H216.428V745.333H214.972V748.498C214.972 748.854 215.037 749.107 215.167 749.259C215.297 749.411 215.46 749.486 215.655 749.486C215.841 749.486 215.982 749.454 216.077 749.389C216.173 749.324 216.229 749.281 216.246 749.259L216.591 749.824C216.565 749.846 216.506 749.885 216.415 749.941C216.324 749.993 216.205 750.041 216.058 750.085C215.911 750.132 215.733 750.156 215.525 750.156C215.165 750.156 214.86 750.041 214.608 749.811C214.361 749.577 214.238 749.205 214.238 748.693V745.333H213.126V744.663ZM220.388 744.663H221.5V742.473H222.234V744.663H223.69V745.333H222.234V748.498C222.234 748.854 222.299 749.107 222.429 749.259C222.559 749.411 222.722 749.486 222.917 749.486C223.103 749.486 223.244 749.454 223.339 749.389C223.435 749.324 223.491 749.281 223.508 749.259L223.853 749.824C223.827 749.846 223.768 749.885 223.677 749.941C223.586 749.993 223.467 750.041 223.32 750.085C223.172 750.132 222.995 750.156 222.787 750.156C222.427 750.156 222.122 750.041 221.87 749.811C221.623 749.577 221.5 749.205 221.5 748.693V745.333H220.388V744.663ZM227.309 750.156C226.776 750.156 226.302 750.033 225.886 749.786C225.474 749.534 225.149 749.196 224.911 748.771C224.677 748.347 224.56 747.872 224.56 747.348C224.56 746.824 224.677 746.347 224.911 745.918C225.149 745.485 225.474 745.142 225.886 744.891C226.302 744.635 226.776 744.507 227.309 744.507C227.842 744.507 228.313 744.635 228.72 744.891C229.132 745.142 229.454 745.485 229.688 745.918C229.922 746.347 230.039 746.824 230.039 747.348C230.039 747.872 229.922 748.347 229.688 748.771C229.454 749.196 229.132 749.534 228.72 749.786C228.313 750.033 227.842 750.156 227.309 750.156ZM227.309 749.486C227.712 749.486 228.063 749.393 228.362 749.207C228.666 749.021 228.9 748.765 229.064 748.44C229.233 748.115 229.318 747.751 229.318 747.348C229.318 746.941 229.233 746.574 229.064 746.249C228.9 745.92 228.666 745.66 228.362 745.469C228.063 745.274 227.712 745.177 227.309 745.177C226.902 745.177 226.547 745.274 226.243 745.469C225.94 745.66 225.704 745.92 225.535 746.249C225.366 746.574 225.281 746.941 225.281 747.348C225.281 747.751 225.366 748.115 225.535 748.44C225.704 748.765 225.94 749.021 226.243 749.207C226.547 749.393 226.902 749.486 227.309 749.486ZM231.53 750V744.663H232.264V750H231.53ZM231.907 742.499C231.751 742.499 231.616 742.445 231.504 742.336C231.395 742.224 231.341 742.089 231.341 741.933C231.341 741.773 231.398 741.639 231.51 741.53C231.623 741.418 231.755 741.361 231.907 741.361C232.011 741.361 232.106 741.387 232.193 741.439C232.284 741.491 232.355 741.561 232.407 741.647C232.464 741.73 232.492 741.825 232.492 741.933C232.492 742.089 232.433 742.224 232.316 742.336C232.204 742.445 232.067 742.499 231.907 742.499ZM241.677 750V748.882C241.646 748.999 241.545 749.159 241.371 749.363C241.202 749.567 240.966 749.751 240.663 749.915C240.364 750.076 240.008 750.156 239.597 750.156C239.116 750.156 238.672 750.045 238.264 749.824C237.861 749.599 237.536 749.276 237.289 748.856C237.047 748.431 236.925 747.924 236.925 747.335C236.925 746.746 237.047 746.241 237.289 745.82C237.536 745.396 237.861 745.071 238.264 744.845C238.672 744.62 239.116 744.507 239.597 744.507C240.008 744.507 240.364 744.585 240.663 744.741C240.962 744.893 241.198 745.069 241.371 745.268C241.549 745.467 241.649 745.634 241.67 745.768V744.663H242.398V750H241.677ZM237.66 747.335C237.66 747.786 237.757 748.173 237.952 748.498C238.147 748.823 238.399 749.073 238.706 749.246C239.018 749.419 239.345 749.506 239.688 749.506C240.065 749.506 240.401 749.417 240.695 749.239C240.99 749.062 241.222 748.81 241.391 748.485C241.564 748.16 241.651 747.777 241.651 747.335C241.651 746.893 241.564 746.509 241.391 746.184C241.222 745.859 240.99 745.608 240.695 745.43C240.401 745.248 240.065 745.157 239.688 745.157C239.345 745.157 239.018 745.246 238.706 745.424C238.399 745.597 238.147 745.846 237.952 746.171C237.757 746.496 237.66 746.884 237.66 747.335ZM243.485 744.663H244.278L246.235 749.298L248.185 744.663H248.978L246.67 750H245.799L243.485 744.663ZM250.501 747.419C250.505 747.792 250.579 748.141 250.722 748.466C250.869 748.791 251.09 749.053 251.385 749.252C251.68 749.452 252.05 749.551 252.496 749.551C252.86 749.551 253.164 749.493 253.406 749.376C253.653 749.255 253.848 749.116 253.991 748.96C254.139 748.8 254.243 748.657 254.303 748.531L254.765 748.986C254.605 749.233 254.418 749.445 254.206 749.623C253.998 749.796 253.751 749.928 253.465 750.02C253.183 750.111 252.847 750.156 252.457 750.156C251.89 750.156 251.404 750.03 251.001 749.779C250.603 749.523 250.297 749.177 250.085 748.739C249.877 748.301 249.773 747.809 249.773 747.263C249.773 746.743 249.877 746.275 250.085 745.859C250.293 745.443 250.592 745.114 250.982 744.871C251.376 744.629 251.851 744.507 252.405 744.507C252.908 744.507 253.344 744.618 253.712 744.839C254.085 745.06 254.373 745.368 254.576 745.762C254.784 746.152 254.888 746.607 254.888 747.127C254.888 747.166 254.886 747.216 254.882 747.276C254.882 747.337 254.88 747.385 254.875 747.419H250.501ZM254.147 746.802C254.143 746.568 254.085 746.321 253.972 746.061C253.864 745.797 253.684 745.573 253.432 745.391C253.185 745.205 252.845 745.112 252.412 745.112C251.961 745.112 251.602 745.203 251.333 745.385C251.069 745.563 250.876 745.781 250.754 746.041C250.633 746.301 250.559 746.555 250.533 746.802H254.147ZM258.578 749.506C258.959 749.506 259.265 749.447 259.494 749.33C259.724 749.209 259.865 749.125 259.917 749.077L260.307 749.649C260.272 749.675 260.175 749.731 260.014 749.818C259.854 749.9 259.646 749.976 259.39 750.046C259.139 750.119 258.853 750.156 258.532 750.156C258.103 750.156 257.689 750.05 257.291 749.837C256.892 749.625 256.563 749.309 256.303 748.888C256.047 748.468 255.919 747.948 255.919 747.328C255.919 746.704 256.047 746.184 256.303 745.768C256.563 745.348 256.892 745.034 257.291 744.826C257.689 744.614 258.103 744.507 258.532 744.507C258.853 744.507 259.135 744.546 259.377 744.624C259.62 744.702 259.819 744.789 259.975 744.884C260.131 744.98 260.229 745.049 260.268 745.092L259.884 745.658C259.845 745.623 259.772 745.567 259.663 745.489C259.559 745.407 259.416 745.331 259.234 745.261C259.052 745.192 258.833 745.157 258.578 745.157C258.27 745.157 257.967 745.242 257.668 745.411C257.369 745.58 257.122 745.827 256.927 746.152C256.736 746.473 256.641 746.865 256.641 747.328C256.641 747.792 256.736 748.186 256.927 748.511C257.122 748.836 257.369 749.083 257.668 749.252C257.967 749.421 258.27 749.506 258.578 749.506Z" fill="#093030"/>
<g id="Frame 3">
<path id="16:04" d="M38.7095 12.136L37.26 12.942V11.6225L39.3595 10.42H40.081V19H38.7095V12.136ZM44.8845 13.371C45.3568 13.371 45.7988 13.4902 46.2105 13.7285C46.6265 13.9625 46.9645 14.294 47.2245 14.723C47.4845 15.152 47.6145 15.6503 47.6145 16.218C47.6145 16.7857 47.4758 17.2905 47.1985 17.7325C46.9212 18.1745 46.5485 18.5233 46.0805 18.779C45.6168 19.0303 45.1055 19.156 44.5465 19.156C43.9745 19.156 43.4567 19.0325 42.993 18.7855C42.5337 18.5385 42.1675 18.1875 41.8945 17.7325C41.6215 17.2775 41.485 16.7423 41.485 16.127C41.485 15.4727 41.5955 14.9202 41.8165 14.4695C42.0375 14.0145 42.2953 13.605 42.59 13.241L44.865 10.42H46.4835L43.7145 13.7415C43.7968 13.6548 43.9377 13.5725 44.137 13.4945C44.3363 13.4122 44.5855 13.371 44.8845 13.371ZM44.5595 18.012C44.8802 18.012 45.1727 17.934 45.437 17.778C45.7057 17.6177 45.918 17.4053 46.074 17.141C46.2343 16.8723 46.3145 16.5755 46.3145 16.2505C46.3145 15.9255 46.2343 15.6308 46.074 15.3665C45.918 15.0978 45.7057 14.8855 45.437 14.7295C45.1727 14.5735 44.8802 14.4955 44.5595 14.4955C44.2345 14.4955 43.9377 14.5735 43.669 14.7295C43.4003 14.8855 43.1858 15.0978 43.0255 15.3665C42.8695 15.6308 42.7915 15.9255 42.7915 16.2505C42.7915 16.5755 42.8695 16.8723 43.0255 17.141C43.1858 17.4053 43.4003 17.6177 43.669 17.778C43.9377 17.934 44.2345 18.012 44.5595 18.012ZM50.0027 19.156C49.7384 19.156 49.5109 19.0628 49.3202 18.8765C49.1339 18.6858 49.0407 18.4562 49.0407 18.1875C49.0407 17.9188 49.1339 17.6892 49.3202 17.4985C49.5109 17.3078 49.7384 17.2125 50.0027 17.2125C50.2757 17.2125 50.5054 17.3078 50.6917 17.4985C50.8824 17.6892 50.9777 17.9188 50.9777 18.1875C50.9777 18.4562 50.8824 18.6858 50.6917 18.8765C50.5054 19.0628 50.2757 19.156 50.0027 19.156ZM50.0027 15.139C49.7384 15.139 49.5109 15.0458 49.3202 14.8595C49.1339 14.6688 49.0407 14.4392 49.0407 14.1705C49.0407 13.9018 49.1339 13.6722 49.3202 13.4815C49.5109 13.2908 49.7384 13.1955 50.0027 13.1955C50.2757 13.1955 50.5054 13.2908 50.6917 13.4815C50.8824 13.6722 50.9777 13.9018 50.9777 14.1705C50.9777 14.4392 50.8824 14.6688 50.6917 14.8595C50.5054 15.0458 50.2757 15.139 50.0027 15.139ZM52.1355 14.7165C52.1355 13.9582 52.2265 13.2995 52.4085 12.7405C52.5948 12.1815 52.8461 11.72 53.1625 11.356C53.4788 10.9877 53.8341 10.7147 54.2285 10.537C54.6228 10.355 55.0301 10.264 55.4505 10.264C55.8751 10.264 56.2846 10.355 56.679 10.537C57.0776 10.7147 57.433 10.9877 57.745 11.356C58.057 11.72 58.304 12.1815 58.486 12.7405C58.668 13.2995 58.759 13.9582 58.759 14.7165C58.759 15.5008 58.668 16.1725 58.486 16.7315C58.304 17.2905 58.057 17.7498 57.745 18.1095C57.433 18.4648 57.0776 18.7292 56.679 18.9025C56.2846 19.0715 55.8751 19.156 55.4505 19.156C55.0301 19.156 54.6228 19.0715 54.2285 18.9025C53.8341 18.7292 53.4788 18.4648 53.1625 18.1095C52.8461 17.7498 52.5948 17.2905 52.4085 16.7315C52.2265 16.1725 52.1355 15.5008 52.1355 14.7165ZM53.52 14.7165C53.52 15.4358 53.6045 16.036 53.7735 16.517C53.9468 16.9937 54.1786 17.349 54.469 17.583C54.7636 17.8127 55.0908 17.9275 55.4505 17.9275C55.8188 17.9275 56.146 17.8105 56.432 17.5765C56.7223 17.3425 56.952 16.9872 57.121 16.5105C57.29 16.0338 57.3745 15.4358 57.3745 14.7165C57.3745 14.0102 57.29 13.4187 57.121 12.942C56.952 12.4653 56.7223 12.1057 56.432 11.863C56.146 11.616 55.8188 11.4925 55.4505 11.4925C55.0908 11.4925 54.7636 11.616 54.469 11.863C54.1786 12.1057 53.9468 12.4675 53.7735 12.9485C53.6045 13.4252 53.52 14.0145 53.52 14.7165ZM64.4719 10.42V15.9775H65.4534V17.193H64.4719V19H63.1004V17.193H59.5124V16.0815L62.9444 10.42H64.4719ZM63.1004 15.9775V12.3505H63.0939L60.9294 15.9775H63.1004Z" fill="white"/>
<g id="Vector">
<path d="M339.261 20C338.565 20 338 19.5383 338 18.9688L338 14.8437C338 14.2742 338.565 13.8125 339.261 13.8125C339.958 13.8125 340.522 14.2742 340.522 14.8437L340.522 18.9688C340.522 19.5383 339.958 20 339.261 20Z" fill="white"/>
<path d="M342.754 20C342.057 20 341.493 19.5383 341.493 18.9688L341.493 13.4688C341.493 12.8992 342.057 12.4375 342.754 12.4375C343.45 12.4375 344.015 12.8992 344.015 13.4688L344.015 18.9688C344.015 19.5383 343.45 20 342.754 20Z" fill="white"/>
<path d="M346.246 20C345.55 20 344.985 19.5383 344.985 18.9688V11.75C344.985 11.1805 345.55 10.7188 346.246 10.7188C346.943 10.7188 347.507 11.1805 347.507 11.75V18.9688C347.507 19.5383 346.943 20 346.246 20Z" fill="white"/>
<path d="M349.739 20C349.042 20 348.478 19.5383 348.478 18.9688V10.0312C348.478 9.46171 349.042 9 349.739 9C350.435 9 351 9.46171 351 10.0312V18.9688C351 19.5383 350.435 20 349.739 20Z" fill="white"/>
</g>
<path id="Vector_2" d="M356 14.3846C359.409 9.87179 367.25 9.87179 371 14.3846M367.5 16.6154C365.606 14.359 361.25 14.359 359.167 16.6154M363.333 19H362.5" stroke="white" stroke-width="2" stroke-linecap="round"/>
<g id="Group 12">
<path id="Vector (Stroke)" d="M377 12.6202C377 12.2856 377.312 12 377.717 12H388.283C388.688 12 389 12.2856 389 12.6202V18.3798C389 18.7144 388.688 19 388.283 19H377.717C377.312 19 377 18.7144 377 18.3798L377 12.6202Z" fill="white"/>
<path id="Vector (Stroke)_2" fill-rule="evenodd" clip-rule="evenodd" d="M376 11.7974C376 11.3672 376.402 11 376.924 11L390.54 11C391.063 11 391.465 11.3672 391.465 11.7974C391.465 12.2217 391.749 12.5934 392.159 12.7042L392.452 12.7836C392.71 12.8684 393 13.0707 393 13.3897V17.5446C393 17.8637 392.71 18.0659 392.452 18.1508L392.431 18.1577L392.243 18.2006C391.788 18.3043 391.465 18.7089 391.465 19.1757V19.2026C391.465 19.6328 391.063 20 390.54 20H376.924C376.402 20 376 19.6328 376 19.2026L376 11.7974Z" stroke="white"/>
</g>
</g>
<g id="Facebook">
<path id="Vector_3" d="M200.398 796.42C203.172 793.402 204.711 789.452 204.71 785.353C204.71 783.205 204.287 781.078 203.465 779.094C202.643 777.109 201.438 775.306 199.919 773.788C198.4 772.269 196.597 771.065 194.612 770.243C192.627 769.422 190.501 768.999 188.353 769C184.016 769 179.856 770.723 176.79 773.79C173.723 776.856 172 781.016 172 785.353C172 789.081 173.274 792.697 175.611 795.602C177.948 798.507 181.208 800.526 184.85 801.325V790.562H180.158V785.678H184.855V781.438C184.855 780.144 185.369 778.903 186.284 777.988C187.199 777.074 188.439 776.56 189.733 776.56H194.049V781.443H191.658C191.147 781.443 190.658 781.646 190.297 782.007C189.936 782.368 189.733 782.857 189.733 783.368V785.678H194.414V790.562H189.733V801.65C193.818 801.305 197.624 799.438 200.398 796.42Z" stroke="#0E3E3E" stroke-width="1.3" stroke-linecap="round" stroke-linejoin="round"/>
</g>
<g id="Google">
<path id="Vector_4" d="M246.46 779.337C245.426 777.946 244.05 776.846 242.466 776.141C240.883 775.437 239.144 775.153 237.419 775.316C235.116 775.538 232.958 776.542 231.306 778.162C229.653 779.781 228.605 781.917 228.336 784.215C228.174 785.629 228.313 787.061 228.744 788.417C229.174 789.773 229.886 791.023 230.833 792.085C231.78 793.147 232.941 793.996 234.24 794.578C235.538 795.16 236.945 795.461 238.368 795.461C240.906 795.46 243.35 794.504 245.215 792.782C247.08 791.06 248.227 788.7 248.43 786.17C248.437 786.068 248.423 785.965 248.389 785.868C248.354 785.771 248.301 785.683 248.231 785.607C248.161 785.532 248.076 785.472 247.982 785.431C247.888 785.39 247.787 785.368 247.684 785.368H238.469M254.705 785.353C254.705 794.384 247.384 801.705 238.353 801.705C229.321 801.705 222 794.384 222 785.353C222 776.321 229.321 769 238.353 769C247.384 769 254.705 776.321 254.705 785.353Z" stroke="#0E3E3E" stroke-width="1.3" stroke-linecap="round" stroke-linejoin="round"/>
</g>
<g id="Eye-Pass">
<path id="Vector_5" d="M355.814 416C361.317 423.328 370.113 423.551 375.815 416.667C375.993 416.454 376.165 416.231 376.339 416M366.075 421.669V425M371.63 420.201L373.445 423.422M375.812 416.667L378.136 418.834M360.51 420.201L358.695 423.422M356.325 416.667L354 418.834" stroke="#0E3E3E" stroke-width="1.63636" stroke-linecap="round" stroke-linejoin="round"/>
</g>
<path id="Face ID ?" d="M191.444 695.228V696.81H187.37V699.316H190.492V700.87H187.37V705H185.41V695.228H191.444ZM192.33 701.094C192.33 700.31 192.484 699.615 192.792 699.008C193.109 698.401 193.534 697.935 194.066 697.608C194.607 697.281 195.209 697.118 195.872 697.118C196.451 697.118 196.955 697.235 197.384 697.468C197.823 697.701 198.173 697.995 198.434 698.35V697.244H200.408V705H198.434V703.866C198.182 704.23 197.832 704.533 197.384 704.776C196.945 705.009 196.437 705.126 195.858 705.126C195.205 705.126 194.607 704.958 194.066 704.622C193.534 704.286 193.109 703.815 192.792 703.208C192.484 702.592 192.33 701.887 192.33 701.094ZM198.434 701.122C198.434 700.646 198.341 700.24 198.154 699.904C197.967 699.559 197.715 699.297 197.398 699.12C197.081 698.933 196.74 698.84 196.376 698.84C196.012 698.84 195.676 698.929 195.368 699.106C195.06 699.283 194.808 699.545 194.612 699.89C194.425 700.226 194.332 700.627 194.332 701.094C194.332 701.561 194.425 701.971 194.612 702.326C194.808 702.671 195.06 702.937 195.368 703.124C195.685 703.311 196.021 703.404 196.376 703.404C196.74 703.404 197.081 703.315 197.398 703.138C197.715 702.951 197.967 702.69 198.154 702.354C198.341 702.009 198.434 701.598 198.434 701.122ZM201.818 701.122C201.818 700.319 201.982 699.619 202.308 699.022C202.635 698.415 203.088 697.949 203.666 697.622C204.245 697.286 204.908 697.118 205.654 697.118C206.616 697.118 207.409 697.361 208.034 697.846C208.669 698.322 209.094 698.994 209.308 699.862H207.194C207.082 699.526 206.891 699.265 206.62 699.078C206.359 698.882 206.032 698.784 205.64 698.784C205.08 698.784 204.637 698.989 204.31 699.4C203.984 699.801 203.82 700.375 203.82 701.122C203.82 701.859 203.984 702.433 204.31 702.844C204.637 703.245 205.08 703.446 205.64 703.446C206.434 703.446 206.952 703.091 207.194 702.382H209.308C209.094 703.222 208.669 703.889 208.034 704.384C207.4 704.879 206.606 705.126 205.654 705.126C204.908 705.126 204.245 704.963 203.666 704.636C203.088 704.3 202.635 703.833 202.308 703.236C201.982 702.629 201.818 701.925 201.818 701.122ZM217.954 700.954C217.954 701.234 217.936 701.486 217.898 701.71H212.228C212.275 702.27 212.471 702.709 212.816 703.026C213.162 703.343 213.586 703.502 214.09 703.502C214.818 703.502 215.336 703.189 215.644 702.564H217.758C217.534 703.311 217.105 703.927 216.47 704.412C215.836 704.888 215.056 705.126 214.132 705.126C213.386 705.126 212.714 704.963 212.116 704.636C211.528 704.3 211.066 703.829 210.73 703.222C210.404 702.615 210.24 701.915 210.24 701.122C210.24 700.319 210.404 699.615 210.73 699.008C211.057 698.401 211.514 697.935 212.102 697.608C212.69 697.281 213.367 697.118 214.132 697.118C214.87 697.118 215.528 697.277 216.106 697.594C216.694 697.911 217.147 698.364 217.464 698.952C217.791 699.531 217.954 700.198 217.954 700.954ZM215.924 700.394C215.915 699.89 215.733 699.489 215.378 699.19C215.024 698.882 214.59 698.728 214.076 698.728C213.591 698.728 213.18 698.877 212.844 699.176C212.518 699.465 212.317 699.871 212.242 700.394H215.924ZM224.681 695.228V705H222.721V695.228H224.681ZM230.033 695.228C231.06 695.228 231.961 695.429 232.735 695.83C233.519 696.231 234.121 696.805 234.541 697.552C234.971 698.289 235.185 699.148 235.185 700.128C235.185 701.108 234.971 701.967 234.541 702.704C234.121 703.432 233.519 703.997 232.735 704.398C231.961 704.799 231.06 705 230.033 705H226.617V695.228H230.033ZM229.963 703.334C230.99 703.334 231.783 703.054 232.343 702.494C232.903 701.934 233.183 701.145 233.183 700.128C233.183 699.111 232.903 698.317 232.343 697.748C231.783 697.169 230.99 696.88 229.963 696.88H228.577V703.334H229.963ZM242.718 694.892C243.689 694.892 244.468 695.158 245.056 695.69C245.654 696.213 245.952 696.936 245.952 697.86C245.952 698.775 245.658 699.475 245.07 699.96C244.482 700.436 243.703 700.674 242.732 700.674L242.676 701.752H240.954L240.884 699.372H241.514C242.326 699.372 242.952 699.265 243.39 699.05C243.829 698.835 244.048 698.443 244.048 697.874C244.048 697.463 243.927 697.137 243.684 696.894C243.451 696.651 243.129 696.53 242.718 696.53C242.289 696.53 241.953 696.647 241.71 696.88C241.477 697.113 241.36 697.435 241.36 697.846H239.512C239.503 697.277 239.624 696.768 239.876 696.32C240.128 695.872 240.497 695.522 240.982 695.27C241.477 695.018 242.056 694.892 242.718 694.892ZM241.808 705.098C241.454 705.098 241.16 704.991 240.926 704.776C240.702 704.552 240.59 704.277 240.59 703.95C240.59 703.623 240.702 703.353 240.926 703.138C241.16 702.914 241.454 702.802 241.808 702.802C242.154 702.802 242.438 702.914 242.662 703.138C242.886 703.353 242.998 703.623 242.998 703.95C242.998 704.277 242.886 704.552 242.662 704.776C242.438 704.991 242.154 705.098 241.808 705.098Z" fill="#0E3E3E"/>
</g>
</g>
<defs>
<clipPath id="clip0_7020_3634">
<rect width="430" height="932" rx="40" fill="white"/>
</clipPath>
</defs>
</svg>
