<svg width="430" height="932" viewBox="0 0 430 932" fill="none" xmlns="http://www.w3.org/2000/svg">
<g id="3.2 - C -  New Password">
<rect width="430" height="932" rx="40" fill="#00D09E"/>
<g id="Frame 3">
<path id="16:04" d="M38.7095 12.136L37.26 12.942V11.6225L39.3595 10.42H40.081V19H38.7095V12.136ZM44.8845 13.371C45.3568 13.371 45.7988 13.4902 46.2105 13.7285C46.6265 13.9625 46.9645 14.294 47.2245 14.723C47.4845 15.152 47.6145 15.6503 47.6145 16.218C47.6145 16.7857 47.4758 17.2905 47.1985 17.7325C46.9212 18.1745 46.5485 18.5233 46.0805 18.779C45.6168 19.0303 45.1055 19.156 44.5465 19.156C43.9745 19.156 43.4567 19.0325 42.993 18.7855C42.5337 18.5385 42.1675 18.1875 41.8945 17.7325C41.6215 17.2775 41.485 16.7423 41.485 16.127C41.485 15.4727 41.5955 14.9202 41.8165 14.4695C42.0375 14.0145 42.2953 13.605 42.59 13.241L44.865 10.42H46.4835L43.7145 13.7415C43.7968 13.6548 43.9377 13.5725 44.137 13.4945C44.3363 13.4122 44.5855 13.371 44.8845 13.371ZM44.5595 18.012C44.8802 18.012 45.1727 17.934 45.437 17.778C45.7057 17.6177 45.918 17.4053 46.074 17.141C46.2343 16.8723 46.3145 16.5755 46.3145 16.2505C46.3145 15.9255 46.2343 15.6308 46.074 15.3665C45.918 15.0978 45.7057 14.8855 45.437 14.7295C45.1727 14.5735 44.8802 14.4955 44.5595 14.4955C44.2345 14.4955 43.9377 14.5735 43.669 14.7295C43.4003 14.8855 43.1858 15.0978 43.0255 15.3665C42.8695 15.6308 42.7915 15.9255 42.7915 16.2505C42.7915 16.5755 42.8695 16.8723 43.0255 17.141C43.1858 17.4053 43.4003 17.6177 43.669 17.778C43.9377 17.934 44.2345 18.012 44.5595 18.012ZM50.0027 19.156C49.7384 19.156 49.5109 19.0628 49.3202 18.8765C49.1339 18.6858 49.0407 18.4562 49.0407 18.1875C49.0407 17.9188 49.1339 17.6892 49.3202 17.4985C49.5109 17.3078 49.7384 17.2125 50.0027 17.2125C50.2757 17.2125 50.5054 17.3078 50.6917 17.4985C50.8824 17.6892 50.9777 17.9188 50.9777 18.1875C50.9777 18.4562 50.8824 18.6858 50.6917 18.8765C50.5054 19.0628 50.2757 19.156 50.0027 19.156ZM50.0027 15.139C49.7384 15.139 49.5109 15.0458 49.3202 14.8595C49.1339 14.6688 49.0407 14.4392 49.0407 14.1705C49.0407 13.9018 49.1339 13.6722 49.3202 13.4815C49.5109 13.2908 49.7384 13.1955 50.0027 13.1955C50.2757 13.1955 50.5054 13.2908 50.6917 13.4815C50.8824 13.6722 50.9777 13.9018 50.9777 14.1705C50.9777 14.4392 50.8824 14.6688 50.6917 14.8595C50.5054 15.0458 50.2757 15.139 50.0027 15.139ZM52.1355 14.7165C52.1355 13.9582 52.2265 13.2995 52.4085 12.7405C52.5948 12.1815 52.8461 11.72 53.1625 11.356C53.4788 10.9877 53.8341 10.7147 54.2285 10.537C54.6228 10.355 55.0301 10.264 55.4505 10.264C55.8751 10.264 56.2846 10.355 56.679 10.537C57.0776 10.7147 57.433 10.9877 57.745 11.356C58.057 11.72 58.304 12.1815 58.486 12.7405C58.668 13.2995 58.759 13.9582 58.759 14.7165C58.759 15.5008 58.668 16.1725 58.486 16.7315C58.304 17.2905 58.057 17.7498 57.745 18.1095C57.433 18.4648 57.0776 18.7292 56.679 18.9025C56.2846 19.0715 55.8751 19.156 55.4505 19.156C55.0301 19.156 54.6228 19.0715 54.2285 18.9025C53.8341 18.7292 53.4788 18.4648 53.1625 18.1095C52.8461 17.7498 52.5948 17.2905 52.4085 16.7315C52.2265 16.1725 52.1355 15.5008 52.1355 14.7165ZM53.52 14.7165C53.52 15.4358 53.6045 16.036 53.7735 16.517C53.9468 16.9937 54.1786 17.349 54.469 17.583C54.7636 17.8127 55.0908 17.9275 55.4505 17.9275C55.8188 17.9275 56.146 17.8105 56.432 17.5765C56.7223 17.3425 56.952 16.9872 57.121 16.5105C57.29 16.0338 57.3745 15.4358 57.3745 14.7165C57.3745 14.0102 57.29 13.4187 57.121 12.942C56.952 12.4653 56.7223 12.1057 56.432 11.863C56.146 11.616 55.8188 11.4925 55.4505 11.4925C55.0908 11.4925 54.7636 11.616 54.469 11.863C54.1786 12.1057 53.9468 12.4675 53.7735 12.9485C53.6045 13.4252 53.52 14.0145 53.52 14.7165ZM64.4719 10.42V15.9775H65.4534V17.193H64.4719V19H63.1004V17.193H59.5124V16.0815L62.9444 10.42H64.4719ZM63.1004 15.9775V12.3505H63.0939L60.9294 15.9775H63.1004Z" fill="white"/>
<g id="Vector">
<path d="M339.261 20C338.565 20 338 19.5383 338 18.9688L338 14.8437C338 14.2742 338.565 13.8125 339.261 13.8125C339.958 13.8125 340.522 14.2742 340.522 14.8437L340.522 18.9688C340.522 19.5383 339.958 20 339.261 20Z" fill="white"/>
<path d="M342.754 20C342.057 20 341.493 19.5383 341.493 18.9688L341.493 13.4688C341.493 12.8992 342.057 12.4375 342.754 12.4375C343.45 12.4375 344.015 12.8992 344.015 13.4688L344.015 18.9688C344.015 19.5383 343.45 20 342.754 20Z" fill="white"/>
<path d="M346.246 20C345.55 20 344.985 19.5383 344.985 18.9688V11.75C344.985 11.1805 345.55 10.7188 346.246 10.7188C346.943 10.7188 347.507 11.1805 347.507 11.75V18.9688C347.507 19.5383 346.943 20 346.246 20Z" fill="white"/>
<path d="M349.739 20C349.042 20 348.478 19.5383 348.478 18.9688V10.0312C348.478 9.46171 349.042 9 349.739 9C350.435 9 351 9.46171 351 10.0312V18.9688C351 19.5383 350.435 20 349.739 20Z" fill="white"/>
</g>
<path id="Vector_2" d="M356 14.3846C359.409 9.87179 367.25 9.87179 371 14.3846M367.5 16.6154C365.606 14.359 361.25 14.359 359.167 16.6154M363.333 19H362.5" stroke="white" stroke-width="2" stroke-linecap="round"/>
<g id="Group 12">
<path id="Vector (Stroke)" d="M377 12.6202C377 12.2856 377.312 12 377.717 12H388.283C388.688 12 389 12.2856 389 12.6202V18.3798C389 18.7144 388.688 19 388.283 19H377.717C377.312 19 377 18.7144 377 18.3798L377 12.6202Z" fill="white"/>
<path id="Vector (Stroke)_2" fill-rule="evenodd" clip-rule="evenodd" d="M376 11.7974C376 11.3672 376.402 11 376.924 11L390.54 11C391.063 11 391.465 11.3672 391.465 11.7974C391.465 12.2217 391.749 12.5934 392.159 12.7042L392.452 12.7836C392.71 12.8684 393 13.0707 393 13.3897V17.5446C393 17.8637 392.71 18.0659 392.452 18.1508L392.431 18.1577L392.243 18.2006C391.788 18.3043 391.465 18.7089 391.465 19.1757V19.2026C391.465 19.6328 391.063 20 390.54 20H376.924C376.402 20 376 19.6328 376 19.2026L376 11.7974Z" stroke="white"/>
</g>
</g>
<g id="Check Progress">
<path id="Vector_3" d="M215 491.984C254.212 491.984 286 460.196 286 420.984C286 381.772 254.212 349.984 215 349.984C175.788 349.984 144 381.772 144 420.984C144 460.196 175.788 491.984 215 491.984Z" stroke="#093030" stroke-width="9.94" stroke-linecap="round" stroke-linejoin="round"/>
<circle id="Ellipse 165" cx="184.47" cy="420.274" r="9.23" fill="#052224"/>
</g>
<path id="Mot de passe chang&#195;&#169; avec succ&#195;&#168;s" d="M122.664 529.04V543H119.864V533.92L116.124 543H114.004L110.244 533.92V543H107.444V529.04H110.624L115.064 539.42L119.504 529.04H122.664ZM130.353 543.18C129.286 543.18 128.326 542.947 127.473 542.48C126.619 542 125.946 541.327 125.453 540.46C124.973 539.593 124.733 538.593 124.733 537.46C124.733 536.327 124.979 535.327 125.473 534.46C125.979 533.593 126.666 532.927 127.533 532.46C128.399 531.98 129.366 531.74 130.433 531.74C131.499 531.74 132.466 531.98 133.333 532.46C134.199 532.927 134.879 533.593 135.373 534.46C135.879 535.327 136.133 536.327 136.133 537.46C136.133 538.593 135.873 539.593 135.353 540.46C134.846 541.327 134.153 542 133.273 542.48C132.406 542.947 131.433 543.18 130.353 543.18ZM130.353 540.74C130.859 540.74 131.333 540.62 131.773 540.38C132.226 540.127 132.586 539.753 132.853 539.26C133.119 538.767 133.253 538.167 133.253 537.46C133.253 536.407 132.973 535.6 132.413 535.04C131.866 534.467 131.193 534.18 130.393 534.18C129.593 534.18 128.919 534.467 128.373 535.04C127.839 535.6 127.573 536.407 127.573 537.46C127.573 538.513 127.833 539.327 128.353 539.9C128.886 540.46 129.553 540.74 130.353 540.74ZM141.447 534.22V539.58C141.447 539.953 141.533 540.227 141.707 540.4C141.893 540.56 142.2 540.64 142.627 540.64H143.927V543H142.167C139.807 543 138.627 541.853 138.627 539.56V534.22H137.307V531.92H138.627V529.18H141.447V531.92H143.927V534.22H141.447ZM149.986 537.42C149.986 536.3 150.206 535.307 150.646 534.44C151.1 533.573 151.713 532.907 152.486 532.44C153.26 531.973 154.12 531.74 155.066 531.74C155.786 531.74 156.473 531.9 157.126 532.22C157.78 532.527 158.3 532.94 158.686 533.46V528.2H161.526V543H158.686V541.36C158.34 541.907 157.853 542.347 157.226 542.68C156.6 543.013 155.873 543.18 155.046 543.18C154.113 543.18 153.26 542.94 152.486 542.46C151.713 541.98 151.1 541.307 150.646 540.44C150.206 539.56 149.986 538.553 149.986 537.42ZM158.706 537.46C158.706 536.78 158.573 536.2 158.306 535.72C158.04 535.227 157.68 534.853 157.226 534.6C156.773 534.333 156.286 534.2 155.766 534.2C155.246 534.2 154.766 534.327 154.326 534.58C153.886 534.833 153.526 535.207 153.246 535.7C152.98 536.18 152.846 536.753 152.846 537.42C152.846 538.087 152.98 538.673 153.246 539.18C153.526 539.673 153.886 540.053 154.326 540.32C154.78 540.587 155.26 540.72 155.766 540.72C156.286 540.72 156.773 540.593 157.226 540.34C157.68 540.073 158.04 539.7 158.306 539.22C158.573 538.727 158.706 538.14 158.706 537.46ZM174.561 537.22C174.561 537.62 174.534 537.98 174.481 538.3H166.381C166.448 539.1 166.728 539.727 167.221 540.18C167.714 540.633 168.321 540.86 169.041 540.86C170.081 540.86 170.821 540.413 171.261 539.52H174.281C173.961 540.587 173.348 541.467 172.441 542.16C171.534 542.84 170.421 543.18 169.101 543.18C168.034 543.18 167.074 542.947 166.221 542.48C165.381 542 164.721 541.327 164.241 540.46C163.774 539.593 163.541 538.593 163.541 537.46C163.541 536.313 163.774 535.307 164.241 534.44C164.708 533.573 165.361 532.907 166.201 532.44C167.041 531.973 168.008 531.74 169.101 531.74C170.154 531.74 171.094 531.967 171.921 532.42C172.761 532.873 173.408 533.52 173.861 534.36C174.328 535.187 174.561 536.14 174.561 537.22ZM171.661 536.42C171.648 535.7 171.388 535.127 170.881 534.7C170.374 534.26 169.754 534.04 169.021 534.04C168.328 534.04 167.741 534.253 167.261 534.68C166.794 535.093 166.508 535.673 166.401 536.42H171.661ZM184.17 533.52C184.53 533.013 185.024 532.593 185.65 532.26C186.29 531.913 187.017 531.74 187.83 531.74C188.777 531.74 189.63 531.973 190.39 532.44C191.164 532.907 191.77 533.573 192.21 534.44C192.664 535.293 192.89 536.287 192.89 537.42C192.89 538.553 192.664 539.56 192.21 540.44C191.77 541.307 191.164 541.98 190.39 542.46C189.63 542.94 188.777 543.18 187.83 543.18C187.017 543.18 186.297 543.013 185.67 542.68C185.057 542.347 184.557 541.927 184.17 541.42V548.28H181.37V531.92H184.17V533.52ZM190.03 537.42C190.03 536.753 189.89 536.18 189.61 535.7C189.344 535.207 188.984 534.833 188.53 534.58C188.09 534.327 187.61 534.2 187.09 534.2C186.584 534.2 186.104 534.333 185.65 534.6C185.21 534.853 184.85 535.227 184.57 535.72C184.304 536.213 184.17 536.793 184.17 537.46C184.17 538.127 184.304 538.707 184.57 539.2C184.85 539.693 185.21 540.073 185.65 540.34C186.104 540.593 186.584 540.72 187.09 540.72C187.61 540.72 188.09 540.587 188.53 540.32C188.984 540.053 189.344 539.673 189.61 539.18C189.89 538.687 190.03 538.1 190.03 537.42ZM194.205 537.42C194.205 536.3 194.425 535.307 194.865 534.44C195.318 533.573 195.925 532.907 196.685 532.44C197.458 531.973 198.318 531.74 199.265 531.74C200.092 531.74 200.812 531.907 201.425 532.24C202.052 532.573 202.552 532.993 202.925 533.5V531.92H205.745V543H202.925V541.38C202.565 541.9 202.065 542.333 201.425 542.68C200.798 543.013 200.072 543.18 199.245 543.18C198.312 543.18 197.458 542.94 196.685 542.46C195.925 541.98 195.318 541.307 194.865 540.44C194.425 539.56 194.205 538.553 194.205 537.42ZM202.925 537.46C202.925 536.78 202.792 536.2 202.525 535.72C202.258 535.227 201.898 534.853 201.445 534.6C200.992 534.333 200.505 534.2 199.985 534.2C199.465 534.2 198.985 534.327 198.545 534.58C198.105 534.833 197.745 535.207 197.465 535.7C197.198 536.18 197.065 536.753 197.065 537.42C197.065 538.087 197.198 538.673 197.465 539.18C197.745 539.673 198.105 540.053 198.545 540.32C198.998 540.587 199.478 540.72 199.985 540.72C200.505 540.72 200.992 540.593 201.445 540.34C201.898 540.073 202.258 539.7 202.525 539.22C202.792 538.727 202.925 538.14 202.925 537.46ZM212.72 543.18C211.813 543.18 211 543.02 210.28 542.7C209.56 542.367 208.986 541.92 208.56 541.36C208.146 540.8 207.92 540.18 207.88 539.5H210.7C210.753 539.927 210.96 540.28 211.32 540.56C211.693 540.84 212.153 540.98 212.7 540.98C213.233 540.98 213.646 540.873 213.94 540.66C214.246 540.447 214.4 540.173 214.4 539.84C214.4 539.48 214.213 539.213 213.84 539.04C213.48 538.853 212.9 538.653 212.1 538.44C211.273 538.24 210.593 538.033 210.06 537.82C209.54 537.607 209.086 537.28 208.7 536.84C208.326 536.4 208.14 535.807 208.14 535.06C208.14 534.447 208.313 533.887 208.66 533.38C209.02 532.873 209.526 532.473 210.18 532.18C210.846 531.887 211.626 531.74 212.52 531.74C213.84 531.74 214.893 532.073 215.68 532.74C216.466 533.393 216.9 534.28 216.98 535.4H214.3C214.26 534.96 214.073 534.613 213.74 534.36C213.42 534.093 212.986 533.96 212.44 533.96C211.933 533.96 211.54 534.053 211.26 534.24C210.993 534.427 210.86 534.687 210.86 535.02C210.86 535.393 211.046 535.68 211.42 535.88C211.793 536.067 212.373 536.26 213.16 536.46C213.96 536.66 214.62 536.867 215.14 537.08C215.66 537.293 216.106 537.627 216.48 538.08C216.866 538.52 217.066 539.107 217.08 539.84C217.08 540.48 216.9 541.053 216.54 541.56C216.193 542.067 215.686 542.467 215.02 542.76C214.366 543.04 213.6 543.18 212.72 543.18ZM223.618 543.18C222.711 543.18 221.898 543.02 221.178 542.7C220.458 542.367 219.885 541.92 219.458 541.36C219.045 540.8 218.818 540.18 218.778 539.5H221.598C221.651 539.927 221.858 540.28 222.218 540.56C222.591 540.84 223.051 540.98 223.598 540.98C224.131 540.98 224.545 540.873 224.838 540.66C225.145 540.447 225.298 540.173 225.298 539.84C225.298 539.48 225.111 539.213 224.738 539.04C224.378 538.853 223.798 538.653 222.998 538.44C222.171 538.24 221.491 538.033 220.958 537.82C220.438 537.607 219.985 537.28 219.598 536.84C219.225 536.4 219.038 535.807 219.038 535.06C219.038 534.447 219.211 533.887 219.558 533.38C219.918 532.873 220.425 532.473 221.078 532.18C221.745 531.887 222.525 531.74 223.418 531.74C224.738 531.74 225.791 532.073 226.578 532.74C227.365 533.393 227.798 534.28 227.878 535.4H225.198C225.158 534.96 224.971 534.613 224.638 534.36C224.318 534.093 223.885 533.96 223.338 533.96C222.831 533.96 222.438 534.053 222.158 534.24C221.891 534.427 221.758 534.687 221.758 535.02C221.758 535.393 221.945 535.68 222.318 535.88C222.691 536.067 223.271 536.26 224.058 536.46C224.858 536.66 225.518 536.867 226.038 537.08C226.558 537.293 227.005 537.627 227.378 538.08C227.765 538.52 227.965 539.107 227.978 539.84C227.978 540.48 227.798 541.053 227.438 541.56C227.091 542.067 226.585 542.467 225.918 542.76C225.265 543.04 224.498 543.18 223.618 543.18ZM240.576 537.22C240.576 537.62 240.55 537.98 240.496 538.3H232.396C232.463 539.1 232.743 539.727 233.236 540.18C233.73 540.633 234.336 540.86 235.056 540.86C236.096 540.86 236.836 540.413 237.276 539.52H240.296C239.976 540.587 239.363 541.467 238.456 542.16C237.55 542.84 236.436 543.18 235.116 543.18C234.05 543.18 233.09 542.947 232.236 542.48C231.396 542 230.736 541.327 230.256 540.46C229.79 539.593 229.556 538.593 229.556 537.46C229.556 536.313 229.79 535.307 230.256 534.44C230.723 533.573 231.376 532.907 232.216 532.44C233.056 531.973 234.023 531.74 235.116 531.74C236.17 531.74 237.11 531.967 237.936 532.42C238.776 532.873 239.423 533.52 239.876 534.36C240.343 535.187 240.576 536.14 240.576 537.22ZM237.676 536.42C237.663 535.7 237.403 535.127 236.896 534.7C236.39 534.26 235.77 534.04 235.036 534.04C234.343 534.04 233.756 534.253 233.276 534.68C232.81 535.093 232.523 535.673 232.416 536.42H237.676ZM246.666 537.46C246.666 536.313 246.899 535.313 247.366 534.46C247.833 533.593 248.479 532.927 249.306 532.46C250.133 531.98 251.079 531.74 252.146 531.74C253.519 531.74 254.653 532.087 255.546 532.78C256.453 533.46 257.059 534.42 257.366 535.66H254.346C254.186 535.18 253.913 534.807 253.526 534.54C253.153 534.26 252.686 534.12 252.126 534.12C251.326 534.12 250.693 534.413 250.226 535C249.759 535.573 249.526 536.393 249.526 537.46C249.526 538.513 249.759 539.333 250.226 539.92C250.693 540.493 251.326 540.78 252.126 540.78C253.259 540.78 253.999 540.273 254.346 539.26H257.366C257.059 540.46 256.453 541.413 255.546 542.12C254.639 542.827 253.506 543.18 252.146 543.18C251.079 543.18 250.133 542.947 249.306 542.48C248.479 542 247.833 541.333 247.366 540.48C246.899 539.613 246.666 538.607 246.666 537.46ZM265.657 531.76C266.497 531.76 267.244 531.947 267.897 532.32C268.55 532.68 269.057 533.22 269.417 533.94C269.79 534.647 269.977 535.5 269.977 536.5V543H267.177V536.88C267.177 536 266.957 535.327 266.517 534.86C266.077 534.38 265.477 534.14 264.717 534.14C263.944 534.14 263.33 534.38 262.877 534.86C262.437 535.327 262.217 536 262.217 536.88V543H259.417V528.2H262.217V533.3C262.577 532.82 263.057 532.447 263.657 532.18C264.257 531.9 264.924 531.76 265.657 531.76ZM271.92 537.42C271.92 536.3 272.14 535.307 272.58 534.44C273.033 533.573 273.64 532.907 274.4 532.44C275.173 531.973 276.033 531.74 276.98 531.74C277.806 531.74 278.526 531.907 279.14 532.24C279.766 532.573 280.266 532.993 280.64 533.5V531.92H283.46V543H280.64V541.38C280.28 541.9 279.78 542.333 279.14 542.68C278.513 543.013 277.786 543.18 276.96 543.18C276.026 543.18 275.173 542.94 274.4 542.46C273.64 541.98 273.033 541.307 272.58 540.44C272.14 539.56 271.92 538.553 271.92 537.42ZM280.64 537.46C280.64 536.78 280.506 536.2 280.24 535.72C279.973 535.227 279.613 534.853 279.16 534.6C278.706 534.333 278.22 534.2 277.7 534.2C277.18 534.2 276.7 534.327 276.26 534.58C275.82 534.833 275.46 535.207 275.18 535.7C274.913 536.18 274.78 536.753 274.78 537.42C274.78 538.087 274.913 538.673 275.18 539.18C275.46 539.673 275.82 540.053 276.26 540.32C276.713 540.587 277.193 540.72 277.7 540.72C278.22 540.72 278.706 540.593 279.16 540.34C279.613 540.073 279.973 539.7 280.24 539.22C280.506 538.727 280.64 538.14 280.64 537.46ZM292.334 531.76C293.654 531.76 294.721 532.18 295.534 533.02C296.348 533.847 296.754 535.007 296.754 536.5V543H293.954V536.88C293.954 536 293.734 535.327 293.294 534.86C292.854 534.38 292.254 534.14 291.494 534.14C290.721 534.14 290.108 534.38 289.654 534.86C289.214 535.327 288.994 536 288.994 536.88V543H286.194V531.92H288.994V533.3C289.368 532.82 289.841 532.447 290.414 532.18C291.001 531.9 291.641 531.76 292.334 531.76ZM303.757 531.74C304.584 531.74 305.31 531.907 305.937 532.24C306.564 532.56 307.057 532.98 307.417 533.5V531.92H310.237V543.08C310.237 544.107 310.03 545.02 309.617 545.82C309.204 546.633 308.584 547.273 307.757 547.74C306.93 548.22 305.93 548.46 304.757 548.46C303.184 548.46 301.89 548.093 300.877 547.36C299.877 546.627 299.31 545.627 299.177 544.36H301.957C302.104 544.867 302.417 545.267 302.897 545.56C303.39 545.867 303.984 546.02 304.677 546.02C305.49 546.02 306.15 545.773 306.657 545.28C307.164 544.8 307.417 544.067 307.417 543.08V541.36C307.057 541.88 306.557 542.313 305.917 542.66C305.29 543.007 304.57 543.18 303.757 543.18C302.824 543.18 301.97 542.94 301.197 542.46C300.424 541.98 299.81 541.307 299.357 540.44C298.917 539.56 298.697 538.553 298.697 537.42C298.697 536.3 298.917 535.307 299.357 534.44C299.81 533.573 300.417 532.907 301.177 532.44C301.95 531.973 302.81 531.74 303.757 531.74ZM307.417 537.46C307.417 536.78 307.284 536.2 307.017 535.72C306.75 535.227 306.39 534.853 305.937 534.6C305.484 534.333 304.997 534.2 304.477 534.2C303.957 534.2 303.477 534.327 303.037 534.58C302.597 534.833 302.237 535.207 301.957 535.7C301.69 536.18 301.557 536.753 301.557 537.42C301.557 538.087 301.69 538.673 301.957 539.18C302.237 539.673 302.597 540.053 303.037 540.32C303.49 540.587 303.97 540.72 304.477 540.72C304.997 540.72 305.484 540.593 305.937 540.34C306.39 540.073 306.75 539.7 307.017 539.22C307.284 538.727 307.417 538.14 307.417 537.46ZM323.272 537.22C323.272 537.62 323.245 537.98 323.192 538.3H315.092C315.158 539.1 315.438 539.727 315.932 540.18C316.425 540.633 317.032 540.86 317.752 540.86C318.792 540.86 319.532 540.413 319.972 539.52H322.992C322.672 540.587 322.058 541.467 321.152 542.16C320.245 542.84 319.132 543.18 317.812 543.18C316.745 543.18 315.785 542.947 314.932 542.48C314.092 542 313.432 541.327 312.952 540.46C312.485 539.593 312.252 538.593 312.252 537.46C312.252 536.313 312.485 535.307 312.952 534.44C313.418 533.573 314.072 532.907 314.912 532.44C315.752 531.973 316.718 531.74 317.812 531.74C318.865 531.74 319.805 531.967 320.632 532.42C321.472 532.873 322.118 533.52 322.572 534.36C323.038 535.187 323.272 536.14 323.272 537.22ZM320.372 536.42C320.358 535.7 320.098 535.127 319.592 534.7C319.085 534.26 318.465 534.04 317.732 534.04C317.038 534.04 316.452 534.253 315.972 534.68C315.505 535.093 315.218 535.673 315.112 536.42H320.372ZM319.952 529L315.352 531.1V529.1L319.952 526.72V529ZM154.996 567.42C154.996 566.3 155.216 565.307 155.656 564.44C156.109 563.573 156.716 562.907 157.476 562.44C158.249 561.973 159.109 561.74 160.056 561.74C160.883 561.74 161.603 561.907 162.216 562.24C162.843 562.573 163.343 562.993 163.716 563.5V561.92H166.536V573H163.716V571.38C163.356 571.9 162.856 572.333 162.216 572.68C161.589 573.013 160.863 573.18 160.036 573.18C159.103 573.18 158.249 572.94 157.476 572.46C156.716 571.98 156.109 571.307 155.656 570.44C155.216 569.56 154.996 568.553 154.996 567.42ZM163.716 567.46C163.716 566.78 163.583 566.2 163.316 565.72C163.049 565.227 162.689 564.853 162.236 564.6C161.783 564.333 161.296 564.2 160.776 564.2C160.256 564.2 159.776 564.327 159.336 564.58C158.896 564.833 158.536 565.207 158.256 565.7C157.989 566.18 157.856 566.753 157.856 567.42C157.856 568.087 157.989 568.673 158.256 569.18C158.536 569.673 158.896 570.053 159.336 570.32C159.789 570.587 160.269 570.72 160.776 570.72C161.296 570.72 161.783 570.593 162.236 570.34C162.689 570.073 163.049 569.7 163.316 569.22C163.583 568.727 163.716 568.14 163.716 567.46ZM173.891 570.42L176.691 561.92H179.671L175.571 573H172.171L168.091 561.92H171.091L173.891 570.42ZM191.543 567.22C191.543 567.62 191.517 567.98 191.463 568.3H183.363C183.43 569.1 183.71 569.727 184.203 570.18C184.697 570.633 185.303 570.86 186.023 570.86C187.063 570.86 187.803 570.413 188.243 569.52H191.263C190.943 570.587 190.33 571.467 189.423 572.16C188.517 572.84 187.403 573.18 186.083 573.18C185.017 573.18 184.057 572.947 183.203 572.48C182.363 572 181.703 571.327 181.223 570.46C180.757 569.593 180.523 568.593 180.523 567.46C180.523 566.313 180.757 565.307 181.223 564.44C181.69 563.573 182.343 562.907 183.183 562.44C184.023 561.973 184.99 561.74 186.083 561.74C187.137 561.74 188.077 561.967 188.903 562.42C189.743 562.873 190.39 563.52 190.843 564.36C191.31 565.187 191.543 566.14 191.543 567.22ZM188.643 566.42C188.63 565.7 188.37 565.127 187.863 564.7C187.357 564.26 186.737 564.04 186.003 564.04C185.31 564.04 184.723 564.253 184.243 564.68C183.777 565.093 183.49 565.673 183.383 566.42H188.643ZM192.867 567.46C192.867 566.313 193.1 565.313 193.567 564.46C194.034 563.593 194.68 562.927 195.507 562.46C196.334 561.98 197.28 561.74 198.347 561.74C199.72 561.74 200.854 562.087 201.747 562.78C202.654 563.46 203.26 564.42 203.567 565.66H200.547C200.387 565.18 200.114 564.807 199.727 564.54C199.354 564.26 198.887 564.12 198.327 564.12C197.527 564.12 196.894 564.413 196.427 565C195.96 565.573 195.727 566.393 195.727 567.46C195.727 568.513 195.96 569.333 196.427 569.92C196.894 570.493 197.527 570.78 198.327 570.78C199.46 570.78 200.2 570.273 200.547 569.26H203.567C203.26 570.46 202.654 571.413 201.747 572.12C200.84 572.827 199.707 573.18 198.347 573.18C197.28 573.18 196.334 572.947 195.507 572.48C194.68 572 194.034 571.333 193.567 570.48C193.1 569.613 192.867 568.607 192.867 567.46ZM214.624 573.18C213.717 573.18 212.904 573.02 212.184 572.7C211.464 572.367 210.891 571.92 210.464 571.36C210.051 570.8 209.824 570.18 209.784 569.5H212.604C212.657 569.927 212.864 570.28 213.224 570.56C213.597 570.84 214.057 570.98 214.604 570.98C215.137 570.98 215.551 570.873 215.844 570.66C216.151 570.447 216.304 570.173 216.304 569.84C216.304 569.48 216.117 569.213 215.744 569.04C215.384 568.853 214.804 568.653 214.004 568.44C213.177 568.24 212.497 568.033 211.964 567.82C211.444 567.607 210.991 567.28 210.604 566.84C210.231 566.4 210.044 565.807 210.044 565.06C210.044 564.447 210.217 563.887 210.564 563.38C210.924 562.873 211.431 562.473 212.084 562.18C212.751 561.887 213.531 561.74 214.424 561.74C215.744 561.74 216.797 562.073 217.584 562.74C218.371 563.393 218.804 564.28 218.884 565.4H216.204C216.164 564.96 215.977 564.613 215.644 564.36C215.324 564.093 214.891 563.96 214.344 563.96C213.837 563.96 213.444 564.053 213.164 564.24C212.897 564.427 212.764 564.687 212.764 565.02C212.764 565.393 212.951 565.68 213.324 565.88C213.697 566.067 214.277 566.26 215.064 566.46C215.864 566.66 216.524 566.867 217.044 567.08C217.564 567.293 218.011 567.627 218.384 568.08C218.771 568.52 218.971 569.107 218.984 569.84C218.984 570.48 218.804 571.053 218.444 571.56C218.097 572.067 217.591 572.467 216.924 572.76C216.271 573.04 215.504 573.18 214.624 573.18ZM231.742 561.92V573H228.922V571.6C228.562 572.08 228.089 572.46 227.502 572.74C226.929 573.007 226.302 573.14 225.622 573.14C224.756 573.14 223.989 572.96 223.322 572.6C222.656 572.227 222.129 571.687 221.742 570.98C221.369 570.26 221.182 569.407 221.182 568.42V561.92H223.982V568.02C223.982 568.9 224.202 569.58 224.642 570.06C225.082 570.527 225.682 570.76 226.442 570.76C227.216 570.76 227.822 570.527 228.262 570.06C228.702 569.58 228.922 568.9 228.922 568.02V561.92H231.742ZM233.785 567.46C233.785 566.313 234.018 565.313 234.485 564.46C234.952 563.593 235.598 562.927 236.425 562.46C237.252 561.98 238.198 561.74 239.265 561.74C240.638 561.74 241.772 562.087 242.665 562.78C243.572 563.46 244.178 564.42 244.485 565.66H241.465C241.305 565.18 241.032 564.807 240.645 564.54C240.272 564.26 239.805 564.12 239.245 564.12C238.445 564.12 237.812 564.413 237.345 565C236.878 565.573 236.645 566.393 236.645 567.46C236.645 568.513 236.878 569.333 237.345 569.92C237.812 570.493 238.445 570.78 239.245 570.78C240.378 570.78 241.118 570.273 241.465 569.26H244.485C244.178 570.46 243.572 571.413 242.665 572.12C241.758 572.827 240.625 573.18 239.265 573.18C238.198 573.18 237.252 572.947 236.425 572.48C235.598 572 234.952 571.333 234.485 570.48C234.018 569.613 233.785 568.607 233.785 567.46ZM245.816 567.46C245.816 566.313 246.05 565.313 246.516 564.46C246.983 563.593 247.63 562.927 248.456 562.46C249.283 561.98 250.23 561.74 251.296 561.74C252.67 561.74 253.803 562.087 254.696 562.78C255.603 563.46 256.21 564.42 256.516 565.66H253.496C253.336 565.18 253.063 564.807 252.676 564.54C252.303 564.26 251.836 564.12 251.276 564.12C250.476 564.12 249.843 564.413 249.376 565C248.91 565.573 248.676 566.393 248.676 567.46C248.676 568.513 248.91 569.333 249.376 569.92C249.843 570.493 250.476 570.78 251.276 570.78C252.41 570.78 253.15 570.273 253.496 569.26H256.516C256.21 570.46 255.603 571.413 254.696 572.12C253.79 572.827 252.656 573.18 251.296 573.18C250.23 573.18 249.283 572.947 248.456 572.48C247.63 572 246.983 571.333 246.516 570.48C246.05 569.613 245.816 568.607 245.816 567.46ZM268.868 567.22C268.868 567.62 268.841 567.98 268.788 568.3H260.688C260.754 569.1 261.034 569.727 261.528 570.18C262.021 570.633 262.628 570.86 263.348 570.86C264.388 570.86 265.128 570.413 265.568 569.52H268.588C268.268 570.587 267.654 571.467 266.748 572.16C265.841 572.84 264.728 573.18 263.408 573.18C262.341 573.18 261.381 572.947 260.528 572.48C259.688 572 259.028 571.327 258.548 570.46C258.081 569.593 257.847 568.593 257.847 567.46C257.847 566.313 258.081 565.307 258.548 564.44C259.014 563.573 259.668 562.907 260.508 562.44C261.348 561.973 262.314 561.74 263.408 561.74C264.461 561.74 265.401 561.967 266.228 562.42C267.068 562.873 267.714 563.52 268.168 564.36C268.634 565.187 268.868 566.14 268.868 567.22ZM265.968 566.42C265.954 565.7 265.694 565.127 265.188 564.7C264.681 564.26 264.061 564.04 263.328 564.04C262.634 564.04 262.048 564.253 261.568 564.68C261.101 565.093 260.814 565.673 260.708 566.42H265.968ZM265.548 559.1V561.1L260.948 559V556.72L265.548 559.1ZM275.151 573.18C274.245 573.18 273.431 573.02 272.711 572.7C271.991 572.367 271.418 571.92 270.991 571.36C270.578 570.8 270.351 570.18 270.311 569.5H273.131C273.185 569.927 273.391 570.28 273.751 570.56C274.125 570.84 274.585 570.98 275.131 570.98C275.665 570.98 276.078 570.873 276.371 570.66C276.678 570.447 276.831 570.173 276.831 569.84C276.831 569.48 276.645 569.213 276.271 569.04C275.911 568.853 275.331 568.653 274.531 568.44C273.705 568.24 273.025 568.033 272.491 567.82C271.971 567.607 271.518 567.28 271.131 566.84C270.758 566.4 270.571 565.807 270.571 565.06C270.571 564.447 270.745 563.887 271.091 563.38C271.451 562.873 271.958 562.473 272.611 562.18C273.278 561.887 274.058 561.74 274.951 561.74C276.271 561.74 277.325 562.073 278.111 562.74C278.898 563.393 279.331 564.28 279.411 565.4H276.731C276.691 564.96 276.505 564.613 276.171 564.36C275.851 564.093 275.418 563.96 274.871 563.96C274.365 563.96 273.971 564.053 273.691 564.24C273.425 564.427 273.291 564.687 273.291 565.02C273.291 565.393 273.478 565.68 273.851 565.88C274.225 566.067 274.805 566.26 275.591 566.46C276.391 566.66 277.051 566.867 277.571 567.08C278.091 567.293 278.538 567.627 278.911 568.08C279.298 568.52 279.498 569.107 279.511 569.84C279.511 570.48 279.331 571.053 278.971 571.56C278.625 572.067 278.118 572.467 277.451 572.76C276.798 573.04 276.031 573.18 275.151 573.18Z" fill="#093030"/>
</g>
</svg>
