<svg width="430" height="932" viewBox="0 0 430 932" fill="none" xmlns="http://www.w3.org/2000/svg">
<g id="3.2 - B -  New Password">
<g clip-path="url(#clip0_7175_2633)">
<rect width="430" height="932" rx="40" fill="#00D09E"/>
<path id="Base Shape" d="M1 257C1 218.34 32.3401 187 71 187H361C399.66 187 431 218.34 431 257V932H1V257Z" fill="#F1FFF3"/>
<path id="Nouveau mot de passe" d="M59.4644 122H55.2644L45.7544 107.63V122H41.5544V101.03H45.7544L55.2644 115.43V101.03H59.4644V122ZM70.9949 122.27C69.3949 122.27 67.9549 121.92 66.6749 121.22C65.3949 120.5 64.3849 119.49 63.6449 118.19C62.9249 116.89 62.5649 115.39 62.5649 113.69C62.5649 111.99 62.9349 110.49 63.6749 109.19C64.4349 107.89 65.4649 106.89 66.7649 106.19C68.0649 105.47 69.5149 105.11 71.1149 105.11C72.7149 105.11 74.1649 105.47 75.4649 106.19C76.7649 106.89 77.7849 107.89 78.5249 109.19C79.2849 110.49 79.6649 111.99 79.6649 113.69C79.6649 115.39 79.2749 116.89 78.4949 118.19C77.7349 119.49 76.6949 120.5 75.3749 121.22C74.0749 121.92 72.6149 122.27 70.9949 122.27ZM70.9949 118.61C71.7549 118.61 72.4649 118.43 73.1249 118.07C73.8049 117.69 74.3449 117.13 74.7449 116.39C75.1449 115.65 75.3449 114.75 75.3449 113.69C75.3449 112.11 74.9249 110.9 74.0849 110.06C73.2649 109.2 72.2549 108.77 71.0549 108.77C69.8549 108.77 68.8449 109.2 68.0249 110.06C67.2249 110.9 66.8249 112.11 66.8249 113.69C66.8249 115.27 67.2149 116.49 67.9949 117.35C68.7949 118.19 69.7949 118.61 70.9949 118.61ZM98.4358 105.38V122H94.2058V119.9C93.6658 120.62 92.9558 121.19 92.0758 121.61C91.2158 122.01 90.2758 122.21 89.2558 122.21C87.9558 122.21 86.8058 121.94 85.8058 121.4C84.8058 120.84 84.0158 120.03 83.4358 118.97C82.8758 117.89 82.5958 116.61 82.5958 115.13V105.38H86.7958V114.53C86.7958 115.85 87.1258 116.87 87.7858 117.59C88.4458 118.29 89.3458 118.64 90.4858 118.64C91.6458 118.64 92.5558 118.29 93.2158 117.59C93.8758 116.87 94.2058 115.85 94.2058 114.53V105.38H98.4358ZM109.51 118.13L113.71 105.38H118.18L112.03 122H106.93L100.81 105.38H105.31L109.51 118.13ZM135.989 113.33C135.989 113.93 135.949 114.47 135.869 114.95H123.719C123.819 116.15 124.239 117.09 124.979 117.77C125.719 118.45 126.629 118.79 127.709 118.79C129.269 118.79 130.379 118.12 131.039 116.78H135.569C135.089 118.38 134.169 119.7 132.809 120.74C131.449 121.76 129.779 122.27 127.799 122.27C126.199 122.27 124.759 121.92 123.479 121.22C122.219 120.5 121.229 119.49 120.509 118.19C119.809 116.89 119.459 115.39 119.459 113.69C119.459 111.97 119.809 110.46 120.509 109.16C121.209 107.86 122.189 106.86 123.449 106.16C124.709 105.46 126.159 105.11 127.799 105.11C129.379 105.11 130.789 105.45 132.029 106.13C133.289 106.81 134.259 107.78 134.939 109.04C135.639 110.28 135.989 111.71 135.989 113.33ZM131.639 112.13C131.619 111.05 131.229 110.19 130.469 109.55C129.709 108.89 128.779 108.56 127.679 108.56C126.639 108.56 125.759 108.88 125.039 109.52C124.339 110.14 123.909 111.01 123.749 112.13H131.639ZM137.974 113.63C137.974 111.95 138.304 110.46 138.964 109.16C139.644 107.86 140.554 106.86 141.694 106.16C142.854 105.46 144.144 105.11 145.564 105.11C146.804 105.11 147.884 105.36 148.804 105.86C149.744 106.36 150.494 106.99 151.054 107.75V105.38H155.284V122H151.054V119.57C150.514 120.35 149.764 121 148.804 121.52C147.864 122.02 146.774 122.27 145.534 122.27C144.134 122.27 142.854 121.91 141.694 121.19C140.554 120.47 139.644 119.46 138.964 118.16C138.304 116.84 137.974 115.33 137.974 113.63ZM151.054 113.69C151.054 112.67 150.854 111.8 150.454 111.08C150.054 110.34 149.514 109.78 148.834 109.4C148.154 109 147.424 108.8 146.644 108.8C145.864 108.8 145.144 108.99 144.484 109.37C143.824 109.75 143.284 110.31 142.864 111.05C142.464 111.77 142.264 112.63 142.264 113.63C142.264 114.63 142.464 115.51 142.864 116.27C143.284 117.01 143.824 117.58 144.484 117.98C145.164 118.38 145.884 118.58 146.644 118.58C147.424 118.58 148.154 118.39 148.834 118.01C149.514 117.61 150.054 117.05 150.454 116.33C150.854 115.59 151.054 114.71 151.054 113.69ZM175.076 105.38V122H170.846V119.9C170.306 120.62 169.596 121.19 168.716 121.61C167.856 122.01 166.916 122.21 165.896 122.21C164.596 122.21 163.446 121.94 162.446 121.4C161.446 120.84 160.656 120.03 160.076 118.97C159.516 117.89 159.236 116.61 159.236 115.13V105.38H163.436V114.53C163.436 115.85 163.766 116.87 164.426 117.59C165.086 118.29 165.986 118.64 167.126 118.64C168.286 118.64 169.196 118.29 169.856 117.59C170.516 116.87 170.846 115.85 170.846 114.53V105.38H175.076ZM207.009 105.14C209.049 105.14 210.689 105.77 211.929 107.03C213.189 108.27 213.819 110.01 213.819 112.25V122H209.619V112.82C209.619 111.52 209.289 110.53 208.629 109.85C207.969 109.15 207.069 108.8 205.929 108.8C204.789 108.8 203.879 109.15 203.199 109.85C202.539 110.53 202.209 111.52 202.209 112.82V122H198.009V112.82C198.009 111.52 197.679 110.53 197.019 109.85C196.359 109.15 195.459 108.8 194.319 108.8C193.159 108.8 192.239 109.15 191.559 109.85C190.899 110.53 190.569 111.52 190.569 112.82V122H186.369V105.38H190.569V107.39C191.109 106.69 191.799 106.14 192.639 105.74C193.499 105.34 194.439 105.14 195.459 105.14C196.759 105.14 197.919 105.42 198.939 105.98C199.959 106.52 200.749 107.3 201.309 108.32C201.849 107.36 202.629 106.59 203.649 106.01C204.689 105.43 205.809 105.14 207.009 105.14ZM225.184 122.27C223.584 122.27 222.144 121.92 220.864 121.22C219.584 120.5 218.574 119.49 217.834 118.19C217.114 116.89 216.754 115.39 216.754 113.69C216.754 111.99 217.124 110.49 217.864 109.19C218.624 107.89 219.654 106.89 220.954 106.19C222.254 105.47 223.704 105.11 225.304 105.11C226.904 105.11 228.354 105.47 229.654 106.19C230.954 106.89 231.974 107.89 232.714 109.19C233.474 110.49 233.854 111.99 233.854 113.69C233.854 115.39 233.464 116.89 232.684 118.19C231.924 119.49 230.884 120.5 229.564 121.22C228.264 121.92 226.804 122.27 225.184 122.27ZM225.184 118.61C225.944 118.61 226.654 118.43 227.314 118.07C227.994 117.69 228.534 117.13 228.934 116.39C229.334 115.65 229.534 114.75 229.534 113.69C229.534 112.11 229.114 110.9 228.274 110.06C227.454 109.2 226.444 108.77 225.244 108.77C224.044 108.77 223.034 109.2 222.214 110.06C221.414 110.9 221.014 112.11 221.014 113.69C221.014 115.27 221.404 116.49 222.184 117.35C222.984 118.19 223.984 118.61 225.184 118.61ZM241.825 108.83V116.87C241.825 117.43 241.955 117.84 242.215 118.1C242.495 118.34 242.955 118.46 243.595 118.46H245.545V122H242.905C239.365 122 237.595 120.28 237.595 116.84V108.83H235.615V105.38H237.595V101.27H241.825V105.38H245.545V108.83H241.825ZM254.635 113.63C254.635 111.95 254.965 110.46 255.625 109.16C256.305 107.86 257.225 106.86 258.385 106.16C259.545 105.46 260.835 105.11 262.255 105.11C263.335 105.11 264.365 105.35 265.345 105.83C266.325 106.29 267.105 106.91 267.685 107.69V99.8H271.945V122H267.685V119.54C267.165 120.36 266.435 121.02 265.495 121.52C264.555 122.02 263.465 122.27 262.225 122.27C260.825 122.27 259.545 121.91 258.385 121.19C257.225 120.47 256.305 119.46 255.625 118.16C254.965 116.84 254.635 115.33 254.635 113.63ZM267.715 113.69C267.715 112.67 267.515 111.8 267.115 111.08C266.715 110.34 266.175 109.78 265.495 109.4C264.815 109 264.085 108.8 263.305 108.8C262.525 108.8 261.805 108.99 261.145 109.37C260.485 109.75 259.945 110.31 259.525 111.05C259.125 111.77 258.925 112.63 258.925 113.63C258.925 114.63 259.125 115.51 259.525 116.27C259.945 117.01 260.485 117.58 261.145 117.98C261.825 118.38 262.545 118.58 263.305 118.58C264.085 118.58 264.815 118.39 265.495 118.01C266.175 117.61 266.715 117.05 267.115 116.33C267.515 115.59 267.715 114.71 267.715 113.69ZM291.497 113.33C291.497 113.93 291.457 114.47 291.377 114.95H279.227C279.327 116.15 279.747 117.09 280.487 117.77C281.227 118.45 282.137 118.79 283.217 118.79C284.777 118.79 285.887 118.12 286.547 116.78H291.077C290.597 118.38 289.677 119.7 288.317 120.74C286.957 121.76 285.287 122.27 283.307 122.27C281.707 122.27 280.267 121.92 278.987 121.22C277.727 120.5 276.737 119.49 276.017 118.19C275.317 116.89 274.967 115.39 274.967 113.69C274.967 111.97 275.317 110.46 276.017 109.16C276.717 107.86 277.697 106.86 278.957 106.16C280.217 105.46 281.667 105.11 283.307 105.11C284.887 105.11 286.297 105.45 287.537 106.13C288.797 106.81 289.767 107.78 290.447 109.04C291.147 110.28 291.497 111.71 291.497 113.33ZM287.147 112.13C287.127 111.05 286.737 110.19 285.977 109.55C285.217 108.89 284.287 108.56 283.187 108.56C282.147 108.56 281.267 108.88 280.547 109.52C279.847 110.14 279.417 111.01 279.257 112.13H287.147ZM305.911 107.78C306.451 107.02 307.191 106.39 308.131 105.89C309.091 105.37 310.181 105.11 311.401 105.11C312.821 105.11 314.101 105.46 315.241 106.16C316.401 106.86 317.311 107.86 317.971 109.16C318.651 110.44 318.991 111.93 318.991 113.63C318.991 115.33 318.651 116.84 317.971 118.16C317.311 119.46 316.401 120.47 315.241 121.19C314.101 121.91 312.821 122.27 311.401 122.27C310.181 122.27 309.101 122.02 308.161 121.52C307.241 121.02 306.491 120.39 305.911 119.63V129.92H301.711V105.38H305.911V107.78ZM314.701 113.63C314.701 112.63 314.491 111.77 314.071 111.05C313.671 110.31 313.131 109.75 312.451 109.37C311.791 108.99 311.071 108.8 310.291 108.8C309.531 108.8 308.811 109 308.131 109.4C307.471 109.78 306.931 110.34 306.511 111.08C306.111 111.82 305.911 112.69 305.911 113.69C305.911 114.69 306.111 115.56 306.511 116.3C306.931 117.04 307.471 117.61 308.131 118.01C308.811 118.39 309.531 118.58 310.291 118.58C311.071 118.58 311.791 118.38 312.451 117.98C313.131 117.58 313.671 117.01 314.071 116.27C314.491 115.53 314.701 114.65 314.701 113.63ZM320.963 113.63C320.963 111.95 321.293 110.46 321.953 109.16C322.633 107.86 323.543 106.86 324.683 106.16C325.843 105.46 327.133 105.11 328.553 105.11C329.793 105.11 330.873 105.36 331.793 105.86C332.733 106.36 333.483 106.99 334.043 107.75V105.38H338.273V122H334.043V119.57C333.503 120.35 332.753 121 331.793 121.52C330.853 122.02 329.763 122.27 328.523 122.27C327.123 122.27 325.843 121.91 324.683 121.19C323.543 120.47 322.633 119.46 321.953 118.16C321.293 116.84 320.963 115.33 320.963 113.63ZM334.043 113.69C334.043 112.67 333.843 111.8 333.443 111.08C333.043 110.34 332.503 109.78 331.823 109.4C331.143 109 330.413 108.8 329.633 108.8C328.853 108.8 328.133 108.99 327.473 109.37C326.813 109.75 326.273 110.31 325.853 111.05C325.453 111.77 325.253 112.63 325.253 113.63C325.253 114.63 325.453 115.51 325.853 116.27C326.273 117.01 326.813 117.58 327.473 117.98C328.153 118.38 328.873 118.58 329.633 118.58C330.413 118.58 331.143 118.39 331.823 118.01C332.503 117.61 333.043 117.05 333.443 116.33C333.843 115.59 334.043 114.71 334.043 113.69ZM348.735 122.27C347.375 122.27 346.155 122.03 345.075 121.55C343.995 121.05 343.135 120.38 342.495 119.54C341.875 118.7 341.535 117.77 341.475 116.75H345.705C345.785 117.39 346.095 117.92 346.635 118.34C347.195 118.76 347.885 118.97 348.705 118.97C349.505 118.97 350.125 118.81 350.565 118.49C351.025 118.17 351.255 117.76 351.255 117.26C351.255 116.72 350.975 116.32 350.415 116.06C349.875 115.78 349.005 115.48 347.805 115.16C346.565 114.86 345.545 114.55 344.745 114.23C343.965 113.91 343.285 113.42 342.705 112.76C342.145 112.1 341.865 111.21 341.865 110.09C341.865 109.17 342.125 108.33 342.645 107.57C343.185 106.81 343.945 106.21 344.925 105.77C345.925 105.33 347.095 105.11 348.435 105.11C350.415 105.11 351.995 105.61 353.175 106.61C354.355 107.59 355.005 108.92 355.125 110.6H351.105C351.045 109.94 350.765 109.42 350.265 109.04C349.785 108.64 349.135 108.44 348.315 108.44C347.555 108.44 346.965 108.58 346.545 108.86C346.145 109.14 345.945 109.53 345.945 110.03C345.945 110.59 346.225 111.02 346.785 111.32C347.345 111.6 348.215 111.89 349.395 112.19C350.595 112.49 351.585 112.8 352.365 113.12C353.145 113.44 353.815 113.94 354.375 114.62C354.955 115.28 355.255 116.16 355.275 117.26C355.275 118.22 355.005 119.08 354.465 119.84C353.945 120.6 353.185 121.2 352.185 121.64C351.205 122.06 350.055 122.27 348.735 122.27ZM365.082 122.27C363.722 122.27 362.502 122.03 361.422 121.55C360.342 121.05 359.482 120.38 358.842 119.54C358.222 118.7 357.882 117.77 357.822 116.75H362.052C362.132 117.39 362.442 117.92 362.982 118.34C363.542 118.76 364.232 118.97 365.052 118.97C365.852 118.97 366.472 118.81 366.912 118.49C367.372 118.17 367.602 117.76 367.602 117.26C367.602 116.72 367.322 116.32 366.762 116.06C366.222 115.78 365.352 115.48 364.152 115.16C362.912 114.86 361.892 114.55 361.092 114.23C360.312 113.91 359.632 113.42 359.052 112.76C358.492 112.1 358.212 111.21 358.212 110.09C358.212 109.17 358.472 108.33 358.992 107.57C359.532 106.81 360.292 106.21 361.272 105.77C362.272 105.33 363.442 105.11 364.782 105.11C366.762 105.11 368.342 105.61 369.522 106.61C370.702 107.59 371.352 108.92 371.472 110.6H367.452C367.392 109.94 367.112 109.42 366.612 109.04C366.132 108.64 365.482 108.44 364.662 108.44C363.902 108.44 363.312 108.58 362.892 108.86C362.492 109.14 362.292 109.53 362.292 110.03C362.292 110.59 362.572 111.02 363.132 111.32C363.692 111.6 364.562 111.89 365.742 112.19C366.942 112.49 367.932 112.8 368.712 113.12C369.492 113.44 370.162 113.94 370.722 114.62C371.302 115.28 371.602 116.16 371.622 117.26C371.622 118.22 371.352 119.08 370.812 119.84C370.292 120.6 369.532 121.2 368.532 121.64C367.552 122.06 366.402 122.27 365.082 122.27ZM390.52 113.33C390.52 113.93 390.48 114.47 390.4 114.95H378.25C378.35 116.15 378.77 117.09 379.51 117.77C380.25 118.45 381.16 118.79 382.24 118.79C383.8 118.79 384.91 118.12 385.57 116.78H390.1C389.62 118.38 388.7 119.7 387.34 120.74C385.98 121.76 384.31 122.27 382.33 122.27C380.73 122.27 379.29 121.92 378.01 121.22C376.75 120.5 375.76 119.49 375.04 118.19C374.34 116.89 373.99 115.39 373.99 113.69C373.99 111.97 374.34 110.46 375.04 109.16C375.74 107.86 376.72 106.86 377.98 106.16C379.24 105.46 380.69 105.11 382.33 105.11C383.91 105.11 385.32 105.45 386.56 106.13C387.82 106.81 388.79 107.78 389.47 109.04C390.17 110.28 390.52 111.71 390.52 113.33ZM386.17 112.13C386.15 111.05 385.76 110.19 385 109.55C384.24 108.89 383.31 108.56 382.21 108.56C381.17 108.56 380.29 108.88 379.57 109.52C378.87 110.14 378.44 111.01 378.28 112.13H386.17Z" fill="#093030"/>
<g id="Frame 3">
<path id="16:04" d="M38.7095 12.136L37.26 12.942V11.6225L39.3595 10.42H40.081V19H38.7095V12.136ZM44.8845 13.371C45.3568 13.371 45.7988 13.4902 46.2105 13.7285C46.6265 13.9625 46.9645 14.294 47.2245 14.723C47.4845 15.152 47.6145 15.6503 47.6145 16.218C47.6145 16.7857 47.4758 17.2905 47.1985 17.7325C46.9212 18.1745 46.5485 18.5233 46.0805 18.779C45.6168 19.0303 45.1055 19.156 44.5465 19.156C43.9745 19.156 43.4567 19.0325 42.993 18.7855C42.5337 18.5385 42.1675 18.1875 41.8945 17.7325C41.6215 17.2775 41.485 16.7423 41.485 16.127C41.485 15.4727 41.5955 14.9202 41.8165 14.4695C42.0375 14.0145 42.2953 13.605 42.59 13.241L44.865 10.42H46.4835L43.7145 13.7415C43.7968 13.6548 43.9377 13.5725 44.137 13.4945C44.3363 13.4122 44.5855 13.371 44.8845 13.371ZM44.5595 18.012C44.8802 18.012 45.1727 17.934 45.437 17.778C45.7057 17.6177 45.918 17.4053 46.074 17.141C46.2343 16.8723 46.3145 16.5755 46.3145 16.2505C46.3145 15.9255 46.2343 15.6308 46.074 15.3665C45.918 15.0978 45.7057 14.8855 45.437 14.7295C45.1727 14.5735 44.8802 14.4955 44.5595 14.4955C44.2345 14.4955 43.9377 14.5735 43.669 14.7295C43.4003 14.8855 43.1858 15.0978 43.0255 15.3665C42.8695 15.6308 42.7915 15.9255 42.7915 16.2505C42.7915 16.5755 42.8695 16.8723 43.0255 17.141C43.1858 17.4053 43.4003 17.6177 43.669 17.778C43.9377 17.934 44.2345 18.012 44.5595 18.012ZM50.0027 19.156C49.7384 19.156 49.5109 19.0628 49.3202 18.8765C49.1339 18.6858 49.0407 18.4562 49.0407 18.1875C49.0407 17.9188 49.1339 17.6892 49.3202 17.4985C49.5109 17.3078 49.7384 17.2125 50.0027 17.2125C50.2757 17.2125 50.5054 17.3078 50.6917 17.4985C50.8824 17.6892 50.9777 17.9188 50.9777 18.1875C50.9777 18.4562 50.8824 18.6858 50.6917 18.8765C50.5054 19.0628 50.2757 19.156 50.0027 19.156ZM50.0027 15.139C49.7384 15.139 49.5109 15.0458 49.3202 14.8595C49.1339 14.6688 49.0407 14.4392 49.0407 14.1705C49.0407 13.9018 49.1339 13.6722 49.3202 13.4815C49.5109 13.2908 49.7384 13.1955 50.0027 13.1955C50.2757 13.1955 50.5054 13.2908 50.6917 13.4815C50.8824 13.6722 50.9777 13.9018 50.9777 14.1705C50.9777 14.4392 50.8824 14.6688 50.6917 14.8595C50.5054 15.0458 50.2757 15.139 50.0027 15.139ZM52.1355 14.7165C52.1355 13.9582 52.2265 13.2995 52.4085 12.7405C52.5948 12.1815 52.8461 11.72 53.1625 11.356C53.4788 10.9877 53.8341 10.7147 54.2285 10.537C54.6228 10.355 55.0301 10.264 55.4505 10.264C55.8751 10.264 56.2846 10.355 56.679 10.537C57.0776 10.7147 57.433 10.9877 57.745 11.356C58.057 11.72 58.304 12.1815 58.486 12.7405C58.668 13.2995 58.759 13.9582 58.759 14.7165C58.759 15.5008 58.668 16.1725 58.486 16.7315C58.304 17.2905 58.057 17.7498 57.745 18.1095C57.433 18.4648 57.0776 18.7292 56.679 18.9025C56.2846 19.0715 55.8751 19.156 55.4505 19.156C55.0301 19.156 54.6228 19.0715 54.2285 18.9025C53.8341 18.7292 53.4788 18.4648 53.1625 18.1095C52.8461 17.7498 52.5948 17.2905 52.4085 16.7315C52.2265 16.1725 52.1355 15.5008 52.1355 14.7165ZM53.52 14.7165C53.52 15.4358 53.6045 16.036 53.7735 16.517C53.9468 16.9937 54.1786 17.349 54.469 17.583C54.7636 17.8127 55.0908 17.9275 55.4505 17.9275C55.8188 17.9275 56.146 17.8105 56.432 17.5765C56.7223 17.3425 56.952 16.9872 57.121 16.5105C57.29 16.0338 57.3745 15.4358 57.3745 14.7165C57.3745 14.0102 57.29 13.4187 57.121 12.942C56.952 12.4653 56.7223 12.1057 56.432 11.863C56.146 11.616 55.8188 11.4925 55.4505 11.4925C55.0908 11.4925 54.7636 11.616 54.469 11.863C54.1786 12.1057 53.9468 12.4675 53.7735 12.9485C53.6045 13.4252 53.52 14.0145 53.52 14.7165ZM64.4719 10.42V15.9775H65.4534V17.193H64.4719V19H63.1004V17.193H59.5124V16.0815L62.9444 10.42H64.4719ZM63.1004 15.9775V12.3505H63.0939L60.9294 15.9775H63.1004Z" fill="white"/>
<g id="Vector">
<path d="M339.261 20C338.565 20 338 19.5383 338 18.9688L338 14.8437C338 14.2742 338.565 13.8125 339.261 13.8125C339.958 13.8125 340.522 14.2742 340.522 14.8437L340.522 18.9688C340.522 19.5383 339.958 20 339.261 20Z" fill="white"/>
<path d="M342.754 20C342.057 20 341.493 19.5383 341.493 18.9688L341.493 13.4688C341.493 12.8992 342.057 12.4375 342.754 12.4375C343.45 12.4375 344.015 12.8992 344.015 13.4688L344.015 18.9688C344.015 19.5383 343.45 20 342.754 20Z" fill="white"/>
<path d="M346.246 20C345.55 20 344.985 19.5383 344.985 18.9688V11.75C344.985 11.1805 345.55 10.7188 346.246 10.7188C346.943 10.7188 347.507 11.1805 347.507 11.75V18.9688C347.507 19.5383 346.943 20 346.246 20Z" fill="white"/>
<path d="M349.739 20C349.042 20 348.478 19.5383 348.478 18.9688V10.0312C348.478 9.46171 349.042 9 349.739 9C350.435 9 351 9.46171 351 10.0312V18.9688C351 19.5383 350.435 20 349.739 20Z" fill="white"/>
</g>
<path id="Vector_2" d="M356 14.3846C359.409 9.87179 367.25 9.87179 371 14.3846M367.5 16.6154C365.606 14.359 361.25 14.359 359.167 16.6154M363.333 19H362.5" stroke="white" stroke-width="2" stroke-linecap="round"/>
<g id="Group 12">
<path id="Vector (Stroke)" d="M377 12.6202C377 12.2856 377.312 12 377.717 12H388.283C388.688 12 389 12.2856 389 12.6202V18.3798C389 18.7144 388.688 19 388.283 19H377.717C377.312 19 377 18.7144 377 18.3798L377 12.6202Z" fill="white"/>
<path id="Vector (Stroke)_2" fill-rule="evenodd" clip-rule="evenodd" d="M376 11.7974C376 11.3672 376.402 11 376.924 11L390.54 11C391.063 11 391.465 11.3672 391.465 11.7974C391.465 12.2217 391.749 12.5934 392.159 12.7042L392.452 12.7836C392.71 12.8684 393 13.0707 393 13.3897V17.5446C393 17.8637 392.71 18.0659 392.452 18.1508L392.431 18.1577L392.243 18.2006C391.788 18.3043 391.465 18.7089 391.465 19.1757V19.2026C391.465 19.6328 391.063 20 390.54 20H376.924C376.402 20 376 19.6328 376 19.2026L376 11.7974Z" stroke="white"/>
</g>
</g>
<rect id="Rectangle 17" x="37" y="305" width="356" height="41" rx="18" fill="#DFF7E2"/>
<rect id="Rectangle 18" x="37" y="419" width="356" height="41" rx="18" fill="#DFF7E2"/>
<path id="Nouveau mot de passe_2" d="M46.712 291H45.592L39.4 281.592V291H38.28V279.816H39.4L45.592 289.208V279.816H46.712V291ZM53.0728 291.128C52.2514 291.128 51.5101 290.947 50.8488 290.584C50.1981 290.211 49.6808 289.688 49.2968 289.016C48.9234 288.333 48.7368 287.539 48.7368 286.632C48.7368 285.725 48.9288 284.936 49.3128 284.264C49.6968 283.581 50.2194 283.059 50.8808 282.696C51.5421 282.323 52.2834 282.136 53.1048 282.136C53.9261 282.136 54.6674 282.323 55.3288 282.696C56.0008 283.059 56.5234 283.581 56.8968 284.264C57.2808 284.936 57.4728 285.725 57.4728 286.632C57.4728 287.528 57.2808 288.317 56.8968 289C56.5128 289.683 55.9848 290.211 55.3128 290.584C54.6408 290.947 53.8941 291.128 53.0728 291.128ZM53.0728 290.152C53.6488 290.152 54.1821 290.024 54.6728 289.768C55.1634 289.501 55.5581 289.107 55.8568 288.584C56.1661 288.051 56.3208 287.4 56.3208 286.632C56.3208 285.864 56.1714 285.219 55.8728 284.696C55.5741 284.163 55.1794 283.768 54.6888 283.512C54.1981 283.245 53.6648 283.112 53.0888 283.112C52.5128 283.112 51.9794 283.245 51.4888 283.512C50.9981 283.768 50.6034 284.163 50.3048 284.696C50.0168 285.219 49.8728 285.864 49.8728 286.632C49.8728 287.4 50.0168 288.051 50.3048 288.584C50.6034 289.107 50.9928 289.501 51.4728 289.768C51.9634 290.024 52.4968 290.152 53.0728 290.152ZM67.0824 282.264V291H65.9624V289.464C65.7064 290.008 65.3117 290.424 64.7784 290.712C64.245 291 63.6477 291.144 62.9864 291.144C61.941 291.144 61.0877 290.824 60.4264 290.184C59.765 289.533 59.4344 288.595 59.4344 287.368V282.264H60.5384V287.24C60.5384 288.189 60.773 288.915 61.2424 289.416C61.7224 289.917 62.373 290.168 63.1944 290.168C64.037 290.168 64.709 289.901 65.2104 289.368C65.7117 288.835 65.9624 288.051 65.9624 287.016V282.264H67.0824ZM72.7434 289.912L75.6874 282.264H76.8714L73.3674 291H72.1034L68.5994 282.264H69.7994L72.7434 289.912ZM86.2934 286.184C86.2934 286.568 86.2827 286.861 86.2614 287.064H79.0134C79.0454 287.725 79.2054 288.291 79.4934 288.76C79.7814 289.229 80.16 289.587 80.6294 289.832C81.0987 290.067 81.6107 290.184 82.1654 290.184C82.8907 290.184 83.4987 290.008 83.9894 289.656C84.4907 289.304 84.8214 288.829 84.9814 288.232H86.1654C85.952 289.085 85.4934 289.784 84.7894 290.328C84.096 290.861 83.2214 291.128 82.1654 291.128C81.344 291.128 80.608 290.947 79.9574 290.584C79.3067 290.211 78.7947 289.688 78.4214 289.016C78.0587 288.333 77.8774 287.539 77.8774 286.632C77.8774 285.725 78.0587 284.931 78.4214 284.248C78.784 283.565 79.2907 283.043 79.9414 282.68C80.592 282.317 81.3334 282.136 82.1654 282.136C82.9974 282.136 83.7227 282.317 84.3414 282.68C84.9707 283.043 85.4507 283.533 85.7814 284.152C86.1227 284.76 86.2934 285.437 86.2934 286.184ZM85.1574 286.152C85.168 285.501 85.0347 284.947 84.7574 284.488C84.4907 284.029 84.1227 283.683 83.6534 283.448C83.184 283.213 82.672 283.096 82.1174 283.096C81.2854 283.096 80.576 283.363 79.9894 283.896C79.4027 284.429 79.0774 285.181 79.0134 286.152H85.1574ZM87.8305 286.616C87.8305 285.72 88.0065 284.936 88.3585 284.264C88.7212 283.581 89.2172 283.059 89.8465 282.696C90.4865 282.323 91.2065 282.136 92.0065 282.136C92.8385 282.136 93.5532 282.328 94.1505 282.712C94.7585 283.096 95.1958 283.587 95.4625 284.184V282.264H96.5825V291H95.4625V289.064C95.1852 289.661 94.7425 290.157 94.1345 290.552C93.5372 290.936 92.8225 291.128 91.9905 291.128C91.2012 291.128 90.4865 290.941 89.8465 290.568C89.2172 290.195 88.7212 289.667 88.3585 288.984C88.0065 288.301 87.8305 287.512 87.8305 286.616ZM95.4625 286.632C95.4625 285.928 95.3185 285.309 95.0305 284.776C94.7425 284.243 94.3478 283.832 93.8465 283.544C93.3558 283.256 92.8118 283.112 92.2145 283.112C91.5958 283.112 91.0412 283.251 90.5505 283.528C90.0598 283.805 89.6705 284.211 89.3825 284.744C89.1052 285.267 88.9665 285.891 88.9665 286.616C88.9665 287.331 89.1052 287.96 89.3825 288.504C89.6705 289.037 90.0598 289.448 90.5505 289.736C91.0412 290.013 91.5958 290.152 92.2145 290.152C92.8118 290.152 93.3558 290.008 93.8465 289.72C94.3478 289.432 94.7425 289.021 95.0305 288.488C95.3185 287.955 95.4625 287.336 95.4625 286.632ZM106.707 282.264V291H105.587V289.464C105.331 290.008 104.937 290.424 104.403 290.712C103.87 291 103.273 291.144 102.611 291.144C101.566 291.144 100.713 290.824 100.051 290.184C99.39 289.533 99.0594 288.595 99.0594 287.368V282.264H100.163V287.24C100.163 288.189 100.398 288.915 100.867 289.416C101.347 289.917 101.998 290.168 102.819 290.168C103.662 290.168 104.334 289.901 104.835 289.368C105.337 288.835 105.587 288.051 105.587 287.016V282.264H106.707ZM124.055 282.104C125.079 282.104 125.911 282.429 126.551 283.08C127.202 283.72 127.527 284.653 127.527 285.88V291H126.423V286.008C126.423 285.059 126.194 284.333 125.735 283.832C125.276 283.331 124.652 283.08 123.863 283.08C123.042 283.08 122.386 283.352 121.895 283.896C121.404 284.44 121.159 285.229 121.159 286.264V291H120.055V286.008C120.055 285.059 119.826 284.333 119.367 283.832C118.908 283.331 118.279 283.08 117.479 283.08C116.658 283.08 116.002 283.352 115.511 283.896C115.02 284.44 114.775 285.229 114.775 286.264V291H113.655V282.264H114.775V283.768C115.052 283.224 115.447 282.813 115.959 282.536C116.471 282.248 117.042 282.104 117.671 282.104C118.428 282.104 119.09 282.285 119.655 282.648C120.231 283.011 120.647 283.544 120.903 284.248C121.138 283.555 121.538 283.027 122.103 282.664C122.679 282.291 123.33 282.104 124.055 282.104ZM133.838 291.128C133.017 291.128 132.276 290.947 131.614 290.584C130.964 290.211 130.446 289.688 130.062 289.016C129.689 288.333 129.502 287.539 129.502 286.632C129.502 285.725 129.694 284.936 130.078 284.264C130.462 283.581 130.985 283.059 131.646 282.696C132.308 282.323 133.049 282.136 133.87 282.136C134.692 282.136 135.433 282.323 136.094 282.696C136.766 283.059 137.289 283.581 137.662 284.264C138.046 284.936 138.238 285.725 138.238 286.632C138.238 287.528 138.046 288.317 137.662 289C137.278 289.683 136.75 290.211 136.078 290.584C135.406 290.947 134.66 291.128 133.838 291.128ZM133.838 290.152C134.414 290.152 134.948 290.024 135.438 289.768C135.929 289.501 136.324 289.107 136.622 288.584C136.932 288.051 137.086 287.4 137.086 286.632C137.086 285.864 136.937 285.219 136.638 284.696C136.34 284.163 135.945 283.768 135.454 283.512C134.964 283.245 134.43 283.112 133.854 283.112C133.278 283.112 132.745 283.245 132.254 283.512C131.764 283.768 131.369 284.163 131.07 284.696C130.782 285.219 130.638 285.864 130.638 286.632C130.638 287.4 130.782 288.051 131.07 288.584C131.369 289.107 131.758 289.501 132.238 289.768C132.729 290.024 133.262 290.152 133.838 290.152ZM141.736 283.208V288.632C141.736 289.165 141.837 289.533 142.04 289.736C142.243 289.939 142.6 290.04 143.112 290.04H144.136V291H142.936C142.147 291 141.56 290.819 141.176 290.456C140.792 290.083 140.6 289.475 140.6 288.632V283.208H139.384V282.264H140.6V280.072H141.736V282.264H144.136V283.208H141.736ZM149.862 286.616C149.862 285.72 150.043 284.936 150.406 284.264C150.768 283.581 151.264 283.059 151.894 282.696C152.534 282.323 153.254 282.136 154.054 282.136C154.822 282.136 155.515 282.323 156.134 282.696C156.752 283.069 157.206 283.555 157.494 284.152V279.16H158.614V291H157.494V289.048C157.227 289.656 156.79 290.157 156.182 290.552C155.574 290.936 154.859 291.128 154.038 291.128C153.238 291.128 152.518 290.941 151.878 290.568C151.248 290.195 150.752 289.667 150.39 288.984C150.038 288.301 149.862 287.512 149.862 286.616ZM157.494 286.632C157.494 285.928 157.35 285.309 157.062 284.776C156.774 284.243 156.379 283.832 155.878 283.544C155.387 283.256 154.843 283.112 154.246 283.112C153.627 283.112 153.072 283.251 152.582 283.528C152.091 283.805 151.702 284.211 151.414 284.744C151.136 285.267 150.998 285.891 150.998 286.616C150.998 287.331 151.136 287.96 151.414 288.504C151.702 289.037 152.091 289.448 152.582 289.736C153.072 290.013 153.627 290.152 154.246 290.152C154.843 290.152 155.387 290.008 155.878 289.72C156.379 289.432 156.774 289.021 157.062 288.488C157.35 287.955 157.494 287.336 157.494 286.632ZM169.075 286.184C169.075 286.568 169.064 286.861 169.043 287.064H161.795C161.827 287.725 161.987 288.291 162.275 288.76C162.563 289.229 162.941 289.587 163.411 289.832C163.88 290.067 164.392 290.184 164.947 290.184C165.672 290.184 166.28 290.008 166.771 289.656C167.272 289.304 167.603 288.829 167.763 288.232H168.947C168.733 289.085 168.275 289.784 167.571 290.328C166.877 290.861 166.003 291.128 164.947 291.128C164.125 291.128 163.389 290.947 162.739 290.584C162.088 290.211 161.576 289.688 161.203 289.016C160.84 288.333 160.659 287.539 160.659 286.632C160.659 285.725 160.84 284.931 161.203 284.248C161.565 283.565 162.072 283.043 162.723 282.68C163.373 282.317 164.115 282.136 164.947 282.136C165.779 282.136 166.504 282.317 167.123 282.68C167.752 283.043 168.232 283.533 168.563 284.152C168.904 284.76 169.075 285.437 169.075 286.184ZM167.939 286.152C167.949 285.501 167.816 284.947 167.539 284.488C167.272 284.029 166.904 283.683 166.435 283.448C165.965 283.213 165.453 283.096 164.899 283.096C164.067 283.096 163.357 283.363 162.771 283.896C162.184 284.429 161.859 285.181 161.795 286.152H167.939ZM176.618 284.184C176.896 283.597 177.333 283.112 177.93 282.728C178.538 282.333 179.258 282.136 180.09 282.136C180.88 282.136 181.589 282.323 182.218 282.696C182.858 283.059 183.354 283.581 183.706 284.264C184.069 284.936 184.25 285.72 184.25 286.616C184.25 287.512 184.069 288.301 183.706 288.984C183.354 289.667 182.858 290.195 182.218 290.568C181.589 290.941 180.88 291.128 180.09 291.128C179.269 291.128 178.554 290.936 177.946 290.552C177.338 290.157 176.896 289.667 176.618 289.08V295.128H175.514V282.264H176.618V284.184ZM183.114 286.616C183.114 285.891 182.97 285.267 182.682 284.744C182.405 284.211 182.021 283.805 181.53 283.528C181.04 283.251 180.485 283.112 179.866 283.112C179.269 283.112 178.72 283.256 178.218 283.544C177.728 283.832 177.338 284.243 177.05 284.776C176.762 285.309 176.618 285.928 176.618 286.632C176.618 287.336 176.762 287.955 177.05 288.488C177.338 289.021 177.728 289.432 178.218 289.72C178.72 290.008 179.269 290.152 179.866 290.152C180.485 290.152 181.04 290.013 181.53 289.736C182.021 289.448 182.405 289.037 182.682 288.504C182.97 287.96 183.114 287.331 183.114 286.616ZM185.799 286.616C185.799 285.72 185.975 284.936 186.327 284.264C186.69 283.581 187.186 283.059 187.815 282.696C188.455 282.323 189.175 282.136 189.975 282.136C190.807 282.136 191.522 282.328 192.119 282.712C192.727 283.096 193.165 283.587 193.431 284.184V282.264H194.551V291H193.431V289.064C193.154 289.661 192.711 290.157 192.103 290.552C191.506 290.936 190.791 291.128 189.959 291.128C189.17 291.128 188.455 290.941 187.815 290.568C187.186 290.195 186.69 289.667 186.327 288.984C185.975 288.301 185.799 287.512 185.799 286.616ZM193.431 286.632C193.431 285.928 193.287 285.309 192.999 284.776C192.711 284.243 192.317 283.832 191.815 283.544C191.325 283.256 190.781 283.112 190.183 283.112C189.565 283.112 189.01 283.251 188.519 283.528C188.029 283.805 187.639 284.211 187.351 284.744C187.074 285.267 186.935 285.891 186.935 286.616C186.935 287.331 187.074 287.96 187.351 288.504C187.639 289.037 188.029 289.448 188.519 289.736C189.01 290.013 189.565 290.152 190.183 290.152C190.781 290.152 191.325 290.008 191.815 289.72C192.317 289.432 192.711 289.021 192.999 288.488C193.287 287.955 193.431 287.336 193.431 286.632ZM200.116 291.128C199.113 291.128 198.292 290.899 197.652 290.44C197.023 289.971 196.671 289.336 196.596 288.536H197.748C197.801 289.027 198.031 289.427 198.436 289.736C198.852 290.035 199.407 290.184 200.1 290.184C200.708 290.184 201.183 290.04 201.524 289.752C201.876 289.464 202.052 289.107 202.052 288.68C202.052 288.381 201.956 288.136 201.764 287.944C201.572 287.752 201.327 287.603 201.028 287.496C200.74 287.379 200.345 287.256 199.844 287.128C199.193 286.957 198.665 286.787 198.26 286.616C197.855 286.445 197.508 286.195 197.22 285.864C196.943 285.523 196.804 285.069 196.804 284.504C196.804 284.077 196.932 283.683 197.188 283.32C197.444 282.957 197.807 282.669 198.276 282.456C198.745 282.243 199.279 282.136 199.876 282.136C200.815 282.136 201.572 282.376 202.148 282.856C202.724 283.325 203.033 283.976 203.076 284.808H201.956C201.924 284.296 201.721 283.885 201.348 283.576C200.985 283.256 200.484 283.096 199.844 283.096C199.279 283.096 198.82 283.229 198.468 283.496C198.116 283.763 197.94 284.093 197.94 284.488C197.94 284.829 198.041 285.112 198.244 285.336C198.457 285.549 198.719 285.72 199.028 285.848C199.337 285.965 199.753 286.099 200.276 286.248C200.905 286.419 201.407 286.584 201.78 286.744C202.153 286.904 202.473 287.139 202.74 287.448C203.007 287.757 203.145 288.168 203.156 288.68C203.156 289.149 203.028 289.571 202.772 289.944C202.516 290.307 202.159 290.595 201.7 290.808C201.241 291.021 200.713 291.128 200.116 291.128ZM208.272 291.128C207.27 291.128 206.448 290.899 205.808 290.44C205.179 289.971 204.827 289.336 204.752 288.536H205.904C205.958 289.027 206.187 289.427 206.592 289.736C207.008 290.035 207.563 290.184 208.256 290.184C208.864 290.184 209.339 290.04 209.68 289.752C210.032 289.464 210.208 289.107 210.208 288.68C210.208 288.381 210.112 288.136 209.92 287.944C209.728 287.752 209.483 287.603 209.184 287.496C208.896 287.379 208.502 287.256 208 287.128C207.35 286.957 206.822 286.787 206.416 286.616C206.011 286.445 205.664 286.195 205.376 285.864C205.099 285.523 204.96 285.069 204.96 284.504C204.96 284.077 205.088 283.683 205.344 283.32C205.6 282.957 205.963 282.669 206.432 282.456C206.902 282.243 207.435 282.136 208.032 282.136C208.971 282.136 209.728 282.376 210.304 282.856C210.88 283.325 211.19 283.976 211.232 284.808H210.112C210.08 284.296 209.878 283.885 209.504 283.576C209.142 283.256 208.64 283.096 208 283.096C207.435 283.096 206.976 283.229 206.624 283.496C206.272 283.763 206.096 284.093 206.096 284.488C206.096 284.829 206.198 285.112 206.4 285.336C206.614 285.549 206.875 285.72 207.184 285.848C207.494 285.965 207.91 286.099 208.432 286.248C209.062 286.419 209.563 286.584 209.936 286.744C210.31 286.904 210.63 287.139 210.896 287.448C211.163 287.757 211.302 288.168 211.312 288.68C211.312 289.149 211.184 289.571 210.928 289.944C210.672 290.307 210.315 290.595 209.856 290.808C209.398 291.021 208.87 291.128 208.272 291.128ZM221.325 286.184C221.325 286.568 221.314 286.861 221.293 287.064H214.045C214.077 287.725 214.237 288.291 214.525 288.76C214.813 289.229 215.191 289.587 215.661 289.832C216.13 290.067 216.642 290.184 217.197 290.184C217.922 290.184 218.53 290.008 219.021 289.656C219.522 289.304 219.853 288.829 220.013 288.232H221.197C220.983 289.085 220.525 289.784 219.821 290.328C219.127 290.861 218.253 291.128 217.197 291.128C216.375 291.128 215.639 290.947 214.989 290.584C214.338 290.211 213.826 289.688 213.453 289.016C213.09 288.333 212.909 287.539 212.909 286.632C212.909 285.725 213.09 284.931 213.453 284.248C213.815 283.565 214.322 283.043 214.973 282.68C215.623 282.317 216.365 282.136 217.197 282.136C218.029 282.136 218.754 282.317 219.373 282.68C220.002 283.043 220.482 283.533 220.813 284.152C221.154 284.76 221.325 285.437 221.325 286.184ZM220.189 286.152C220.199 285.501 220.066 284.947 219.789 284.488C219.522 284.029 219.154 283.683 218.685 283.448C218.215 283.213 217.703 283.096 217.149 283.096C216.317 283.096 215.607 283.363 215.021 283.896C214.434 284.429 214.109 285.181 214.045 286.152H220.189Z" fill="#093030"/>
<path id="Confirmer le nouveau mot de passe" d="M37.768 399.4C37.768 398.301 38.008 397.32 38.488 396.456C38.968 395.581 39.624 394.904 40.456 394.424C41.288 393.933 42.216 393.688 43.24 393.688C44.488 393.688 45.5547 393.987 46.44 394.584C47.336 395.171 47.9867 396.003 48.392 397.08H47.08C46.76 396.323 46.2693 395.731 45.608 395.304C44.9573 394.877 44.168 394.664 43.24 394.664C42.4187 394.664 41.6773 394.856 41.016 395.24C40.3653 395.624 39.8533 396.179 39.48 396.904C39.1067 397.619 38.92 398.451 38.92 399.4C38.92 400.349 39.1067 401.181 39.48 401.896C39.8533 402.611 40.3653 403.16 41.016 403.544C41.6773 403.928 42.4187 404.12 43.24 404.12C44.168 404.12 44.9573 403.912 45.608 403.496C46.2693 403.069 46.76 402.483 47.08 401.736H48.392C47.9867 402.803 47.336 403.629 46.44 404.216C45.544 404.803 44.4773 405.096 43.24 405.096C42.216 405.096 41.288 404.856 40.456 404.376C39.624 403.885 38.968 403.208 38.488 402.344C38.008 401.48 37.768 400.499 37.768 399.4ZM54.4478 405.128C53.6264 405.128 52.8851 404.947 52.2238 404.584C51.5731 404.211 51.0558 403.688 50.6718 403.016C50.2984 402.333 50.1118 401.539 50.1118 400.632C50.1118 399.725 50.3038 398.936 50.6878 398.264C51.0718 397.581 51.5944 397.059 52.2558 396.696C52.9171 396.323 53.6584 396.136 54.4798 396.136C55.3011 396.136 56.0424 396.323 56.7038 396.696C57.3758 397.059 57.8984 397.581 58.2718 398.264C58.6558 398.936 58.8478 399.725 58.8478 400.632C58.8478 401.528 58.6558 402.317 58.2718 403C57.8878 403.683 57.3598 404.211 56.6878 404.584C56.0158 404.947 55.2691 405.128 54.4478 405.128ZM54.4478 404.152C55.0238 404.152 55.5571 404.024 56.0478 403.768C56.5384 403.501 56.9331 403.107 57.2318 402.584C57.5411 402.051 57.6958 401.4 57.6958 400.632C57.6958 399.864 57.5464 399.219 57.2478 398.696C56.9491 398.163 56.5544 397.768 56.0638 397.512C55.5731 397.245 55.0398 397.112 54.4638 397.112C53.8878 397.112 53.3544 397.245 52.8638 397.512C52.3731 397.768 51.9784 398.163 51.6798 398.696C51.3918 399.219 51.2478 399.864 51.2478 400.632C51.2478 401.4 51.3918 402.051 51.6798 402.584C51.9784 403.107 52.3678 403.501 52.8478 403.768C53.3384 404.024 53.8718 404.152 54.4478 404.152ZM64.9854 396.104C66.0307 396.104 66.884 396.429 67.5454 397.08C68.2067 397.72 68.5374 398.653 68.5374 399.88V405H67.4334V400.008C67.4334 399.059 67.1934 398.333 66.7134 397.832C66.244 397.331 65.5987 397.08 64.7774 397.08C63.9347 397.08 63.2627 397.347 62.7614 397.88C62.26 398.413 62.0094 399.197 62.0094 400.232V405H60.8894V396.264H62.0094V397.752C62.2867 397.219 62.6867 396.813 63.2094 396.536C63.732 396.248 64.324 396.104 64.9854 396.104ZM74.4544 397.208H72.4224V405H71.3024V397.208H70.0864V396.264H71.3024V395.656C71.3024 394.707 71.5424 394.008 72.0224 393.56C72.513 393.112 73.3024 392.888 74.3904 392.888V393.848C73.665 393.848 73.153 393.987 72.8544 394.264C72.5664 394.541 72.4224 395.005 72.4224 395.656V396.264H74.4544V397.208ZM76.7775 394.616C76.5535 394.616 76.3615 394.536 76.2015 394.376C76.0415 394.216 75.9615 394.019 75.9615 393.784C75.9615 393.549 76.0415 393.357 76.2015 393.208C76.3615 393.048 76.5535 392.968 76.7775 392.968C77.0015 392.968 77.1935 393.048 77.3535 393.208C77.5135 393.357 77.5935 393.549 77.5935 393.784C77.5935 394.019 77.5135 394.216 77.3535 394.376C77.1935 394.536 77.0015 394.616 76.7775 394.616ZM77.3375 396.264V405H76.2175V396.264H77.3375ZM80.9938 397.816C81.2391 397.272 81.6124 396.851 82.1138 396.552C82.6258 396.253 83.2498 396.104 83.9858 396.104V397.272H83.6818C82.8711 397.272 82.2204 397.491 81.7298 397.928C81.2391 398.365 80.9938 399.096 80.9938 400.12V405H79.8738V396.264H80.9938V397.816ZM96.0706 396.104C97.0946 396.104 97.9266 396.429 98.5666 397.08C99.2173 397.72 99.5426 398.653 99.5426 399.88V405H98.4386V400.008C98.4386 399.059 98.2093 398.333 97.7506 397.832C97.292 397.331 96.668 397.08 95.8786 397.08C95.0573 397.08 94.4013 397.352 93.9106 397.896C93.42 398.44 93.1746 399.229 93.1746 400.264V405H92.0706V400.008C92.0706 399.059 91.8413 398.333 91.3826 397.832C90.924 397.331 90.2946 397.08 89.4946 397.08C88.6733 397.08 88.0173 397.352 87.5266 397.896C87.036 398.44 86.7906 399.229 86.7906 400.264V405H85.6706V396.264H86.7906V397.768C87.068 397.224 87.4626 396.813 87.9746 396.536C88.4866 396.248 89.0573 396.104 89.6866 396.104C90.444 396.104 91.1053 396.285 91.6706 396.648C92.2466 397.011 92.6626 397.544 92.9186 398.248C93.1533 397.555 93.5533 397.027 94.1186 396.664C94.6946 396.291 95.3453 396.104 96.0706 396.104ZM109.934 400.184C109.934 400.568 109.923 400.861 109.902 401.064H102.654C102.686 401.725 102.846 402.291 103.134 402.76C103.422 403.229 103.801 403.587 104.27 403.832C104.739 404.067 105.251 404.184 105.806 404.184C106.531 404.184 107.139 404.008 107.63 403.656C108.131 403.304 108.462 402.829 108.622 402.232H109.806C109.593 403.085 109.134 403.784 108.43 404.328C107.737 404.861 106.862 405.128 105.806 405.128C104.985 405.128 104.249 404.947 103.598 404.584C102.947 404.211 102.435 403.688 102.062 403.016C101.699 402.333 101.518 401.539 101.518 400.632C101.518 399.725 101.699 398.931 102.062 398.248C102.425 397.565 102.931 397.043 103.582 396.68C104.233 396.317 104.974 396.136 105.806 396.136C106.638 396.136 107.363 396.317 107.982 396.68C108.611 397.043 109.091 397.533 109.422 398.152C109.763 398.76 109.934 399.437 109.934 400.184ZM108.798 400.152C108.809 399.501 108.675 398.947 108.398 398.488C108.131 398.029 107.763 397.683 107.294 397.448C106.825 397.213 106.313 397.096 105.758 397.096C104.926 397.096 104.217 397.363 103.63 397.896C103.043 398.429 102.718 399.181 102.654 400.152H108.798ZM113.103 397.816C113.348 397.272 113.722 396.851 114.223 396.552C114.735 396.253 115.359 396.104 116.095 396.104V397.272H115.791C114.98 397.272 114.33 397.491 113.839 397.928C113.348 398.365 113.103 399.096 113.103 400.12V405H111.983V396.264H113.103V397.816ZM123.291 393.16V405H122.171V393.16H123.291ZM133.731 400.184C133.731 400.568 133.72 400.861 133.699 401.064H126.451C126.483 401.725 126.643 402.291 126.931 402.76C127.219 403.229 127.598 403.587 128.067 403.832C128.536 404.067 129.048 404.184 129.603 404.184C130.328 404.184 130.936 404.008 131.427 403.656C131.928 403.304 132.259 402.829 132.419 402.232H133.603C133.39 403.085 132.931 403.784 132.227 404.328C131.534 404.861 130.659 405.128 129.603 405.128C128.782 405.128 128.046 404.947 127.395 404.584C126.744 404.211 126.232 403.688 125.859 403.016C125.496 402.333 125.315 401.539 125.315 400.632C125.315 399.725 125.496 398.931 125.859 398.248C126.222 397.565 126.728 397.043 127.379 396.68C128.03 396.317 128.771 396.136 129.603 396.136C130.435 396.136 131.16 396.317 131.779 396.68C132.408 397.043 132.888 397.533 133.219 398.152C133.56 398.76 133.731 399.437 133.731 400.184ZM132.595 400.152C132.606 399.501 132.472 398.947 132.195 398.488C131.928 398.029 131.56 397.683 131.091 397.448C130.622 397.213 130.11 397.096 129.555 397.096C128.723 397.096 128.014 397.363 127.427 397.896C126.84 398.429 126.515 399.181 126.451 400.152H132.595ZM144.267 396.104C145.312 396.104 146.165 396.429 146.827 397.08C147.488 397.72 147.819 398.653 147.819 399.88V405H146.715V400.008C146.715 399.059 146.475 398.333 145.995 397.832C145.525 397.331 144.88 397.08 144.059 397.08C143.216 397.08 142.544 397.347 142.043 397.88C141.541 398.413 141.291 399.197 141.291 400.232V405H140.171V396.264H141.291V397.752C141.568 397.219 141.968 396.813 142.491 396.536C143.013 396.248 143.605 396.104 144.267 396.104ZM154.12 405.128C153.298 405.128 152.557 404.947 151.896 404.584C151.245 404.211 150.728 403.688 150.344 403.016C149.97 402.333 149.784 401.539 149.784 400.632C149.784 399.725 149.976 398.936 150.36 398.264C150.744 397.581 151.266 397.059 151.928 396.696C152.589 396.323 153.33 396.136 154.152 396.136C154.973 396.136 155.714 396.323 156.376 396.696C157.048 397.059 157.57 397.581 157.944 398.264C158.328 398.936 158.52 399.725 158.52 400.632C158.52 401.528 158.328 402.317 157.944 403C157.56 403.683 157.032 404.211 156.36 404.584C155.688 404.947 154.941 405.128 154.12 405.128ZM154.12 404.152C154.696 404.152 155.229 404.024 155.72 403.768C156.21 403.501 156.605 403.107 156.904 402.584C157.213 402.051 157.368 401.4 157.368 400.632C157.368 399.864 157.218 399.219 156.92 398.696C156.621 398.163 156.226 397.768 155.736 397.512C155.245 397.245 154.712 397.112 154.136 397.112C153.56 397.112 153.026 397.245 152.536 397.512C152.045 397.768 151.65 398.163 151.352 398.696C151.064 399.219 150.92 399.864 150.92 400.632C150.92 401.4 151.064 402.051 151.352 402.584C151.65 403.107 152.04 403.501 152.52 403.768C153.01 404.024 153.544 404.152 154.12 404.152ZM168.129 396.264V405H167.009V403.464C166.753 404.008 166.359 404.424 165.825 404.712C165.292 405 164.695 405.144 164.033 405.144C162.988 405.144 162.135 404.824 161.473 404.184C160.812 403.533 160.481 402.595 160.481 401.368V396.264H161.585V401.24C161.585 402.189 161.82 402.915 162.289 403.416C162.769 403.917 163.42 404.168 164.241 404.168C165.084 404.168 165.756 403.901 166.257 403.368C166.759 402.835 167.009 402.051 167.009 401.016V396.264H168.129ZM173.79 403.912L176.734 396.264H177.918L174.414 405H173.15L169.646 396.264H170.846L173.79 403.912ZM187.34 400.184C187.34 400.568 187.33 400.861 187.308 401.064H180.06C180.092 401.725 180.252 402.291 180.54 402.76C180.828 403.229 181.207 403.587 181.676 403.832C182.146 404.067 182.658 404.184 183.212 404.184C183.938 404.184 184.546 404.008 185.036 403.656C185.538 403.304 185.868 402.829 186.028 402.232H187.212C186.999 403.085 186.54 403.784 185.836 404.328C185.143 404.861 184.268 405.128 183.212 405.128C182.391 405.128 181.655 404.947 181.004 404.584C180.354 404.211 179.842 403.688 179.468 403.016C179.106 402.333 178.924 401.539 178.924 400.632C178.924 399.725 179.106 398.931 179.468 398.248C179.831 397.565 180.338 397.043 180.988 396.68C181.639 396.317 182.38 396.136 183.212 396.136C184.044 396.136 184.77 396.317 185.388 396.68C186.018 397.043 186.498 397.533 186.828 398.152C187.17 398.76 187.34 399.437 187.34 400.184ZM186.204 400.152C186.215 399.501 186.082 398.947 185.804 398.488C185.538 398.029 185.17 397.683 184.7 397.448C184.231 397.213 183.719 397.096 183.164 397.096C182.332 397.096 181.623 397.363 181.036 397.896C180.45 398.429 180.124 399.181 180.06 400.152H186.204ZM188.877 400.616C188.877 399.72 189.053 398.936 189.405 398.264C189.768 397.581 190.264 397.059 190.893 396.696C191.533 396.323 192.253 396.136 193.053 396.136C193.885 396.136 194.6 396.328 195.197 396.712C195.805 397.096 196.243 397.587 196.509 398.184V396.264H197.629V405H196.509V403.064C196.232 403.661 195.789 404.157 195.181 404.552C194.584 404.936 193.869 405.128 193.037 405.128C192.248 405.128 191.533 404.941 190.893 404.568C190.264 404.195 189.768 403.667 189.405 402.984C189.053 402.301 188.877 401.512 188.877 400.616ZM196.509 400.632C196.509 399.928 196.365 399.309 196.077 398.776C195.789 398.243 195.395 397.832 194.893 397.544C194.403 397.256 193.859 397.112 193.261 397.112C192.643 397.112 192.088 397.251 191.597 397.528C191.107 397.805 190.717 398.211 190.429 398.744C190.152 399.267 190.013 399.891 190.013 400.616C190.013 401.331 190.152 401.96 190.429 402.504C190.717 403.037 191.107 403.448 191.597 403.736C192.088 404.013 192.643 404.152 193.261 404.152C193.859 404.152 194.403 404.008 194.893 403.72C195.395 403.432 195.789 403.021 196.077 402.488C196.365 401.955 196.509 401.336 196.509 400.632ZM207.754 396.264V405H206.634V403.464C206.378 404.008 205.984 404.424 205.45 404.712C204.917 405 204.32 405.144 203.658 405.144C202.613 405.144 201.76 404.824 201.098 404.184C200.437 403.533 200.106 402.595 200.106 401.368V396.264H201.21V401.24C201.21 402.189 201.445 402.915 201.914 403.416C202.394 403.917 203.045 404.168 203.866 404.168C204.709 404.168 205.381 403.901 205.882 403.368C206.384 402.835 206.634 402.051 206.634 401.016V396.264H207.754ZM225.102 396.104C226.126 396.104 226.958 396.429 227.598 397.08C228.249 397.72 228.574 398.653 228.574 399.88V405H227.47V400.008C227.47 399.059 227.241 398.333 226.782 397.832C226.323 397.331 225.699 397.08 224.91 397.08C224.089 397.08 223.433 397.352 222.942 397.896C222.451 398.44 222.206 399.229 222.206 400.264V405H221.102V400.008C221.102 399.059 220.873 398.333 220.414 397.832C219.955 397.331 219.326 397.08 218.526 397.08C217.705 397.08 217.049 397.352 216.558 397.896C216.067 398.44 215.822 399.229 215.822 400.264V405H214.702V396.264H215.822V397.768C216.099 397.224 216.494 396.813 217.006 396.536C217.518 396.248 218.089 396.104 218.718 396.104C219.475 396.104 220.137 396.285 220.702 396.648C221.278 397.011 221.694 397.544 221.95 398.248C222.185 397.555 222.585 397.027 223.15 396.664C223.726 396.291 224.377 396.104 225.102 396.104ZM234.885 405.128C234.064 405.128 233.323 404.947 232.661 404.584C232.011 404.211 231.493 403.688 231.109 403.016C230.736 402.333 230.549 401.539 230.549 400.632C230.549 399.725 230.741 398.936 231.125 398.264C231.509 397.581 232.032 397.059 232.693 396.696C233.355 396.323 234.096 396.136 234.917 396.136C235.739 396.136 236.48 396.323 237.141 396.696C237.813 397.059 238.336 397.581 238.709 398.264C239.093 398.936 239.285 399.725 239.285 400.632C239.285 401.528 239.093 402.317 238.709 403C238.325 403.683 237.797 404.211 237.125 404.584C236.453 404.947 235.707 405.128 234.885 405.128ZM234.885 404.152C235.461 404.152 235.995 404.024 236.485 403.768C236.976 403.501 237.371 403.107 237.669 402.584C237.979 402.051 238.133 401.4 238.133 400.632C238.133 399.864 237.984 399.219 237.685 398.696C237.387 398.163 236.992 397.768 236.501 397.512C236.011 397.245 235.477 397.112 234.901 397.112C234.325 397.112 233.792 397.245 233.301 397.512C232.811 397.768 232.416 398.163 232.117 398.696C231.829 399.219 231.685 399.864 231.685 400.632C231.685 401.4 231.829 402.051 232.117 402.584C232.416 403.107 232.805 403.501 233.285 403.768C233.776 404.024 234.309 404.152 234.885 404.152ZM242.783 397.208V402.632C242.783 403.165 242.884 403.533 243.087 403.736C243.29 403.939 243.647 404.04 244.159 404.04H245.183V405H243.983C243.194 405 242.607 404.819 242.223 404.456C241.839 404.083 241.647 403.475 241.647 402.632V397.208H240.431V396.264H241.647V394.072H242.783V396.264H245.183V397.208H242.783ZM250.909 400.616C250.909 399.72 251.09 398.936 251.453 398.264C251.815 397.581 252.311 397.059 252.941 396.696C253.581 396.323 254.301 396.136 255.101 396.136C255.869 396.136 256.562 396.323 257.181 396.696C257.799 397.069 258.253 397.555 258.541 398.152V393.16H259.661V405H258.541V403.048C258.274 403.656 257.837 404.157 257.229 404.552C256.621 404.936 255.906 405.128 255.085 405.128C254.285 405.128 253.565 404.941 252.925 404.568C252.295 404.195 251.799 403.667 251.437 402.984C251.085 402.301 250.909 401.512 250.909 400.616ZM258.541 400.632C258.541 399.928 258.397 399.309 258.109 398.776C257.821 398.243 257.426 397.832 256.925 397.544C256.434 397.256 255.89 397.112 255.293 397.112C254.674 397.112 254.119 397.251 253.629 397.528C253.138 397.805 252.749 398.211 252.461 398.744C252.183 399.267 252.045 399.891 252.045 400.616C252.045 401.331 252.183 401.96 252.461 402.504C252.749 403.037 253.138 403.448 253.629 403.736C254.119 404.013 254.674 404.152 255.293 404.152C255.89 404.152 256.434 404.008 256.925 403.72C257.426 403.432 257.821 403.021 258.109 402.488C258.397 401.955 258.541 401.336 258.541 400.632ZM270.122 400.184C270.122 400.568 270.111 400.861 270.09 401.064H262.842C262.874 401.725 263.034 402.291 263.322 402.76C263.61 403.229 263.988 403.587 264.458 403.832C264.927 404.067 265.439 404.184 265.994 404.184C266.719 404.184 267.327 404.008 267.818 403.656C268.319 403.304 268.65 402.829 268.81 402.232H269.994C269.78 403.085 269.322 403.784 268.618 404.328C267.924 404.861 267.05 405.128 265.994 405.128C265.172 405.128 264.436 404.947 263.786 404.584C263.135 404.211 262.623 403.688 262.25 403.016C261.887 402.333 261.706 401.539 261.706 400.632C261.706 399.725 261.887 398.931 262.25 398.248C262.612 397.565 263.119 397.043 263.77 396.68C264.42 396.317 265.162 396.136 265.994 396.136C266.826 396.136 267.551 396.317 268.17 396.68C268.799 397.043 269.279 397.533 269.61 398.152C269.951 398.76 270.122 399.437 270.122 400.184ZM268.986 400.152C268.996 399.501 268.863 398.947 268.586 398.488C268.319 398.029 267.951 397.683 267.482 397.448C267.012 397.213 266.5 397.096 265.946 397.096C265.114 397.096 264.404 397.363 263.818 397.896C263.231 398.429 262.906 399.181 262.842 400.152H268.986ZM277.665 398.184C277.943 397.597 278.38 397.112 278.977 396.728C279.585 396.333 280.305 396.136 281.137 396.136C281.927 396.136 282.636 396.323 283.265 396.696C283.905 397.059 284.401 397.581 284.753 398.264C285.116 398.936 285.297 399.72 285.297 400.616C285.297 401.512 285.116 402.301 284.753 402.984C284.401 403.667 283.905 404.195 283.265 404.568C282.636 404.941 281.927 405.128 281.137 405.128C280.316 405.128 279.601 404.936 278.993 404.552C278.385 404.157 277.943 403.667 277.665 403.08V409.128H276.561V396.264H277.665V398.184ZM284.161 400.616C284.161 399.891 284.017 399.267 283.729 398.744C283.452 398.211 283.068 397.805 282.577 397.528C282.087 397.251 281.532 397.112 280.913 397.112C280.316 397.112 279.767 397.256 279.265 397.544C278.775 397.832 278.385 398.243 278.097 398.776C277.809 399.309 277.665 399.928 277.665 400.632C277.665 401.336 277.809 401.955 278.097 402.488C278.385 403.021 278.775 403.432 279.265 403.72C279.767 404.008 280.316 404.152 280.913 404.152C281.532 404.152 282.087 404.013 282.577 403.736C283.068 403.448 283.452 403.037 283.729 402.504C284.017 401.96 284.161 401.331 284.161 400.616ZM286.846 400.616C286.846 399.72 287.022 398.936 287.374 398.264C287.737 397.581 288.233 397.059 288.862 396.696C289.502 396.323 290.222 396.136 291.022 396.136C291.854 396.136 292.569 396.328 293.166 396.712C293.774 397.096 294.211 397.587 294.478 398.184V396.264H295.598V405H294.478V403.064C294.201 403.661 293.758 404.157 293.15 404.552C292.553 404.936 291.838 405.128 291.006 405.128C290.217 405.128 289.502 404.941 288.862 404.568C288.233 404.195 287.737 403.667 287.374 402.984C287.022 402.301 286.846 401.512 286.846 400.616ZM294.478 400.632C294.478 399.928 294.334 399.309 294.046 398.776C293.758 398.243 293.363 397.832 292.862 397.544C292.371 397.256 291.827 397.112 291.23 397.112C290.611 397.112 290.057 397.251 289.566 397.528C289.075 397.805 288.686 398.211 288.398 398.744C288.121 399.267 287.982 399.891 287.982 400.616C287.982 401.331 288.121 401.96 288.398 402.504C288.686 403.037 289.075 403.448 289.566 403.736C290.057 404.013 290.611 404.152 291.23 404.152C291.827 404.152 292.371 404.008 292.862 403.72C293.363 403.432 293.758 403.021 294.046 402.488C294.334 401.955 294.478 401.336 294.478 400.632ZM301.163 405.128C300.16 405.128 299.339 404.899 298.699 404.44C298.07 403.971 297.718 403.336 297.643 402.536H298.795C298.848 403.027 299.078 403.427 299.483 403.736C299.899 404.035 300.454 404.184 301.147 404.184C301.755 404.184 302.23 404.04 302.571 403.752C302.923 403.464 303.099 403.107 303.099 402.68C303.099 402.381 303.003 402.136 302.811 401.944C302.619 401.752 302.374 401.603 302.075 401.496C301.787 401.379 301.392 401.256 300.891 401.128C300.24 400.957 299.712 400.787 299.307 400.616C298.902 400.445 298.555 400.195 298.267 399.864C297.99 399.523 297.851 399.069 297.851 398.504C297.851 398.077 297.979 397.683 298.235 397.32C298.491 396.957 298.854 396.669 299.323 396.456C299.792 396.243 300.326 396.136 300.923 396.136C301.862 396.136 302.619 396.376 303.195 396.856C303.771 397.325 304.08 397.976 304.123 398.808H303.003C302.971 398.296 302.768 397.885 302.395 397.576C302.032 397.256 301.531 397.096 300.891 397.096C300.326 397.096 299.867 397.229 299.515 397.496C299.163 397.763 298.987 398.093 298.987 398.488C298.987 398.829 299.088 399.112 299.291 399.336C299.504 399.549 299.766 399.72 300.075 399.848C300.384 399.965 300.8 400.099 301.323 400.248C301.952 400.419 302.454 400.584 302.827 400.744C303.2 400.904 303.52 401.139 303.787 401.448C304.054 401.757 304.192 402.168 304.203 402.68C304.203 403.149 304.075 403.571 303.819 403.944C303.563 404.307 303.206 404.595 302.747 404.808C302.288 405.021 301.76 405.128 301.163 405.128ZM309.319 405.128C308.317 405.128 307.495 404.899 306.855 404.44C306.226 403.971 305.874 403.336 305.799 402.536H306.951C307.005 403.027 307.234 403.427 307.639 403.736C308.055 404.035 308.61 404.184 309.303 404.184C309.911 404.184 310.386 404.04 310.727 403.752C311.079 403.464 311.255 403.107 311.255 402.68C311.255 402.381 311.159 402.136 310.967 401.944C310.775 401.752 310.53 401.603 310.231 401.496C309.943 401.379 309.549 401.256 309.047 401.128C308.397 400.957 307.869 400.787 307.463 400.616C307.058 400.445 306.711 400.195 306.423 399.864C306.146 399.523 306.007 399.069 306.007 398.504C306.007 398.077 306.135 397.683 306.391 397.32C306.647 396.957 307.01 396.669 307.479 396.456C307.949 396.243 308.482 396.136 309.079 396.136C310.018 396.136 310.775 396.376 311.351 396.856C311.927 397.325 312.237 397.976 312.279 398.808H311.159C311.127 398.296 310.925 397.885 310.551 397.576C310.189 397.256 309.687 397.096 309.047 397.096C308.482 397.096 308.023 397.229 307.671 397.496C307.319 397.763 307.143 398.093 307.143 398.488C307.143 398.829 307.245 399.112 307.447 399.336C307.661 399.549 307.922 399.72 308.231 399.848C308.541 399.965 308.957 400.099 309.479 400.248C310.109 400.419 310.61 400.584 310.983 400.744C311.357 400.904 311.677 401.139 311.943 401.448C312.21 401.757 312.349 402.168 312.359 402.68C312.359 403.149 312.231 403.571 311.975 403.944C311.719 404.307 311.362 404.595 310.903 404.808C310.445 405.021 309.917 405.128 309.319 405.128ZM322.372 400.184C322.372 400.568 322.361 400.861 322.34 401.064H315.092C315.124 401.725 315.284 402.291 315.572 402.76C315.86 403.229 316.238 403.587 316.708 403.832C317.177 404.067 317.689 404.184 318.244 404.184C318.969 404.184 319.577 404.008 320.068 403.656C320.569 403.304 320.9 402.829 321.06 402.232H322.244C322.03 403.085 321.572 403.784 320.868 404.328C320.174 404.861 319.3 405.128 318.244 405.128C317.422 405.128 316.686 404.947 316.036 404.584C315.385 404.211 314.873 403.688 314.5 403.016C314.137 402.333 313.956 401.539 313.956 400.632C313.956 399.725 314.137 398.931 314.5 398.248C314.862 397.565 315.369 397.043 316.02 396.68C316.67 396.317 317.412 396.136 318.244 396.136C319.076 396.136 319.801 396.317 320.42 396.68C321.049 397.043 321.529 397.533 321.86 398.152C322.201 398.76 322.372 399.437 322.372 400.184ZM321.236 400.152C321.246 399.501 321.113 398.947 320.836 398.488C320.569 398.029 320.201 397.683 319.732 397.448C319.262 397.213 318.75 397.096 318.196 397.096C317.364 397.096 316.654 397.363 316.068 397.896C315.481 398.429 315.156 399.181 315.092 400.152H321.236Z" fill="#093030"/>
<path id="&#226;&#151;&#143;&#226;&#151;&#143;&#226;&#151;&#143;&#226;&#151;&#143;&#226;&#151;&#143;&#226;&#151;&#143;&#226;&#151;&#143;&#226;&#151;&#143;" opacity="0.45" d="M63.364 330.408C60.724 330.408 58.612 328.296 58.612 325.656C58.612 323.016 60.724 320.904 63.364 320.904C66.004 320.904 68.116 323.016 68.116 325.656C68.116 328.296 66.004 330.408 63.364 330.408ZM82.4867 330.408C79.8467 330.408 77.7347 328.296 77.7347 325.656C77.7347 323.016 79.8467 320.904 82.4867 320.904C85.1267 320.904 87.2387 323.016 87.2387 325.656C87.2387 328.296 85.1267 330.408 82.4867 330.408ZM101.609 330.408C98.9693 330.408 96.8573 328.296 96.8573 325.656C96.8573 323.016 98.9693 320.904 101.609 320.904C104.249 320.904 106.361 323.016 106.361 325.656C106.361 328.296 104.249 330.408 101.609 330.408ZM120.732 330.408C118.092 330.408 115.98 328.296 115.98 325.656C115.98 323.016 118.092 320.904 120.732 320.904C123.372 320.904 125.484 323.016 125.484 325.656C125.484 328.296 123.372 330.408 120.732 330.408ZM139.855 330.408C137.215 330.408 135.103 328.296 135.103 325.656C135.103 323.016 137.215 320.904 139.855 320.904C142.495 320.904 144.607 323.016 144.607 325.656C144.607 328.296 142.495 330.408 139.855 330.408ZM158.977 330.408C156.337 330.408 154.225 328.296 154.225 325.656C154.225 323.016 156.337 320.904 158.977 320.904C161.617 320.904 163.729 323.016 163.729 325.656C163.729 328.296 161.617 330.408 158.977 330.408ZM178.1 330.408C175.46 330.408 173.348 328.296 173.348 325.656C173.348 323.016 175.46 320.904 178.1 320.904C180.74 320.904 182.852 323.016 182.852 325.656C182.852 328.296 180.74 330.408 178.1 330.408ZM197.223 330.408C194.583 330.408 192.471 328.296 192.471 325.656C192.471 323.016 194.583 320.904 197.223 320.904C199.863 320.904 201.975 323.016 201.975 325.656C201.975 328.296 199.863 330.408 197.223 330.408Z" fill="#0E3E3E"/>
<path id="&#226;&#151;&#143;&#226;&#151;&#143;&#226;&#151;&#143;&#226;&#151;&#143;&#226;&#151;&#143;&#226;&#151;&#143;&#226;&#151;&#143;&#226;&#151;&#143;_2" opacity="0.45" d="M63.364 444.408C60.724 444.408 58.612 442.296 58.612 439.656C58.612 437.016 60.724 434.904 63.364 434.904C66.004 434.904 68.116 437.016 68.116 439.656C68.116 442.296 66.004 444.408 63.364 444.408ZM82.4867 444.408C79.8467 444.408 77.7347 442.296 77.7347 439.656C77.7347 437.016 79.8467 434.904 82.4867 434.904C85.1267 434.904 87.2387 437.016 87.2387 439.656C87.2387 442.296 85.1267 444.408 82.4867 444.408ZM101.609 444.408C98.9693 444.408 96.8573 442.296 96.8573 439.656C96.8573 437.016 98.9693 434.904 101.609 434.904C104.249 434.904 106.361 437.016 106.361 439.656C106.361 442.296 104.249 444.408 101.609 444.408ZM120.732 444.408C118.092 444.408 115.98 442.296 115.98 439.656C115.98 437.016 118.092 434.904 120.732 434.904C123.372 434.904 125.484 437.016 125.484 439.656C125.484 442.296 123.372 444.408 120.732 444.408ZM139.855 444.408C137.215 444.408 135.103 442.296 135.103 439.656C135.103 437.016 137.215 434.904 139.855 434.904C142.495 434.904 144.607 437.016 144.607 439.656C144.607 442.296 142.495 444.408 139.855 444.408ZM158.977 444.408C156.337 444.408 154.225 442.296 154.225 439.656C154.225 437.016 156.337 434.904 158.977 434.904C161.617 434.904 163.729 437.016 163.729 439.656C163.729 442.296 161.617 444.408 158.977 444.408ZM178.1 444.408C175.46 444.408 173.348 442.296 173.348 439.656C173.348 437.016 175.46 434.904 178.1 434.904C180.74 434.904 182.852 437.016 182.852 439.656C182.852 442.296 180.74 444.408 178.1 444.408ZM197.223 444.408C194.583 444.408 192.471 442.296 192.471 439.656C192.471 437.016 194.583 434.904 197.223 434.904C199.863 434.904 201.975 437.016 201.975 439.656C201.975 442.296 199.863 444.408 197.223 444.408Z" fill="#0E3E3E"/>
<g id="Log in Dark Mode">
<g id="Group 54">
<rect id="Rectangle 37" x="37" y="629" width="340" height="45" rx="22.5" fill="#00D09E"/>
</g>
<path id="Log In" d="M104.576 651.4C104.576 650.301 104.821 649.32 105.312 648.456C105.813 647.581 106.49 646.904 107.344 646.424C108.208 645.933 109.173 645.688 110.24 645.688C111.488 645.688 112.581 646.008 113.52 646.648C114.458 647.288 115.114 648.173 115.488 649.304H112.912C112.656 648.771 112.293 648.371 111.824 648.104C111.365 647.837 110.832 647.704 110.224 647.704C109.573 647.704 108.992 647.859 108.48 648.168C107.978 648.467 107.584 648.893 107.296 649.448C107.018 650.003 106.88 650.653 106.88 651.4C106.88 652.136 107.018 652.787 107.296 653.352C107.584 653.907 107.978 654.339 108.48 654.648C108.992 654.947 109.573 655.096 110.224 655.096C110.832 655.096 111.365 654.963 111.824 654.696C112.293 654.419 112.656 654.013 112.912 653.48H115.488C115.114 654.621 114.458 655.512 113.52 656.152C112.592 656.781 111.498 657.096 110.24 657.096C109.173 657.096 108.208 656.856 107.344 656.376C106.49 655.885 105.813 655.208 105.312 654.344C104.821 653.48 104.576 652.499 104.576 651.4ZM122.393 648.008C123.065 648.008 123.662 648.157 124.185 648.456C124.708 648.744 125.113 649.176 125.401 649.752C125.7 650.317 125.849 651 125.849 651.8V657H123.609V652.104C123.609 651.4 123.433 650.861 123.081 650.488C122.729 650.104 122.249 649.912 121.641 649.912C121.022 649.912 120.532 650.104 120.169 650.488C119.817 650.861 119.641 651.4 119.641 652.104V657H117.401V645.16H119.641V649.24C119.929 648.856 120.313 648.557 120.793 648.344C121.273 648.12 121.806 648.008 122.393 648.008ZM127.403 652.536C127.403 651.64 127.579 650.845 127.931 650.152C128.294 649.459 128.779 648.925 129.387 648.552C130.006 648.179 130.694 647.992 131.451 647.992C132.112 647.992 132.688 648.125 133.179 648.392C133.68 648.659 134.08 648.995 134.379 649.4V648.136H136.635V657H134.379V655.704C134.091 656.12 133.691 656.467 133.179 656.744C132.678 657.011 132.096 657.144 131.435 657.144C130.688 657.144 130.006 656.952 129.387 656.568C128.779 656.184 128.294 655.645 127.931 654.952C127.579 654.248 127.403 653.443 127.403 652.536ZM134.379 652.568C134.379 652.024 134.272 651.56 134.059 651.176C133.846 650.781 133.558 650.483 133.195 650.28C132.832 650.067 132.443 649.96 132.027 649.96C131.611 649.96 131.227 650.061 130.875 650.264C130.523 650.467 130.235 650.765 130.011 651.16C129.798 651.544 129.691 652.003 129.691 652.536C129.691 653.069 129.798 653.539 130.011 653.944C130.235 654.339 130.523 654.643 130.875 654.856C131.238 655.069 131.622 655.176 132.027 655.176C132.443 655.176 132.832 655.075 133.195 654.872C133.558 654.659 133.846 654.36 134.059 653.976C134.272 653.581 134.379 653.112 134.379 652.568ZM143.735 648.008C144.791 648.008 145.644 648.344 146.295 649.016C146.945 649.677 147.271 650.605 147.271 651.8V657H145.031V652.104C145.031 651.4 144.855 650.861 144.503 650.488C144.151 650.104 143.671 649.912 143.063 649.912C142.444 649.912 141.953 650.104 141.591 650.488C141.239 650.861 141.063 651.4 141.063 652.104V657H138.823V648.136H141.063V649.24C141.361 648.856 141.74 648.557 142.199 648.344C142.668 648.12 143.18 648.008 143.735 648.008ZM152.873 647.992C153.534 647.992 154.116 648.125 154.617 648.392C155.118 648.648 155.513 648.984 155.801 649.4V648.136H158.057V657.064C158.057 657.885 157.892 658.616 157.561 659.256C157.23 659.907 156.734 660.419 156.073 660.792C155.412 661.176 154.612 661.368 153.673 661.368C152.414 661.368 151.38 661.075 150.569 660.488C149.769 659.901 149.316 659.101 149.209 658.088H151.433C151.55 658.493 151.801 658.813 152.185 659.048C152.58 659.293 153.054 659.416 153.609 659.416C154.26 659.416 154.788 659.219 155.193 658.824C155.598 658.44 155.801 657.853 155.801 657.064V655.688C155.513 656.104 155.113 656.451 154.601 656.728C154.1 657.005 153.524 657.144 152.873 657.144C152.126 657.144 151.444 656.952 150.825 656.568C150.206 656.184 149.716 655.645 149.353 654.952C149.001 654.248 148.825 653.443 148.825 652.536C148.825 651.64 149.001 650.845 149.353 650.152C149.716 649.459 150.201 648.925 150.809 648.552C151.428 648.179 152.116 647.992 152.873 647.992ZM155.801 652.568C155.801 652.024 155.694 651.56 155.481 651.176C155.268 650.781 154.98 650.483 154.617 650.28C154.254 650.067 153.865 649.96 153.449 649.96C153.033 649.96 152.649 650.061 152.297 650.264C151.945 650.467 151.657 650.765 151.433 651.16C151.22 651.544 151.113 652.003 151.113 652.536C151.113 653.069 151.22 653.539 151.433 653.944C151.657 654.339 151.945 654.643 152.297 654.856C152.66 655.069 153.044 655.176 153.449 655.176C153.865 655.176 154.254 655.075 154.617 654.872C154.98 654.659 155.268 654.36 155.481 653.976C155.694 653.581 155.801 653.112 155.801 652.568ZM168.485 652.376C168.485 652.696 168.463 652.984 168.421 653.24H161.941C161.994 653.88 162.218 654.381 162.613 654.744C163.007 655.107 163.493 655.288 164.069 655.288C164.901 655.288 165.493 654.931 165.845 654.216H168.261C168.005 655.069 167.514 655.773 166.789 656.328C166.063 656.872 165.173 657.144 164.117 657.144C163.263 657.144 162.495 656.957 161.813 656.584C161.141 656.2 160.613 655.661 160.229 654.968C159.855 654.275 159.669 653.475 159.669 652.568C159.669 651.651 159.855 650.845 160.229 650.152C160.602 649.459 161.125 648.925 161.797 648.552C162.469 648.179 163.242 647.992 164.117 647.992C164.959 647.992 165.711 648.173 166.373 648.536C167.045 648.899 167.562 649.416 167.925 650.088C168.298 650.749 168.485 651.512 168.485 652.376ZM166.165 651.736C166.154 651.16 165.946 650.701 165.541 650.36C165.135 650.008 164.639 649.832 164.053 649.832C163.498 649.832 163.029 650.003 162.645 650.344C162.271 650.675 162.042 651.139 161.957 651.736H166.165ZM172.36 649.512C172.648 649.043 173.021 648.675 173.48 648.408C173.949 648.141 174.482 648.008 175.08 648.008V650.36H174.488C173.784 650.36 173.25 650.525 172.888 650.856C172.536 651.187 172.36 651.763 172.36 652.584V657H170.12V648.136H172.36V649.512ZM182.641 655.224H186.321V657H180.401V645.832H182.641V655.224ZM195.985 652.376C195.985 652.696 195.963 652.984 195.921 653.24H189.441C189.494 653.88 189.718 654.381 190.113 654.744C190.507 655.107 190.993 655.288 191.569 655.288C192.401 655.288 192.993 654.931 193.345 654.216H195.761C195.505 655.069 195.014 655.773 194.289 656.328C193.563 656.872 192.673 657.144 191.617 657.144C190.763 657.144 189.995 656.957 189.313 656.584C188.641 656.2 188.113 655.661 187.729 654.968C187.355 654.275 187.169 653.475 187.169 652.568C187.169 651.651 187.355 650.845 187.729 650.152C188.102 649.459 188.625 648.925 189.297 648.552C189.969 648.179 190.742 647.992 191.617 647.992C192.459 647.992 193.211 648.173 193.873 648.536C194.545 648.899 195.062 649.416 195.425 650.088C195.798 650.749 195.985 651.512 195.985 652.376ZM193.665 651.736C193.654 651.16 193.446 650.701 193.041 650.36C192.635 650.008 192.139 649.832 191.553 649.832C190.998 649.832 190.529 650.003 190.145 650.344C189.771 650.675 189.542 651.139 189.457 651.736H193.665ZM213.608 645.832V657H211.368V649.736L208.376 657H206.68L203.672 649.736V657H201.432V645.832H203.976L207.528 654.136L211.08 645.832H213.608ZM219.759 657.144C218.905 657.144 218.137 656.957 217.455 656.584C216.772 656.2 216.233 655.661 215.839 654.968C215.455 654.275 215.263 653.475 215.263 652.568C215.263 651.661 215.46 650.861 215.855 650.168C216.26 649.475 216.809 648.941 217.503 648.568C218.196 648.184 218.969 647.992 219.823 647.992C220.676 647.992 221.449 648.184 222.143 648.568C222.836 648.941 223.38 649.475 223.775 650.168C224.18 650.861 224.383 651.661 224.383 652.568C224.383 653.475 224.175 654.275 223.759 654.968C223.353 655.661 222.799 656.2 222.095 656.584C221.401 656.957 220.623 657.144 219.759 657.144ZM219.759 655.192C220.164 655.192 220.543 655.096 220.895 654.904C221.257 654.701 221.545 654.403 221.759 654.008C221.972 653.613 222.079 653.133 222.079 652.568C222.079 651.725 221.855 651.08 221.407 650.632C220.969 650.173 220.431 649.944 219.791 649.944C219.151 649.944 218.612 650.173 218.175 650.632C217.748 651.08 217.535 651.725 217.535 652.568C217.535 653.411 217.743 654.061 218.159 654.52C218.585 654.968 219.119 655.192 219.759 655.192ZM228.634 649.976V654.264C228.634 654.563 228.703 654.781 228.842 654.92C228.991 655.048 229.237 655.112 229.578 655.112H230.618V657H229.21C227.322 657 226.378 656.083 226.378 654.248V649.976H225.322V648.136H226.378V645.944H228.634V648.136H230.618V649.976H228.634ZM239.946 645.832C241.119 645.832 242.148 646.061 243.034 646.52C243.93 646.979 244.618 647.635 245.098 648.488C245.588 649.331 245.834 650.312 245.834 651.432C245.834 652.552 245.588 653.533 245.098 654.376C244.618 655.208 243.93 655.853 243.034 656.312C242.148 656.771 241.119 657 239.946 657H236.042V645.832H239.946ZM239.866 655.096C241.039 655.096 241.946 654.776 242.586 654.136C243.226 653.496 243.546 652.595 243.546 651.432C243.546 650.269 243.226 649.363 242.586 648.712C241.946 648.051 241.039 647.72 239.866 647.72H238.282V655.096H239.866ZM255.75 652.376C255.75 652.696 255.729 652.984 255.686 653.24H249.206C249.26 653.88 249.484 654.381 249.878 654.744C250.273 655.107 250.758 655.288 251.334 655.288C252.166 655.288 252.758 654.931 253.11 654.216H255.526C255.27 655.069 254.78 655.773 254.054 656.328C253.329 656.872 252.438 657.144 251.382 657.144C250.529 657.144 249.761 656.957 249.078 656.584C248.406 656.2 247.878 655.661 247.494 654.968C247.121 654.275 246.934 653.475 246.934 652.568C246.934 651.651 247.121 650.845 247.494 650.152C247.868 649.459 248.39 648.925 249.062 648.552C249.734 648.179 250.508 647.992 251.382 647.992C252.225 647.992 252.977 648.173 253.638 648.536C254.31 648.899 254.828 649.416 255.19 650.088C255.564 650.749 255.75 651.512 255.75 652.376ZM253.43 651.736C253.42 651.16 253.212 650.701 252.806 650.36C252.401 650.008 251.905 649.832 251.318 649.832C250.764 649.832 250.294 650.003 249.91 650.344C249.537 650.675 249.308 651.139 249.222 651.736H253.43ZM269.342 649.288C269.342 649.885 269.198 650.445 268.91 650.968C268.632 651.491 268.19 651.912 267.582 652.232C266.984 652.552 266.227 652.712 265.31 652.712H263.438V657H261.198V645.832H265.31C266.174 645.832 266.91 645.981 267.518 646.28C268.126 646.579 268.579 646.989 268.878 647.512C269.187 648.035 269.342 648.627 269.342 649.288ZM265.214 650.904C265.832 650.904 266.291 650.765 266.59 650.488C266.888 650.2 267.038 649.8 267.038 649.288C267.038 648.2 266.43 647.656 265.214 647.656H263.438V650.904H265.214ZM270.356 652.536C270.356 651.64 270.532 650.845 270.884 650.152C271.247 649.459 271.732 648.925 272.34 648.552C272.959 648.179 273.647 647.992 274.404 647.992C275.065 647.992 275.641 648.125 276.132 648.392C276.633 648.659 277.033 648.995 277.332 649.4V648.136H279.588V657H277.332V655.704C277.044 656.12 276.644 656.467 276.132 656.744C275.631 657.011 275.049 657.144 274.388 657.144C273.641 657.144 272.959 656.952 272.34 656.568C271.732 656.184 271.247 655.645 270.884 654.952C270.532 654.248 270.356 653.443 270.356 652.536ZM277.332 652.568C277.332 652.024 277.225 651.56 277.012 651.176C276.799 650.781 276.511 650.483 276.148 650.28C275.785 650.067 275.396 649.96 274.98 649.96C274.564 649.96 274.18 650.061 273.828 650.264C273.476 650.467 273.188 650.765 272.964 651.16C272.751 651.544 272.644 652.003 272.644 652.536C272.644 653.069 272.751 653.539 272.964 653.944C273.188 654.339 273.476 654.643 273.828 654.856C274.191 655.069 274.575 655.176 274.98 655.176C275.396 655.176 275.785 655.075 276.148 654.872C276.511 654.659 276.799 654.36 277.012 653.976C277.225 653.581 277.332 653.112 277.332 652.568ZM285.168 657.144C284.443 657.144 283.792 657.016 283.216 656.76C282.64 656.493 282.181 656.136 281.84 655.688C281.509 655.24 281.328 654.744 281.296 654.2H283.552C283.595 654.541 283.76 654.824 284.048 655.048C284.347 655.272 284.715 655.384 285.152 655.384C285.579 655.384 285.909 655.299 286.144 655.128C286.389 654.957 286.512 654.739 286.512 654.472C286.512 654.184 286.363 653.971 286.064 653.832C285.776 653.683 285.312 653.523 284.672 653.352C284.011 653.192 283.467 653.027 283.04 652.856C282.624 652.685 282.261 652.424 281.952 652.072C281.653 651.72 281.504 651.245 281.504 650.648C281.504 650.157 281.643 649.709 281.92 649.304C282.208 648.899 282.613 648.579 283.136 648.344C283.669 648.109 284.293 647.992 285.008 647.992C286.064 647.992 286.907 648.259 287.536 648.792C288.165 649.315 288.512 650.024 288.576 650.92H286.432C286.4 650.568 286.251 650.291 285.984 650.088C285.728 649.875 285.381 649.768 284.944 649.768C284.539 649.768 284.224 649.843 284 649.992C283.787 650.141 283.68 650.349 283.68 650.616C283.68 650.915 283.829 651.144 284.128 651.304C284.427 651.453 284.891 651.608 285.52 651.768C286.16 651.928 286.688 652.093 287.104 652.264C287.52 652.435 287.877 652.701 288.176 653.064C288.485 653.416 288.645 653.885 288.656 654.472C288.656 654.984 288.512 655.443 288.224 655.848C287.947 656.253 287.541 656.573 287.008 656.808C286.485 657.032 285.872 657.144 285.168 657.144ZM293.887 657.144C293.161 657.144 292.511 657.016 291.935 656.76C291.359 656.493 290.9 656.136 290.559 655.688C290.228 655.24 290.047 654.744 290.015 654.2H292.271C292.313 654.541 292.479 654.824 292.767 655.048C293.065 655.272 293.433 655.384 293.871 655.384C294.297 655.384 294.628 655.299 294.863 655.128C295.108 654.957 295.231 654.739 295.231 654.472C295.231 654.184 295.081 653.971 294.783 653.832C294.495 653.683 294.031 653.523 293.391 653.352C292.729 653.192 292.185 653.027 291.759 652.856C291.343 652.685 290.98 652.424 290.671 652.072C290.372 651.72 290.223 651.245 290.223 650.648C290.223 650.157 290.361 649.709 290.639 649.304C290.927 648.899 291.332 648.579 291.855 648.344C292.388 648.109 293.012 647.992 293.727 647.992C294.783 647.992 295.625 648.259 296.255 648.792C296.884 649.315 297.231 650.024 297.295 650.92H295.151C295.119 650.568 294.969 650.291 294.703 650.088C294.447 649.875 294.1 649.768 293.663 649.768C293.257 649.768 292.943 649.843 292.719 649.992C292.505 650.141 292.399 650.349 292.399 650.616C292.399 650.915 292.548 651.144 292.847 651.304C293.145 651.453 293.609 651.608 294.239 651.768C294.879 651.928 295.407 652.093 295.823 652.264C296.239 652.435 296.596 652.701 296.895 653.064C297.204 653.416 297.364 653.885 297.375 654.472C297.375 654.984 297.231 655.443 296.943 655.848C296.665 656.253 296.26 656.573 295.727 656.808C295.204 657.032 294.591 657.144 293.887 657.144ZM307.453 652.376C307.453 652.696 307.432 652.984 307.389 653.24H300.909C300.963 653.88 301.187 654.381 301.581 654.744C301.976 655.107 302.461 655.288 303.037 655.288C303.869 655.288 304.461 654.931 304.813 654.216H307.229C306.973 655.069 306.483 655.773 305.757 656.328C305.032 656.872 304.141 657.144 303.085 657.144C302.232 657.144 301.464 656.957 300.781 656.584C300.109 656.2 299.581 655.661 299.197 654.968C298.824 654.275 298.637 653.475 298.637 652.568C298.637 651.651 298.824 650.845 299.197 650.152C299.571 649.459 300.093 648.925 300.765 648.552C301.437 648.179 302.211 647.992 303.085 647.992C303.928 647.992 304.68 648.173 305.341 648.536C306.013 648.899 306.531 649.416 306.893 650.088C307.267 650.749 307.453 651.512 307.453 652.376ZM305.133 651.736C305.123 651.16 304.915 650.701 304.509 650.36C304.104 650.008 303.608 649.832 303.021 649.832C302.467 649.832 301.997 650.003 301.613 650.344C301.24 650.675 301.011 651.139 300.925 651.736H305.133Z" fill="#093030"/>
</g>
<g id="Eye-Pass">
<path id="Vector_3" d="M353.814 436C359.317 443.328 368.113 443.551 373.815 436.667C373.993 436.454 374.165 436.231 374.339 436M364.075 441.669V445M369.63 440.201L371.445 443.422M373.812 436.667L376.136 438.834M358.51 440.201L356.695 443.422M354.325 436.667L352 438.834" stroke="#0E3E3E" stroke-width="1.63636" stroke-linecap="round" stroke-linejoin="round"/>
</g>
<g id="Eye-Pass_2">
<path id="Vector_4" d="M353.814 321C359.317 328.328 368.113 328.551 373.815 321.667C373.993 321.454 374.165 321.231 374.339 321M364.075 326.669V330M369.63 325.201L371.445 328.422M373.812 321.667L376.136 323.834M358.51 325.201L356.695 328.422M354.325 321.667L352 323.834" stroke="#0E3E3E" stroke-width="1.63636" stroke-linecap="round" stroke-linejoin="round"/>
</g>
</g>
</g>
<defs>
<clipPath id="clip0_7175_2633">
<rect width="430" height="932" rx="40" fill="white"/>
</clipPath>
</defs>
</svg>
