<svg width="431" height="932" viewBox="0 0 431 932" fill="none" xmlns="http://www.w3.org/2000/svg">
<g id="3.3 - A - Security FACE ID">
<g clip-path="url(#clip0_7041_808)">
<rect x="0.147949" width="430" height="932" rx="40" fill="#00D09E"/>
<path id="Base Shape" d="M1.14795 257C1.14795 218.34 32.488 187 71.1479 187H361.148C399.808 187 431.148 218.34 431.148 257V932H1.14795V257Z" fill="#F1FFF3"/>
<path id="FACE ID" d="M173.458 101.06V104.45H164.728V109.82H171.418V113.15H164.728V122H160.528V101.06H173.458ZM189.277 118.01H180.937L179.557 122H175.147L182.677 101.03H187.567L195.097 122H190.657L189.277 118.01ZM188.137 114.65L185.107 105.89L182.077 114.65H188.137ZM196.891 111.5C196.891 109.44 197.351 107.6 198.271 105.98C199.211 104.34 200.481 103.07 202.081 102.17C203.701 101.25 205.511 100.79 207.511 100.79C209.851 100.79 211.901 101.39 213.661 102.59C215.421 103.79 216.651 105.45 217.351 107.57H212.521C212.041 106.57 211.361 105.82 210.481 105.32C209.621 104.82 208.621 104.57 207.481 104.57C206.261 104.57 205.171 104.86 204.211 105.44C203.271 106 202.531 106.8 201.991 107.84C201.471 108.88 201.211 110.1 201.211 111.5C201.211 112.88 201.471 114.1 201.991 115.16C202.531 116.2 203.271 117.01 204.211 117.59C205.171 118.15 206.261 118.43 207.481 118.43C208.621 118.43 209.621 118.18 210.481 117.68C211.361 117.16 212.041 116.4 212.521 115.4H217.351C216.651 117.54 215.421 119.21 213.661 120.41C211.921 121.59 209.871 122.18 207.511 122.18C205.511 122.18 203.701 121.73 202.081 120.83C200.481 119.91 199.211 118.64 198.271 117.02C197.351 115.4 196.891 113.56 196.891 111.5ZM225.139 104.45V109.7H232.189V113.03H225.139V118.58H233.089V122H220.939V101.03H233.089V104.45H225.139ZM248.254 101.06V122H244.054V101.06H248.254ZM259.723 101.06C261.923 101.06 263.853 101.49 265.513 102.35C267.193 103.21 268.483 104.44 269.383 106.04C270.303 107.62 270.763 109.46 270.763 111.56C270.763 113.66 270.303 115.5 269.383 117.08C268.483 118.64 267.193 119.85 265.513 120.71C263.853 121.57 261.923 122 259.723 122H252.403V101.06H259.723ZM259.573 118.43C261.773 118.43 263.473 117.83 264.673 116.63C265.873 115.43 266.473 113.74 266.473 111.56C266.473 109.38 265.873 107.68 264.673 106.46C263.473 105.22 261.773 104.6 259.573 104.6H256.603V118.43H259.573Z" fill="#093030"/>
<g id="Log in Dark Mode">
<g id="Group 54">
<rect id="Rectangle 37" x="37.1479" y="674" width="357" height="45" rx="22.5" fill="#DFF7E2"/>
</g>
<path id="Log In" d="M145.44 689.04V697.68C145.44 698.627 145.687 699.353 146.18 699.86C146.674 700.353 147.367 700.6 148.26 700.6C149.167 700.6 149.867 700.353 150.36 699.86C150.854 699.353 151.1 698.627 151.1 697.68V689.04H153.92V697.66C153.92 698.847 153.66 699.853 153.14 700.68C152.634 701.493 151.947 702.107 151.08 702.52C150.227 702.933 149.274 703.14 148.22 703.14C147.18 703.14 146.234 702.933 145.38 702.52C144.54 702.107 143.874 701.493 143.38 700.68C142.887 699.853 142.64 698.847 142.64 697.66V689.04H145.44ZM159.886 694.22V699.58C159.886 699.953 159.972 700.227 160.146 700.4C160.332 700.56 160.639 700.64 161.066 700.64H162.366V703H160.606C158.246 703 157.066 701.853 157.066 699.56V694.22H155.746V691.92H157.066V689.18H159.886V691.92H162.366V694.22H159.886ZM165.8 690.6C165.306 690.6 164.893 690.447 164.56 690.14C164.24 689.82 164.08 689.427 164.08 688.96C164.08 688.493 164.24 688.107 164.56 687.8C164.893 687.48 165.306 687.32 165.8 687.32C166.293 687.32 166.7 687.48 167.02 687.8C167.353 688.107 167.52 688.493 167.52 688.96C167.52 689.427 167.353 689.82 167.02 690.14C166.7 690.447 166.293 690.6 165.8 690.6ZM167.18 691.92V703H164.38V691.92H167.18ZM172.746 688.2V703H169.946V688.2H172.746ZM176.932 690.6C176.439 690.6 176.026 690.447 175.692 690.14C175.372 689.82 175.212 689.427 175.212 688.96C175.212 688.493 175.372 688.107 175.692 687.8C176.026 687.48 176.439 687.32 176.932 687.32C177.426 687.32 177.832 687.48 178.152 687.8C178.486 688.107 178.652 688.493 178.652 688.96C178.652 689.427 178.486 689.82 178.152 690.14C177.832 690.447 177.426 690.6 176.932 690.6ZM178.312 691.92V703H175.512V691.92H178.312ZM185.319 703.18C184.412 703.18 183.599 703.02 182.879 702.7C182.159 702.367 181.585 701.92 181.159 701.36C180.745 700.8 180.519 700.18 180.479 699.5H183.299C183.352 699.927 183.559 700.28 183.919 700.56C184.292 700.84 184.752 700.98 185.299 700.98C185.832 700.98 186.245 700.873 186.539 700.66C186.845 700.447 186.999 700.173 186.999 699.84C186.999 699.48 186.812 699.213 186.439 699.04C186.079 698.853 185.499 698.653 184.699 698.44C183.872 698.24 183.192 698.033 182.659 697.82C182.139 697.607 181.685 697.28 181.299 696.84C180.925 696.4 180.739 695.807 180.739 695.06C180.739 694.447 180.912 693.887 181.259 693.38C181.619 692.873 182.125 692.473 182.779 692.18C183.445 691.887 184.225 691.74 185.119 691.74C186.439 691.74 187.492 692.073 188.279 692.74C189.065 693.393 189.499 694.28 189.579 695.4H186.899C186.859 694.96 186.672 694.613 186.339 694.36C186.019 694.093 185.585 693.96 185.039 693.96C184.532 693.96 184.139 694.053 183.859 694.24C183.592 694.427 183.459 694.687 183.459 695.02C183.459 695.393 183.645 695.68 184.019 695.88C184.392 696.067 184.972 696.26 185.759 696.46C186.559 696.66 187.219 696.867 187.739 697.08C188.259 697.293 188.705 697.627 189.079 698.08C189.465 698.52 189.665 699.107 189.679 699.84C189.679 700.48 189.499 701.053 189.139 701.56C188.792 702.067 188.285 702.467 187.619 702.76C186.965 703.04 186.199 703.18 185.319 703.18ZM202.277 697.22C202.277 697.62 202.251 697.98 202.197 698.3H194.097C194.164 699.1 194.444 699.727 194.937 700.18C195.431 700.633 196.037 700.86 196.757 700.86C197.797 700.86 198.537 700.413 198.977 699.52H201.997C201.677 700.587 201.064 701.467 200.157 702.16C199.251 702.84 198.137 703.18 196.817 703.18C195.751 703.18 194.791 702.947 193.937 702.48C193.097 702 192.437 701.327 191.957 700.46C191.491 699.593 191.257 698.593 191.257 697.46C191.257 696.313 191.491 695.307 191.957 694.44C192.424 693.573 193.077 692.907 193.917 692.44C194.757 691.973 195.724 691.74 196.817 691.74C197.871 691.74 198.811 691.967 199.637 692.42C200.477 692.873 201.124 693.52 201.577 694.36C202.044 695.187 202.277 696.14 202.277 697.22ZM199.377 696.42C199.364 695.7 199.104 695.127 198.597 694.7C198.091 694.26 197.471 694.04 196.737 694.04C196.044 694.04 195.457 694.253 194.977 694.68C194.511 695.093 194.224 695.673 194.117 696.42H199.377ZM207.121 693.64C207.481 693.053 207.948 692.593 208.521 692.26C209.108 691.927 209.774 691.76 210.521 691.76V694.7H209.781C208.901 694.7 208.234 694.907 207.781 695.32C207.341 695.733 207.121 696.453 207.121 697.48V703H204.321V691.92H207.121V693.64ZM225.792 689.04V691.3H219.972V694.88H224.432V697.1H219.972V703H217.172V689.04H225.792ZM227.058 697.42C227.058 696.3 227.278 695.307 227.718 694.44C228.171 693.573 228.778 692.907 229.538 692.44C230.311 691.973 231.171 691.74 232.118 691.74C232.945 691.74 233.665 691.907 234.278 692.24C234.905 692.573 235.405 692.993 235.778 693.5V691.92H238.598V703H235.778V701.38C235.418 701.9 234.918 702.333 234.278 702.68C233.651 703.013 232.925 703.18 232.098 703.18C231.165 703.18 230.311 702.94 229.538 702.46C228.778 701.98 228.171 701.307 227.718 700.44C227.278 699.56 227.058 698.553 227.058 697.42ZM235.778 697.46C235.778 696.78 235.645 696.2 235.378 695.72C235.111 695.227 234.751 694.853 234.298 694.6C233.845 694.333 233.358 694.2 232.838 694.2C232.318 694.2 231.838 694.327 231.398 694.58C230.958 694.833 230.598 695.207 230.318 695.7C230.051 696.18 229.918 696.753 229.918 697.42C229.918 698.087 230.051 698.673 230.318 699.18C230.598 699.673 230.958 700.053 231.398 700.32C231.851 700.587 232.331 700.72 232.838 700.72C233.358 700.72 233.845 700.593 234.298 700.34C234.751 700.073 235.111 699.7 235.378 699.22C235.645 698.727 235.778 698.14 235.778 697.46ZM240.613 697.46C240.613 696.313 240.846 695.313 241.313 694.46C241.779 693.593 242.426 692.927 243.253 692.46C244.079 691.98 245.026 691.74 246.093 691.74C247.466 691.74 248.599 692.087 249.493 692.78C250.399 693.46 251.006 694.42 251.313 695.66H248.293C248.133 695.18 247.859 694.807 247.473 694.54C247.099 694.26 246.633 694.12 246.073 694.12C245.273 694.12 244.639 694.413 244.173 695C243.706 695.573 243.473 696.393 243.473 697.46C243.473 698.513 243.706 699.333 244.173 699.92C244.639 700.493 245.273 700.78 246.073 700.78C247.206 700.78 247.946 700.273 248.293 699.26H251.313C251.006 700.46 250.399 701.413 249.493 702.12C248.586 702.827 247.453 703.18 246.093 703.18C245.026 703.18 244.079 702.947 243.253 702.48C242.426 702 241.779 701.333 241.313 700.48C240.846 699.613 240.613 698.607 240.613 697.46ZM263.664 697.22C263.664 697.62 263.637 697.98 263.584 698.3H255.484C255.551 699.1 255.831 699.727 256.324 700.18C256.817 700.633 257.424 700.86 258.144 700.86C259.184 700.86 259.924 700.413 260.364 699.52H263.384C263.064 700.587 262.451 701.467 261.544 702.16C260.637 702.84 259.524 703.18 258.204 703.18C257.137 703.18 256.177 702.947 255.324 702.48C254.484 702 253.824 701.327 253.344 700.46C252.877 699.593 252.644 698.593 252.644 697.46C252.644 696.313 252.877 695.307 253.344 694.44C253.811 693.573 254.464 692.907 255.304 692.44C256.144 691.973 257.111 691.74 258.204 691.74C259.257 691.74 260.197 691.967 261.024 692.42C261.864 692.873 262.511 693.52 262.964 694.36C263.431 695.187 263.664 696.14 263.664 697.22ZM260.764 696.42C260.751 695.7 260.491 695.127 259.984 694.7C259.477 694.26 258.857 694.04 258.124 694.04C257.431 694.04 256.844 694.253 256.364 694.68C255.897 695.093 255.611 695.673 255.504 696.42H260.764ZM273.273 689.04V703H270.473V689.04H273.273ZM280.92 689.04C282.386 689.04 283.673 689.327 284.78 689.9C285.9 690.473 286.76 691.293 287.36 692.36C287.973 693.413 288.28 694.64 288.28 696.04C288.28 697.44 287.973 698.667 287.36 699.72C286.76 700.76 285.9 701.567 284.78 702.14C283.673 702.713 282.386 703 280.92 703H276.04V689.04H280.92ZM280.82 700.62C282.286 700.62 283.42 700.22 284.22 699.42C285.02 698.62 285.42 697.493 285.42 696.04C285.42 694.587 285.02 693.453 284.22 692.64C283.42 691.813 282.286 691.4 280.82 691.4H278.84V700.62H280.82Z" fill="#0E3E3E"/>
</g>
<path id="Connectez-vous simplement avec Face ID la prochaine fois" d="M64.9367 581.985C65.5107 581.985 66.0077 581.906 66.4277 581.747C66.8524 581.588 67.1534 581.434 67.3307 581.285L67.8557 582.314C67.6457 582.501 67.2794 582.69 66.7567 582.881C66.2387 583.072 65.6157 583.168 64.8877 583.168C64.2064 583.168 63.574 583.047 62.9907 582.804C62.4074 582.561 61.8964 582.223 61.4577 581.789C61.0237 581.355 60.683 580.849 60.4357 580.27C60.193 579.691 60.0717 579.066 60.0717 578.394C60.0717 577.722 60.193 577.094 60.4357 576.511C60.6784 575.928 61.0167 575.419 61.4507 574.985C61.8894 574.546 62.4004 574.206 62.9837 573.963C63.5717 573.716 64.2064 573.592 64.8877 573.592C65.6157 573.592 66.2387 573.688 66.7567 573.879C67.2794 574.07 67.6457 574.259 67.8557 574.446L67.3307 575.475C67.1534 575.321 66.8524 575.167 66.4277 575.013C66.0077 574.854 65.5107 574.775 64.9367 574.775C64.414 574.775 63.9357 574.864 63.5017 575.041C63.0677 575.218 62.6897 575.47 62.3677 575.797C62.0504 576.119 61.803 576.499 61.6257 576.938C61.453 577.377 61.3667 577.855 61.3667 578.373C61.3667 578.896 61.453 579.379 61.6257 579.822C61.803 580.261 62.0504 580.643 62.3677 580.97C62.6897 581.292 63.0677 581.542 63.5017 581.719C63.9357 581.896 64.414 581.985 64.9367 581.985ZM71.9204 583.168C71.3277 583.168 70.8004 583.035 70.3384 582.769C69.8811 582.503 69.5217 582.144 69.2604 581.691C68.9991 581.234 68.8684 580.718 68.8684 580.144C68.8684 579.57 68.9991 579.052 69.2604 578.59C69.5217 578.128 69.8811 577.762 70.3384 577.491C70.8004 577.22 71.3277 577.085 71.9204 577.085C72.5084 577.085 73.0287 577.22 73.4814 577.491C73.9387 577.762 74.2957 578.128 74.5524 578.59C74.8091 579.052 74.9374 579.57 74.9374 580.144C74.9374 580.718 74.8091 581.234 74.5524 581.691C74.2957 582.144 73.9387 582.503 73.4814 582.769C73.0287 583.035 72.5084 583.168 71.9204 583.168ZM71.9204 582.125C72.2937 582.125 72.6181 582.039 72.8934 581.866C73.1734 581.693 73.3904 581.458 73.5444 581.159C73.6984 580.856 73.7754 580.515 73.7754 580.137C73.7754 579.759 73.6984 579.418 73.5444 579.115C73.3904 578.812 73.1734 578.571 72.8934 578.394C72.6181 578.217 72.2937 578.128 71.9204 578.128C71.5424 578.128 71.2134 578.217 70.9334 578.394C70.6534 578.571 70.4341 578.812 70.2754 579.115C70.1214 579.418 70.0444 579.759 70.0444 580.137C70.0444 580.515 70.1214 580.856 70.2754 581.159C70.4341 581.458 70.6534 581.693 70.9334 581.866C71.2134 582.039 71.5424 582.125 71.9204 582.125ZM79.5007 577.085C79.8787 577.085 80.2451 577.164 80.5997 577.323C80.9591 577.482 81.2531 577.734 81.4817 578.079C81.7151 578.42 81.8317 578.865 81.8317 579.416V583H80.5997V579.654C80.5997 579.085 80.4667 578.672 80.2007 578.415C79.9347 578.154 79.5917 578.023 79.1717 578.023C78.8964 578.023 78.6304 578.102 78.3737 578.261C78.1217 578.415 77.9141 578.63 77.7507 578.905C77.5874 579.176 77.5057 579.484 77.5057 579.829V583H76.2877V577.253H77.5057V578.275C77.5477 578.116 77.6621 577.944 77.8487 577.757C78.0354 577.57 78.2734 577.412 78.5627 577.281C78.8521 577.15 79.1647 577.085 79.5007 577.085ZM86.6375 577.085C87.0155 577.085 87.3818 577.164 87.7365 577.323C88.0958 577.482 88.3898 577.734 88.6185 578.079C88.8518 578.42 88.9685 578.865 88.9685 579.416V583H87.7365V579.654C87.7365 579.085 87.6035 578.672 87.3375 578.415C87.0715 578.154 86.7285 578.023 86.3085 578.023C86.0331 578.023 85.7671 578.102 85.5105 578.261C85.2585 578.415 85.0508 578.63 84.8875 578.905C84.7241 579.176 84.6425 579.484 84.6425 579.829V583H83.4245V577.253H84.6425V578.275C84.6845 578.116 84.7988 577.944 84.9855 577.757C85.1721 577.57 85.4101 577.412 85.6995 577.281C85.9888 577.15 86.3015 577.085 86.6375 577.085ZM91.3242 580.375C91.3288 580.72 91.4035 581.035 91.5482 581.32C91.6928 581.605 91.9075 581.831 92.1922 581.999C92.4815 582.167 92.8362 582.251 93.2562 582.251C93.6108 582.251 93.9118 582.2 94.1592 582.097C94.4112 581.99 94.6165 581.864 94.7752 581.719C94.9338 581.57 95.0482 581.437 95.1182 581.32L95.7132 582.055C95.5592 582.279 95.3702 582.475 95.1462 582.643C94.9268 582.811 94.6585 582.939 94.3412 583.028C94.0238 583.121 93.6365 583.168 93.1792 583.168C92.5632 583.168 92.0288 583.037 91.5762 582.776C91.1282 582.51 90.7828 582.144 90.5402 581.677C90.2975 581.206 90.1762 580.667 90.1762 580.06C90.1762 579.5 90.2905 578.996 90.5192 578.548C90.7478 578.095 91.0792 577.738 91.5132 577.477C91.9518 577.216 92.4792 577.085 93.0952 577.085C93.6598 577.085 94.1498 577.204 94.5652 577.442C94.9852 577.675 95.3095 578.007 95.5382 578.436C95.7715 578.865 95.8882 579.379 95.8882 579.976C95.8882 580.013 95.8858 580.081 95.8812 580.179C95.8765 580.272 95.8718 580.338 95.8672 580.375H91.3242ZM94.7262 579.458C94.7215 579.267 94.6655 579.057 94.5582 578.828C94.4555 578.599 94.2875 578.403 94.0542 578.24C93.8208 578.077 93.5058 577.995 93.1092 577.995C92.6985 577.995 92.3672 578.074 92.1152 578.233C91.8678 578.392 91.6858 578.585 91.5692 578.814C91.4525 579.038 91.3848 579.253 91.3662 579.458H94.7262ZM99.942 582.16C100.306 582.16 100.6 582.102 100.824 581.985C101.048 581.868 101.188 581.784 101.244 581.733L101.839 582.608C101.792 582.65 101.68 582.718 101.503 582.811C101.33 582.9 101.106 582.981 100.831 583.056C100.56 583.131 100.252 583.168 99.907 583.168C99.3797 583.168 98.8897 583.051 98.437 582.818C97.9844 582.58 97.618 582.235 97.338 581.782C97.0627 581.329 96.925 580.776 96.925 580.123C96.925 579.465 97.0627 578.912 97.338 578.464C97.618 578.011 97.9844 577.668 98.437 577.435C98.8897 577.202 99.3797 577.085 99.907 577.085C100.248 577.085 100.551 577.127 100.817 577.211C101.083 577.29 101.302 577.379 101.475 577.477C101.648 577.575 101.762 577.65 101.818 577.701L101.216 578.576C101.179 578.539 101.106 578.483 100.999 578.408C100.896 578.329 100.756 578.256 100.579 578.191C100.402 578.126 100.189 578.093 99.942 578.093C99.6434 578.093 99.3517 578.175 99.067 578.338C98.787 578.497 98.556 578.728 98.374 579.031C98.192 579.334 98.101 579.698 98.101 580.123C98.101 580.548 98.192 580.914 98.374 581.222C98.556 581.525 98.787 581.759 99.067 581.922C99.3517 582.081 99.6434 582.16 99.942 582.16ZM102.499 577.253H103.626V574.894H104.837V577.253H106.314V578.296H104.837V581.138C104.837 581.474 104.895 581.721 105.012 581.88C105.133 582.039 105.294 582.118 105.495 582.118C105.672 582.118 105.81 582.085 105.908 582.02C106.006 581.955 106.064 581.91 106.083 581.887L106.566 582.783C106.538 582.806 106.463 582.851 106.342 582.916C106.221 582.981 106.064 583.04 105.873 583.091C105.682 583.142 105.458 583.168 105.201 583.168C104.753 583.168 104.377 583.033 104.074 582.762C103.775 582.487 103.626 582.053 103.626 581.46V578.296H102.499V577.253ZM108.387 580.375C108.391 580.72 108.466 581.035 108.611 581.32C108.755 581.605 108.97 581.831 109.255 581.999C109.544 582.167 109.899 582.251 110.319 582.251C110.673 582.251 110.974 582.2 111.222 582.097C111.474 581.99 111.679 581.864 111.838 581.719C111.996 581.57 112.111 581.437 112.181 581.32L112.776 582.055C112.622 582.279 112.433 582.475 112.209 582.643C111.989 582.811 111.721 582.939 111.404 583.028C111.086 583.121 110.699 583.168 110.242 583.168C109.626 583.168 109.091 583.037 108.639 582.776C108.191 582.51 107.845 582.144 107.603 581.677C107.36 581.206 107.239 580.667 107.239 580.06C107.239 579.5 107.353 578.996 107.582 578.548C107.81 578.095 108.142 577.738 108.576 577.477C109.014 577.216 109.542 577.085 110.158 577.085C110.722 577.085 111.212 577.204 111.628 577.442C112.048 577.675 112.372 578.007 112.601 578.436C112.834 578.865 112.951 579.379 112.951 579.976C112.951 580.013 112.948 580.081 112.944 580.179C112.939 580.272 112.934 580.338 112.93 580.375H108.387ZM111.789 579.458C111.784 579.267 111.728 579.057 111.621 578.828C111.518 578.599 111.35 578.403 111.117 578.24C110.883 578.077 110.568 577.995 110.172 577.995C109.761 577.995 109.43 578.074 109.178 578.233C108.93 578.392 108.748 578.585 108.632 578.814C108.515 579.038 108.447 579.253 108.429 579.458H111.789ZM114.072 577.253H119.084L115.647 582.076H118.944V583H113.68L117.117 578.17H114.072V577.253ZM120.216 580.34V579.283H123.821V580.34H120.216ZM124.987 577.253H126.296L128.172 581.873L130.048 577.253H131.35L128.893 583H127.458L124.987 577.253ZM135.153 583.168C134.56 583.168 134.033 583.035 133.571 582.769C133.113 582.503 132.754 582.144 132.493 581.691C132.231 581.234 132.101 580.718 132.101 580.144C132.101 579.57 132.231 579.052 132.493 578.59C132.754 578.128 133.113 577.762 133.571 577.491C134.033 577.22 134.56 577.085 135.153 577.085C135.741 577.085 136.261 577.22 136.714 577.491C137.171 577.762 137.528 578.128 137.785 578.59C138.041 579.052 138.17 579.57 138.17 580.144C138.17 580.718 138.041 581.234 137.785 581.691C137.528 582.144 137.171 582.503 136.714 582.769C136.261 583.035 135.741 583.168 135.153 583.168ZM135.153 582.125C135.526 582.125 135.85 582.039 136.126 581.866C136.406 581.693 136.623 581.458 136.777 581.159C136.931 580.856 137.008 580.515 137.008 580.137C137.008 579.759 136.931 579.418 136.777 579.115C136.623 578.812 136.406 578.571 136.126 578.394C135.85 578.217 135.526 578.128 135.153 578.128C134.775 578.128 134.446 578.217 134.166 578.394C133.886 578.571 133.666 578.812 133.508 579.115C133.354 579.418 133.277 579.759 133.277 580.137C133.277 580.515 133.354 580.856 133.508 581.159C133.666 581.458 133.886 581.693 134.166 581.866C134.446 582.039 134.775 582.125 135.153 582.125ZM140.661 580.151C140.661 580.753 140.789 581.234 141.046 581.593C141.307 581.948 141.706 582.125 142.243 582.125C142.784 582.125 143.183 581.948 143.44 581.593C143.697 581.234 143.825 580.753 143.825 580.151V577.253H145.029V580.319C145.029 580.879 144.919 581.374 144.7 581.803C144.485 582.232 144.17 582.568 143.755 582.811C143.344 583.049 142.84 583.168 142.243 583.168C141.65 583.168 141.146 583.049 140.731 582.811C140.32 582.568 140.005 582.232 139.786 581.803C139.571 581.374 139.464 580.879 139.464 580.319V577.253H140.661V580.151ZM148.799 577.085C149.098 577.085 149.376 577.115 149.632 577.176C149.894 577.237 150.118 577.309 150.304 577.393C150.496 577.477 150.631 577.552 150.71 577.617L150.227 578.387C150.134 578.303 149.966 578.21 149.723 578.107C149.481 578 149.21 577.946 148.911 577.946C148.585 577.946 148.307 578.011 148.078 578.142C147.85 578.268 147.735 578.452 147.735 578.695C147.735 578.938 147.852 579.131 148.085 579.276C148.323 579.416 148.641 579.533 149.037 579.626C149.355 579.701 149.651 579.801 149.926 579.927C150.206 580.053 150.433 580.228 150.605 580.452C150.778 580.671 150.864 580.965 150.864 581.334C150.864 581.67 150.794 581.957 150.654 582.195C150.514 582.428 150.325 582.617 150.087 582.762C149.849 582.902 149.583 583.005 149.289 583.07C148.995 583.135 148.697 583.168 148.393 583.168C148.039 583.168 147.719 583.131 147.434 583.056C147.15 582.986 146.909 582.902 146.713 582.804C146.522 582.701 146.382 582.613 146.293 582.538L146.776 581.67C146.898 581.787 147.096 581.91 147.371 582.041C147.651 582.172 147.969 582.237 148.323 582.237C148.715 582.237 149.033 582.155 149.275 581.992C149.518 581.824 149.639 581.607 149.639 581.341C149.639 581.14 149.581 580.979 149.464 580.858C149.348 580.737 149.191 580.639 148.995 580.564C148.799 580.489 148.585 580.424 148.351 580.368C148.127 580.317 147.908 580.249 147.693 580.165C147.483 580.081 147.29 579.974 147.112 579.843C146.94 579.708 146.802 579.544 146.699 579.353C146.597 579.157 146.545 578.928 146.545 578.667C146.545 578.336 146.65 578.053 146.86 577.82C147.07 577.582 147.346 577.4 147.686 577.274C148.027 577.148 148.398 577.085 148.799 577.085ZM157.918 577.085C158.217 577.085 158.495 577.115 158.751 577.176C159.013 577.237 159.237 577.309 159.423 577.393C159.615 577.477 159.75 577.552 159.829 577.617L159.346 578.387C159.253 578.303 159.085 578.21 158.842 578.107C158.6 578 158.329 577.946 158.03 577.946C157.704 577.946 157.426 578.011 157.197 578.142C156.969 578.268 156.854 578.452 156.854 578.695C156.854 578.938 156.971 579.131 157.204 579.276C157.442 579.416 157.76 579.533 158.156 579.626C158.474 579.701 158.77 579.801 159.045 579.927C159.325 580.053 159.552 580.228 159.724 580.452C159.897 580.671 159.983 580.965 159.983 581.334C159.983 581.67 159.913 581.957 159.773 582.195C159.633 582.428 159.444 582.617 159.206 582.762C158.968 582.902 158.702 583.005 158.408 583.07C158.114 583.135 157.816 583.168 157.512 583.168C157.158 583.168 156.838 583.131 156.553 583.056C156.269 582.986 156.028 582.902 155.832 582.804C155.641 582.701 155.501 582.613 155.412 582.538L155.895 581.67C156.017 581.787 156.215 581.91 156.49 582.041C156.77 582.172 157.088 582.237 157.442 582.237C157.834 582.237 158.152 582.155 158.394 581.992C158.637 581.824 158.758 581.607 158.758 581.341C158.758 581.14 158.7 580.979 158.583 580.858C158.467 580.737 158.31 580.639 158.114 580.564C157.918 580.489 157.704 580.424 157.47 580.368C157.246 580.317 157.027 580.249 156.812 580.165C156.602 580.081 156.409 579.974 156.231 579.843C156.059 579.708 155.921 579.544 155.818 579.353C155.716 579.157 155.664 578.928 155.664 578.667C155.664 578.336 155.769 578.053 155.979 577.82C156.189 577.582 156.465 577.4 156.805 577.274C157.146 577.148 157.517 577.085 157.918 577.085ZM161.528 583V577.253H162.746V583H161.528ZM162.151 575.286C161.932 575.286 161.743 575.209 161.584 575.055C161.43 574.896 161.353 574.707 161.353 574.488C161.353 574.269 161.43 574.08 161.584 573.921C161.743 573.762 161.932 573.683 162.151 573.683C162.296 573.683 162.429 573.72 162.55 573.795C162.676 573.87 162.776 573.968 162.851 574.089C162.926 574.206 162.963 574.339 162.963 574.488C162.963 574.707 162.884 574.896 162.725 575.055C162.566 575.209 162.375 575.286 162.151 575.286ZM171.503 577.085C171.928 577.085 172.292 577.178 172.595 577.365C172.898 577.547 173.129 577.827 173.288 578.205C173.451 578.583 173.533 579.066 173.533 579.654V583H172.329V579.899C172.329 579.278 172.243 578.812 172.07 578.499C171.897 578.186 171.582 578.03 171.125 578.03C170.882 578.03 170.649 578.098 170.425 578.233C170.206 578.364 170.024 578.567 169.879 578.842C169.739 579.117 169.669 579.47 169.669 579.899V583H168.535V579.899C168.535 579.278 168.428 578.812 168.213 578.499C167.998 578.186 167.697 578.03 167.31 578.03C167.063 578.03 166.829 578.095 166.61 578.226C166.395 578.352 166.22 578.553 166.085 578.828C165.95 579.103 165.882 579.46 165.882 579.899V583H164.671V577.253H165.882V578.135C165.933 577.99 166.043 577.836 166.211 577.673C166.384 577.51 166.603 577.372 166.869 577.26C167.14 577.143 167.441 577.085 167.772 577.085C168.117 577.085 168.407 577.155 168.64 577.295C168.873 577.435 169.058 577.608 169.193 577.813C169.328 578.014 169.422 578.207 169.473 578.394C169.538 578.193 169.664 577.993 169.851 577.792C170.038 577.587 170.273 577.419 170.558 577.288C170.843 577.153 171.158 577.085 171.503 577.085ZM176.449 585.912H175.238V577.253H176.47V578.331C176.512 578.186 176.629 578.016 176.82 577.82C177.012 577.624 177.268 577.454 177.59 577.309C177.917 577.16 178.29 577.085 178.71 577.085C179.242 577.085 179.714 577.213 180.124 577.47C180.54 577.722 180.864 578.077 181.097 578.534C181.335 578.987 181.454 579.519 181.454 580.13C181.454 580.741 181.333 581.276 181.09 581.733C180.848 582.186 180.516 582.538 180.096 582.79C179.681 583.042 179.205 583.168 178.668 583.168C178.234 583.168 177.854 583.086 177.527 582.923C177.205 582.76 176.951 582.575 176.764 582.37C176.582 582.165 176.477 582.001 176.449 581.88V585.912ZM180.25 580.13C180.25 579.715 180.164 579.355 179.991 579.052C179.823 578.749 179.599 578.513 179.319 578.345C179.039 578.177 178.736 578.093 178.409 578.093C178.05 578.093 177.723 578.179 177.429 578.352C177.135 578.52 176.902 578.758 176.729 579.066C176.557 579.369 176.47 579.724 176.47 580.13C176.47 580.536 176.557 580.893 176.729 581.201C176.902 581.504 177.135 581.74 177.429 581.908C177.723 582.076 178.05 582.16 178.409 582.16C178.736 582.16 179.039 582.078 179.319 581.915C179.599 581.747 179.823 581.511 179.991 581.208C180.164 580.905 180.25 580.545 180.25 580.13ZM183.99 583H182.765V573.368H183.99V583ZM186.508 580.375C186.512 580.72 186.587 581.035 186.732 581.32C186.876 581.605 187.091 581.831 187.376 581.999C187.665 582.167 188.02 582.251 188.44 582.251C188.794 582.251 189.095 582.2 189.343 582.097C189.595 581.99 189.8 581.864 189.959 581.719C190.117 581.57 190.232 581.437 190.302 581.32L190.897 582.055C190.743 582.279 190.554 582.475 190.33 582.643C190.11 582.811 189.842 582.939 189.525 583.028C189.207 583.121 188.82 583.168 188.363 583.168C187.747 583.168 187.212 583.037 186.76 582.776C186.312 582.51 185.966 582.144 185.724 581.677C185.481 581.206 185.36 580.667 185.36 580.06C185.36 579.5 185.474 578.996 185.703 578.548C185.931 578.095 186.263 577.738 186.697 577.477C187.135 577.216 187.663 577.085 188.279 577.085C188.843 577.085 189.333 577.204 189.749 577.442C190.169 577.675 190.493 578.007 190.722 578.436C190.955 578.865 191.072 579.379 191.072 579.976C191.072 580.013 191.069 580.081 191.065 580.179C191.06 580.272 191.055 580.338 191.051 580.375H186.508ZM189.91 579.458C189.905 579.267 189.849 579.057 189.742 578.828C189.639 578.599 189.471 578.403 189.238 578.24C189.004 578.077 188.689 577.995 188.293 577.995C187.882 577.995 187.551 578.074 187.299 578.233C187.051 578.392 186.869 578.585 186.753 578.814C186.636 579.038 186.568 579.253 186.55 579.458H189.91ZM199.312 577.085C199.736 577.085 200.1 577.178 200.404 577.365C200.707 577.547 200.938 577.827 201.097 578.205C201.26 578.583 201.342 579.066 201.342 579.654V583H200.138V579.899C200.138 579.278 200.051 578.812 199.879 578.499C199.706 578.186 199.391 578.03 198.934 578.03C198.691 578.03 198.458 578.098 198.234 578.233C198.014 578.364 197.832 578.567 197.688 578.842C197.548 579.117 197.478 579.47 197.478 579.899V583H196.344V579.899C196.344 579.278 196.236 578.812 196.022 578.499C195.807 578.186 195.506 578.03 195.119 578.03C194.871 578.03 194.638 578.095 194.419 578.226C194.204 578.352 194.029 578.553 193.894 578.828C193.758 579.103 193.691 579.46 193.691 579.899V583H192.48V577.253H193.691V578.135C193.742 577.99 193.852 577.836 194.02 577.673C194.192 577.51 194.412 577.372 194.678 577.26C194.948 577.143 195.249 577.085 195.581 577.085C195.926 577.085 196.215 577.155 196.449 577.295C196.682 577.435 196.866 577.608 197.002 577.813C197.137 578.014 197.23 578.207 197.282 578.394C197.347 578.193 197.473 577.993 197.66 577.792C197.846 577.587 198.082 577.419 198.367 577.288C198.651 577.153 198.966 577.085 199.312 577.085ZM203.789 580.375C203.794 580.72 203.868 581.035 204.013 581.32C204.158 581.605 204.372 581.831 204.657 581.999C204.946 582.167 205.301 582.251 205.721 582.251C206.076 582.251 206.377 582.2 206.624 582.097C206.876 581.99 207.081 581.864 207.24 581.719C207.399 581.57 207.513 581.437 207.583 581.32L208.178 582.055C208.024 582.279 207.835 582.475 207.611 582.643C207.392 582.811 207.123 582.939 206.806 583.028C206.489 583.121 206.101 583.168 205.644 583.168C205.028 583.168 204.494 583.037 204.041 582.776C203.593 582.51 203.248 582.144 203.005 581.677C202.762 581.206 202.641 580.667 202.641 580.06C202.641 579.5 202.755 578.996 202.984 578.548C203.213 578.095 203.544 577.738 203.978 577.477C204.417 577.216 204.944 577.085 205.56 577.085C206.125 577.085 206.615 577.204 207.03 577.442C207.45 577.675 207.774 578.007 208.003 578.436C208.236 578.865 208.353 579.379 208.353 579.976C208.353 580.013 208.351 580.081 208.346 580.179C208.341 580.272 208.337 580.338 208.332 580.375H203.789ZM207.191 579.458C207.186 579.267 207.13 579.057 207.023 578.828C206.92 578.599 206.752 578.403 206.519 578.24C206.286 578.077 205.971 577.995 205.574 577.995C205.163 577.995 204.832 578.074 204.58 578.233C204.333 578.392 204.151 578.585 204.034 578.814C203.917 579.038 203.85 579.253 203.831 579.458H207.191ZM212.911 577.085C213.289 577.085 213.655 577.164 214.01 577.323C214.369 577.482 214.663 577.734 214.892 578.079C215.125 578.42 215.242 578.865 215.242 579.416V583H214.01V579.654C214.01 579.085 213.877 578.672 213.611 578.415C213.345 578.154 213.002 578.023 212.582 578.023C212.307 578.023 212.041 578.102 211.784 578.261C211.532 578.415 211.324 578.63 211.161 578.905C210.998 579.176 210.916 579.484 210.916 579.829V583H209.698V577.253H210.916V578.275C210.958 578.116 211.072 577.944 211.259 577.757C211.446 577.57 211.684 577.412 211.973 577.281C212.262 577.15 212.575 577.085 212.911 577.085ZM216.345 577.253H217.472V574.894H218.683V577.253H220.16V578.296H218.683V581.138C218.683 581.474 218.741 581.721 218.858 581.88C218.979 582.039 219.14 582.118 219.341 582.118C219.518 582.118 219.656 582.085 219.754 582.02C219.852 581.955 219.91 581.91 219.929 581.887L220.412 582.783C220.384 582.806 220.309 582.851 220.188 582.916C220.066 582.981 219.91 583.04 219.719 583.091C219.527 583.142 219.303 583.168 219.047 583.168C218.599 583.168 218.223 583.033 217.92 582.762C217.621 582.487 217.472 582.053 217.472 581.46V578.296H216.345V577.253ZM229.576 583V581.88C229.538 581.997 229.429 582.158 229.247 582.363C229.069 582.568 228.824 582.755 228.512 582.923C228.204 583.086 227.84 583.168 227.42 583.168C226.888 583.168 226.405 583.042 225.971 582.79C225.541 582.538 225.198 582.186 224.942 581.733C224.69 581.276 224.564 580.741 224.564 580.13C224.564 579.519 224.69 578.987 224.942 578.534C225.198 578.077 225.541 577.722 225.971 577.47C226.405 577.213 226.888 577.085 227.42 577.085C227.835 577.085 228.194 577.16 228.498 577.309C228.806 577.458 229.051 577.631 229.233 577.827C229.419 578.023 229.529 578.191 229.562 578.331V577.253H230.766V583H229.576ZM225.768 580.13C225.768 580.545 225.859 580.905 226.041 581.208C226.223 581.511 226.458 581.747 226.748 581.915C227.042 582.078 227.354 582.16 227.686 582.16C228.04 582.16 228.358 582.076 228.638 581.908C228.918 581.74 229.139 581.504 229.303 581.201C229.466 580.893 229.548 580.536 229.548 580.13C229.548 579.724 229.466 579.369 229.303 579.066C229.139 578.758 228.918 578.52 228.638 578.352C228.358 578.179 228.04 578.093 227.686 578.093C227.354 578.093 227.042 578.177 226.748 578.345C226.458 578.513 226.223 578.749 226.041 579.052C225.859 579.355 225.768 579.715 225.768 580.13ZM231.819 577.253H233.128L235.004 581.873L236.88 577.253H238.182L235.725 583H234.29L231.819 577.253ZM240.088 580.375C240.093 580.72 240.167 581.035 240.312 581.32C240.457 581.605 240.671 581.831 240.956 581.999C241.245 582.167 241.6 582.251 242.02 582.251C242.375 582.251 242.676 582.2 242.923 582.097C243.175 581.99 243.38 581.864 243.539 581.719C243.698 581.57 243.812 581.437 243.882 581.32L244.477 582.055C244.323 582.279 244.134 582.475 243.91 582.643C243.691 582.811 243.422 582.939 243.105 583.028C242.788 583.121 242.4 583.168 241.943 583.168C241.327 583.168 240.793 583.037 240.34 582.776C239.892 582.51 239.547 582.144 239.304 581.677C239.061 581.206 238.94 580.667 238.94 580.06C238.94 579.5 239.054 578.996 239.283 578.548C239.512 578.095 239.843 577.738 240.277 577.477C240.716 577.216 241.243 577.085 241.859 577.085C242.424 577.085 242.914 577.204 243.329 577.442C243.749 577.675 244.073 578.007 244.302 578.436C244.535 578.865 244.652 579.379 244.652 579.976C244.652 580.013 244.65 580.081 244.645 580.179C244.64 580.272 244.636 580.338 244.631 580.375H240.088ZM243.49 579.458C243.485 579.267 243.429 579.057 243.322 578.828C243.219 578.599 243.051 578.403 242.818 578.24C242.585 578.077 242.27 577.995 241.873 577.995C241.462 577.995 241.131 578.074 240.879 578.233C240.632 578.392 240.45 578.585 240.333 578.814C240.216 579.038 240.149 579.253 240.13 579.458H243.49ZM248.706 582.16C249.07 582.16 249.364 582.102 249.588 581.985C249.812 581.868 249.952 581.784 250.008 581.733L250.603 582.608C250.556 582.65 250.444 582.718 250.267 582.811C250.094 582.9 249.87 582.981 249.595 583.056C249.324 583.131 249.016 583.168 248.671 583.168C248.143 583.168 247.653 583.051 247.201 582.818C246.748 582.58 246.382 582.235 246.102 581.782C245.826 581.329 245.689 580.776 245.689 580.123C245.689 579.465 245.826 578.912 246.102 578.464C246.382 578.011 246.748 577.668 247.201 577.435C247.653 577.202 248.143 577.085 248.671 577.085C249.011 577.085 249.315 577.127 249.581 577.211C249.847 577.29 250.066 577.379 250.239 577.477C250.411 577.575 250.526 577.65 250.582 577.701L249.98 578.576C249.942 578.539 249.87 578.483 249.763 578.408C249.66 578.329 249.52 578.256 249.343 578.191C249.165 578.126 248.953 578.093 248.706 578.093C248.407 578.093 248.115 578.175 247.831 578.338C247.551 578.497 247.32 578.728 247.138 579.031C246.956 579.334 246.865 579.698 246.865 580.123C246.865 580.548 246.956 580.914 247.138 581.222C247.32 581.525 247.551 581.759 247.831 581.922C248.115 582.081 248.407 582.16 248.706 582.16ZM255.329 573.76H260.145V574.845H256.519V577.827H259.9V578.905H256.519V583H255.329V573.76ZM265.779 583V581.88C265.741 581.997 265.632 582.158 265.45 582.363C265.272 582.568 265.027 582.755 264.715 582.923C264.407 583.086 264.043 583.168 263.623 583.168C263.091 583.168 262.608 583.042 262.174 582.79C261.744 582.538 261.401 582.186 261.145 581.733C260.893 581.276 260.767 580.741 260.767 580.13C260.767 579.519 260.893 578.987 261.145 578.534C261.401 578.077 261.744 577.722 262.174 577.47C262.608 577.213 263.091 577.085 263.623 577.085C264.038 577.085 264.397 577.16 264.701 577.309C265.009 577.458 265.254 577.631 265.436 577.827C265.622 578.023 265.732 578.191 265.765 578.331V577.253H266.969V583H265.779ZM261.971 580.13C261.971 580.545 262.062 580.905 262.244 581.208C262.426 581.511 262.661 581.747 262.951 581.915C263.245 582.078 263.557 582.16 263.889 582.16C264.243 582.16 264.561 582.076 264.841 581.908C265.121 581.74 265.342 581.504 265.506 581.201C265.669 580.893 265.751 580.536 265.751 580.13C265.751 579.724 265.669 579.369 265.506 579.066C265.342 578.758 265.121 578.52 264.841 578.352C264.561 578.179 264.243 578.093 263.889 578.093C263.557 578.093 263.245 578.177 262.951 578.345C262.661 578.513 262.426 578.749 262.244 579.052C262.062 579.355 261.971 579.715 261.971 580.13ZM271.305 582.16C271.669 582.16 271.963 582.102 272.187 581.985C272.411 581.868 272.551 581.784 272.607 581.733L273.202 582.608C273.156 582.65 273.044 582.718 272.866 582.811C272.694 582.9 272.47 582.981 272.194 583.056C271.924 583.131 271.616 583.168 271.27 583.168C270.743 583.168 270.253 583.051 269.8 582.818C269.348 582.58 268.981 582.235 268.701 581.782C268.426 581.329 268.288 580.776 268.288 580.123C268.288 579.465 268.426 578.912 268.701 578.464C268.981 578.011 269.348 577.668 269.8 577.435C270.253 577.202 270.743 577.085 271.27 577.085C271.611 577.085 271.914 577.127 272.18 577.211C272.446 577.29 272.666 577.379 272.838 577.477C273.011 577.575 273.125 577.65 273.181 577.701L272.579 578.576C272.542 578.539 272.47 578.483 272.362 578.408C272.26 578.329 272.12 578.256 271.942 578.191C271.765 578.126 271.553 578.093 271.305 578.093C271.007 578.093 270.715 578.175 270.43 578.338C270.15 578.497 269.919 578.728 269.737 579.031C269.555 579.334 269.464 579.698 269.464 580.123C269.464 580.548 269.555 580.914 269.737 581.222C269.919 581.525 270.15 581.759 270.43 581.922C270.715 582.081 271.007 582.16 271.305 582.16ZM275.17 580.375C275.175 580.72 275.249 581.035 275.394 581.32C275.539 581.605 275.753 581.831 276.038 581.999C276.327 582.167 276.682 582.251 277.102 582.251C277.457 582.251 277.758 582.2 278.005 582.097C278.257 581.99 278.462 581.864 278.621 581.719C278.78 581.57 278.894 581.437 278.964 581.32L279.559 582.055C279.405 582.279 279.216 582.475 278.992 582.643C278.773 582.811 278.504 582.939 278.187 583.028C277.87 583.121 277.482 583.168 277.025 583.168C276.409 583.168 275.875 583.037 275.422 582.776C274.974 582.51 274.629 582.144 274.386 581.677C274.143 581.206 274.022 580.667 274.022 580.06C274.022 579.5 274.136 578.996 274.365 578.548C274.594 578.095 274.925 577.738 275.359 577.477C275.798 577.216 276.325 577.085 276.941 577.085C277.506 577.085 277.996 577.204 278.411 577.442C278.831 577.675 279.155 578.007 279.384 578.436C279.617 578.865 279.734 579.379 279.734 579.976C279.734 580.013 279.732 580.081 279.727 580.179C279.722 580.272 279.718 580.338 279.713 580.375H275.17ZM278.572 579.458C278.567 579.267 278.511 579.057 278.404 578.828C278.301 578.599 278.133 578.403 277.9 578.24C277.667 578.077 277.352 577.995 276.955 577.995C276.544 577.995 276.213 578.074 275.961 578.233C275.714 578.392 275.532 578.585 275.415 578.814C275.298 579.038 275.231 579.253 275.212 579.458H278.572ZM284.705 573.76H285.909V583H284.705V573.76ZM287.84 573.76H290.017C291.001 573.76 291.811 573.958 292.446 574.355C293.085 574.747 293.559 575.291 293.867 575.986C294.175 576.681 294.329 577.477 294.329 578.373C294.329 579.274 294.175 580.072 293.867 580.767C293.559 581.462 293.087 582.008 292.453 582.405C291.818 582.802 291.006 583 290.017 583H287.84V573.76ZM289.03 574.852V581.908H289.919C290.647 581.908 291.242 581.756 291.704 581.453C292.166 581.15 292.506 580.734 292.726 580.207C292.95 579.675 293.064 579.068 293.069 578.387C293.069 577.701 292.959 577.094 292.74 576.567C292.52 576.035 292.177 575.617 291.711 575.314C291.244 575.006 290.647 574.852 289.919 574.852H289.03ZM300.57 583H299.345V573.368H300.57V583ZM306.945 583V581.88C306.908 581.997 306.798 582.158 306.616 582.363C306.439 582.568 306.194 582.755 305.881 582.923C305.573 583.086 305.209 583.168 304.789 583.168C304.257 583.168 303.774 583.042 303.34 582.79C302.911 582.538 302.568 582.186 302.311 581.733C302.059 581.276 301.933 580.741 301.933 580.13C301.933 579.519 302.059 578.987 302.311 578.534C302.568 578.077 302.911 577.722 303.34 577.47C303.774 577.213 304.257 577.085 304.789 577.085C305.204 577.085 305.564 577.16 305.867 577.309C306.175 577.458 306.42 577.631 306.602 577.827C306.789 578.023 306.898 578.191 306.931 578.331V577.253H308.135V583H306.945ZM303.137 580.13C303.137 580.545 303.228 580.905 303.41 581.208C303.592 581.511 303.828 581.747 304.117 581.915C304.411 582.078 304.724 582.16 305.055 582.16C305.41 582.16 305.727 582.076 306.007 581.908C306.287 581.74 306.509 581.504 306.672 581.201C306.835 580.893 306.917 580.536 306.917 580.13C306.917 579.724 306.835 579.369 306.672 579.066C306.509 578.758 306.287 578.52 306.007 578.352C305.727 578.179 305.41 578.093 305.055 578.093C304.724 578.093 304.411 578.177 304.117 578.345C303.828 578.513 303.592 578.749 303.41 579.052C303.228 579.355 303.137 579.715 303.137 580.13ZM314.481 585.912H313.27V577.253H314.502V578.331C314.544 578.186 314.66 578.016 314.852 577.82C315.043 577.624 315.3 577.454 315.622 577.309C315.948 577.16 316.322 577.085 316.742 577.085C317.274 577.085 317.745 577.213 318.156 577.47C318.571 577.722 318.895 578.077 319.129 578.534C319.367 578.987 319.486 579.519 319.486 580.13C319.486 580.741 319.364 581.276 319.122 581.733C318.879 582.186 318.548 582.538 318.128 582.79C317.712 583.042 317.236 583.168 316.7 583.168C316.266 583.168 315.885 583.086 315.559 582.923C315.237 582.76 314.982 582.575 314.796 582.37C314.614 582.165 314.509 582.001 314.481 581.88V585.912ZM318.282 580.13C318.282 579.715 318.195 579.355 318.023 579.052C317.855 578.749 317.631 578.513 317.351 578.345C317.071 578.177 316.767 578.093 316.441 578.093C316.081 578.093 315.755 578.179 315.461 578.352C315.167 578.52 314.933 578.758 314.761 579.066C314.588 579.369 314.502 579.724 314.502 580.13C314.502 580.536 314.588 580.893 314.761 581.201C314.933 581.504 315.167 581.74 315.461 581.908C315.755 582.076 316.081 582.16 316.441 582.16C316.767 582.16 317.071 582.078 317.351 581.915C317.631 581.747 317.855 581.511 318.023 581.208C318.195 580.905 318.282 580.545 318.282 580.13ZM321.952 583H320.741V577.253H321.952V578.247H321.917C321.94 578.126 322.026 577.974 322.176 577.792C322.325 577.61 322.53 577.447 322.792 577.302C323.053 577.157 323.366 577.085 323.73 577.085C323.996 577.085 324.229 577.122 324.43 577.197C324.635 577.267 324.78 577.337 324.864 577.407L324.367 578.415C324.301 578.35 324.187 578.284 324.024 578.219C323.86 578.149 323.657 578.114 323.415 578.114C323.107 578.114 322.843 578.21 322.624 578.401C322.404 578.592 322.236 578.823 322.12 579.094C322.008 579.36 321.952 579.607 321.952 579.836V583ZM328.186 583.168C327.593 583.168 327.066 583.035 326.604 582.769C326.147 582.503 325.787 582.144 325.526 581.691C325.265 581.234 325.134 580.718 325.134 580.144C325.134 579.57 325.265 579.052 325.526 578.59C325.787 578.128 326.147 577.762 326.604 577.491C327.066 577.22 327.593 577.085 328.186 577.085C328.774 577.085 329.294 577.22 329.747 577.491C330.204 577.762 330.561 578.128 330.818 578.59C331.075 579.052 331.203 579.57 331.203 580.144C331.203 580.718 331.075 581.234 330.818 581.691C330.561 582.144 330.204 582.503 329.747 582.769C329.294 583.035 328.774 583.168 328.186 583.168ZM328.186 582.125C328.559 582.125 328.884 582.039 329.159 581.866C329.439 581.693 329.656 581.458 329.81 581.159C329.964 580.856 330.041 580.515 330.041 580.137C330.041 579.759 329.964 579.418 329.81 579.115C329.656 578.812 329.439 578.571 329.159 578.394C328.884 578.217 328.559 578.128 328.186 578.128C327.808 578.128 327.479 578.217 327.199 578.394C326.919 578.571 326.7 578.812 326.541 579.115C326.387 579.418 326.31 579.759 326.31 580.137C326.31 580.515 326.387 580.856 326.541 581.159C326.7 581.458 326.919 581.693 327.199 581.866C327.479 582.039 327.808 582.125 328.186 582.125ZM335.262 582.16C335.626 582.16 335.92 582.102 336.144 581.985C336.368 581.868 336.508 581.784 336.564 581.733L337.159 582.608C337.113 582.65 337.001 582.718 336.823 582.811C336.651 582.9 336.427 582.981 336.151 583.056C335.881 583.131 335.573 583.168 335.227 583.168C334.7 583.168 334.21 583.051 333.757 582.818C333.305 582.58 332.938 582.235 332.658 581.782C332.383 581.329 332.245 580.776 332.245 580.123C332.245 579.465 332.383 578.912 332.658 578.464C332.938 578.011 333.305 577.668 333.757 577.435C334.21 577.202 334.7 577.085 335.227 577.085C335.568 577.085 335.871 577.127 336.137 577.211C336.403 577.29 336.623 577.379 336.795 577.477C336.968 577.575 337.082 577.65 337.138 577.701L336.536 578.576C336.499 578.539 336.427 578.483 336.319 578.408C336.217 578.329 336.077 578.256 335.899 578.191C335.722 578.126 335.51 578.093 335.262 578.093C334.964 578.093 334.672 578.175 334.387 578.338C334.107 578.497 333.876 578.728 333.694 579.031C333.512 579.334 333.421 579.698 333.421 580.123C333.421 580.548 333.512 580.914 333.694 581.222C333.876 581.525 334.107 581.759 334.387 581.922C334.672 582.081 334.964 582.16 335.262 582.16ZM341.619 577.085C341.997 577.085 342.363 577.164 342.718 577.323C343.077 577.482 343.371 577.734 343.6 578.079C343.833 578.42 343.95 578.865 343.95 579.416V583H342.718V579.654C342.718 579.085 342.587 578.672 342.326 578.415C342.069 578.154 341.731 578.023 341.311 578.023C341.031 578.023 340.763 578.102 340.506 578.261C340.249 578.415 340.037 578.63 339.869 578.905C339.706 579.176 339.624 579.484 339.624 579.829V583H338.392V573.368H339.624V578.275C339.666 578.116 339.778 577.944 339.96 577.757C340.147 577.57 340.385 577.412 340.674 577.281C340.963 577.15 341.278 577.085 341.619 577.085ZM350.216 583V581.88C350.179 581.997 350.069 582.158 349.887 582.363C349.71 582.568 349.465 582.755 349.152 582.923C348.844 583.086 348.48 583.168 348.06 583.168C347.528 583.168 347.045 583.042 346.611 582.79C346.182 582.538 345.839 582.186 345.582 581.733C345.33 581.276 345.204 580.741 345.204 580.13C345.204 579.519 345.33 578.987 345.582 578.534C345.839 578.077 346.182 577.722 346.611 577.47C347.045 577.213 347.528 577.085 348.06 577.085C348.476 577.085 348.835 577.16 349.138 577.309C349.446 577.458 349.691 577.631 349.873 577.827C350.06 578.023 350.17 578.191 350.202 578.331V577.253H351.406V583H350.216ZM346.408 580.13C346.408 580.545 346.499 580.905 346.681 581.208C346.863 581.511 347.099 581.747 347.388 581.915C347.682 582.078 347.995 582.16 348.326 582.16C348.681 582.16 348.998 582.076 349.278 581.908C349.558 581.74 349.78 581.504 349.943 581.201C350.107 580.893 350.188 580.536 350.188 580.13C350.188 579.724 350.107 579.369 349.943 579.066C349.78 578.758 349.558 578.52 349.278 578.352C348.998 578.179 348.681 578.093 348.326 578.093C347.995 578.093 347.682 578.177 347.388 578.345C347.099 578.513 346.863 578.749 346.681 579.052C346.499 579.355 346.408 579.715 346.408 580.13ZM353.167 583V577.253H354.385V583H353.167ZM353.79 575.286C353.57 575.286 353.381 575.209 353.223 575.055C353.069 574.896 352.992 574.707 352.992 574.488C352.992 574.269 353.069 574.08 353.223 573.921C353.381 573.762 353.57 573.683 353.79 573.683C353.934 573.683 354.067 573.72 354.189 573.795C354.315 573.87 354.415 573.968 354.49 574.089C354.564 574.206 354.602 574.339 354.602 574.488C354.602 574.707 354.522 574.896 354.364 575.055C354.205 575.209 354.014 575.286 353.79 575.286ZM359.46 577.085C359.838 577.085 360.204 577.164 360.559 577.323C360.918 577.482 361.212 577.734 361.441 578.079C361.674 578.42 361.791 578.865 361.791 579.416V583H360.559V579.654C360.559 579.085 360.426 578.672 360.16 578.415C359.894 578.154 359.551 578.023 359.131 578.023C358.855 578.023 358.589 578.102 358.333 578.261C358.081 578.415 357.873 578.63 357.71 578.905C357.546 579.176 357.465 579.484 357.465 579.829V583H356.247V577.253H357.465V578.275C357.507 578.116 357.621 577.944 357.808 577.757C357.994 577.57 358.232 577.412 358.522 577.281C358.811 577.15 359.124 577.085 359.46 577.085ZM364.146 580.375C364.151 580.72 364.226 581.035 364.37 581.32C364.515 581.605 364.73 581.831 365.014 581.999C365.304 582.167 365.658 582.251 366.078 582.251C366.433 582.251 366.734 582.2 366.981 582.097C367.233 581.99 367.439 581.864 367.597 581.719C367.756 581.57 367.87 581.437 367.94 581.32L368.535 582.055C368.381 582.279 368.192 582.475 367.968 582.643C367.749 582.811 367.481 582.939 367.163 583.028C366.846 583.121 366.459 583.168 366.001 583.168C365.385 583.168 364.851 583.037 364.398 582.776C363.95 582.51 363.605 582.144 363.362 581.677C363.12 581.206 362.998 580.667 362.998 580.06C362.998 579.5 363.113 578.996 363.341 578.548C363.57 578.095 363.901 577.738 364.335 577.477C364.774 577.216 365.301 577.085 365.917 577.085C366.482 577.085 366.972 577.204 367.387 577.442C367.807 577.675 368.132 578.007 368.36 578.436C368.594 578.865 368.71 579.379 368.71 579.976C368.71 580.013 368.708 580.081 368.703 580.179C368.699 580.272 368.694 580.338 368.689 580.375H364.146ZM367.548 579.458C367.544 579.267 367.488 579.057 367.38 578.828C367.278 578.599 367.11 578.403 366.876 578.24C366.643 578.077 366.328 577.995 365.931 577.995C365.521 577.995 365.189 578.074 364.937 578.233C364.69 578.392 364.508 578.585 364.391 578.814C364.275 579.038 364.207 579.253 364.188 579.458H367.548ZM204.469 590.253H205.645V588.622C205.645 588.039 205.746 587.57 205.946 587.215C206.152 586.86 206.411 586.604 206.723 586.445C207.041 586.282 207.365 586.2 207.696 586.2C208.098 586.2 208.406 586.256 208.62 586.368C208.84 586.48 208.97 586.555 209.012 586.592L208.522 587.523C208.499 587.495 208.427 587.444 208.305 587.369C208.184 587.294 208.018 587.257 207.808 587.257C207.654 587.257 207.505 587.294 207.36 587.369C207.216 587.444 207.094 587.588 206.996 587.803C206.898 588.018 206.849 588.337 206.849 588.762V590.253H208.487V591.296H206.849V596H205.645V591.296H204.469V590.253ZM212.249 596.168C211.656 596.168 211.129 596.035 210.667 595.769C210.209 595.503 209.85 595.144 209.589 594.691C209.327 594.234 209.197 593.718 209.197 593.144C209.197 592.57 209.327 592.052 209.589 591.59C209.85 591.128 210.209 590.762 210.667 590.491C211.129 590.22 211.656 590.085 212.249 590.085C212.837 590.085 213.357 590.22 213.81 590.491C214.267 590.762 214.624 591.128 214.881 591.59C215.137 592.052 215.266 592.57 215.266 593.144C215.266 593.718 215.137 594.234 214.881 594.691C214.624 595.144 214.267 595.503 213.81 595.769C213.357 596.035 212.837 596.168 212.249 596.168ZM212.249 595.125C212.622 595.125 212.946 595.039 213.222 594.866C213.502 594.693 213.719 594.458 213.873 594.159C214.027 593.856 214.104 593.515 214.104 593.137C214.104 592.759 214.027 592.418 213.873 592.115C213.719 591.812 213.502 591.571 213.222 591.394C212.946 591.217 212.622 591.128 212.249 591.128C211.871 591.128 211.542 591.217 211.262 591.394C210.982 591.571 210.762 591.812 210.604 592.115C210.45 592.418 210.373 592.759 210.373 593.137C210.373 593.515 210.45 593.856 210.604 594.159C210.762 594.458 210.982 594.693 211.262 594.866C211.542 595.039 211.871 595.125 212.249 595.125ZM216.749 596V590.253H217.967V596H216.749ZM217.372 588.286C217.153 588.286 216.964 588.209 216.805 588.055C216.651 587.896 216.574 587.707 216.574 587.488C216.574 587.269 216.651 587.08 216.805 586.921C216.964 586.762 217.153 586.683 217.372 586.683C217.517 586.683 217.65 586.72 217.771 586.795C217.897 586.87 217.997 586.968 218.072 587.089C218.147 587.206 218.184 587.339 218.184 587.488C218.184 587.707 218.105 587.896 217.946 588.055C217.787 588.209 217.596 588.286 217.372 588.286ZM221.985 590.085C222.283 590.085 222.561 590.115 222.818 590.176C223.079 590.237 223.303 590.309 223.49 590.393C223.681 590.477 223.816 590.552 223.896 590.617L223.413 591.387C223.319 591.303 223.151 591.21 222.909 591.107C222.666 591 222.395 590.946 222.097 590.946C221.77 590.946 221.492 591.011 221.264 591.142C221.035 591.268 220.921 591.452 220.921 591.695C220.921 591.938 221.037 592.131 221.271 592.276C221.509 592.416 221.826 592.533 222.223 592.626C222.54 592.701 222.836 592.801 223.112 592.927C223.392 593.053 223.618 593.228 223.791 593.452C223.963 593.671 224.05 593.965 224.05 594.334C224.05 594.67 223.98 594.957 223.84 595.195C223.7 595.428 223.511 595.617 223.273 595.762C223.035 595.902 222.769 596.005 222.475 596.07C222.181 596.135 221.882 596.168 221.579 596.168C221.224 596.168 220.904 596.131 220.62 596.056C220.335 595.986 220.095 595.902 219.899 595.804C219.707 595.701 219.567 595.613 219.479 595.538L219.962 594.67C220.083 594.787 220.281 594.91 220.557 595.041C220.837 595.172 221.154 595.237 221.509 595.237C221.901 595.237 222.218 595.155 222.461 594.992C222.703 594.824 222.825 594.607 222.825 594.341C222.825 594.14 222.766 593.979 222.65 593.858C222.533 593.737 222.377 593.639 222.181 593.564C221.985 593.489 221.77 593.424 221.537 593.368C221.313 593.317 221.093 593.249 220.879 593.165C220.669 593.081 220.475 592.974 220.298 592.843C220.125 592.708 219.987 592.544 219.885 592.353C219.782 592.157 219.731 591.928 219.731 591.667C219.731 591.336 219.836 591.053 220.046 590.82C220.256 590.582 220.531 590.4 220.872 590.274C221.212 590.148 221.583 590.085 221.985 590.085Z" fill="#0E3E3E"/>
<path id="Configurez Face ID" d="M121.884 535C121.884 533.627 122.19 532.4 122.804 531.32C123.43 530.227 124.277 529.38 125.344 528.78C126.424 528.167 127.63 527.86 128.964 527.86C130.524 527.86 131.89 528.26 133.064 529.06C134.237 529.86 135.057 530.967 135.524 532.38H132.304C131.984 531.713 131.53 531.213 130.944 530.88C130.37 530.547 129.704 530.38 128.944 530.38C128.13 530.38 127.404 530.573 126.764 530.96C126.137 531.333 125.644 531.867 125.284 532.56C124.937 533.253 124.764 534.067 124.764 535C124.764 535.92 124.937 536.733 125.284 537.44C125.644 538.133 126.137 538.673 126.764 539.06C127.404 539.433 128.13 539.62 128.944 539.62C129.704 539.62 130.37 539.453 130.944 539.12C131.53 538.773 131.984 538.267 132.304 537.6H135.524C135.057 539.027 134.237 540.14 133.064 540.94C131.904 541.727 130.537 542.12 128.964 542.12C127.63 542.12 126.424 541.82 125.344 541.22C124.277 540.607 123.43 539.76 122.804 538.68C122.19 537.6 121.884 536.373 121.884 535ZM142.835 542.18C141.768 542.18 140.808 541.947 139.955 541.48C139.102 541 138.428 540.327 137.935 539.46C137.455 538.593 137.215 537.593 137.215 536.46C137.215 535.327 137.462 534.327 137.955 533.46C138.462 532.593 139.148 531.927 140.015 531.46C140.882 530.98 141.848 530.74 142.915 530.74C143.982 530.74 144.948 530.98 145.815 531.46C146.682 531.927 147.362 532.593 147.855 533.46C148.362 534.327 148.615 535.327 148.615 536.46C148.615 537.593 148.355 538.593 147.835 539.46C147.328 540.327 146.635 541 145.755 541.48C144.888 541.947 143.915 542.18 142.835 542.18ZM142.835 539.74C143.342 539.74 143.815 539.62 144.255 539.38C144.708 539.127 145.068 538.753 145.335 538.26C145.602 537.767 145.735 537.167 145.735 536.46C145.735 535.407 145.455 534.6 144.895 534.04C144.348 533.467 143.675 533.18 142.875 533.18C142.075 533.18 141.402 533.467 140.855 534.04C140.322 534.6 140.055 535.407 140.055 536.46C140.055 537.513 140.315 538.327 140.835 538.9C141.368 539.46 142.035 539.74 142.835 539.74ZM156.809 530.76C158.129 530.76 159.196 531.18 160.009 532.02C160.822 532.847 161.229 534.007 161.229 535.5V542H158.429V535.88C158.429 535 158.209 534.327 157.769 533.86C157.329 533.38 156.729 533.14 155.969 533.14C155.196 533.14 154.582 533.38 154.129 533.86C153.689 534.327 153.469 535 153.469 535.88V542H150.669V530.92H153.469V532.3C153.842 531.82 154.316 531.447 154.889 531.18C155.476 530.9 156.116 530.76 156.809 530.76ZM168.972 533.22H167.032V542H164.192V533.22H162.932V530.92H164.192V530.36C164.192 529 164.578 528 165.352 527.36C166.125 526.72 167.292 526.42 168.852 526.46V528.82C168.172 528.807 167.698 528.92 167.432 529.16C167.165 529.4 167.032 529.833 167.032 530.46V530.92H168.972V533.22ZM172.206 529.6C171.713 529.6 171.3 529.447 170.966 529.14C170.646 528.82 170.486 528.427 170.486 527.96C170.486 527.493 170.646 527.107 170.966 526.8C171.3 526.48 171.713 526.32 172.206 526.32C172.7 526.32 173.106 526.48 173.426 526.8C173.76 527.107 173.926 527.493 173.926 527.96C173.926 528.427 173.76 528.82 173.426 529.14C173.106 529.447 172.7 529.6 172.206 529.6ZM173.586 530.92V542H170.786V530.92H173.586ZM180.693 530.74C181.519 530.74 182.246 530.907 182.873 531.24C183.499 531.56 183.993 531.98 184.353 532.5V530.92H187.173V542.08C187.173 543.107 186.966 544.02 186.553 544.82C186.139 545.633 185.519 546.273 184.693 546.74C183.866 547.22 182.866 547.46 181.693 547.46C180.119 547.46 178.826 547.093 177.813 546.36C176.813 545.627 176.246 544.627 176.113 543.36H178.893C179.039 543.867 179.353 544.267 179.833 544.56C180.326 544.867 180.919 545.02 181.613 545.02C182.426 545.02 183.086 544.773 183.593 544.28C184.099 543.8 184.353 543.067 184.353 542.08V540.36C183.993 540.88 183.493 541.313 182.853 541.66C182.226 542.007 181.506 542.18 180.693 542.18C179.759 542.18 178.906 541.94 178.133 541.46C177.359 540.98 176.746 540.307 176.293 539.44C175.853 538.56 175.633 537.553 175.633 536.42C175.633 535.3 175.853 534.307 176.293 533.44C176.746 532.573 177.353 531.907 178.113 531.44C178.886 530.973 179.746 530.74 180.693 530.74ZM184.353 536.46C184.353 535.78 184.219 535.2 183.953 534.72C183.686 534.227 183.326 533.853 182.873 533.6C182.419 533.333 181.933 533.2 181.413 533.2C180.893 533.2 180.413 533.327 179.973 533.58C179.533 533.833 179.173 534.207 178.893 534.7C178.626 535.18 178.493 535.753 178.493 536.42C178.493 537.087 178.626 537.673 178.893 538.18C179.173 538.673 179.533 539.053 179.973 539.32C180.426 539.587 180.906 539.72 181.413 539.72C181.933 539.72 182.419 539.593 182.873 539.34C183.326 539.073 183.686 538.7 183.953 538.22C184.219 537.727 184.353 537.14 184.353 536.46ZM200.367 530.92V542H197.547V540.6C197.187 541.08 196.714 541.46 196.127 541.74C195.554 542.007 194.927 542.14 194.247 542.14C193.381 542.14 192.614 541.96 191.947 541.6C191.281 541.227 190.754 540.687 190.367 539.98C189.994 539.26 189.807 538.407 189.807 537.42V530.92H192.607V537.02C192.607 537.9 192.827 538.58 193.267 539.06C193.707 539.527 194.307 539.76 195.067 539.76C195.841 539.76 196.447 539.527 196.887 539.06C197.327 538.58 197.547 537.9 197.547 537.02V530.92H200.367ZM205.93 532.64C206.29 532.053 206.757 531.593 207.33 531.26C207.917 530.927 208.583 530.76 209.33 530.76V533.7H208.59C207.71 533.7 207.043 533.907 206.59 534.32C206.15 534.733 205.93 535.453 205.93 536.48V542H203.13V530.92H205.93V532.64ZM221.516 536.22C221.516 536.62 221.489 536.98 221.436 537.3H213.336C213.403 538.1 213.683 538.727 214.176 539.18C214.669 539.633 215.276 539.86 215.996 539.86C217.036 539.86 217.776 539.413 218.216 538.52H221.236C220.916 539.587 220.303 540.467 219.396 541.16C218.489 541.84 217.376 542.18 216.056 542.18C214.989 542.18 214.029 541.947 213.176 541.48C212.336 541 211.676 540.327 211.196 539.46C210.729 538.593 210.496 537.593 210.496 536.46C210.496 535.313 210.729 534.307 211.196 533.44C211.663 532.573 212.316 531.907 213.156 531.44C213.996 530.973 214.963 530.74 216.056 530.74C217.109 530.74 218.049 530.967 218.876 531.42C219.716 531.873 220.363 532.52 220.816 533.36C221.283 534.187 221.516 535.14 221.516 536.22ZM218.616 535.42C218.603 534.7 218.343 534.127 217.836 533.7C217.329 533.26 216.709 533.04 215.976 533.04C215.283 533.04 214.696 533.253 214.216 533.68C213.749 534.093 213.463 534.673 213.356 535.42H218.616ZM226.12 539.7H231.06V542H222.94V539.74L227.78 533.22H222.96V530.92H231V533.18L226.12 539.7ZM246.613 528.04V530.3H240.793V533.88H245.253V536.1H240.793V542H237.993V528.04H246.613ZM247.879 536.42C247.879 535.3 248.099 534.307 248.539 533.44C248.992 532.573 249.599 531.907 250.359 531.44C251.132 530.973 251.992 530.74 252.939 530.74C253.765 530.74 254.485 530.907 255.099 531.24C255.725 531.573 256.225 531.993 256.599 532.5V530.92H259.419V542H256.599V540.38C256.239 540.9 255.739 541.333 255.099 541.68C254.472 542.013 253.745 542.18 252.919 542.18C251.985 542.18 251.132 541.94 250.359 541.46C249.599 540.98 248.992 540.307 248.539 539.44C248.099 538.56 247.879 537.553 247.879 536.42ZM256.599 536.46C256.599 535.78 256.465 535.2 256.199 534.72C255.932 534.227 255.572 533.853 255.119 533.6C254.665 533.333 254.179 533.2 253.659 533.2C253.139 533.2 252.659 533.327 252.219 533.58C251.779 533.833 251.419 534.207 251.139 534.7C250.872 535.18 250.739 535.753 250.739 536.42C250.739 537.087 250.872 537.673 251.139 538.18C251.419 538.673 251.779 539.053 252.219 539.32C252.672 539.587 253.152 539.72 253.659 539.72C254.179 539.72 254.665 539.593 255.119 539.34C255.572 539.073 255.932 538.7 256.199 538.22C256.465 537.727 256.599 537.14 256.599 536.46ZM261.433 536.46C261.433 535.313 261.667 534.313 262.133 533.46C262.6 532.593 263.247 531.927 264.073 531.46C264.9 530.98 265.847 530.74 266.913 530.74C268.287 530.74 269.42 531.087 270.313 531.78C271.22 532.46 271.827 533.42 272.133 534.66H269.113C268.953 534.18 268.68 533.807 268.293 533.54C267.92 533.26 267.453 533.12 266.893 533.12C266.093 533.12 265.46 533.413 264.993 534C264.527 534.573 264.293 535.393 264.293 536.46C264.293 537.513 264.527 538.333 264.993 538.92C265.46 539.493 266.093 539.78 266.893 539.78C268.027 539.78 268.767 539.273 269.113 538.26H272.133C271.827 539.46 271.22 540.413 270.313 541.12C269.407 541.827 268.273 542.18 266.913 542.18C265.847 542.18 264.9 541.947 264.073 541.48C263.247 541 262.6 540.333 262.133 539.48C261.667 538.613 261.433 537.607 261.433 536.46ZM284.485 536.22C284.485 536.62 284.458 536.98 284.405 537.3H276.305C276.371 538.1 276.651 538.727 277.145 539.18C277.638 539.633 278.245 539.86 278.965 539.86C280.005 539.86 280.745 539.413 281.185 538.52H284.205C283.885 539.587 283.271 540.467 282.365 541.16C281.458 541.84 280.345 542.18 279.025 542.18C277.958 542.18 276.998 541.947 276.145 541.48C275.305 541 274.645 540.327 274.165 539.46C273.698 538.593 273.465 537.593 273.465 536.46C273.465 535.313 273.698 534.307 274.165 533.44C274.631 532.573 275.285 531.907 276.125 531.44C276.965 530.973 277.931 530.74 279.025 530.74C280.078 530.74 281.018 530.967 281.845 531.42C282.685 531.873 283.331 532.52 283.785 533.36C284.251 534.187 284.485 535.14 284.485 536.22ZM281.585 535.42C281.571 534.7 281.311 534.127 280.805 533.7C280.298 533.26 279.678 533.04 278.945 533.04C278.251 533.04 277.665 533.253 277.185 533.68C276.718 534.093 276.431 534.673 276.325 535.42H281.585ZM294.094 528.04V542H291.294V528.04H294.094ZM301.74 528.04C303.207 528.04 304.494 528.327 305.6 528.9C306.72 529.473 307.58 530.293 308.18 531.36C308.794 532.413 309.1 533.64 309.1 535.04C309.1 536.44 308.794 537.667 308.18 538.72C307.58 539.76 306.72 540.567 305.6 541.14C304.494 541.713 303.207 542 301.74 542H296.86V528.04H301.74ZM301.64 539.62C303.107 539.62 304.24 539.22 305.04 538.42C305.84 537.62 306.24 536.493 306.24 535.04C306.24 533.587 305.84 532.453 305.04 531.64C304.24 530.813 303.107 530.4 301.64 530.4H299.66V539.62H301.64Z" fill="#0E3E3E"/>
<g id="Component 28">
<circle id="Ellipse 36" cx="215.5" cy="374.5" r="97.5" fill="#00D09E"/>
<path id="Vector 164" d="M204.59 374.35C207.361 383.55 224.874 410.23 246.155 415.75M237.842 426.1C221.216 420.925 204.408 408.197 194.615 386.425C182.976 360.55 209.578 350.2 219.554 372.625C223.39 381.25 229.529 390.737 247.818 400.225C266.106 409.712 277.745 381.25 261.119 372.625C236.911 360.067 231.192 323.98 196.277 331.225C147.232 341.403 158.038 408.85 182.977 427.825M256.131 386.425C226.204 376.075 226.928 333.034 194.615 346.75C158.037 362.275 184.639 424.375 217.891 433M222.879 320.875C241.168 322.6 246.155 341.575 266.107 358.825" stroke="#E9F6FE" stroke-width="3" stroke-linecap="round" stroke-linejoin="round"/>
</g>
<g id="Frame 3">
<path id="16:04" d="M38.7095 12.136L37.26 12.942V11.6225L39.3595 10.42H40.081V19H38.7095V12.136ZM44.8845 13.371C45.3568 13.371 45.7988 13.4902 46.2105 13.7285C46.6265 13.9625 46.9645 14.294 47.2245 14.723C47.4845 15.152 47.6145 15.6503 47.6145 16.218C47.6145 16.7857 47.4758 17.2905 47.1985 17.7325C46.9212 18.1745 46.5485 18.5233 46.0805 18.779C45.6168 19.0303 45.1055 19.156 44.5465 19.156C43.9745 19.156 43.4567 19.0325 42.993 18.7855C42.5337 18.5385 42.1675 18.1875 41.8945 17.7325C41.6215 17.2775 41.485 16.7423 41.485 16.127C41.485 15.4727 41.5955 14.9202 41.8165 14.4695C42.0375 14.0145 42.2953 13.605 42.59 13.241L44.865 10.42H46.4835L43.7145 13.7415C43.7968 13.6548 43.9377 13.5725 44.137 13.4945C44.3363 13.4122 44.5855 13.371 44.8845 13.371ZM44.5595 18.012C44.8802 18.012 45.1727 17.934 45.437 17.778C45.7057 17.6177 45.918 17.4053 46.074 17.141C46.2343 16.8723 46.3145 16.5755 46.3145 16.2505C46.3145 15.9255 46.2343 15.6308 46.074 15.3665C45.918 15.0978 45.7057 14.8855 45.437 14.7295C45.1727 14.5735 44.8802 14.4955 44.5595 14.4955C44.2345 14.4955 43.9377 14.5735 43.669 14.7295C43.4003 14.8855 43.1858 15.0978 43.0255 15.3665C42.8695 15.6308 42.7915 15.9255 42.7915 16.2505C42.7915 16.5755 42.8695 16.8723 43.0255 17.141C43.1858 17.4053 43.4003 17.6177 43.669 17.778C43.9377 17.934 44.2345 18.012 44.5595 18.012ZM50.0027 19.156C49.7384 19.156 49.5109 19.0628 49.3202 18.8765C49.1339 18.6858 49.0407 18.4562 49.0407 18.1875C49.0407 17.9188 49.1339 17.6892 49.3202 17.4985C49.5109 17.3078 49.7384 17.2125 50.0027 17.2125C50.2757 17.2125 50.5054 17.3078 50.6917 17.4985C50.8824 17.6892 50.9777 17.9188 50.9777 18.1875C50.9777 18.4562 50.8824 18.6858 50.6917 18.8765C50.5054 19.0628 50.2757 19.156 50.0027 19.156ZM50.0027 15.139C49.7384 15.139 49.5109 15.0458 49.3202 14.8595C49.1339 14.6688 49.0407 14.4392 49.0407 14.1705C49.0407 13.9018 49.1339 13.6722 49.3202 13.4815C49.5109 13.2908 49.7384 13.1955 50.0027 13.1955C50.2757 13.1955 50.5054 13.2908 50.6917 13.4815C50.8824 13.6722 50.9777 13.9018 50.9777 14.1705C50.9777 14.4392 50.8824 14.6688 50.6917 14.8595C50.5054 15.0458 50.2757 15.139 50.0027 15.139ZM52.1355 14.7165C52.1355 13.9582 52.2265 13.2995 52.4085 12.7405C52.5948 12.1815 52.8461 11.72 53.1625 11.356C53.4788 10.9877 53.8341 10.7147 54.2285 10.537C54.6228 10.355 55.0301 10.264 55.4505 10.264C55.8751 10.264 56.2846 10.355 56.679 10.537C57.0776 10.7147 57.433 10.9877 57.745 11.356C58.057 11.72 58.304 12.1815 58.486 12.7405C58.668 13.2995 58.759 13.9582 58.759 14.7165C58.759 15.5008 58.668 16.1725 58.486 16.7315C58.304 17.2905 58.057 17.7498 57.745 18.1095C57.433 18.4648 57.0776 18.7292 56.679 18.9025C56.2846 19.0715 55.8751 19.156 55.4505 19.156C55.0301 19.156 54.6228 19.0715 54.2285 18.9025C53.8341 18.7292 53.4788 18.4648 53.1625 18.1095C52.8461 17.7498 52.5948 17.2905 52.4085 16.7315C52.2265 16.1725 52.1355 15.5008 52.1355 14.7165ZM53.52 14.7165C53.52 15.4358 53.6045 16.036 53.7735 16.517C53.9468 16.9937 54.1786 17.349 54.469 17.583C54.7636 17.8127 55.0908 17.9275 55.4505 17.9275C55.8188 17.9275 56.146 17.8105 56.432 17.5765C56.7223 17.3425 56.952 16.9872 57.121 16.5105C57.29 16.0338 57.3745 15.4358 57.3745 14.7165C57.3745 14.0102 57.29 13.4187 57.121 12.942C56.952 12.4653 56.7223 12.1057 56.432 11.863C56.146 11.616 55.8188 11.4925 55.4505 11.4925C55.0908 11.4925 54.7636 11.616 54.469 11.863C54.1786 12.1057 53.9468 12.4675 53.7735 12.9485C53.6045 13.4252 53.52 14.0145 53.52 14.7165ZM64.4719 10.42V15.9775H65.4534V17.193H64.4719V19H63.1004V17.193H59.5124V16.0815L62.9444 10.42H64.4719ZM63.1004 15.9775V12.3505H63.0939L60.9294 15.9775H63.1004Z" fill="white"/>
<g id="Vector">
<path d="M339.261 20C338.565 20 338 19.5383 338 18.9688L338 14.8437C338 14.2742 338.565 13.8125 339.261 13.8125C339.958 13.8125 340.522 14.2742 340.522 14.8437L340.522 18.9688C340.522 19.5383 339.958 20 339.261 20Z" fill="white"/>
<path d="M342.754 20C342.057 20 341.493 19.5383 341.493 18.9688L341.493 13.4688C341.493 12.8992 342.057 12.4375 342.754 12.4375C343.45 12.4375 344.015 12.8992 344.015 13.4688L344.015 18.9688C344.015 19.5383 343.45 20 342.754 20Z" fill="white"/>
<path d="M346.246 20C345.55 20 344.985 19.5383 344.985 18.9688V11.75C344.985 11.1805 345.55 10.7188 346.246 10.7188C346.943 10.7188 347.507 11.1805 347.507 11.75V18.9688C347.507 19.5383 346.943 20 346.246 20Z" fill="white"/>
<path d="M349.739 20C349.042 20 348.478 19.5383 348.478 18.9688V10.0312C348.478 9.46171 349.042 9 349.739 9C350.435 9 351 9.46171 351 10.0312V18.9688C351 19.5383 350.435 20 349.739 20Z" fill="white"/>
</g>
<path id="Vector_2" d="M356 14.3846C359.409 9.87179 367.25 9.87179 371 14.3846M367.5 16.6154C365.606 14.359 361.25 14.359 359.167 16.6154M363.333 19H362.5" stroke="white" stroke-width="2" stroke-linecap="round"/>
<g id="Group 12">
<path id="Vector (Stroke)" d="M377 12.6202C377 12.2856 377.312 12 377.717 12H388.283C388.688 12 389 12.2856 389 12.6202V18.3798C389 18.7144 388.688 19 388.283 19H377.717C377.312 19 377 18.7144 377 18.3798L377 12.6202Z" fill="white"/>
<path id="Vector (Stroke)_2" fill-rule="evenodd" clip-rule="evenodd" d="M376 11.7974C376 11.3672 376.402 11 376.924 11L390.54 11C391.063 11 391.465 11.3672 391.465 11.7974C391.465 12.2217 391.749 12.5934 392.159 12.7042L392.452 12.7836C392.71 12.8684 393 13.0707 393 13.3897V17.5446C393 17.8637 392.71 18.0659 392.452 18.1508L392.431 18.1577L392.243 18.2006C391.788 18.3043 391.465 18.7089 391.465 19.1757V19.2026C391.465 19.6328 391.063 20 390.54 20H376.924C376.402 20 376 19.6328 376 19.2026L376 11.7974Z" stroke="white"/>
</g>
</g>
</g>
</g>
<defs>
<clipPath id="clip0_7041_808">
<rect x="0.147949" width="430" height="932" rx="40" fill="white"/>
</clipPath>
</defs>
</svg>
