<svg width="430" height="932" viewBox="0 0 430 932" fill="none" xmlns="http://www.w3.org/2000/svg">
<g id="2 - C - On Boarding">
<g clip-path="url(#clip0_7038_225)">
<rect width="430" height="932" rx="40" fill="#00D09E"/>
<path id="Base Shape" d="M1 378C1 339.34 32.3401 308 71 308H361C399.66 308 431 339.34 431 378V932H1V378Z" fill="#F1FFF3"/>
<g id="next">
<circle id="Ellipse 176" cx="166.5" cy="824.5" r="5.5" stroke="#0E3E3E" stroke-width="2"/>
<circle id="Ellipse 177" cx="137.5" cy="824.5" r="5.5" stroke="#0E3E3E" stroke-width="2"/>
<circle id="Ellipse 178" cx="195.5" cy="824.5" r="6.5" fill="#00D09E"/>
<circle id="Ellipse 179" cx="224.5" cy="824.5" r="5.5" stroke="#0E3E3E" stroke-width="2"/>
<circle id="Ellipse 180" cx="253.5" cy="824.5" r="5.5" stroke="#0E3E3E" stroke-width="2"/>
<circle id="Ellipse 181" cx="282.5" cy="824.5" r="5.5" stroke="#0E3E3E" stroke-width="2"/>
</g>


</g>
<path id="Visualise o&#195;&#185; va ton argent,&#226;&#128;&#168;&#226;&#128;&#168;&#226;&#128;&#168; chaque jour" d="M112.652 115.06L104.972 136H99.8725L92.1925 115.06H96.6925L102.452 131.71L108.182 115.06H112.652ZM117.301 117.4C116.561 117.4 115.941 117.17 115.441 116.71C114.961 116.23 114.721 115.64 114.721 114.94C114.721 114.24 114.961 113.66 115.441 113.2C115.941 112.72 116.561 112.48 117.301 112.48C118.041 112.48 118.651 112.72 119.131 113.2C119.631 113.66 119.881 114.24 119.881 114.94C119.881 115.64 119.631 116.23 119.131 116.71C118.651 117.17 118.041 117.4 117.301 117.4ZM119.371 119.38V136H115.171V119.38H119.371ZM129.88 136.27C128.52 136.27 127.3 136.03 126.22 135.55C125.14 135.05 124.28 134.38 123.64 133.54C123.02 132.7 122.68 131.77 122.62 130.75H126.85C126.93 131.39 127.24 131.92 127.78 132.34C128.34 132.76 129.03 132.97 129.85 132.97C130.65 132.97 131.27 132.81 131.71 132.49C132.17 132.17 132.4 131.76 132.4 131.26C132.4 130.72 132.12 130.32 131.56 130.06C131.02 129.78 130.15 129.48 128.95 129.16C127.71 128.86 126.69 128.55 125.89 128.23C125.11 127.91 124.43 127.42 123.85 126.76C123.29 126.1 123.01 125.21 123.01 124.09C123.01 123.17 123.27 122.33 123.79 121.57C124.33 120.81 125.09 120.21 126.07 119.77C127.07 119.33 128.24 119.11 129.58 119.11C131.56 119.11 133.14 119.61 134.32 120.61C135.5 121.59 136.15 122.92 136.27 124.6H132.25C132.19 123.94 131.91 123.42 131.41 123.04C130.93 122.64 130.28 122.44 129.46 122.44C128.7 122.44 128.11 122.58 127.69 122.86C127.29 123.14 127.09 123.53 127.09 124.03C127.09 124.59 127.37 125.02 127.93 125.32C128.49 125.6 129.36 125.89 130.54 126.19C131.74 126.49 132.73 126.8 133.51 127.12C134.29 127.44 134.96 127.94 135.52 128.62C136.1 129.28 136.4 130.16 136.42 131.26C136.42 132.22 136.15 133.08 135.61 133.84C135.09 134.6 134.33 135.2 133.33 135.64C132.35 136.06 131.2 136.27 129.88 136.27ZM155.558 119.38V136H151.328V133.9C150.788 134.62 150.078 135.19 149.198 135.61C148.338 136.01 147.398 136.21 146.378 136.21C145.078 136.21 143.928 135.94 142.928 135.4C141.928 134.84 141.138 134.03 140.558 132.97C139.998 131.89 139.718 130.61 139.718 129.13V119.38H143.918V128.53C143.918 129.85 144.248 130.87 144.908 131.59C145.568 132.29 146.468 132.64 147.608 132.64C148.768 132.64 149.678 132.29 150.338 131.59C150.998 130.87 151.328 129.85 151.328 128.53V119.38H155.558ZM158.622 127.63C158.622 125.95 158.952 124.46 159.612 123.16C160.292 121.86 161.202 120.86 162.342 120.16C163.502 119.46 164.792 119.11 166.212 119.11C167.452 119.11 168.532 119.36 169.452 119.86C170.392 120.36 171.142 120.99 171.702 121.75V119.38H175.932V136H171.702V133.57C171.162 134.35 170.412 135 169.452 135.52C168.512 136.02 167.422 136.27 166.182 136.27C164.782 136.27 163.502 135.91 162.342 135.19C161.202 134.47 160.292 133.46 159.612 132.16C158.952 130.84 158.622 129.33 158.622 127.63ZM171.702 127.69C171.702 126.67 171.502 125.8 171.102 125.08C170.702 124.34 170.162 123.78 169.482 123.4C168.802 123 168.072 122.8 167.292 122.8C166.512 122.8 165.792 122.99 165.132 123.37C164.472 123.75 163.932 124.31 163.512 125.05C163.112 125.77 162.912 126.63 162.912 127.63C162.912 128.63 163.112 129.51 163.512 130.27C163.932 131.01 164.472 131.58 165.132 131.98C165.812 132.38 166.532 132.58 167.292 132.58C168.072 132.58 168.802 132.39 169.482 132.01C170.162 131.61 170.702 131.05 171.102 130.33C171.502 129.59 171.702 128.71 171.702 127.69ZM184.234 113.8V136H180.034V113.8H184.234ZM190.513 117.4C189.773 117.4 189.153 117.17 188.653 116.71C188.173 116.23 187.933 115.64 187.933 114.94C187.933 114.24 188.173 113.66 188.653 113.2C189.153 112.72 189.773 112.48 190.513 112.48C191.253 112.48 191.863 112.72 192.343 113.2C192.843 113.66 193.093 114.24 193.093 114.94C193.093 115.64 192.843 116.23 192.343 116.71C191.863 117.17 191.253 117.4 190.513 117.4ZM192.583 119.38V136H188.383V119.38H192.583ZM203.093 136.27C201.733 136.27 200.513 136.03 199.433 135.55C198.353 135.05 197.493 134.38 196.853 133.54C196.233 132.7 195.893 131.77 195.833 130.75H200.063C200.143 131.39 200.453 131.92 200.993 132.34C201.553 132.76 202.243 132.97 203.063 132.97C203.863 132.97 204.483 132.81 204.923 132.49C205.383 132.17 205.613 131.76 205.613 131.26C205.613 130.72 205.333 130.32 204.773 130.06C204.233 129.78 203.363 129.48 202.163 129.16C200.923 128.86 199.903 128.55 199.103 128.23C198.323 127.91 197.643 127.42 197.063 126.76C196.503 126.1 196.223 125.21 196.223 124.09C196.223 123.17 196.483 122.33 197.003 121.57C197.543 120.81 198.303 120.21 199.283 119.77C200.283 119.33 201.453 119.11 202.793 119.11C204.773 119.11 206.353 119.61 207.533 120.61C208.713 121.59 209.363 122.92 209.483 124.6H205.463C205.403 123.94 205.123 123.42 204.623 123.04C204.143 122.64 203.493 122.44 202.673 122.44C201.913 122.44 201.323 122.58 200.903 122.86C200.503 123.14 200.303 123.53 200.303 124.03C200.303 124.59 200.583 125.02 201.143 125.32C201.703 125.6 202.573 125.89 203.753 126.19C204.953 126.49 205.943 126.8 206.723 127.12C207.503 127.44 208.173 127.94 208.733 128.62C209.313 129.28 209.613 130.16 209.633 131.26C209.633 132.22 209.363 133.08 208.823 133.84C208.303 134.6 207.543 135.2 206.543 135.64C205.563 136.06 204.413 136.27 203.093 136.27ZM228.531 127.33C228.531 127.93 228.491 128.47 228.411 128.95H216.261C216.361 130.15 216.781 131.09 217.521 131.77C218.261 132.45 219.171 132.79 220.251 132.79C221.811 132.79 222.921 132.12 223.581 130.78H228.111C227.631 132.38 226.711 133.7 225.351 134.74C223.991 135.76 222.321 136.27 220.341 136.27C218.741 136.27 217.301 135.92 216.021 135.22C214.761 134.5 213.771 133.49 213.051 132.19C212.351 130.89 212.001 129.39 212.001 127.69C212.001 125.97 212.351 124.46 213.051 123.16C213.751 121.86 214.731 120.86 215.991 120.16C217.251 119.46 218.701 119.11 220.341 119.11C221.921 119.11 223.331 119.45 224.571 120.13C225.831 120.81 226.801 121.78 227.481 123.04C228.181 124.28 228.531 125.71 228.531 127.33ZM224.181 126.13C224.161 125.05 223.771 124.19 223.011 123.55C222.251 122.89 221.321 122.56 220.221 122.56C219.181 122.56 218.301 122.88 217.581 123.52C216.881 124.14 216.451 125.01 216.291 126.13H224.181ZM246.125 136.27C244.525 136.27 243.085 135.92 241.805 135.22C240.525 134.5 239.515 133.49 238.775 132.19C238.055 130.89 237.695 129.39 237.695 127.69C237.695 125.99 238.065 124.49 238.805 123.19C239.565 121.89 240.595 120.89 241.895 120.19C243.195 119.47 244.645 119.11 246.245 119.11C247.845 119.11 249.295 119.47 250.595 120.19C251.895 120.89 252.915 121.89 253.655 123.19C254.415 124.49 254.795 125.99 254.795 127.69C254.795 129.39 254.405 130.89 253.625 132.19C252.865 133.49 251.825 134.5 250.505 135.22C249.205 135.92 247.745 136.27 246.125 136.27ZM246.125 132.61C246.885 132.61 247.595 132.43 248.255 132.07C248.935 131.69 249.475 131.13 249.875 130.39C250.275 129.65 250.475 128.75 250.475 127.69C250.475 126.11 250.055 124.9 249.215 124.06C248.395 123.2 247.385 122.77 246.185 122.77C244.985 122.77 243.975 123.2 243.155 124.06C242.355 124.9 241.955 126.11 241.955 127.69C241.955 129.27 242.345 130.49 243.125 131.35C243.925 132.19 244.925 132.61 246.125 132.61ZM273.566 119.38V136H269.336V133.9C268.796 134.62 268.086 135.19 267.206 135.61C266.346 136.01 265.406 136.21 264.386 136.21C263.086 136.21 261.936 135.94 260.936 135.4C259.936 134.84 259.146 134.03 258.566 132.97C258.006 131.89 257.726 130.61 257.726 129.13V119.38H261.926V128.53C261.926 129.85 262.256 130.87 262.916 131.59C263.576 132.29 264.476 132.64 265.616 132.64C266.776 132.64 267.686 132.29 268.346 131.59C269.006 130.87 269.336 129.85 269.336 128.53V119.38H273.566ZM269.006 115.21V118.21L262.106 115.06V111.64L269.006 115.21ZM291.788 132.13L295.988 119.38H300.458L294.308 136H289.208L283.088 119.38H287.588L291.788 132.13ZM301.737 127.63C301.737 125.95 302.067 124.46 302.727 123.16C303.407 121.86 304.317 120.86 305.457 120.16C306.617 119.46 307.907 119.11 309.327 119.11C310.567 119.11 311.647 119.36 312.567 119.86C313.507 120.36 314.257 120.99 314.817 121.75V119.38H319.047V136H314.817V133.57C314.277 134.35 313.527 135 312.567 135.52C311.627 136.02 310.537 136.27 309.297 136.27C307.897 136.27 306.617 135.91 305.457 135.19C304.317 134.47 303.407 133.46 302.727 132.16C302.067 130.84 301.737 129.33 301.737 127.63ZM314.817 127.69C314.817 126.67 314.617 125.8 314.217 125.08C313.817 124.34 313.277 123.78 312.597 123.4C311.917 123 311.187 122.8 310.407 122.8C309.627 122.8 308.907 122.99 308.247 123.37C307.587 123.75 307.047 124.31 306.627 125.05C306.227 125.77 306.027 126.63 306.027 127.63C306.027 128.63 306.227 129.51 306.627 130.27C307.047 131.01 307.587 131.58 308.247 131.98C308.927 132.38 309.647 132.58 310.407 132.58C311.187 132.58 311.917 132.39 312.597 132.01C313.277 131.61 313.817 131.05 314.217 130.33C314.617 129.59 314.817 128.71 314.817 127.69ZM132.893 167.83V175.87C132.893 176.43 133.023 176.84 133.283 177.1C133.563 177.34 134.023 177.46 134.663 177.46H136.613V181H133.973C130.433 181 128.663 179.28 128.663 175.84V167.83H126.683V164.38H128.663V160.27H132.893V164.38H136.613V167.83H132.893ZM147.013 181.27C145.413 181.27 143.973 180.92 142.693 180.22C141.413 179.5 140.403 178.49 139.663 177.19C138.943 175.89 138.583 174.39 138.583 172.69C138.583 170.99 138.953 169.49 139.693 168.19C140.453 166.89 141.483 165.89 142.783 165.19C144.083 164.47 145.533 164.11 147.133 164.11C148.733 164.11 150.183 164.47 151.483 165.19C152.783 165.89 153.803 166.89 154.543 168.19C155.303 169.49 155.683 170.99 155.683 172.69C155.683 174.39 155.293 175.89 154.513 177.19C153.753 178.49 152.713 179.5 151.393 180.22C150.093 180.92 148.633 181.27 147.013 181.27ZM147.013 177.61C147.773 177.61 148.483 177.43 149.143 177.07C149.823 176.69 150.363 176.13 150.763 175.39C151.163 174.65 151.363 173.75 151.363 172.69C151.363 171.11 150.943 169.9 150.103 169.06C149.283 168.2 148.273 167.77 147.073 167.77C145.873 167.77 144.863 168.2 144.043 169.06C143.243 169.9 142.843 171.11 142.843 172.69C142.843 174.27 143.233 175.49 144.013 176.35C144.813 177.19 145.813 177.61 147.013 177.61ZM167.974 164.14C169.954 164.14 171.554 164.77 172.774 166.03C173.994 167.27 174.604 169.01 174.604 171.25V181H170.404V171.82C170.404 170.5 170.074 169.49 169.414 168.79C168.754 168.07 167.854 167.71 166.714 167.71C165.554 167.71 164.634 168.07 163.954 168.79C163.294 169.49 162.964 170.5 162.964 171.82V181H158.764V164.38H162.964V166.45C163.524 165.73 164.234 165.17 165.094 164.77C165.974 164.35 166.934 164.14 167.974 164.14ZM184.667 172.63C184.667 170.95 184.997 169.46 185.657 168.16C186.337 166.86 187.247 165.86 188.387 165.16C189.547 164.46 190.837 164.11 192.257 164.11C193.497 164.11 194.577 164.36 195.497 164.86C196.437 165.36 197.187 165.99 197.747 166.75V164.38H201.977V181H197.747V178.57C197.207 179.35 196.457 180 195.497 180.52C194.557 181.02 193.467 181.27 192.227 181.27C190.827 181.27 189.547 180.91 188.387 180.19C187.247 179.47 186.337 178.46 185.657 177.16C184.997 175.84 184.667 174.33 184.667 172.63ZM197.747 172.69C197.747 171.67 197.547 170.8 197.147 170.08C196.747 169.34 196.207 168.78 195.527 168.4C194.847 168 194.117 167.8 193.337 167.8C192.557 167.8 191.837 167.99 191.177 168.37C190.517 168.75 189.977 169.31 189.557 170.05C189.157 170.77 188.957 171.63 188.957 172.63C188.957 173.63 189.157 174.51 189.557 175.27C189.977 176.01 190.517 176.58 191.177 176.98C191.857 177.38 192.577 177.58 193.337 177.58C194.117 177.58 194.847 177.39 195.527 177.01C196.207 176.61 196.747 176.05 197.147 175.33C197.547 174.59 197.747 173.71 197.747 172.69ZM210.279 166.96C210.819 166.08 211.519 165.39 212.379 164.89C213.259 164.39 214.259 164.14 215.379 164.14V168.55H214.269C212.949 168.55 211.949 168.86 211.269 169.48C210.609 170.1 210.279 171.18 210.279 172.72V181H206.079V164.38H210.279V166.96ZM224.718 164.11C225.958 164.11 227.048 164.36 227.988 164.86C228.928 165.34 229.668 165.97 230.208 166.75V164.38H234.438V181.12C234.438 182.66 234.128 184.03 233.508 185.23C232.888 186.45 231.958 187.41 230.718 188.11C229.478 188.83 227.978 189.19 226.218 189.19C223.858 189.19 221.918 188.64 220.398 187.54C218.898 186.44 218.048 184.94 217.848 183.04H222.018C222.238 183.8 222.708 184.4 223.428 184.84C224.168 185.3 225.058 185.53 226.098 185.53C227.318 185.53 228.308 185.16 229.068 184.42C229.828 183.7 230.208 182.6 230.208 181.12V178.54C229.668 179.32 228.918 179.97 227.958 180.49C227.018 181.01 225.938 181.27 224.718 181.27C223.318 181.27 222.038 180.91 220.878 180.19C219.718 179.47 218.798 178.46 218.118 177.16C217.458 175.84 217.128 174.33 217.128 172.63C217.128 170.95 217.458 169.46 218.118 168.16C218.798 166.86 219.708 165.86 220.848 165.16C222.008 164.46 223.298 164.11 224.718 164.11ZM230.208 172.69C230.208 171.67 230.008 170.8 229.608 170.08C229.208 169.34 228.668 168.78 227.988 168.4C227.308 168 226.578 167.8 225.798 167.8C225.018 167.8 224.298 167.99 223.638 168.37C222.978 168.75 222.438 169.31 222.018 170.05C221.618 170.77 221.418 171.63 221.418 172.63C221.418 173.63 221.618 174.51 222.018 175.27C222.438 176.01 222.978 176.58 223.638 176.98C224.318 177.38 225.038 177.58 225.798 177.58C226.578 177.58 227.308 177.39 227.988 177.01C228.668 176.61 229.208 176.05 229.608 175.33C230.008 174.59 230.208 173.71 230.208 172.69ZM253.99 172.33C253.99 172.93 253.95 173.47 253.87 173.95H241.72C241.82 175.15 242.24 176.09 242.98 176.77C243.72 177.45 244.63 177.79 245.71 177.79C247.27 177.79 248.38 177.12 249.04 175.78H253.57C253.09 177.38 252.17 178.7 250.81 179.74C249.45 180.76 247.78 181.27 245.8 181.27C244.2 181.27 242.76 180.92 241.48 180.22C240.22 179.5 239.23 178.49 238.51 177.19C237.81 175.89 237.46 174.39 237.46 172.69C237.46 170.97 237.81 169.46 238.51 168.16C239.21 166.86 240.19 165.86 241.45 165.16C242.71 164.46 244.16 164.11 245.8 164.11C247.38 164.11 248.79 164.45 250.03 165.13C251.29 165.81 252.26 166.78 252.94 168.04C253.64 169.28 253.99 170.71 253.99 172.33ZM249.64 171.13C249.62 170.05 249.23 169.19 248.47 168.55C247.71 167.89 246.78 167.56 245.68 167.56C244.64 167.56 243.76 167.88 243.04 168.52C242.34 169.14 241.91 170.01 241.75 171.13H249.64ZM266.265 164.14C268.245 164.14 269.845 164.77 271.065 166.03C272.285 167.27 272.895 169.01 272.895 171.25V181H268.695V171.82C268.695 170.5 268.365 169.49 267.705 168.79C267.045 168.07 266.145 167.71 265.005 167.71C263.845 167.71 262.925 168.07 262.245 168.79C261.585 169.49 261.255 170.5 261.255 171.82V181H257.055V164.38H261.255V166.45C261.815 165.73 262.525 165.17 263.385 164.77C264.265 164.35 265.225 164.14 266.265 164.14ZM281.779 167.83V175.87C281.779 176.43 281.909 176.84 282.169 177.1C282.449 177.34 282.909 177.46 283.549 177.46H285.499V181H282.859C279.319 181 277.549 179.28 277.549 175.84V167.83H275.569V164.38H277.549V160.27H281.779V164.38H285.499V167.83H281.779ZM293.11 176.59L289.6 185.02H286.9L288.85 176.59H293.11ZM122.821 217.69C122.821 215.97 123.171 214.47 123.871 213.19C124.571 211.89 125.541 210.89 126.781 210.19C128.021 209.47 129.441 209.11 131.041 209.11C133.101 209.11 134.801 209.63 136.141 210.67C137.501 211.69 138.411 213.13 138.871 214.99H134.341C134.101 214.27 133.691 213.71 133.111 213.31C132.551 212.89 131.851 212.68 131.011 212.68C129.811 212.68 128.861 213.12 128.161 214C127.461 214.86 127.111 216.09 127.111 217.69C127.111 219.27 127.461 220.5 128.161 221.38C128.861 222.24 129.811 222.67 131.011 222.67C132.711 222.67 133.821 221.91 134.341 220.39H138.871C138.411 222.19 137.501 223.62 136.141 224.68C134.781 225.74 133.081 226.27 131.041 226.27C129.441 226.27 128.021 225.92 126.781 225.22C125.541 224.5 124.571 223.5 123.871 222.22C123.171 220.92 122.821 219.41 122.821 217.69ZM151.308 209.14C152.568 209.14 153.688 209.42 154.668 209.98C155.648 210.52 156.408 211.33 156.948 212.41C157.508 213.47 157.788 214.75 157.788 216.25V226H153.588V216.82C153.588 215.5 153.258 214.49 152.598 213.79C151.938 213.07 151.038 212.71 149.898 212.71C148.738 212.71 147.818 213.07 147.138 213.79C146.478 214.49 146.148 215.5 146.148 216.82V226H141.948V203.8H146.148V211.45C146.688 210.73 147.408 210.17 148.308 209.77C149.208 209.35 150.208 209.14 151.308 209.14ZM160.702 217.63C160.702 215.95 161.032 214.46 161.692 213.16C162.372 211.86 163.282 210.86 164.422 210.16C165.582 209.46 166.872 209.11 168.292 209.11C169.532 209.11 170.612 209.36 171.532 209.86C172.472 210.36 173.222 210.99 173.782 211.75V209.38H178.012V226H173.782V223.57C173.242 224.35 172.492 225 171.532 225.52C170.592 226.02 169.502 226.27 168.262 226.27C166.862 226.27 165.582 225.91 164.422 225.19C163.282 224.47 162.372 223.46 161.692 222.16C161.032 220.84 160.702 219.33 160.702 217.63ZM173.782 217.69C173.782 216.67 173.582 215.8 173.182 215.08C172.782 214.34 172.242 213.78 171.562 213.4C170.882 213 170.152 212.8 169.372 212.8C168.592 212.8 167.872 212.99 167.212 213.37C166.552 213.75 166.012 214.31 165.592 215.05C165.192 215.77 164.992 216.63 164.992 217.63C164.992 218.63 165.192 219.51 165.592 220.27C166.012 221.01 166.552 221.58 167.212 221.98C167.892 222.38 168.612 222.58 169.372 222.58C170.152 222.58 170.882 222.39 171.562 222.01C172.242 221.61 172.782 221.05 173.182 220.33C173.582 219.59 173.782 218.71 173.782 217.69ZM181.034 217.66C181.034 216 181.374 214.53 182.054 213.25C182.754 211.95 183.694 210.94 184.874 210.22C186.054 209.5 187.354 209.14 188.774 209.14C189.954 209.14 190.994 209.37 191.894 209.83C192.814 210.27 193.554 210.84 194.114 211.54V209.38H198.344V233.92H194.114V223.72C193.554 224.44 192.804 225.04 191.864 225.52C190.924 226 189.864 226.24 188.684 226.24C187.284 226.24 185.994 225.88 184.814 225.16C183.654 224.42 182.734 223.4 182.054 222.1C181.374 220.8 181.034 219.32 181.034 217.66ZM194.114 217.69C194.114 216.67 193.904 215.79 193.484 215.05C193.064 214.31 192.514 213.75 191.834 213.37C191.174 212.99 190.464 212.8 189.704 212.8C188.964 212.8 188.254 212.99 187.574 213.37C186.914 213.75 186.374 214.31 185.954 215.05C185.534 215.77 185.324 216.64 185.324 217.66C185.324 218.68 185.534 219.57 185.954 220.33C186.374 221.07 186.914 221.63 187.574 222.01C188.254 222.39 188.964 222.58 189.704 222.58C190.464 222.58 191.174 222.39 191.834 222.01C192.514 221.63 193.064 221.07 193.484 220.33C193.904 219.59 194.114 218.71 194.114 217.69ZM218.136 209.38V226H213.906V223.9C213.366 224.62 212.656 225.19 211.776 225.61C210.916 226.01 209.976 226.21 208.956 226.21C207.656 226.21 206.506 225.94 205.506 225.4C204.506 224.84 203.716 224.03 203.136 222.97C202.576 221.89 202.296 220.61 202.296 219.13V209.38H206.496V218.53C206.496 219.85 206.826 220.87 207.486 221.59C208.146 222.29 209.046 222.64 210.186 222.64C211.346 222.64 212.256 222.29 212.916 221.59C213.576 220.87 213.906 219.85 213.906 218.53V209.38H218.136ZM237.73 217.33C237.73 217.93 237.69 218.47 237.61 218.95H225.46C225.56 220.15 225.98 221.09 226.72 221.77C227.46 222.45 228.37 222.79 229.45 222.79C231.01 222.79 232.12 222.12 232.78 220.78H237.31C236.83 222.38 235.91 223.7 234.55 224.74C233.19 225.76 231.52 226.27 229.54 226.27C227.94 226.27 226.5 225.92 225.22 225.22C223.96 224.5 222.97 223.49 222.25 222.19C221.55 220.89 221.2 219.39 221.2 217.69C221.2 215.97 221.55 214.46 222.25 213.16C222.95 211.86 223.93 210.86 225.19 210.16C226.45 209.46 227.9 209.11 229.54 209.11C231.12 209.11 232.53 209.45 233.77 210.13C235.03 210.81 236 211.78 236.68 213.04C237.38 214.28 237.73 215.71 237.73 217.33ZM233.38 216.13C233.36 215.05 232.97 214.19 232.21 213.55C231.45 212.89 230.52 212.56 229.42 212.56C228.38 212.56 227.5 212.88 226.78 213.52C226.08 214.14 225.65 215.01 225.49 216.13H233.38ZM250.074 207.4C249.314 207.4 248.684 207.17 248.184 206.71C247.704 206.23 247.464 205.64 247.464 204.94C247.464 204.24 247.704 203.66 248.184 203.2C248.684 202.72 249.314 202.48 250.074 202.48C250.814 202.48 251.424 202.72 251.904 203.2C252.384 203.66 252.624 204.24 252.624 204.94C252.624 205.64 252.384 206.23 251.904 206.71C251.424 207.17 250.814 207.4 250.074 207.4ZM252.144 228.73C252.144 230.57 251.684 231.89 250.764 232.69C249.864 233.51 248.564 233.92 246.864 233.92H245.004V230.35H246.204C246.844 230.35 247.294 230.22 247.554 229.96C247.814 229.72 247.944 229.32 247.944 228.76V209.38H252.144V228.73ZM263.674 226.27C262.074 226.27 260.634 225.92 259.354 225.22C258.074 224.5 257.064 223.49 256.324 222.19C255.604 220.89 255.244 219.39 255.244 217.69C255.244 215.99 255.614 214.49 256.354 213.19C257.114 211.89 258.144 210.89 259.444 210.19C260.744 209.47 262.194 209.11 263.794 209.11C265.394 209.11 266.844 209.47 268.144 210.19C269.444 210.89 270.464 211.89 271.204 213.19C271.964 214.49 272.344 215.99 272.344 217.69C272.344 219.39 271.954 220.89 271.174 222.19C270.414 223.49 269.374 224.5 268.054 225.22C266.754 225.92 265.294 226.27 263.674 226.27ZM263.674 222.61C264.434 222.61 265.144 222.43 265.804 222.07C266.484 221.69 267.024 221.13 267.424 220.39C267.824 219.65 268.024 218.75 268.024 217.69C268.024 216.11 267.604 214.9 266.764 214.06C265.944 213.2 264.934 212.77 263.734 212.77C262.534 212.77 261.524 213.2 260.704 214.06C259.904 214.9 259.504 216.11 259.504 217.69C259.504 219.27 259.894 220.49 260.674 221.35C261.474 222.19 262.474 222.61 263.674 222.61ZM291.114 209.38V226H286.884V223.9C286.344 224.62 285.634 225.19 284.754 225.61C283.894 226.01 282.954 226.21 281.934 226.21C280.634 226.21 279.484 225.94 278.484 225.4C277.484 224.84 276.694 224.03 276.114 222.97C275.554 221.89 275.274 220.61 275.274 219.13V209.38H279.474V218.53C279.474 219.85 279.804 220.87 280.464 221.59C281.124 222.29 282.024 222.64 283.164 222.64C284.324 222.64 285.234 222.29 285.894 221.59C286.554 220.87 286.884 219.85 286.884 218.53V209.38H291.114ZM299.458 211.96C299.998 211.08 300.698 210.39 301.558 209.89C302.438 209.39 303.438 209.14 304.558 209.14V213.55H303.448C302.128 213.55 301.128 213.86 300.448 214.48C299.788 215.1 299.458 216.18 299.458 217.72V226H295.258V209.38H299.458V211.96Z" fill="#0E3E3E"/>
<g id="social-media-marketing-growth 1">
<path id="Vector_3" fill-rule="evenodd" clip-rule="evenodd" d="M132.793 663.946C79.4744 663.594 90.0984 679.208 167.241 679.32C198.036 679.366 219.499 677.24 243.536 676.002C266.194 674.835 263.459 670.367 311.46 671.893C339.67 672.789 356.579 663.482 275.351 663.946C245.528 664.115 159.568 664.122 132.793 663.946Z" fill="#F6F6F6"/>
<path id="Vector_4" d="M147.994 676.001C169.397 676.001 186.747 673.963 186.747 671.448C186.747 668.934 169.397 666.896 147.994 666.896C126.592 666.896 109.241 668.934 109.241 671.448C109.241 673.963 126.592 676.001 147.994 676.001Z" fill="black" fill-opacity="0.2"/>
<path id="Vector_5" d="M275.786 668.319C286.01 668.319 294.297 667.49 294.297 666.467C294.297 665.445 286.01 664.615 275.786 664.615C265.563 664.615 257.275 665.445 257.275 666.467C257.275 667.49 265.563 668.319 275.786 668.319Z" fill="black" fill-opacity="0.2"/>
<path id="Vector_6" fill-rule="evenodd" clip-rule="evenodd" d="M103.479 613.924C91.3424 628.103 70.1363 668.92 138.708 644.418C156.477 638.069 187.877 621.332 211.455 616.673C233.94 612.229 269.393 671.771 280.173 616.463C293.457 548.31 336.434 618.778 340.061 608.861C343.688 598.945 317.701 559.282 301.937 556.966C286.172 554.65 262.996 598.152 245.473 594.959C227.95 591.765 220.462 534.641 196.796 537.802C173.13 540.962 124.019 589.933 103.479 613.924Z" fill="#F6F6F6"/>
<path id="Vector_7" d="M295.498 661.488C295.007 660.903 294.557 660.283 294.153 659.633C292.825 657.588 292.02 655.466 291.403 652.843C290.155 648.09 289.937 643.118 290.764 638.271C290.831 638.681 290.847 639.075 290.896 639.508C290.912 640.111 291.214 640.495 291.5 640.902C291.719 641.232 291.785 641.726 292.054 642.113C292.508 642.668 293.318 642.579 293.758 641.947C294.348 642.195 295.074 642.053 295.615 641.493C296.038 641.008 296.276 640.356 296.463 639.689C296.498 639.519 296.532 639.348 296.549 639.2C296.903 639.474 297.341 639.635 297.747 639.256C298.491 638.632 298.629 637.407 298.479 636.443C298.423 636.055 298.322 635.674 298.179 635.308L298.212 635.305C298.955 635.015 298.807 633.8 298.504 633.208C298.283 632.685 297.989 632.198 297.631 631.761C297.699 631.624 297.717 631.466 297.682 631.317C297.6 630.387 296.876 629.778 296.219 629.538C295.41 629.209 294.313 629.267 293.775 628.826C293.555 628.61 293.393 628.34 293.304 628.043C293.27 628.005 293.271 627.964 293.254 627.903C293.327 627.726 293.389 627.545 293.441 627.361C294.562 624.443 295.682 621.858 297.274 619.431C297.316 619.718 297.337 620.009 297.339 620.3C297.32 621.074 297.217 621.961 297.722 622.49C298.31 623.197 299.34 623.146 299.798 622.115C300.069 621.543 300.088 620.853 300.392 620.277C300.48 620.105 300.582 619.94 300.697 619.784C300.881 620.369 300.694 621.287 300.506 621.954C300.029 623.758 298.66 624.972 298.115 626.826C297.961 627.615 298.433 627.939 298.906 627.845C298.82 628.459 298.718 629.054 298.8 629.65C299.083 631.184 300.211 631.915 301.427 631.489C301.459 632.028 301.492 632.567 301.676 633.026C302.045 634.071 303.022 634.839 304.001 634.44C304.38 634.256 304.707 633.976 304.948 633.627C305.502 634.88 305.665 636.822 307.082 637.001C307.52 637.12 307.993 636.942 308.349 636.549C308.595 636.676 308.855 636.774 309.124 636.839C309.647 636.886 310.154 636.622 310.593 636.24C312.065 634.889 311.953 632.503 311.4 630.791C311.4 630.749 311.383 630.73 311.383 630.688C311.434 630.662 311.485 630.677 311.535 630.651C313.36 629.741 312.101 627.314 311.124 626.461L311.006 626.328C312.089 625.333 311.232 623.821 310.154 623.021C309.952 622.876 309.784 622.686 309.582 622.542C309.843 622.292 310.02 621.967 310.09 621.61C310.278 620.734 309.689 620.069 309.133 619.775C308.785 619.617 308.424 619.489 308.054 619.394C308.133 619.256 308.17 619.099 308.162 618.94C308.153 618.782 308.099 618.63 308.006 618.502C307.603 617.962 306.91 617.85 306.303 617.917C306.084 617.962 305.881 618.026 305.645 618.094C305.443 617.782 304.785 617.792 304.431 617.852C303.486 617.955 302.759 618.306 302.018 617.971C301.361 617.646 301.059 616.929 300.74 616.15C300.624 615.827 300.529 615.496 300.456 615.159C301.996 613.217 303.586 611.416 305.245 609.648C305.384 610.221 305.445 610.811 305.426 611.401C305.406 612.634 305.029 615.012 306.497 614.871C306.731 614.814 306.946 614.697 307.122 614.532C307.306 615.199 307.541 615.883 307.961 616.359C308.651 617.263 310.337 617.453 310.797 615.964C310.906 615.523 310.923 615.063 310.846 614.615C310.768 614.167 310.599 613.741 310.348 613.364C309.961 612.76 309.035 612.006 309.424 611.567C309.492 611.477 309.661 611.5 309.947 611.531C310.091 611.569 310.237 611.595 310.385 611.608C310.626 612.532 311.023 613.406 311.56 614.19C312.602 615.661 313.831 616.882 315.009 618.171C315.699 618.909 316.674 620.095 317.706 619.168C317.899 618.972 318.024 618.716 318.062 618.441C318.634 618.837 319.224 619.252 319.916 619.239C320.911 619.275 321.285 617.941 321.221 616.905C321.212 616.85 321.212 616.794 321.221 616.738C321.878 617.062 322.586 617.193 323.146 616.36C324.112 614.606 323.664 611.506 322.232 610.599C322.131 610.527 322.013 610.477 321.912 610.405C322.008 610.269 322.072 610.112 322.099 609.946C322.287 609.029 321.732 608.234 321.125 607.884C320.738 607.697 320.316 607.722 319.894 607.706C319.874 607.555 319.803 607.415 319.693 607.311C319.255 606.9 318.682 606.838 318.142 606.73C318.935 606.623 319.611 606.298 320.051 605.665C320.198 605.424 320.301 605.158 320.357 604.881C321.15 604.815 321.977 604.661 322.654 604.086C323.363 603.591 323.788 602.522 323.453 601.724C323.877 601.587 324.265 601.352 324.585 601.037C325.837 599.731 325.588 598.027 324.24 597.132C323.981 596.955 323.697 596.817 323.398 596.724C324.547 595.931 325.849 595.016 326.106 593.257C326.294 592.422 326.059 591.572 325.538 591.108C324.342 590.218 322.789 590.554 321.388 591.063C321.559 590.723 321.658 590.349 321.677 589.967C321.748 588.75 320.619 587.935 319.708 588.119C319.174 588.208 318.669 588.428 318.238 588.76L318.221 588.783C318.225 587.447 317.246 587.596 316.248 588.478C315.285 589.23 314.523 590.336 313.912 591.529C313.627 590.997 313.086 591.098 312.63 591.628L312.545 591.742C312.8 590.984 312.785 590.256 311.976 589.927C311.874 589.884 311.766 589.861 311.655 589.858C312.062 588.937 312.436 587.937 312.236 586.957C312.003 585.982 310.99 586.01 310.348 586.539C310.341 586.552 310.331 586.563 310.32 586.571C310.308 586.58 310.294 586.586 310.28 586.588C310.332 586.019 310.452 585.443 310.268 584.942C309.865 583.818 308.634 583.515 307.789 584.359C307.695 584.45 307.61 584.55 307.535 584.658C306.203 584.199 305.102 586.135 304.811 587.647C304.491 587.286 304.121 587.076 303.665 587.356C302.667 587.987 302.31 589.465 302.222 590.706C302.196 590.997 302.195 591.29 302.22 591.582C302.045 591.637 301.886 591.737 301.759 591.871C301.632 592.005 301.54 592.17 301.492 592.35C300.981 594.534 302.359 596.552 303.013 598.128C303.195 598.58 303.346 599.044 303.465 599.517C303.081 599.223 302.614 599.063 302.133 599.059C301.887 599.062 301.65 599.152 301.462 599.314C301.274 599.475 301.147 599.698 301.102 599.944C301.075 600.248 301.139 600.553 301.286 600.82C301.428 601.2 301.62 601.557 301.856 601.884C302.159 602.268 302.445 602.675 302.782 603.055C302.661 603.087 302.551 603.15 302.46 603.236C301.936 603.856 302.474 604.757 302.759 605.289C302.935 605.551 303.144 605.787 303.381 605.993C303.312 606.668 304.389 607.843 304.709 608.12C304.878 608.28 305.058 608.428 305.248 608.562C303.624 610.242 302.067 611.998 300.561 613.811C300.475 613.934 300.379 614.049 300.273 614.156C300.133 614.076 299.987 614.008 299.835 613.954C299.618 613.866 299.414 613.748 299.229 613.603C298.488 613.1 297.934 612.097 298.425 611.021C298.629 610.54 299.221 609.912 299.476 609.279C299.531 609.102 299.548 608.914 299.525 608.729C299.503 608.544 299.441 608.367 299.344 608.209C299.666 607.485 300.444 606.857 300.682 606.039C300.718 605.882 300.71 605.718 300.66 605.565C300.61 605.412 300.519 605.277 300.397 605.173C300.516 604.931 300.652 604.665 300.77 604.423C301.313 603.446 301.519 601.796 300.254 601.956C300.186 601.963 300.136 601.99 300.068 601.997C300.292 600.325 301.124 598.001 299.303 597.534C299.169 597.514 299.033 597.515 298.898 597.537C299.137 596.718 299.443 595.85 299.243 594.996C299.027 593.622 297.609 593.736 296.764 594.371C296.577 594.507 296.407 594.666 296.257 594.844C296.057 593.614 295.605 592.475 294.508 592.533C292.449 592.801 291.498 595.325 291.273 597.581C291.256 597.688 291.255 597.771 291.238 597.877C291.184 597.857 291.127 597.849 291.07 597.854C290.479 597.773 289.871 598.299 289.481 598.863C288.6 600.294 288.899 602.181 289.351 603.612C289.368 603.673 289.401 603.711 289.418 603.771C288.911 604.077 288.69 604.873 288.79 605.488C288.87 605.894 289.042 606.275 289.293 606.601C289.485 606.858 289.733 607.066 290.017 607.21C289.949 607.551 290.133 607.844 290.319 608.053C290.772 608.566 291.514 608.902 291.918 609.316C292.149 609.618 292.357 609.937 292.54 610.27C291.796 610.852 291.288 611.826 291.656 612.87C292.242 614.787 293.96 616.017 295.664 615.809C296.508 615.717 297.354 614.998 297.995 614.886C298.265 614.856 298.534 615.035 298.719 615.328C298.82 615.484 298.87 615.624 298.937 615.741C297.397 617.725 295.907 619.808 294.771 622.165C294.364 622.96 293.991 623.794 293.617 624.628C292.806 625.134 292.064 625.048 291.458 624.448C290.852 623.721 291.074 622.508 290.959 621.373C290.894 620.861 290.704 620.372 290.406 619.953C290.086 619.675 289.614 619.519 289.209 619.731C289.127 619.381 288.939 619.065 288.671 618.83C288.132 618.389 287.39 618.512 287.084 619.171C286.714 618.753 286.293 618.445 285.754 618.42C284.911 618.305 284.234 618.963 284.164 619.888C283.745 619.868 283.33 619.987 282.983 620.227C281.884 620.994 281.339 622.973 282.146 624.094L282.18 624.132C281.486 624.771 281.129 625.958 282.242 626.169C282.694 626.227 283.152 626.17 283.576 626.002C283.393 626.445 283.311 626.925 283.336 627.405C283.336 627.64 283.411 627.87 283.551 628.058C283.69 628.246 283.886 628.382 284.109 628.446C284.43 628.515 284.784 628.415 285.105 628.316C285.176 628.287 285.244 628.252 285.308 628.21C285.305 629.546 286.418 629.966 287.702 629.157C287.817 629.079 287.924 628.991 288.023 628.893C288.269 628.955 288.524 628.966 288.774 628.924C289.023 628.883 289.262 628.789 289.475 628.65C289.796 628.427 290.016 628.006 290.203 627.631C290.627 626.729 290.579 625.504 291.338 625.609C291.682 625.611 292.018 625.703 292.316 625.877C292.535 625.956 292.737 626.226 292.973 626.117C292.838 626.466 292.685 626.837 292.566 627.205C292.524 627.227 292.489 627.26 292.464 627.3C292.174 628.438 291.144 628.822 290.366 629.7C289.894 630.227 289.536 630.849 289.315 631.526C289.277 631.63 289.248 631.738 289.23 631.848C288.655 632.495 288.028 633.419 288.364 634.175C288.437 634.313 288.534 634.437 288.65 634.541C288.508 635.096 288.467 635.673 288.528 636.244C288.559 636.949 288.659 637.689 288.961 638.115C288.202 638.344 287.615 636.469 286.367 636.481C286.206 636.457 286.042 636.47 285.887 636.52C285.732 636.569 285.591 636.654 285.472 636.767C284.343 636.453 283.477 638.696 284.368 639.913C284.569 640.136 284.834 640.289 285.126 640.351C285.101 640.511 285.118 640.674 285.175 640.825C285.495 641.271 286.052 641.146 286.508 640.908C286.777 641.379 287.401 641.415 287.84 641.158C288.246 640.864 288.5 640.314 288.822 639.883C288.941 639.682 289.245 639.44 289.295 639.455L289.65 639.354C289.376 641.327 289.269 643.321 289.331 645.312C289.426 647.972 289.892 650.549 290.493 653.028C291.094 655.673 292.1 658.149 293.512 660.205C293.916 660.787 294.343 661.352 294.79 661.9C294.828 661.961 294.886 662.007 294.953 662.03C295.021 662.053 295.094 662.052 295.161 662.027C295.8 662.08 295.8 661.746 295.498 661.488ZM308.383 603.192C308.424 602.117 308.785 601.081 309.419 600.22C309.499 600.104 309.589 599.996 309.69 599.899C309.569 601.059 309.516 602.212 309.445 603.346C309.41 603.809 309.392 604.291 309.357 604.753C309.222 604.894 309.07 605.015 308.952 605.132C308.916 605.102 308.893 605.06 308.884 605.014C308.58 604.455 308.408 603.831 308.383 603.192ZM309.941 607.38C309.602 607.14 309.315 606.831 309.1 606.471C309.024 606.344 308.957 606.212 308.899 606.076C308.949 606.092 309.034 606.061 309.084 606.076C309.371 606.024 309.472 606.013 309.776 605.979C310.375 605.904 310.979 605.886 311.582 605.927C312.526 605.991 313.976 606.415 315.426 606.673L315.123 606.706C314.008 606.954 312.758 607.55 311.797 607.635C311.054 607.633 310.514 607.692 309.941 607.38L309.941 607.38Z" fill="#319991"/>
<path id="Vector_8" d="M288.67 640.877C289.242 640.12 289.853 639.555 290.441 638.709C290.459 638.685 290.476 638.639 290.493 638.614C292.088 637.563 293.981 636.362 295.552 634.965C298.032 632.744 300.165 629.958 302.084 627.028C304.541 623.455 306.406 619.373 307.718 615.063C308.219 613.18 309.871 609.063 308.696 607.587C307.55 606.827 304.608 608.916 303.47 609.729C298.9 613.193 295.173 617.677 292.577 622.835C290.863 626.393 290.328 630.596 290.868 634.41C290.935 635.275 291.04 636.353 290.859 637.186C290.729 637.64 290.533 638.072 290.278 638.468C290.245 638.49 290.216 638.516 290.19 638.546C290.168 638.58 290.157 638.619 290.157 638.66C289.815 639.122 289.443 639.56 289.044 639.971C288.94 640.095 288.836 640.24 288.731 640.364C288.773 639.616 288.814 638.867 288.837 638.099C288.838 634.887 288.504 631.743 288.206 628.595C288.073 626.931 287.922 625.247 287.736 623.591C288.902 622.272 290.122 621.054 291.179 619.619C293.401 616.638 295.342 613.451 296.977 610.101C299.081 605.506 301.646 600.891 302.324 595.707C302.36 594.61 302.454 592.783 301.526 592.343C301.313 592.285 301.084 592.404 300.874 592.521L299.505 593.3C298.241 593.95 297.089 594.802 296.092 595.825C292.034 600.056 288.968 606.532 287.988 612.785C287.59 615.615 287.689 618.463 287.416 621.297V621.319C287.357 620.956 287.298 620.593 287.222 620.254C286.644 617.362 285.766 614.578 285.189 611.686C284.882 610.221 284.593 608.731 284.286 607.266V607.244C284.293 606.588 284.285 606.064 284.435 605.519C284.722 604.606 285.503 603.646 286.089 602.647C287.416 600.388 288.314 597.839 289.355 595.401C291.007 591.284 292.533 587.074 293.347 582.636C293.559 581.571 293.702 580.493 293.774 579.408C293.909 577.926 292.887 578.198 292.099 578.788C290.522 579.89 289.122 581.233 287.948 582.77C286.909 584.225 286.229 586.001 285.566 587.731C284.598 590.312 283.667 592.975 283.304 595.734C283.144 597.323 283.169 598.926 283.381 600.508C283.491 601.87 283.866 603.107 284.187 604.373C284.26 604.56 284.248 604.868 284.339 605.052C284.231 605.292 284.152 605.545 284.103 605.805L284.056 606.205C283.828 605.187 283.599 604.193 283.335 603.202C282.661 600.936 281.831 598.887 281.141 596.71C280.491 594.855 279.719 593.061 279.034 591.233C279.047 591.193 279.064 591.154 279.085 591.117C279.158 590.963 279.238 590.814 279.326 590.668C279.862 589.873 280.525 589.214 281.097 588.457C281.861 587.478 282.66 586.537 283.352 585.48C284.076 584.302 284.731 583.081 285.312 581.823C286.702 579.053 287.556 575.986 288.161 572.888C288.374 571.788 288.462 570.705 288.606 569.724C288.67 569.278 288.733 568.81 288.761 568.369C288.758 568.173 288.754 567.911 288.593 567.824C288.379 567.723 288.189 567.99 288.032 568.142C287.631 568.547 287.23 568.931 286.828 569.292C285.744 570.185 284.57 570.937 283.596 572.033C281.755 574.028 280.441 576.464 279.778 579.115C279.334 581.229 279.457 583.376 279.455 585.473C279.439 586.699 279.442 587.944 279.229 589.044C279.132 589.604 278.981 590.149 278.849 590.714C278.419 589.54 278.051 588.343 277.746 587.13C277.689 586.884 277.65 586.634 277.628 586.382C277.674 586.297 277.703 586.204 277.712 586.108C277.743 585.893 277.793 585.681 277.861 585.475C278.179 584.295 278.567 583.127 278.743 581.923C278.867 580.814 278.725 579.719 278.672 578.634C278.54 576.637 278.271 574.652 277.868 572.693C276.747 567.932 275.278 563.569 273.525 559.179C273.342 558.854 273.07 557.318 272.669 557.746C272.242 558.679 272.011 559.759 271.69 560.743C270.333 565.541 270.539 570.668 271.692 575.207C272.039 576.542 272.462 577.855 272.96 579.139C273.494 580.42 274.203 581.567 274.842 582.746C275.445 583.865 276.1 584.954 276.928 585.823C277.026 585.935 277.134 586.037 277.252 586.128C277.426 587.519 277.739 588.889 278.185 590.215C276.158 587.481 274.908 583.502 272.045 581.691C270.756 580.82 269.296 580.344 267.804 580.092C266.675 579.839 265.512 579.785 264.365 579.933C263.801 580.054 263.198 580.007 262.672 580.341C261.959 581.161 262.935 582.381 263.386 582.93C264.252 583.925 265.309 584.653 266.33 585.364C267.243 586.002 268.122 586.668 269.087 587.211C268.803 589.37 268.484 591.577 268.873 593.752C269.598 598.109 271.805 602.064 275.075 603.863C276.075 604.402 277.193 604.51 278.276 604.71C278.913 604.813 279.518 605.067 280.041 605.449C281.028 606.253 282.05 607.029 283.175 607.551C283.26 607.599 283.349 607.638 283.442 607.667C283.829 609.689 284.18 611.737 284.602 613.755C285.215 616.599 285.986 619.376 286.387 622.314C286.468 622.958 286.549 623.602 286.612 624.227C285.231 620.922 284.217 617.327 282.415 614.342C281.219 612.401 279.856 610.571 278.343 608.874C277.316 607.814 276.252 606.628 274.916 606.157C272.673 605.418 270.221 605.998 267.973 606.068C267.357 606.328 267.87 607.372 268.001 607.812C268.908 610.265 270.478 612.123 272.03 613.919C273.565 615.739 275.013 617.658 276.703 619.26C277.964 620.572 279.483 621.432 281.019 622.203C282.126 622.793 283.165 623.523 284.221 624.23C285.009 624.768 285.854 625.216 286.74 625.564C286.869 626.967 286.979 628.35 287.09 629.754C287.329 632.453 287.545 634.913 287.589 637.638C287.595 639.123 287.53 640.596 287.43 642.074C286.301 641.247 285.761 639.595 285.134 638.043C284.231 635.852 283.1 633.823 281.935 631.843C280.752 629.865 279.431 628.147 278.251 626.3C276.633 623.683 274.927 621.144 272.978 618.901C272.076 617.889 271.018 617.052 269.807 616.63C268.968 616.199 268.891 616.953 269.011 617.81C269.768 621.922 270.016 626.301 271.563 630.042C272.168 631.548 272.884 633.004 273.705 634.4C274.27 635.393 274.853 636.405 275.61 637.196C277.537 639.158 279.914 640.469 282.352 641.268C283.207 641.587 284.111 641.593 285.014 641.599C285.446 641.612 285.879 641.582 286.305 641.508L286.394 641.496C286.571 641.747 286.776 641.975 287.007 642.176C287.129 642.286 287.261 642.385 287.401 642.471C287.182 645.232 286.776 647.975 286.187 650.679C286.015 649.914 285.754 649.173 285.408 648.471C285.017 647.769 284.46 647.177 283.786 646.75C282.232 645.938 280.637 645.831 279.136 644.989C277.832 644.339 276.844 643.427 275.711 642.382C274.991 641.716 274.271 640.986 273.381 640.65C271.885 640.114 270.218 641.13 268.944 642.29C268.474 642.748 267.985 643.209 267.55 643.706C267.152 644.263 267.462 644.854 267.805 645.222C268.525 645.974 269.435 646.373 270.361 646.682C271.451 647.047 272.521 647.468 273.569 647.943C274.819 648.579 276.104 649.253 277.567 648.746C278.413 648.498 279.167 648.022 279.926 647.873C281.535 647.695 282.87 649.236 284.13 650.526C284.518 650.916 284.99 651.21 285.508 651.385C285.677 651.449 285.86 651.468 286.04 651.442C285.577 653.538 285.151 655.651 284.546 657.7C284.479 657.928 284.478 657.885 284.394 658.137V658.18C284.394 658.202 284.394 658.202 284.377 658.226V658.248C284.361 658.338 284.398 658.42 284.469 658.432C284.676 658.441 284.882 658.398 285.069 658.305C285.319 658.423 285.6 657.205 285.668 657.043C286.055 655.744 286.388 654.409 286.72 653.095C287.104 653.081 287.481 652.992 287.832 652.833C288.153 652.654 288.448 652.429 288.706 652.166C288.743 652.248 288.867 652.231 288.972 652.194C289.537 652.073 290.123 652.145 290.76 652.1C291.495 652.035 292.227 651.927 292.951 651.776C294.733 651.355 296.437 650.508 298.085 649.472C300.933 647.818 303.392 645.555 305.293 642.839C305.967 641.806 306.693 640.745 306.992 639.48C307.041 639.211 307.141 638.869 306.979 638.673C306.816 638.477 306.535 638.603 306.321 638.567C305.924 638.576 305.527 638.551 305.134 638.491C303.695 638.231 302.238 637.995 300.74 638.399C297.671 639.151 293.604 642.859 291.922 646.238C291.131 647.701 290.627 649.388 289.744 650.624C289.261 651.254 288.705 651.823 288.088 652.317C287.729 652.565 287.308 652.706 286.873 652.725L286.838 652.73C286.971 652.187 287.104 651.623 287.236 651.08C287.939 647.715 288.418 644.307 288.67 640.877ZM281.147 605.844C281.127 605.82 281.102 605.801 281.075 605.788C281.089 605.589 280.926 605.35 280.923 605.132C280.745 603.998 280.585 602.841 280.178 601.804C279.363 599.579 278.252 597.613 277.174 595.599C276.15 593.621 274.917 591.825 273.771 589.952C273.589 589.649 273.407 589.346 273.225 589.044C273.635 589.206 274.027 589.37 274.437 589.532C275.65 590.042 276.846 590.641 278.143 590.877C278.178 590.894 278.214 590.889 278.249 590.906C278.285 590.923 278.303 590.964 278.339 590.981L278.375 590.976C278.766 592.146 279.208 593.286 279.599 594.434C280.191 596.034 280.622 597.461 281.108 599.098C281.631 600.773 282.15 602.209 282.568 603.943C282.815 604.98 283.026 606.043 283.22 607.086C282.493 606.738 281.799 606.322 281.147 605.844Z" fill="#98DED9"/>
<path id="Vector_9" d="M295.074 642.817C295.567 642.79 296.005 642.873 296.537 642.813C296.553 642.812 296.576 642.8 296.591 642.799C297.579 643.212 298.735 643.723 299.841 643.962C301.593 644.332 303.419 644.247 305.217 643.974C307.454 643.707 309.652 642.872 311.725 641.621C312.603 641.033 314.733 640.062 314.828 638.718C314.672 637.723 312.794 637.031 312.066 636.765C309.174 635.793 306.056 635.765 303.148 636.686C301.199 637.364 299.46 639.005 298.27 641.07C297.979 641.507 297.625 642.065 297.252 642.348C297.043 642.482 296.808 642.572 296.564 642.612C296.544 642.604 296.523 642.6 296.502 642.599C296.481 642.603 296.461 642.615 296.448 642.633C296.148 642.654 295.846 642.647 295.547 642.612C295.463 642.61 295.37 642.619 295.285 642.618C295.574 642.295 295.864 641.972 296.153 641.631C297.328 640.148 298.35 638.508 299.388 636.885C299.946 636.043 300.504 635.179 301.039 634.31C301.963 634.356 302.87 634.481 303.795 634.414C305.727 634.287 307.635 633.907 309.471 633.282C311.947 632.344 314.606 631.657 316.758 629.644C317.172 629.158 317.876 628.367 317.685 627.641C317.619 627.51 317.508 627.408 317.373 627.355L316.57 626.944C315.888 626.544 315.135 626.288 314.354 626.189C311.27 625.858 307.741 627.122 305.084 629.459C303.9 630.542 302.896 631.913 301.756 633.068L301.749 633.078C301.859 632.877 301.969 632.676 302.064 632.477C302.903 630.816 303.588 629.036 304.426 627.375C304.846 626.525 305.28 625.674 305.7 624.825L305.707 624.814C305.899 624.542 306.131 624.302 306.395 624.102C306.837 623.841 307.484 623.838 308.071 623.707C309.399 623.41 310.671 622.739 311.957 622.199C314.087 621.227 316.204 620.142 318.135 618.551C318.613 618.17 319.062 617.752 319.476 617.3C320.069 616.692 319.582 616.242 319.069 616.071C318.104 615.697 317.073 615.528 316.041 615.572C315.116 615.659 314.209 616.097 313.326 616.523C312.016 617.169 310.689 617.875 309.543 618.945C308.88 619.618 308.303 620.373 307.827 621.194C307.371 621.885 307.06 622.667 306.72 623.433C306.68 623.56 306.562 623.695 306.53 623.832C306.398 623.884 306.275 623.957 306.165 624.047L306.001 624.206C306.286 623.607 306.563 623.019 306.825 622.413C307.399 620.987 307.833 619.573 308.367 618.179C308.799 616.956 309.162 615.693 309.571 614.463C309.59 614.451 309.611 614.443 309.633 614.438C309.716 614.408 309.801 614.384 309.888 614.366C310.382 614.301 310.874 614.37 311.367 614.342C312.016 614.345 312.664 614.31 313.309 614.237C314.017 614.1 314.713 613.904 315.389 613.651C316.928 613.154 318.373 612.218 319.735 611.128C320.217 610.74 320.647 610.29 321.06 609.917C321.247 609.747 321.442 609.567 321.614 609.379C321.659 609.335 321.695 609.281 321.718 609.221C321.742 609.161 321.752 609.097 321.749 609.033C321.705 608.865 321.535 608.881 321.42 608.864C321.121 608.825 320.828 608.776 320.544 608.717C319.807 608.519 319.087 608.205 318.318 608.163C316.885 608.049 315.459 608.445 314.283 609.284C313.342 610.011 312.604 611.071 311.836 612.039C311.382 612.596 310.929 613.173 310.446 613.561C310.204 613.765 309.948 613.932 309.691 614.118C309.947 613.407 310.235 612.58 310.583 611.842C310.65 611.699 310.726 611.561 310.812 611.429C310.862 611.415 310.908 611.388 310.944 611.35C311.032 611.27 311.128 611.2 311.232 611.142C311.783 610.776 312.357 610.455 312.864 609.997C313.317 609.554 313.663 608.969 314.04 608.438C314.733 607.417 315.357 606.349 315.907 605.241C317.197 602.425 318.298 599.522 319.201 596.553C319.251 596.301 319.709 595.438 319.401 595.41C318.898 595.601 318.415 595.969 317.935 596.243C315.667 597.695 313.871 600.179 312.648 602.925C312.286 603.751 311.967 604.595 311.691 605.455C311.425 606.347 311.275 607.277 311.086 608.181C310.887 609.032 310.775 609.902 310.751 610.776C310.747 610.884 310.751 610.992 310.762 611.099C310.308 611.865 309.926 612.674 309.622 613.513C309.853 611.108 310.834 608.567 310.412 606.118C310.235 605.028 309.89 603.973 309.39 602.992C309.071 602.265 308.652 601.589 308.145 600.982C307.887 600.721 307.676 600.359 307.355 600.217C306.785 600.195 306.709 601.307 306.679 601.815C306.643 602.763 306.777 603.694 306.904 604.598C307.017 605.407 307.107 606.209 307.273 607.004C306.377 607.841 305.449 608.681 304.802 609.904C303.484 612.325 302.874 615.395 303.455 618.067C303.637 618.879 304.021 619.558 304.358 620.261C304.565 620.68 304.7 621.131 304.756 621.596C304.816 622.519 304.956 623.434 305.175 624.331C305.19 624.401 305.21 624.469 305.234 624.535C304.641 625.687 304.026 626.831 303.448 628.002C302.641 629.66 301.918 631.377 300.996 632.96C300.791 633.303 300.586 633.646 300.382 633.97C301.067 631.666 301.997 629.434 302.406 627.041C302.664 625.447 302.816 623.837 302.861 622.222C302.86 621.155 302.89 620.008 302.557 619.038C301.977 617.434 300.836 616.32 299.959 615.087C299.63 614.861 299.443 615.631 299.332 615.908C298.779 617.552 298.694 619.295 298.626 620.998C298.542 622.703 298.389 624.405 298.444 626.096C298.442 627.412 298.703 628.665 299.002 629.886C299.206 630.782 299.333 631.704 299.475 632.625C299.576 633.315 299.732 633.996 299.941 634.66C299.477 635.381 299.014 636.082 298.542 636.793C297.646 638.174 296.829 639.433 295.849 640.716C295.309 641.405 294.746 642.049 294.168 642.675C294.043 641.657 294.442 640.59 294.771 639.52C295.212 637.987 295.564 636.429 295.826 634.855C296.101 633.275 296.229 631.739 296.457 630.22C296.822 628.108 297.058 625.975 297.164 623.834C297.211 622.874 297.085 621.913 296.793 620.999C296.632 620.328 296.328 620.633 296.06 621.096C294.844 623.422 293.337 625.584 292.555 628.183C292.23 629.239 291.969 630.314 291.774 631.402C291.601 632.179 291.501 632.97 291.474 633.766C291.505 635.706 291.865 637.626 292.539 639.442C292.758 640.032 293.057 640.588 293.426 641.094C293.58 641.337 293.755 641.567 293.949 641.779L293.987 641.823C293.962 642.042 293.956 642.263 293.97 642.483C293.976 642.603 293.99 642.723 294.012 642.841C292.944 643.971 291.786 645.01 290.552 645.949C290.772 645.482 290.944 644.993 291.064 644.49C291.172 643.926 291.177 643.347 291.078 642.782C290.786 641.532 290.221 640.584 289.96 639.35C289.704 638.316 289.663 637.338 289.616 636.218C289.587 635.506 289.581 634.763 289.365 634.106C288.995 633.016 287.992 632.548 287.085 632.365C286.739 632.303 286.39 632.259 286.04 632.234C285.685 632.267 285.587 632.715 285.582 633.078C285.602 633.803 285.749 634.519 286.016 635.191C286.291 635.976 286.55 636.762 286.771 637.58C287.012 638.578 287.252 639.613 287.991 640.202C288.403 640.564 288.862 640.769 289.204 641.127C289.879 641.951 289.821 643.415 289.827 644.721C289.831 645.121 289.902 645.517 290.035 645.893C290.073 646.013 290.134 646.124 290.216 646.219C289.274 646.927 288.341 647.663 287.362 648.269C287.253 648.337 287.268 648.316 287.145 648.385L287.129 648.405C287.122 648.416 287.122 648.416 287.106 648.417L287.098 648.427C287.079 648.443 287.065 648.465 287.059 648.49C287.053 648.515 287.055 648.541 287.066 648.564C287.134 648.678 287.228 648.773 287.339 648.843C287.391 649.039 287.943 648.634 288.028 648.598C288.649 648.216 289.263 647.787 289.869 647.367C290.009 647.566 290.184 647.738 290.386 647.872C290.565 647.968 290.76 648.03 290.961 648.056C290.945 648.115 290.998 648.176 291.051 648.219C291.31 648.481 291.505 648.844 291.763 649.182C292.06 649.56 292.376 649.922 292.711 650.266C293.527 651.037 294.47 651.656 295.498 652.093C297.097 652.887 298.856 653.285 300.653 653.088C301.286 652.99 301.949 652.909 302.525 652.493C302.641 652.396 302.804 652.295 302.815 652.113C302.825 651.931 302.672 651.831 302.604 651.694C302.448 651.47 302.306 651.235 302.182 650.99C301.732 650.06 301.266 649.131 300.551 648.474C299.114 647.093 296.218 646.515 294.346 647.129C293.511 647.36 292.704 647.855 291.917 647.928C291.497 647.947 291.076 647.896 290.671 647.778C290.426 647.676 290.214 647.504 290.062 647.282L290.046 647.265C290.295 647.089 290.552 646.903 290.8 646.727C292.325 645.542 293.754 644.234 295.074 642.817ZM305.03 622.399C305.031 622.377 305.028 622.354 305.023 622.333C305.101 622.249 305.127 622.047 305.205 621.944C305.552 621.321 305.914 620.696 306.139 619.988C306.644 618.502 306.941 616.967 307.27 615.431C307.605 613.941 307.794 612.417 308.045 610.906L308.17 610.18C308.266 610.485 308.355 610.782 308.451 611.088C308.724 612.006 308.958 612.956 309.363 613.795C309.37 613.823 309.385 613.841 309.393 613.869C309.4 613.897 309.392 613.926 309.399 613.954L309.415 613.972C309.135 614.732 308.886 615.508 308.615 616.258C308.255 617.331 307.896 618.232 307.482 619.262C307.067 620.331 306.739 621.286 306.263 622.322C305.978 622.94 305.67 623.55 305.362 624.141C305.213 623.569 305.102 622.987 305.03 622.399Z" fill="#42C2B9"/>
<path id="Vector_10" fill-rule="evenodd" clip-rule="evenodd" d="M272.929 650.411H306.594L302.076 659.19C300.9 661.475 299.132 663.389 296.962 664.724C294.791 666.06 292.303 666.766 289.765 666.766H289.758C287.22 666.766 284.732 666.06 282.562 664.724C280.391 663.389 278.623 661.475 277.448 659.19C275.245 654.912 272.929 650.411 272.929 650.411Z" fill="#B2B7F0"/>
<g id="Clip path group">
<mask id="mask0_7038_225" style="mask-type:luminance" maskUnits="userSpaceOnUse" x="272" y="650" width="35" height="17">
<g id="a">
<path id="Vector_11" d="M272.929 650.411H306.594L302.076 659.19C300.9 661.475 299.132 663.389 296.962 664.724C294.791 666.06 292.303 666.766 289.765 666.766H289.758C287.22 666.766 284.732 666.06 282.562 664.724C280.391 663.389 278.623 661.475 277.448 659.19C275.245 654.912 272.929 650.411 272.929 650.411Z" fill="white"/>
</g>
</mask>
<g mask="url(#mask0_7038_225)">
<g id="Group">
<path id="Vector_12" fill-rule="evenodd" clip-rule="evenodd" d="M302.869 650.411C297.219 650.197 277.413 649.436 272.685 650.411C270.711 650.819 274.502 656.266 274.502 656.266C274.502 656.266 301.864 652.666 306.591 651.691C307.874 651.426 304.179 650.461 302.869 650.411Z" fill="black" fill-opacity="0.2"/>
</g>
</g>
</g>
<path id="Vector_13" fill-rule="evenodd" clip-rule="evenodd" d="M307.942 646.672H271.581V646.677C271.581 647.335 271.708 647.987 271.956 648.595C272.204 649.204 272.568 649.756 273.026 650.222C273.484 650.687 274.028 651.057 274.627 651.309C275.225 651.56 275.867 651.69 276.515 651.69H303.007C304.316 651.69 305.571 651.162 306.496 650.222C307.422 649.282 307.942 648.007 307.942 646.677V646.672Z" fill="#1B81A6"/>
<path id="Vector_14" fill-rule="evenodd" clip-rule="evenodd" d="M157.824 461.485C158.687 459.879 160.411 459.879 161.273 460.683C162.135 461.487 162.135 463.089 161.273 464.695C160.67 465.898 159.118 467.102 157.824 467.905C156.531 467.102 154.98 465.898 154.377 464.695C153.515 463.089 153.515 461.485 154.377 460.683C155.239 459.881 156.962 459.879 157.824 461.485Z" fill="#B2B7F0"/>
<path id="Vector_15" fill-rule="evenodd" clip-rule="evenodd" d="M330.751 539.526C330.751 537.648 332.915 536.124 335.581 536.124C338.247 536.124 340.409 537.649 340.409 539.526C340.409 540.636 339.641 541.677 338.351 542.313L338.961 544.631L336.831 542.814C336.419 542.891 336 542.93 335.581 542.929C332.915 542.929 330.751 541.404 330.751 539.526Z" fill="#1B81A6"/>
<g id="Group_2">
<path id="Vector_16" fill-rule="evenodd" clip-rule="evenodd" d="M303.395 474.328C302.852 474.329 302.331 474.548 301.947 474.938C301.563 475.329 301.347 475.857 301.347 476.409V494.751C301.347 495.303 301.562 495.832 301.946 496.222C302.331 496.613 302.852 496.832 303.395 496.832C303.938 496.832 304.459 496.613 304.843 496.222C305.227 495.832 305.443 495.303 305.443 494.751V476.409C305.443 475.857 305.227 475.328 304.843 474.938C304.459 474.548 303.938 474.329 303.395 474.328ZM312.38 478.243C311.837 478.243 311.316 478.463 310.932 478.853C310.548 479.244 310.332 479.773 310.332 480.325V494.75C310.332 495.302 310.548 495.831 310.932 496.222C311.316 496.612 311.837 496.831 312.38 496.831C312.923 496.831 313.444 496.612 313.828 496.222C314.213 495.831 314.428 495.302 314.428 494.75V480.325C314.428 479.773 314.212 479.244 313.828 478.853C313.444 478.463 312.923 478.243 312.38 478.243ZM320.725 474.335C320.182 474.335 319.662 474.555 319.278 474.945C318.894 475.335 318.678 475.864 318.677 476.416V495.091C318.677 495.643 318.893 496.172 319.277 496.562C319.661 496.953 320.182 497.172 320.725 497.172C321.269 497.172 321.79 496.953 322.174 496.562C322.558 496.172 322.774 495.643 322.774 495.091V476.416C322.773 475.864 322.557 475.335 322.173 474.944C321.789 474.554 321.268 474.335 320.725 474.335ZM329.03 463.376C328.487 463.377 327.967 463.596 327.583 463.987C327.199 464.377 326.983 464.906 326.982 465.458V495.078C326.982 495.629 327.198 496.159 327.582 496.549C327.966 496.939 328.487 497.159 329.03 497.159C329.574 497.159 330.095 496.939 330.479 496.549C330.863 496.159 331.079 495.629 331.079 495.078V465.458C331.078 464.906 330.862 464.377 330.478 463.987C330.094 463.596 329.574 463.377 329.03 463.376ZM336.808 470.698C336.265 470.698 335.744 470.918 335.36 471.308C334.976 471.699 334.76 472.228 334.76 472.78V495.088C334.76 495.64 334.976 496.169 335.36 496.559C335.744 496.949 336.265 497.169 336.808 497.169C337.352 497.169 337.873 496.949 338.257 496.559C338.641 496.169 338.857 495.64 338.857 495.088V472.78C338.856 472.228 338.641 471.699 338.257 471.308C337.872 470.918 337.352 470.698 336.808 470.698Z" fill="#E7E7E7"/>
</g>
<g id="Group_3">
<path id="Vector_17" fill-rule="evenodd" clip-rule="evenodd" d="M195.112 555.551C194.569 555.551 194.049 555.771 193.665 556.161C193.281 556.551 193.065 557.08 193.064 557.632V575.973C193.069 576.522 193.287 577.047 193.67 577.433C194.054 577.819 194.572 578.036 195.112 578.036C195.652 578.036 196.171 577.819 196.554 577.433C196.938 577.047 197.156 576.522 197.161 575.973V557.632C197.16 557.08 196.945 556.551 196.561 556.16C196.176 555.77 195.656 555.551 195.112 555.551ZM204.098 546.344C203.554 546.345 203.033 546.564 202.649 546.955C202.265 547.346 202.049 547.875 202.049 548.427V575.973C202.054 576.522 202.272 577.046 202.655 577.433C203.039 577.819 203.557 578.036 204.098 578.036C204.638 578.036 205.156 577.819 205.54 577.433C205.923 577.046 206.141 576.522 206.146 575.973V548.426C206.146 547.875 205.93 547.345 205.546 546.955C205.162 546.564 204.641 546.345 204.098 546.344ZM212.443 551.002C211.9 551.003 211.379 551.222 210.995 551.613C210.611 552.003 210.395 552.532 210.395 553.084V576.306C210.395 576.858 210.61 577.387 210.995 577.777C211.379 578.167 211.9 578.387 212.443 578.387C212.986 578.387 213.507 578.167 213.891 577.777C214.275 577.387 214.491 576.858 214.491 576.306V553.084C214.491 552.532 214.275 552.003 213.891 551.613C213.507 551.222 212.986 551.003 212.443 551.002ZM220.748 565.577C220.205 565.577 219.684 565.797 219.3 566.187C218.916 566.577 218.7 567.106 218.7 567.658V576.306C218.704 576.855 218.922 577.38 219.306 577.766C219.689 578.152 220.208 578.369 220.748 578.369C221.288 578.369 221.806 578.152 222.19 577.766C222.574 577.38 222.792 576.855 222.796 576.306V567.658C222.796 567.106 222.58 566.577 222.196 566.187C221.812 565.797 221.291 565.577 220.748 565.577ZM228.526 562.2C227.983 562.201 227.462 562.42 227.078 562.81C226.694 563.201 226.478 563.73 226.478 564.281V576.307C226.475 576.581 226.526 576.854 226.628 577.109C226.73 577.363 226.881 577.595 227.071 577.79C227.262 577.985 227.488 578.14 227.738 578.246C227.988 578.352 228.255 578.406 228.526 578.406C228.796 578.406 229.064 578.352 229.314 578.246C229.564 578.14 229.79 577.985 229.981 577.79C230.171 577.595 230.322 577.363 230.423 577.109C230.525 576.854 230.577 576.581 230.574 576.307V564.281C230.574 563.73 230.358 563.2 229.974 562.81C229.59 562.42 229.069 562.2 228.526 562.2Z" fill="#E7E7E7"/>
</g>
<g id="Group_4">
<path id="Vector_18" fill-rule="evenodd" clip-rule="evenodd" d="M328.467 538.194C328.467 537.986 328.386 537.787 328.242 537.641C328.097 537.494 327.901 537.411 327.697 537.411H318.163C317.959 537.411 317.763 537.494 317.618 537.64C317.474 537.787 317.393 537.986 317.393 538.194C317.393 538.401 317.474 538.6 317.618 538.747C317.763 538.894 317.959 538.976 318.163 538.976H327.697C327.901 538.976 328.097 538.894 328.242 538.747C328.386 538.6 328.467 538.401 328.467 538.194ZM326.54 541.626C326.54 541.418 326.459 541.219 326.314 541.072C326.17 540.926 325.974 540.843 325.77 540.843H318.162C317.958 540.843 317.762 540.926 317.618 541.072C317.473 541.219 317.392 541.418 317.392 541.626C317.392 541.833 317.473 542.032 317.618 542.179C317.762 542.326 317.958 542.408 318.162 542.408H325.77C325.974 542.408 326.17 542.325 326.314 542.179C326.459 542.032 326.54 541.833 326.54 541.626Z" fill="#E7E7E7"/>
</g>
<g id="Group_5">
<path id="Vector_19" fill-rule="evenodd" clip-rule="evenodd" d="M163.567 461.667C163.567 461.46 163.648 461.261 163.793 461.114C163.937 460.967 164.133 460.885 164.337 460.885H171.273C171.475 460.888 171.669 460.972 171.811 461.118C171.953 461.264 172.032 461.462 172.032 461.667C172.032 461.873 171.953 462.07 171.811 462.217C171.669 462.363 171.475 462.447 171.273 462.45H164.337C164.133 462.45 163.937 462.367 163.793 462.22C163.648 462.074 163.567 461.875 163.567 461.667ZM165.042 465.099C165.042 464.892 165.124 464.693 165.268 464.546C165.412 464.399 165.608 464.317 165.813 464.317H171.273C171.477 464.317 171.673 464.399 171.818 464.546C171.962 464.692 172.043 464.892 172.043 465.099C172.043 465.307 171.962 465.506 171.818 465.652C171.673 465.799 171.477 465.881 171.273 465.881H165.813C165.608 465.881 165.412 465.799 165.268 465.652C165.123 465.506 165.042 465.307 165.042 465.099Z" fill="#E7E7E7"/>
</g>
<path id="Vector_20" fill-rule="evenodd" clip-rule="evenodd" d="M246.517 450.679C220.61 450.679 199.606 472.018 199.606 498.337C199.606 524.64 220.627 545.997 246.517 545.997C272.404 545.997 293.426 524.64 293.426 498.337C293.425 489.516 291.016 480.868 286.465 473.357C281.914 465.845 275.401 459.763 267.65 455.789L246.517 498.337V450.679Z" fill="#1B81A6"/>
<g id="Clip path group_2">
<mask id="mask1_7038_225" style="mask-type:luminance" maskUnits="userSpaceOnUse" x="199" y="450" width="95" height="96">
<g id="b">
<path id="Vector_21" d="M246.517 450.679C220.61 450.679 199.606 472.018 199.606 498.337C199.606 524.64 220.627 545.997 246.517 545.997C272.404 545.997 293.426 524.64 293.426 498.337C293.425 489.516 291.016 480.868 286.465 473.357C281.914 465.845 275.401 459.763 267.65 455.789L246.517 498.337V450.679Z" fill="white"/>
</g>
</mask>
<g mask="url(#mask1_7038_225)">
<g id="Group_6">
<path id="Vector_22" fill-rule="evenodd" clip-rule="evenodd" d="M246.808 498.49L282.996 528.849C282.996 528.849 282.041 542.749 276.854 543.608C271.486 544.493 255.8 541.681 250.791 534.162C245.784 526.642 246.808 498.49 246.808 498.49Z" fill="black" fill-opacity="0.41"/>
</g>
</g>
</g>
<path id="Vector_23" fill-rule="evenodd" clip-rule="evenodd" d="M246.517 450.679C220.61 450.679 199.606 472.018 199.606 498.337C199.606 524.64 220.627 545.997 246.517 545.997C256.346 545.996 265.927 542.859 273.907 537.029L246.517 498.337V450.679Z" fill="#31DECD"/>
<g id="Group_7">
<path id="Vector_24" fill-rule="evenodd" clip-rule="evenodd" d="M177.158 466.224C177.707 466.217 178.242 466.044 178.694 465.728C179.147 465.412 179.497 464.967 179.701 464.449C179.905 463.93 179.952 463.362 179.838 462.817C179.724 462.271 179.453 461.771 179.06 461.382C178.666 460.993 178.168 460.731 177.628 460.629C177.088 460.527 176.53 460.591 176.025 460.811C175.521 461.032 175.092 461.399 174.793 461.867C174.494 462.335 174.338 462.883 174.346 463.441C174.356 464.189 174.658 464.902 175.185 465.423C175.712 465.945 176.422 466.233 177.158 466.224ZM177.133 464.343C176.95 464.346 176.77 464.293 176.617 464.192C176.463 464.091 176.343 463.945 176.27 463.775C176.198 463.604 176.177 463.415 176.21 463.232C176.244 463.049 176.33 462.88 176.457 462.747C176.585 462.614 176.749 462.522 176.928 462.483C177.107 462.445 177.293 462.461 177.463 462.53C177.633 462.598 177.779 462.717 177.883 462.87C177.987 463.023 178.044 463.204 178.046 463.39C178.049 463.64 177.954 463.88 177.783 464.058C177.612 464.237 177.378 464.339 177.133 464.343Z" fill="#B2B7F0"/>
<path id="Vector_25" fill-rule="evenodd" clip-rule="evenodd" d="M200.51 472.006L194.643 462.674C194.558 462.54 194.441 462.429 194.302 462.353C194.163 462.277 194.008 462.239 193.85 462.24C193.85 462.24 184.732 462.363 178.959 462.438C178.837 462.439 178.717 462.465 178.605 462.514C178.494 462.563 178.393 462.633 178.308 462.722C178.223 462.81 178.156 462.915 178.111 463.03C178.066 463.144 178.044 463.267 178.045 463.39C178.047 463.514 178.073 463.636 178.121 463.749C178.169 463.863 178.238 463.966 178.325 464.052C178.412 464.138 178.515 464.206 178.628 464.251C178.741 464.297 178.862 464.32 178.983 464.318L193.36 464.127L198.951 473.019C199.016 473.124 199.1 473.216 199.2 473.288C199.3 473.36 199.413 473.411 199.532 473.439C199.651 473.466 199.775 473.469 199.896 473.448C200.016 473.427 200.131 473.381 200.235 473.314C200.338 473.247 200.427 473.16 200.497 473.058C200.566 472.956 200.616 472.84 200.641 472.719C200.667 472.597 200.668 472.472 200.646 472.349C200.623 472.227 200.577 472.111 200.51 472.007V472.006Z" fill="#B2B7F0"/>
</g>
<g id="Group_8">
<path id="Vector_26" fill-rule="evenodd" clip-rule="evenodd" d="M312.301 536.916C311.752 536.923 311.217 537.096 310.764 537.412C310.312 537.728 309.961 538.173 309.758 538.691C309.554 539.209 309.506 539.777 309.62 540.323C309.735 540.869 310.006 541.368 310.399 541.758C310.793 542.147 311.291 542.409 311.831 542.511C312.371 542.612 312.929 542.549 313.433 542.328C313.938 542.108 314.367 541.74 314.666 541.272C314.965 540.804 315.12 540.256 315.113 539.698C315.103 538.951 314.801 538.238 314.274 537.716C313.746 537.194 313.037 536.907 312.301 536.916ZM312.326 538.796C312.509 538.794 312.688 538.847 312.842 538.948C312.995 539.049 313.116 539.194 313.188 539.365C313.26 539.536 313.281 539.725 313.248 539.908C313.215 540.091 313.129 540.259 313.001 540.392C312.873 540.526 312.71 540.617 312.531 540.656C312.352 540.695 312.165 540.679 311.995 540.61C311.825 540.541 311.679 540.423 311.576 540.269C311.472 540.116 311.415 539.935 311.413 539.749C311.41 539.5 311.504 539.26 311.675 539.081C311.847 538.903 312.08 538.8 312.326 538.796Z" fill="#1B81A6"/>
<path id="Vector_27" fill-rule="evenodd" clip-rule="evenodd" d="M288.948 531.134L294.815 540.465C294.9 540.6 295.018 540.711 295.156 540.786C295.295 540.862 295.45 540.901 295.608 540.899C295.608 540.899 304.726 540.777 310.499 540.702C310.621 540.7 310.741 540.674 310.853 540.626C310.964 540.577 311.065 540.506 311.15 540.418C311.235 540.329 311.302 540.225 311.347 540.11C311.392 539.995 311.414 539.873 311.413 539.749C311.411 539.626 311.385 539.504 311.337 539.39C311.289 539.277 311.22 539.174 311.133 539.088C311.046 539.002 310.943 538.934 310.83 538.888C310.717 538.843 310.596 538.82 310.475 538.821L296.098 539.012L290.507 530.121C290.442 530.017 290.357 529.927 290.257 529.856C290.158 529.786 290.045 529.736 289.927 529.709C289.808 529.683 289.685 529.68 289.566 529.702C289.446 529.723 289.332 529.769 289.229 529.835C289.127 529.902 289.038 529.988 288.969 530.089C288.899 530.19 288.85 530.304 288.824 530.425C288.798 530.546 288.795 530.67 288.817 530.792C288.838 530.913 288.882 531.029 288.948 531.133V531.134Z" fill="#1B81A6"/>
</g>
<path id="Vector_28" fill-rule="evenodd" clip-rule="evenodd" d="M113.201 654.927C113.613 664.305 105.719 666.71 109.822 669.388C114.483 672.431 139.076 675.776 141.168 673.181C145.75 667.501 130.98 665.944 128.559 662.852C126.832 660.647 129.119 655.902 126.647 654.627C124.086 653.305 113.006 650.454 113.201 654.927Z" fill="#98DED9"/>
<g id="Clip path group_3">
<mask id="mask2_7038_225" style="mask-type:luminance" maskUnits="userSpaceOnUse" x="108" y="652" width="35" height="23">
<g id="d">
<path id="Vector_29" d="M113.201 654.927C113.613 664.305 105.719 666.71 109.822 669.388C114.483 672.431 139.076 675.776 141.168 673.181C145.75 667.501 130.98 665.944 128.559 662.852C126.832 660.647 129.119 655.902 126.647 654.627C124.086 653.305 113.006 650.454 113.201 654.927Z" fill="white"/>
</g>
</mask>
<g mask="url(#mask2_7038_225)">
<g id="Group_9">
<path id="Vector_30" fill-rule="evenodd" clip-rule="evenodd" d="M131.662 660.612C131.763 663.419 122.207 660.918 116.964 664.24C113.351 666.531 106.206 663.377 106.104 660.57C106.003 657.764 112.092 647.393 116.352 647.399C120.612 647.405 131.56 657.806 131.662 660.612Z" fill="black" fill-opacity="0.23"/>
</g>
</g>
</g>
<path id="Vector_31" fill-rule="evenodd" clip-rule="evenodd" d="M111.861 559.292C105.194 581.727 118.804 584.624 126.977 606.798C130.722 616.958 107.939 643.972 108.704 652.634C109.411 660.611 126.267 664.696 131.573 658.77C138.686 650.824 150.852 621.799 151.389 604.958C151.806 591.904 142.016 565.359 135.427 557.748C130.23 551.742 114.137 551.635 111.861 559.292Z" fill="#151C6C"/>
<g id="Clip path group_4">
<mask id="mask3_7038_225" style="mask-type:luminance" maskUnits="userSpaceOnUse" x="108" y="553" width="44" height="109">
<g id="e">
<path id="Vector_32" d="M111.861 559.292C105.194 581.727 118.804 584.624 126.977 606.798C130.722 616.958 107.939 643.972 108.704 652.634C109.411 660.611 126.267 664.696 131.573 658.77C138.686 650.824 150.852 621.799 151.389 604.958C151.806 591.904 142.016 565.359 135.427 557.748C130.23 551.742 114.137 551.635 111.861 559.292Z" fill="white"/>
</g>
</mask>
<g mask="url(#mask3_7038_225)">
<g id="Group_10">
<path id="Vector_33" fill-rule="evenodd" clip-rule="evenodd" d="M112.022 589.313C115.988 595.031 123.847 596.562 129.22 600.936C134.741 605.432 141.099 610.09 145.148 616.282C149.368 622.737 151.653 641.743 154.547 639.671C157.441 637.599 163.096 613.57 162.507 603.857C161.997 595.434 156.089 588.07 151.01 581.393C144.58 572.941 132.232 556.624 123.925 553.14C116.566 550.053 103.147 554.455 101.162 560.483C99.1773 566.512 107.345 582.57 112.022 589.313Z" fill="black" fill-opacity="0.2"/>
</g>
</g>
</g>
<path id="Vector_34" fill-rule="evenodd" clip-rule="evenodd" d="M136.663 665.481C136.656 665.515 136.647 665.548 136.636 665.58C136.593 665.696 136.544 665.809 136.489 665.92C136.156 666.634 135.729 667.296 135.349 667.983C135.216 668.189 135.109 668.41 135.03 668.643C134.994 668.759 134.992 668.884 135.024 669.001C135.055 669.119 135.119 669.225 135.207 669.307C135.308 669.387 135.426 669.443 135.551 669.471C135.676 669.499 135.805 669.498 135.93 669.469C136.293 669.378 136.644 669.241 136.973 669.06C137.851 668.616 138.494 668.379 138.971 668.285C139.332 668.214 139.565 668.221 139.719 668.302C139.777 668.341 139.827 668.394 139.863 668.455C139.899 668.516 139.921 668.585 139.927 668.656C139.955 668.78 140.004 668.898 140.071 669.005C140.143 669.105 140.247 669.176 140.366 669.205C140.485 669.234 140.611 669.22 140.721 669.164C140.792 669.129 140.852 669.077 140.898 669.012C140.943 668.947 140.971 668.872 140.98 668.793C140.989 668.714 140.978 668.634 140.948 668.56C140.918 668.487 140.87 668.422 140.809 668.373C140.732 668.04 140.542 667.747 140.271 667.544C139.965 667.348 139.602 667.263 139.241 667.304C138.678 667.336 137.833 667.574 136.559 668.219C136.504 668.247 136.356 668.306 136.199 668.367C136.579 667.688 136.996 667.029 137.325 666.323C137.425 666.11 137.659 665.556 137.605 665.202C137.59 665.048 137.525 664.903 137.421 664.791C137.316 664.679 137.178 664.605 137.027 664.581C136.717 664.525 136.399 664.536 136.094 664.614C135.69 664.706 135.278 664.872 134.96 664.976C133.608 665.422 132.315 666.026 130.994 666.55C130.783 666.633 130.203 666.927 129.706 667.027C129.608 667.043 129.51 667.049 129.412 667.046C129.416 667.032 129.423 667.017 129.427 667.002C129.447 666.926 129.474 666.852 129.51 666.783C129.62 666.573 129.746 666.373 129.888 666.184C130.569 665.211 132.269 663.523 133.397 663.065C133.509 663.017 133.598 662.927 133.645 662.813C133.692 662.7 133.694 662.572 133.649 662.457C133.604 662.342 133.516 662.25 133.405 662.201C133.294 662.151 133.168 662.148 133.054 662.192C131.799 662.7 129.892 664.557 129.134 665.637C128.959 665.887 128.628 666.358 128.527 666.777C128.456 667.033 128.483 667.307 128.604 667.543C128.78 667.862 129.122 668.02 129.571 667.994C130.181 667.957 131.049 667.537 131.33 667.426C132.634 666.908 133.911 666.31 135.245 665.871C135.494 665.789 135.805 665.665 136.121 665.576C136.297 665.52 136.479 665.488 136.663 665.481Z" fill="black"/>
<path id="Vector_35" fill-rule="evenodd" clip-rule="evenodd" d="M170.536 653.854C175.553 661.737 169.934 667.863 174.807 668.069C180.341 668.305 203.232 658.577 203.749 655.263C204.88 648.01 191.357 654.243 187.731 652.816C185.145 651.799 184.76 646.53 181.993 646.698C179.125 646.87 168.144 650.093 170.536 653.854Z" fill="#98DED9"/>
<g id="Clip path group_5">
<mask id="mask4_7038_225" style="mask-type:luminance" maskUnits="userSpaceOnUse" x="170" y="646" width="34" height="23">
<g id="f">
<path id="Vector_36" d="M170.536 653.854C175.553 661.737 169.934 667.863 174.807 668.069C180.341 668.305 203.232 658.577 203.749 655.263C204.88 648.01 191.357 654.243 187.731 652.816C185.145 651.799 184.76 646.53 181.993 646.698C179.125 646.87 168.144 650.093 170.536 653.854Z" fill="white"/>
</g>
</mask>
<g mask="url(#mask4_7038_225)">
<g id="Group_11">
<path id="Vector_37" fill-rule="evenodd" clip-rule="evenodd" d="M189.428 650.777C190.668 653.288 180.952 655.045 177.541 660.279C175.19 663.888 167.402 664.033 166.162 661.523C164.922 659.013 166.222 647.01 170.1 645.218C173.978 643.426 188.188 648.268 189.428 650.777Z" fill="black" fill-opacity="0.23"/>
</g>
</g>
</g>
<path id="Vector_38" fill-rule="evenodd" clip-rule="evenodd" d="M121.234 573.544C123.436 590.185 140.334 591.288 158.832 605.692C167.307 612.293 162.076 647.467 167.244 654.401C172.004 660.785 188.023 655.088 189.838 647.293C192.336 636.567 190.563 604.609 182.234 590.038C175.778 578.741 150.581 562.294 140.414 559.546C132.808 557.489 119.513 560.536 121.234 573.544Z" fill="#1B81A6"/>
<path id="Vector_39" fill-rule="evenodd" clip-rule="evenodd" d="M196.033 650.928C196.044 650.96 196.052 650.993 196.058 651.027C196.079 651.149 196.093 651.272 196.101 651.396C196.168 652.183 196.129 652.973 196.142 653.761C196.13 654.007 196.147 654.253 196.194 654.495C196.222 654.613 196.282 654.722 196.367 654.807C196.453 654.893 196.561 654.952 196.678 654.977C196.805 654.994 196.934 654.982 197.056 654.942C197.177 654.902 197.289 654.835 197.382 654.746C197.651 654.481 197.885 654.183 198.079 653.858C198.616 653.024 199.054 652.49 199.418 652.164C199.695 651.918 199.9 651.805 200.073 651.795C200.143 651.799 200.211 651.819 200.273 651.853C200.335 651.888 200.388 651.936 200.429 651.994C200.514 652.086 200.615 652.163 200.726 652.221C200.838 652.271 200.963 652.278 201.08 652.242C201.198 652.206 201.299 652.129 201.366 652.025C201.41 651.959 201.436 651.883 201.443 651.803C201.45 651.724 201.437 651.645 201.405 651.572C201.374 651.499 201.324 651.436 201.262 651.388C201.2 651.34 201.126 651.308 201.049 651.297C200.818 651.049 200.507 650.893 200.173 650.857C199.81 650.845 199.455 650.958 199.164 651.179C198.694 651.495 198.082 652.134 197.304 653.344C197.27 653.397 197.172 653.523 197.066 653.657C197.057 652.875 197.089 652.093 197.023 651.315C197.003 651.08 196.929 650.482 196.707 650.203C196.618 650.078 196.49 649.987 196.344 649.943C196.197 649.9 196.041 649.907 195.9 649.964C195.604 650.074 195.335 650.247 195.11 650.471C194.808 650.757 194.534 651.113 194.312 651.366C193.366 652.443 192.55 653.628 191.67 654.759C191.53 654.938 191.175 655.49 190.796 655.831C190.72 655.895 190.638 655.951 190.551 655.998C190.548 655.984 190.547 655.967 190.543 655.952C190.522 655.876 190.51 655.799 190.506 655.72C190.496 655.483 190.506 655.245 190.534 655.01C190.639 653.821 191.267 651.491 192.014 650.517C192.087 650.419 192.119 650.295 192.103 650.172C192.088 650.05 192.025 649.938 191.929 649.863C191.833 649.787 191.712 649.752 191.591 649.766C191.47 649.781 191.36 649.843 191.283 649.939C190.453 651.022 189.73 653.603 189.612 654.924C189.585 655.23 189.534 655.806 189.655 656.22C189.72 656.477 189.88 656.699 190.102 656.841C190.412 657.027 190.786 656.987 191.16 656.735C191.669 656.39 192.209 655.582 192.396 655.342C193.264 654.226 194.07 653.055 195.003 651.992C195.177 651.793 195.384 651.526 195.613 651.288C195.737 651.149 195.878 651.028 196.033 650.928Z" fill="black"/>
<path id="Vector_40" fill-rule="evenodd" clip-rule="evenodd" d="M131.888 517.195C139.662 518.235 141.609 542.255 148.685 545.705C155.761 549.155 169.631 539.184 174.344 537.898C174.974 537.726 175.067 534.963 176.069 533.525C177.002 532.187 177.816 533.25 177.07 536.467C176.885 537.271 178.597 534.451 179.517 533.852C182.001 532.234 184.459 538.317 176.025 543.29C170.73 546.413 154.304 558.673 145.769 557.427C137.235 556.181 127.331 542.437 124.822 535.805C121.326 526.57 127.432 516.598 131.888 517.195Z" fill="#624A4A"/>
<path id="Vector_41" fill-rule="evenodd" clip-rule="evenodd" d="M137.677 508.048C138.641 508.835 134.985 511.59 135.402 513.525C135.929 515.979 140.999 519.722 140.842 522.772C140.684 525.821 136.851 532.067 134.461 531.817C132.071 531.566 127.306 525.099 126.499 521.264C125.693 517.43 127.751 511.005 129.615 508.802C131.373 506.722 136.711 507.261 137.677 508.048Z" fill="#15141F"/>
<path id="Vector_42" fill-rule="evenodd" clip-rule="evenodd" d="M110.249 560.958C112.144 568.22 126.988 565.117 132.227 567.792C147.941 575.809 153.46 568.937 147.802 559.484C143.98 553.095 142.327 548.35 140.769 542.377C139.173 536.255 138.815 527.333 138.224 522.759C137.301 515.585 127.511 514.369 120.863 524.229C116.329 530.953 108.355 553.698 110.249 560.958Z" fill="#98DED9"/>
<g id="Clip path group_6">
<mask id="mask5_7038_225" style="mask-type:luminance" maskUnits="userSpaceOnUse" x="109" y="517" width="41" height="55">
<g id="g">
<path id="Vector_43" d="M110.249 560.958C112.144 568.22 126.988 565.117 132.227 567.792C147.941 575.809 153.46 568.937 147.802 559.484C143.98 553.095 142.327 548.35 140.769 542.377C139.173 536.255 138.815 527.333 138.224 522.759C137.301 515.585 127.511 514.369 120.863 524.229C116.329 530.953 108.355 553.698 110.249 560.958Z" fill="white"/>
</g>
</mask>
<g mask="url(#mask5_7038_225)">
<g id="Group_12">
<path id="Vector_44" fill-rule="evenodd" clip-rule="evenodd" d="M145.235 545.043V554.035C145.235 554.971 145.569 555.85 146.132 556.399C146.695 556.949 147.42 557.104 148.081 556.815C147.42 557.104 146.901 557.801 146.685 558.691C146.47 559.574 146.58 560.506 146.995 561.312L150.927 568.588L146.995 561.311C146.586 560.555 145.931 560.106 145.235 560.106C144.539 560.106 143.887 560.555 143.477 561.311C143.892 560.505 144.002 559.573 143.785 558.69C143.571 557.8 143.052 557.104 142.39 556.814C143.052 557.103 143.777 556.948 144.34 556.399C144.903 555.85 145.235 554.971 145.235 554.035V545.043Z" fill="#30958E"/>
<path id="Vector_45" fill-rule="evenodd" clip-rule="evenodd" d="M131.538 528.067C128.63 527.609 129.391 537.559 130.637 542.059C133.148 551.125 140.004 553.893 141.033 558.407C141.887 562.163 136.811 566.448 136.8 569.143C136.793 571.44 138.782 575.144 140.973 574.577C145.084 573.515 160.286 567.724 161.471 562.764C162.655 557.803 152.952 550.451 148.08 544.802C143.09 539.019 134.445 528.524 131.538 528.067Z" fill="black" fill-opacity="0.2"/>
<path id="Vector_46" fill-rule="evenodd" clip-rule="evenodd" d="M113.683 545.911V553.815C113.683 554.638 113.977 555.41 114.471 555.893C114.687 556.123 114.966 556.282 115.272 556.347C115.578 556.413 115.896 556.382 116.184 556.259L121.777 553.816L116.185 556.258C115.604 556.512 115.148 557.125 114.958 557.906C114.769 558.682 114.866 559.502 115.23 560.21C114.87 559.546 114.296 559.151 113.684 559.151C113.072 559.151 112.498 559.546 112.139 560.21C112.504 559.502 112.6 558.682 112.41 557.906C112.222 557.125 111.765 556.512 111.183 556.258L105.59 553.815L111.182 556.258C111.471 556.381 111.789 556.412 112.096 556.347C112.402 556.281 112.681 556.123 112.896 555.892C113.391 555.41 113.684 554.637 113.684 553.814L113.683 545.911Z" fill="#30958E"/>
<path id="Vector_47" fill-rule="evenodd" clip-rule="evenodd" d="M119.127 533.593V541.497C119.127 542.319 119.421 543.092 119.916 543.575C120.131 543.805 120.41 543.963 120.716 544.029C121.022 544.094 121.34 544.063 121.629 543.94C121.047 544.195 120.591 544.807 120.402 545.589C120.212 546.364 120.309 547.184 120.673 547.892L124.13 554.287L120.674 547.892C120.314 547.227 119.74 546.832 119.128 546.832C118.516 546.832 117.942 547.227 117.583 547.892C117.947 547.183 118.044 546.364 117.853 545.588C117.666 544.806 117.209 544.193 116.627 543.94C116.915 544.063 117.234 544.094 117.54 544.028C117.846 543.963 118.125 543.804 118.341 543.574C118.836 543.091 119.128 542.319 119.128 541.496L119.127 533.593Z" fill="#30958E"/>
<path id="Vector_48" fill-rule="evenodd" clip-rule="evenodd" d="M124.805 553.131C124.805 554.282 125.216 555.363 125.908 556.039C126.601 556.715 127.492 556.905 128.306 556.55C127.492 556.905 126.854 557.763 126.589 558.857C126.324 559.943 126.459 561.09 126.969 562.082C126.466 561.152 125.661 560.599 124.805 560.599C123.949 560.599 123.146 561.152 122.643 562.082C123.153 561.09 123.288 559.943 123.021 558.857C122.758 557.763 122.12 556.905 121.304 556.55C122.12 556.905 123.01 556.715 123.703 556.039C124.396 555.363 124.805 554.282 124.805 553.131Z" fill="#30958E"/>
<path id="Vector_49" fill-rule="evenodd" clip-rule="evenodd" d="M129.88 544.704C129.88 545.527 130.173 546.299 130.668 546.782C130.883 547.012 131.162 547.171 131.468 547.236C131.774 547.302 132.093 547.271 132.381 547.148C131.799 547.402 131.344 548.014 131.154 548.796C130.965 549.572 131.061 550.391 131.426 551.1C131.066 550.435 130.491 550.04 129.88 550.04C129.268 550.04 128.694 550.435 128.335 551.1C128.699 550.392 128.796 549.572 128.605 548.796C128.418 548.014 127.961 547.402 127.379 547.148C127.667 547.271 127.985 547.302 128.292 547.236C128.598 547.171 128.877 547.013 129.092 546.782C129.587 546.299 129.88 545.527 129.88 544.704Z" fill="#30958E"/>
<path id="Vector_50" fill-rule="evenodd" clip-rule="evenodd" d="M126.156 530.926V536.763C126.149 537.045 126.196 537.326 126.296 537.59C126.396 537.853 126.546 538.093 126.738 538.298C126.897 538.468 127.103 538.585 127.329 538.633C127.555 538.682 127.79 538.659 128.003 538.568L132.133 536.764L128.003 538.568C127.573 538.755 127.236 539.208 127.097 539.785C126.957 540.358 127.028 540.963 127.297 541.486C127.031 540.996 126.607 540.704 126.155 540.704C125.703 540.704 125.28 540.996 125.014 541.486C125.283 540.963 125.355 540.358 125.214 539.785C125.075 539.208 124.738 538.755 124.308 538.568C124.521 538.658 124.756 538.681 124.982 538.633C125.208 538.585 125.415 538.468 125.574 538.297C125.765 538.093 125.915 537.852 126.015 537.589C126.115 537.326 126.162 537.045 126.155 536.763L126.156 530.926ZM134.565 559.101C134.558 559.383 134.605 559.664 134.705 559.927C134.805 560.191 134.955 560.431 135.147 560.635C135.306 560.806 135.512 560.923 135.738 560.971C135.964 561.019 136.199 560.997 136.412 560.906C135.983 561.093 135.646 561.546 135.506 562.123C135.366 562.696 135.437 563.301 135.707 563.824C135.441 563.334 135.017 563.042 134.564 563.042C134.112 563.042 133.689 563.334 133.423 563.824C133.693 563.301 133.764 562.696 133.623 562.123C133.484 561.546 133.147 561.093 132.717 560.906L128.588 559.101L132.718 560.906C132.931 560.997 133.166 561.019 133.392 560.971C133.618 560.923 133.825 560.806 133.984 560.635C134.175 560.431 134.325 560.191 134.425 559.927C134.525 559.664 134.572 559.383 134.565 559.101Z" fill="#30958E"/>
<path id="Vector_51" fill-rule="evenodd" clip-rule="evenodd" d="M128.573 515.524V523.472C128.573 524.298 128.868 525.075 129.366 525.561C129.582 525.792 129.863 525.952 130.17 526.017C130.478 526.083 130.798 526.052 131.088 525.928C130.503 526.183 130.045 526.799 129.854 527.585C129.664 528.366 129.761 529.189 130.128 529.902L133.604 536.332L130.129 529.902C129.768 529.234 129.19 528.837 128.575 528.837C127.959 528.837 127.383 529.234 127.021 529.902L123.543 536.332L127.019 529.902C127.386 529.19 127.483 528.366 127.292 527.586C127.102 526.8 126.644 526.184 126.058 525.928C126.348 526.052 126.668 526.083 126.976 526.018C127.284 525.952 127.565 525.793 127.781 525.561C128.279 525.076 128.573 524.299 128.573 523.472V515.524Z" fill="#30958E"/>
<path id="Vector_52" fill-rule="evenodd" clip-rule="evenodd" d="M118.785 517.816V528.205C118.785 529.287 119.17 530.302 119.821 530.937C120.471 531.571 121.308 531.75 122.072 531.417C121.308 531.751 120.709 532.556 120.46 533.584C120.211 534.604 120.338 535.681 120.818 536.612C120.345 535.738 119.589 535.219 118.785 535.219C117.981 535.219 117.227 535.738 116.754 536.612C117.233 535.681 117.36 534.603 117.11 533.584C116.862 532.556 116.263 531.75 115.498 531.417L108.147 528.205L115.497 531.417C116.262 531.751 117.099 531.571 117.75 530.937C118.401 530.302 118.785 529.287 118.785 528.205L118.785 517.816Z" fill="#30958E"/>
</g>
</g>
</g>
<g id="Group_13">
<path id="Vector_53" fill-rule="evenodd" clip-rule="evenodd" d="M218.774 482.552C228.362 490.572 229.598 505.165 221.532 515.118C213.466 525.071 199.132 526.64 189.543 518.619C179.955 510.598 178.719 496.004 186.786 486.052C194.852 476.099 209.185 474.531 218.774 482.552ZM215.12 487.06C222.311 493.075 223.238 504.02 217.189 511.484C211.139 518.949 200.388 520.125 193.197 514.11C186.006 508.095 185.079 497.15 191.129 489.685C197.179 482.22 207.928 481.044 215.12 487.06Z" fill="#192280"/>
<path id="Vector_54" fill-rule="evenodd" clip-rule="evenodd" d="M195.416 516.971C195.416 516.97 195.417 516.969 195.417 516.969C195.417 516.968 195.417 516.967 195.417 516.966C195.417 516.964 195.416 516.963 195.415 516.961L192.712 514.7C192.358 514.404 191.949 514.181 191.51 514.045C191.07 513.908 190.609 513.861 190.152 513.906C189.694 513.951 189.25 514.088 188.845 514.307C188.44 514.526 188.081 514.825 187.789 515.185L171.846 534.857C171.257 535.584 170.975 536.52 171.065 537.458C171.154 538.396 171.607 539.26 172.323 539.859L174.484 541.667C174.556 541.727 174.639 541.772 174.728 541.8C174.817 541.827 174.91 541.837 175.003 541.828C175.095 541.818 175.185 541.791 175.267 541.746C175.349 541.702 175.422 541.641 175.481 541.568L195.416 516.971Z" fill="#192280"/>
<path id="Vector_55" fill-rule="evenodd" clip-rule="evenodd" d="M187.048 529.93C187.05 529.928 187.051 529.927 187.05 529.925C187.05 529.923 187.049 529.921 187.047 529.92L183.073 526.595C182.019 525.714 180.664 525.294 179.305 525.427C177.947 525.561 176.696 526.238 175.828 527.308L161.982 544.392C161.115 545.463 160.701 546.84 160.832 548.221C160.964 549.601 161.63 550.872 162.683 551.754L166.117 554.627C166.189 554.687 166.272 554.732 166.361 554.759C166.45 554.787 166.543 554.796 166.636 554.787C166.728 554.778 166.818 554.75 166.9 554.705C166.982 554.661 167.055 554.6 167.114 554.527L187.048 529.93Z" fill="#1B81A6"/>
</g>
<path id="Vector_56" fill-rule="evenodd" clip-rule="evenodd" d="M135.786 519.774C143.626 519.677 148.925 543.169 156.413 545.559C163.902 547.949 176.23 536.069 180.714 534.114C181.314 533.852 181.017 531.104 181.807 529.535C182.543 528.076 183.497 529.01 183.212 532.302C183.141 533.125 184.44 530.085 185.267 529.359C187.498 527.397 190.785 533.062 183.135 539.206C178.332 543.064 163.795 557.579 155.174 557.583C146.552 557.586 134.819 545.418 131.404 539.218C126.647 530.583 131.291 519.829 135.786 519.774ZM126.664 504.466C127.135 508.263 134.555 513.386 137 512.533C142.258 510.703 139.204 498.489 137.549 495.888C135.894 493.287 128.89 495.499 127.076 496.929C125.262 498.358 126.323 501.703 126.664 504.466Z" fill="#806060"/>
<path id="Vector_57" fill-rule="evenodd" clip-rule="evenodd" d="M132.934 502.868C133.358 501.418 134.489 500.19 135.69 499.299C137.358 498.065 142.13 497.485 142.938 495.46C143.746 493.436 142.404 488.919 140.537 487.149C138.669 485.379 133.594 483.634 131.734 484.845C129.874 486.057 130.764 492.727 129.377 494.421C128.104 495.981 123.933 493.049 123.421 495.01C122.688 497.816 127.551 510.357 124.977 511.269C122.403 512.181 117.035 499.285 107.975 500.476C93.1776 502.419 93.1823 517.591 94.788 522.289C97.3546 529.792 106.242 534.734 112.019 534.457C117.796 534.179 125.96 525.893 129.447 520.63C132.763 515.62 131.894 506.422 132.934 502.868Z" fill="#27253A"/>
</g>
</g>
<defs>
<clipPath id="clip0_7038_225">
<rect width="430" height="932" rx="40" fill="white"/>
</clipPath>
</defs>
</svg>